<svg xmlns="http://www.w3.org/2000/svg" xmlns:xlink="http://www.w3.org/1999/xlink" version="1.1" x="0px" y="0px" viewBox="0 0 100 125" enable-background="new 0 0 100 100" xml:space="preserve"><path d="M81.362,19.661c0.127-0.816,0.294-2.821-1.105-2.976c0,0-0.014,0.01-0.034,0.026c-1.525-0.778-6.169-2.545-12.059-2.908  c-1.866-2.531-4.87-6.218-7.555-7.777c0,0-2.305,3.521-3.211,8.917c-1.597,0.469-3.204,1.096-4.798,1.909  c-3.007-0.854-7.947-2.022-11.168-1.569c0,0,0.344,3.974,2.779,8.615c-2.177,2.867-5.153,7.425-6.285,12.114  c-0.008-0.001-0.013-0.002-0.013-0.002l-0.065,0.327c-0.064,0.289-0.123,0.578-0.172,0.867c0,0,0.133,0.211,0.425,0.55l0.204,0.264  c0.009-0.002,0.018-0.005,0.026-0.007c0.283,0.302,0.667,0.67,1.163,1.069c-0.015,0.004-0.021,0.008-0.017,0.013  c0.026,0.026,0.151,0.113,0.331,0.232c0.496,0.374,1.088,0.768,1.79,1.156c0.34,0.216,0.583,0.37,0.583,0.37  c0.03-0.007,0.058-0.015,0.087-0.022c1.047,0.519,2.304,1.009,3.794,1.409c0.56,0.339,3.968,0.763,3.968,0.763  c0.012-0.007,0.024-0.015,0.036-0.022c1.863,0.207,3.974,0.275,6.37,0.132c0,0,1.44-0.154,3.63-0.624l-0.265,0.123  c0,0-0.475,2.064-1.042,3.811c0.007-0.001,0.016-0.003,0.023-0.004c-0.707,1.749-1.886,3.803-3.844,5.488  c0,0-14.635,12.659-15.33,23.341c0,0-0.079,2.167-0.142,4.708c-0.41,0.706-0.835,1.35-1.271,1.927  c-0.254,0.288-0.569,0.583-1.355,1.475l0.006,0.055c-1.31,1.208-3.053,1.973-4.545,1.973c-1.598,0-2.784-0.88-3.428-2.544  c-1.043-2.693-1.09-5.557-0.721-8.462c0.687-3.373,1.661-6.726,2.042-9.87c0.003-0.028,0.006-0.057,0.009-0.086  c0.205-1.01,0.379-2.003,0.498-2.988c0.617-5.105-0.379-13.182-5.65-14.509c-2.098-0.529-3.852-0.03-4.836,1.36  c-0.372,0.526-0.618,1.151-0.74,1.854c-1.478,1.686-1.536,4.16-0.146,7.005c0.193,0.396,0.649,0.641,1.187,0.641  c0.362,0,0.725-0.114,0.995-0.314c0.295-0.218,0.449-0.508,0.438-0.818c-0.051-1.369,0.291-2.414,0.983-3.051  c1.62-0.353,3.818,1.231,4.522,3.606c0.001,1.41-0.171,2.91-0.52,4.534c-0.374,1.741-0.923,3.459-1.455,5.119  c-0.595,1.858-1.21,3.781-1.591,5.768c-0.394,2.054-0.964,6.125-0.265,9.924c0.094,3.033,0.76,6.003,2.46,8.113  c3.143,3.9,8.548,4.422,12.214,1.202c1.395-1.224,2.556-2.627,3.52-4.179h27.714c0,0-3.214-8.338-1.303-16.763  c0,0,9.206-11.899,3.3-22.061c0,0-1.449-3.139-3.545-6.485c-0.349-0.609-0.701-1.205-1.178-1.853l-0.003,0.001  C74.552,37.612,83.467,31.615,81.362,19.661z M73.088,22.593c-1.58,0.758-3.163,0.744-3.536-0.032s0.606-2.02,2.186-2.779  c1.58-0.758,3.163-0.744,3.536,0.032S74.668,21.835,73.088,22.593z"/></svg>
