<svg xmlns="http://www.w3.org/2000/svg" xmlns:xlink="http://www.w3.org/1999/xlink" version="1.1" x="0px" y="0px" viewBox="0 0 100 125"><defs><g id="a"><path fill="#000000" stroke="none" d=" M 41.95 24.2 L 41.6 24.2 Q 41.6 28.25 46.55 32.6 L 46.55 36.5 Q 46.35 37.2 44.85 37.85 L 39.95 37.45 36.45 38.45 Q 33.15 35.45 33.15 32.85 L 33.15 32.6 Q 35.45 26.7 35.45 24.5 L 35.45 22.9 Q 28.9 28.9 28.9 31.65 28.9 32.7 32.8 40.4 30.6 46.15 30.6 49.5 L 30.6 50.5 Q 30.6 54.35 31.2 54.35 31.2 59.95 34.15 66.7 L 35.45 71.9 34.85 73.85 Q 35.25 74.5 35.7 74.8 L 37.45 74.8 39.4 74.15 Q 36.45 64.4 36.45 60.55 36.7 57.95 38 54.35 41.6 54.35 41.6 58.5 L 41.6 58.9 40.95 62.8 41.3 70.9 Q 41.85 71.9 42.25 71.9 L 44.25 71.3 43.6 65.7 43.6 65.1 43.9 65.1 45.45 71.3 44.25 77.1 Q 44.25 77.75 44.85 77.75 L 48.1 77.75 50.05 77.1 Q 50.05 76.7 49.7 76.45 L 48.4 63.1 Q 48.4 61.35 49.1 60.25 L 52 60.25 Q 54.05 59.95 55.9 58.5 L 56.3 58.5 Q 59.15 71.9 59.8 72.5 59.8 76.45 63.35 76.45 64.75 76.45 65.9 75.8 62.75 72.2 62.75 65.35 L 62.75 62.45 62 56.95 62.75 52.7 61.75 42.35 Q 64.95 37.45 64.95 31.65 66.95 31.65 68.55 26.8 L 68.8 26.8 70.5 27.7 71.1 27.7 Q 70.5 26.6 70.5 25.2 70.5 22.65 67.25 22.65 59.45 22.65 59.45 25.2 L 53 24.85 Q 50.8 22.25 50.05 22.25 46.35 22.25 41.95 24.2 Z"/></g></defs><g transform="matrix( 1, 0, 0, 1, 0,0) "><use xlink:href="#a"/></g></svg>
