solid OpenSCAD_Model
  facet normal 0 -0.707107 -0.707107
    outer loop
      vertex -44.8 -30.8 -0.000499725
      vertex 44.8 -33.8 2.9995
      vertex -44.8 -33.8 2.9995
    endloop
  endfacet
  facet normal 0 -0.707107 -0.707107
    outer loop
      vertex 44.8 -33.8 2.9995
      vertex -44.8 -30.8 -0.000499725
      vertex 44.8 -30.8 -0.000499725
    endloop
  endfacet
  facet normal -0.707107 0 -0.707107
    outer loop
      vertex -44.8 -30.8 -0.000499725
      vertex -47.8 30.8 2.9995
      vertex -44.8 30.8 -0.000499725
    endloop
  endfacet
  facet normal -0.707107 -0 -0.707107
    outer loop
      vertex -47.8 30.8 2.9995
      vertex -44.8 -30.8 -0.000499725
      vertex -47.8 -30.8 2.9995
    endloop
  endfacet
  facet normal 0 0.707107 -0.707107
    outer loop
      vertex 44.8 30.8 -0.000499725
      vertex -44.8 33.8 2.9995
      vertex 44.8 33.8 2.9995
    endloop
  endfacet
  facet normal 0 0.707107 -0.707107
    outer loop
      vertex -44.8 33.8 2.9995
      vertex 44.8 30.8 -0.000499725
      vertex -44.8 30.8 -0.000499725
    endloop
  endfacet
  facet normal -0.703212 -0.703212 -0.104811
    outer loop
      vertex -44.8 -33.8 2.9995
      vertex -52.5993 -35.5993 67.3995
      vertex -47.8 -30.8 2.9995
    endloop
  endfacet
  facet normal -0.703212 -0.703212 -0.104811
    outer loop
      vertex -52.5993 -35.5993 67.3995
      vertex -44.8 -33.8 2.9995
      vertex -49.5993 -38.5993 67.3995
    endloop
  endfacet
  facet normal -0.703212 0.703212 -0.104811
    outer loop
      vertex -44.8 33.8 2.9995
      vertex -52.5993 35.5993 67.3995
      vertex -49.5993 38.5993 67.3995
    endloop
  endfacet
  facet normal -0.703212 0.703212 -0.104811
    outer loop
      vertex -52.5993 35.5993 67.3995
      vertex -44.8 33.8 2.9995
      vertex -47.8 30.8 2.9995
    endloop
  endfacet
  facet normal 0.57735 0.57735 -0.57735
    outer loop
      vertex 47.8 30.8 2.9995
      vertex 44.8 30.8 -0.000499725
      vertex 44.8 33.8 2.9995
    endloop
  endfacet
  facet normal 0 -0.997235 -0.0743172
    outer loop
      vertex -44.8 -33.8 2.9995
      vertex 49.5993 -38.5993 67.3995
      vertex -49.5993 -38.5993 67.3995
    endloop
  endfacet
  facet normal 0 -0.997235 -0.0743172
    outer loop
      vertex 49.5993 -38.5993 67.3995
      vertex -44.8 -33.8 2.9995
      vertex 44.8 -33.8 2.9995
    endloop
  endfacet
  facet normal 0 0 -1
    outer loop
      vertex -44.8 -30.8 -0.000499725
      vertex 44.8 30.8 -0.000499725
      vertex 44.8 -30.8 -0.000499725
    endloop
  endfacet
  facet normal -0 0 -1
    outer loop
      vertex 44.8 30.8 -0.000499725
      vertex -44.8 -30.8 -0.000499725
      vertex -44.8 30.8 -0.000499725
    endloop
  endfacet
  facet normal 0.703212 0.703212 -0.104811
    outer loop
      vertex 52.5993 35.5993 67.3995
      vertex 44.8 33.8 2.9995
      vertex 49.5993 38.5993 67.3995
    endloop
  endfacet
  facet normal 0.703212 0.703212 -0.104811
    outer loop
      vertex 44.8 33.8 2.9995
      vertex 52.5993 35.5993 67.3995
      vertex 47.8 30.8 2.9995
    endloop
  endfacet
  facet normal -0.997235 0 -0.0743172
    outer loop
      vertex -47.8 -30.8 2.9995
      vertex -52.5993 35.5993 67.3995
      vertex -47.8 30.8 2.9995
    endloop
  endfacet
  facet normal -0.997235 -0 -0.0743172
    outer loop
      vertex -52.5993 35.5993 67.3995
      vertex -47.8 -30.8 2.9995
      vertex -52.5993 -35.5993 67.3995
    endloop
  endfacet
  facet normal -0.57735 0.57735 -0.57735
    outer loop
      vertex -44.8 30.8 -0.000499725
      vertex -47.8 30.8 2.9995
      vertex -44.8 33.8 2.9995
    endloop
  endfacet
  facet normal 0.997235 0 -0.0743172
    outer loop
      vertex 52.5993 35.5993 67.3995
      vertex 47.8 -30.8 2.9995
      vertex 47.8 30.8 2.9995
    endloop
  endfacet
  facet normal 0.997235 0 -0.0743172
    outer loop
      vertex 47.8 -30.8 2.9995
      vertex 52.5993 35.5993 67.3995
      vertex 52.5993 -35.5993 67.3995
    endloop
  endfacet
  facet normal 0.703212 -0.703212 -0.104811
    outer loop
      vertex 52.5993 -35.5993 67.3995
      vertex 44.8 -33.8 2.9995
      vertex 47.8 -30.8 2.9995
    endloop
  endfacet
  facet normal 0.703212 -0.703212 -0.104811
    outer loop
      vertex 44.8 -33.8 2.9995
      vertex 52.5993 -35.5993 67.3995
      vertex 49.5993 -38.5993 67.3995
    endloop
  endfacet
  facet normal -0.57735 -0.57735 -0.57735
    outer loop
      vertex -44.8 -33.8 2.9995
      vertex -47.8 -30.8 2.9995
      vertex -44.8 -30.8 -0.000499725
    endloop
  endfacet
  facet normal 0 0.997235 -0.0743172
    outer loop
      vertex 44.8 33.8 2.9995
      vertex -49.5993 38.5993 67.3995
      vertex 49.5993 38.5993 67.3995
    endloop
  endfacet
  facet normal 0 0.997235 -0.0743172
    outer loop
      vertex -49.5993 38.5993 67.3995
      vertex 44.8 33.8 2.9995
      vertex -44.8 33.8 2.9995
    endloop
  endfacet
  facet normal 0.57735 -0.57735 -0.57735
    outer loop
      vertex 47.8 -30.8 2.9995
      vertex 44.8 -33.8 2.9995
      vertex 44.8 -30.8 -0.000499725
    endloop
  endfacet
  facet normal 0.707107 0 -0.707107
    outer loop
      vertex 47.8 -30.8 2.9995
      vertex 44.8 30.8 -0.000499725
      vertex 47.8 30.8 2.9995
    endloop
  endfacet
  facet normal 0.707107 0 -0.707107
    outer loop
      vertex 44.8 30.8 -0.000499725
      vertex 47.8 -30.8 2.9995
      vertex 44.8 -30.8 -0.000499725
    endloop
  endfacet
  facet normal 0.707107 0 -0.707107
    outer loop
      vertex 55 38 69.7995
      vertex 52.6 -35.6 67.3995
      vertex 52.6 35.6 67.3995
    endloop
  endfacet
  facet normal 0.707107 0 -0.707107
    outer loop
      vertex 52.6 -35.6 67.3995
      vertex 55 38 69.7995
      vertex 55 -38 69.7995
    endloop
  endfacet
  facet normal 0 0.707107 -0.707107
    outer loop
      vertex 49.6 38.6 67.3995
      vertex -52 41 69.7995
      vertex 52 41 69.7995
    endloop
  endfacet
  facet normal 0 0.707107 -0.707107
    outer loop
      vertex -52 41 69.7995
      vertex 49.6 38.6 67.3995
      vertex -49.6 38.6 67.3995
    endloop
  endfacet
  facet normal 0 0.707107 0.707107
    outer loop
      vertex 52 41 77.8039
      vertex -51.2039 40.2039 78.6
      vertex 51.2039 40.2039 78.6
    endloop
  endfacet
  facet normal 0 0.707107 0.707107
    outer loop
      vertex -51.2039 40.2039 78.6
      vertex 52 41 77.8039
      vertex -52 41 77.8039
    endloop
  endfacet
  facet normal -0.408248 -0.408248 -0.816497
    outer loop
      vertex -52 -41 69.7995
      vertex -52.6 -35.6 67.3995
      vertex -49.6 -38.6 67.3995
    endloop
  endfacet
  facet normal -0.408248 -0.408248 -0.816497
    outer loop
      vertex -52.6 -35.6 67.3995
      vertex -52 -41 69.7995
      vertex -55 -38 69.7995
    endloop
  endfacet
  facet normal 0.408248 -0.408248 0.816497
    outer loop
      vertex 54.2039 -37.2039 78.6
      vertex 52 -41 77.8039
      vertex 55 -38 77.8039
    endloop
  endfacet
  facet normal 0.408248 -0.408248 0.816497
    outer loop
      vertex 52 -41 77.8039
      vertex 54.2039 -37.2039 78.6
      vertex 51.2039 -40.2039 78.6
    endloop
  endfacet
  facet normal 0 -1 0
    outer loop
      vertex -52 -41 77.8039
      vertex -9.9 -41 75
      vertex 52 -41 77.8039
    endloop
  endfacet
  facet normal 0 -1 0
    outer loop
      vertex -52 -41 77.8039
      vertex -9.9 -41 73
      vertex -9.9 -41 75
    endloop
  endfacet
  facet normal 0 -1 -0
    outer loop
      vertex -9.9 -41 73
      vertex -52 -41 69.7995
      vertex 9.9 -41 73
    endloop
  endfacet
  facet normal 0 -1 0
    outer loop
      vertex -52 -41 69.7995
      vertex -9.9 -41 73
      vertex -52 -41 77.8039
    endloop
  endfacet
  facet normal 0 -1 0
    outer loop
      vertex 9.9 -41 75
      vertex 52 -41 77.8039
      vertex -9.9 -41 75
    endloop
  endfacet
  facet normal 0 -1 0
    outer loop
      vertex 9.9 -41 73
      vertex 52 -41 77.8039
      vertex 9.9 -41 75
    endloop
  endfacet
  facet normal 0 -1 0
    outer loop
      vertex 9.9 -41 73
      vertex 52 -41 69.7995
      vertex 52 -41 77.8039
    endloop
  endfacet
  facet normal 0 -1 0
    outer loop
      vertex 52 -41 69.7995
      vertex 9.9 -41 73
      vertex -52 -41 69.7995
    endloop
  endfacet
  facet normal -0.408248 -0.408248 0.816497
    outer loop
      vertex -54.2039 -37.2039 78.6
      vertex -52 -41 77.8039
      vertex -51.2039 -40.2039 78.6
    endloop
  endfacet
  facet normal -0.408248 -0.408248 0.816497
    outer loop
      vertex -52 -41 77.8039
      vertex -54.2039 -37.2039 78.6
      vertex -55 -38 77.8039
    endloop
  endfacet
  facet normal 0.707107 -0.707107 0
    outer loop
      vertex 52 -41 77.8039
      vertex 55 -38 69.7995
      vertex 55 -38 77.8039
    endloop
  endfacet
  facet normal 0.707107 -0.707107 0
    outer loop
      vertex 55 -38 69.7995
      vertex 52 -41 77.8039
      vertex 52 -41 69.7995
    endloop
  endfacet
  facet normal 0.408248 0.408248 -0.816497
    outer loop
      vertex 52.6 35.6 67.3995
      vertex 52 41 69.7995
      vertex 55 38 69.7995
    endloop
  endfacet
  facet normal 0.408248 0.408248 -0.816497
    outer loop
      vertex 52 41 69.7995
      vertex 52.6 35.6 67.3995
      vertex 49.6 38.6 67.3995
    endloop
  endfacet
  facet normal 0 0 -1
    outer loop
      vertex 52.6 -35.6 67.3995
      vertex 52.5993 -35.5993 67.3995
      vertex 52.6 35.6 67.3995
    endloop
  endfacet
  facet normal 0 0 -1
    outer loop
      vertex 49.6 -38.6 67.3995
      vertex 52.5993 -35.5993 67.3995
      vertex 52.6 -35.6 67.3995
    endloop
  endfacet
  facet normal 0 0 -1
    outer loop
      vertex 49.6 -38.6 67.3995
      vertex 49.5993 -38.5993 67.3995
      vertex 52.5993 -35.5993 67.3995
    endloop
  endfacet
  facet normal 0 0 -1
    outer loop
      vertex 49.6 -38.6 67.3995
      vertex -49.5993 -38.5993 67.3995
      vertex 49.5993 -38.5993 67.3995
    endloop
  endfacet
  facet normal 0 0 -1
    outer loop
      vertex -49.6 -38.6 67.3995
      vertex -49.5993 -38.5993 67.3995
      vertex 49.6 -38.6 67.3995
    endloop
  endfacet
  facet normal 0 0 -1
    outer loop
      vertex -49.6 -38.6 67.3995
      vertex -52.5993 -35.5993 67.3995
      vertex -49.5993 -38.5993 67.3995
    endloop
  endfacet
  facet normal -0 0 -1
    outer loop
      vertex -52.5993 -35.5993 67.3995
      vertex -52.6 -35.6 67.3995
      vertex -52.5993 35.5993 67.3995
    endloop
  endfacet
  facet normal 0 0 -1
    outer loop
      vertex -52.6 -35.6 67.3995
      vertex -52.5993 -35.5993 67.3995
      vertex -49.6 -38.6 67.3995
    endloop
  endfacet
  facet normal 0 0 -1
    outer loop
      vertex 52.5993 35.5993 67.3995
      vertex 52.6 35.6 67.3995
      vertex 52.5993 -35.5993 67.3995
    endloop
  endfacet
  facet normal 0 0 -1
    outer loop
      vertex 52.5993 35.5993 67.3995
      vertex 49.6 38.6 67.3995
      vertex 52.6 35.6 67.3995
    endloop
  endfacet
  facet normal 0 0 -1
    outer loop
      vertex 49.5993 38.5993 67.3995
      vertex 49.6 38.6 67.3995
      vertex 52.5993 35.5993 67.3995
    endloop
  endfacet
  facet normal 0 0 -1
    outer loop
      vertex -49.5993 38.5993 67.3995
      vertex 49.6 38.6 67.3995
      vertex 49.5993 38.5993 67.3995
    endloop
  endfacet
  facet normal 0 0 -1
    outer loop
      vertex -49.5993 38.5993 67.3995
      vertex -49.6 38.6 67.3995
      vertex 49.6 38.6 67.3995
    endloop
  endfacet
  facet normal 0 0 -1
    outer loop
      vertex -52.5993 35.5993 67.3995
      vertex -49.6 38.6 67.3995
      vertex -49.5993 38.5993 67.3995
    endloop
  endfacet
  facet normal 0 0 -1
    outer loop
      vertex -52.5993 35.5993 67.3995
      vertex -52.6 35.6 67.3995
      vertex -49.6 38.6 67.3995
    endloop
  endfacet
  facet normal 0 0 -1
    outer loop
      vertex -52.6 35.6 67.3995
      vertex -52.5993 35.5993 67.3995
      vertex -52.6 -35.6 67.3995
    endloop
  endfacet
  facet normal 0.707107 -0 0.707107
    outer loop
      vertex 54.2039 -37.2039 78.6
      vertex 55 38 77.8039
      vertex 54.2039 37.2039 78.6
    endloop
  endfacet
  facet normal 0.707107 0 0.707107
    outer loop
      vertex 55 38 77.8039
      vertex 54.2039 -37.2039 78.6
      vertex 55 -38 77.8039
    endloop
  endfacet
  facet normal 0 -0.707107 -0.707107
    outer loop
      vertex -49.6 -38.6 67.3995
      vertex 52 -41 69.7995
      vertex -52 -41 69.7995
    endloop
  endfacet
  facet normal 0 -0.707107 -0.707107
    outer loop
      vertex 52 -41 69.7995
      vertex -49.6 -38.6 67.3995
      vertex 49.6 -38.6 67.3995
    endloop
  endfacet
  facet normal -0.707107 0 -0.707107
    outer loop
      vertex -52.6 -35.6 67.3995
      vertex -55 38 69.7995
      vertex -52.6 35.6 67.3995
    endloop
  endfacet
  facet normal -0.707107 -0 -0.707107
    outer loop
      vertex -55 38 69.7995
      vertex -52.6 -35.6 67.3995
      vertex -55 -38 69.7995
    endloop
  endfacet
  facet normal 0 -0.707107 0.707107
    outer loop
      vertex -52 -41 77.8039
      vertex 51.2039 -40.2039 78.6
      vertex -51.2039 -40.2039 78.6
    endloop
  endfacet
  facet normal 0 -0.707107 0.707107
    outer loop
      vertex 51.2039 -40.2039 78.6
      vertex -52 -41 77.8039
      vertex 52 -41 77.8039
    endloop
  endfacet
  facet normal 0.707107 0.707107 0
    outer loop
      vertex 55 38 77.8039
      vertex 52 41 69.7995
      vertex 52 41 77.8039
    endloop
  endfacet
  facet normal 0.707107 0.707107 0
    outer loop
      vertex 52 41 69.7995
      vertex 55 38 77.8039
      vertex 55 38 69.7995
    endloop
  endfacet
  facet normal 0 1 0
    outer loop
      vertex 52 41 77.8039
      vertex 9.9 41 75
      vertex -52 41 77.8039
    endloop
  endfacet
  facet normal 0 1 0
    outer loop
      vertex 52 41 77.8039
      vertex 9.9 41 73
      vertex 9.9 41 75
    endloop
  endfacet
  facet normal 0 1 0
    outer loop
      vertex 9.9 41 73
      vertex 52 41 69.7995
      vertex -9.9 41 73
    endloop
  endfacet
  facet normal 0 1 -0
    outer loop
      vertex 52 41 69.7995
      vertex 9.9 41 73
      vertex 52 41 77.8039
    endloop
  endfacet
  facet normal 0 1 -0
    outer loop
      vertex -9.9 41 75
      vertex -52 41 77.8039
      vertex 9.9 41 75
    endloop
  endfacet
  facet normal 0 1 -0
    outer loop
      vertex -9.9 41 73
      vertex -52 41 77.8039
      vertex -9.9 41 75
    endloop
  endfacet
  facet normal 0 1 0
    outer loop
      vertex -9.9 41 73
      vertex -52 41 69.7995
      vertex -52 41 77.8039
    endloop
  endfacet
  facet normal 0 1 0
    outer loop
      vertex -52 41 69.7995
      vertex -9.9 41 73
      vertex 52 41 69.7995
    endloop
  endfacet
  facet normal 1 0 0
    outer loop
      vertex 55 9.9 73
      vertex 55 38 77.8039
      vertex 55 9.9 75
    endloop
  endfacet
  facet normal 1 0 0
    outer loop
      vertex 55 38 77.8039
      vertex 55 -9.9 75
      vertex 55 9.9 75
    endloop
  endfacet
  facet normal 1 0 0
    outer loop
      vertex 55 -9.9 75
      vertex 55 -38 77.8039
      vertex 55 -9.9 73
    endloop
  endfacet
  facet normal 1 -0 0
    outer loop
      vertex 55 -38 77.8039
      vertex 55 -9.9 75
      vertex 55 38 77.8039
    endloop
  endfacet
  facet normal 1 0 0
    outer loop
      vertex 55 38 77.8039
      vertex 55 9.9 73
      vertex 55 38 69.7995
    endloop
  endfacet
  facet normal 1 -0 0
    outer loop
      vertex 55 -9.9 73
      vertex 55 38 69.7995
      vertex 55 9.9 73
    endloop
  endfacet
  facet normal 1 0 0
    outer loop
      vertex 55 -9.9 73
      vertex 55 -38 69.7995
      vertex 55 38 69.7995
    endloop
  endfacet
  facet normal 1 0 0
    outer loop
      vertex 55 -38 69.7995
      vertex 55 -9.9 73
      vertex 55 -38 77.8039
    endloop
  endfacet
  facet normal -0.408248 0.408248 -0.816497
    outer loop
      vertex -52.6 35.6 67.3995
      vertex -52 41 69.7995
      vertex -49.6 38.6 67.3995
    endloop
  endfacet
  facet normal -0.408248 0.408248 -0.816497
    outer loop
      vertex -52 41 69.7995
      vertex -52.6 35.6 67.3995
      vertex -55 38 69.7995
    endloop
  endfacet
  facet normal -1 0 0
    outer loop
      vertex -55 38 69.7995
      vertex -55 9.9 73
      vertex -55 38 77.8039
    endloop
  endfacet
  facet normal -1 0 0
    outer loop
      vertex -55 38 69.7995
      vertex -55 -9.9 73
      vertex -55 9.9 73
    endloop
  endfacet
  facet normal -1 0 0
    outer loop
      vertex -55 -38 77.8039
      vertex -55 -9.9 73
      vertex -55 -38 69.7995
    endloop
  endfacet
  facet normal -1 0 0
    outer loop
      vertex -55 -38 69.7995
      vertex -55 -9.9 73
      vertex -55 38 69.7995
    endloop
  endfacet
  facet normal -1 0 0
    outer loop
      vertex -55 9.9 75
      vertex -55 38 77.8039
      vertex -55 9.9 73
    endloop
  endfacet
  facet normal -1 0 0
    outer loop
      vertex -55 -9.9 75
      vertex -55 38 77.8039
      vertex -55 9.9 75
    endloop
  endfacet
  facet normal -1 0 0
    outer loop
      vertex -55 -9.9 75
      vertex -55 -38 77.8039
      vertex -55 38 77.8039
    endloop
  endfacet
  facet normal -1 0 0
    outer loop
      vertex -55 -9.9 73
      vertex -55 -38 77.8039
      vertex -55 -9.9 75
    endloop
  endfacet
  facet normal -0.707107 -0.707107 0
    outer loop
      vertex -52 -41 69.7995
      vertex -55 -38 77.8039
      vertex -55 -38 69.7995
    endloop
  endfacet
  facet normal -0.707107 -0.707107 0
    outer loop
      vertex -55 -38 77.8039
      vertex -52 -41 69.7995
      vertex -52 -41 77.8039
    endloop
  endfacet
  facet normal -0.707107 0.707107 0
    outer loop
      vertex -55 38 69.7995
      vertex -52 41 77.8039
      vertex -52 41 69.7995
    endloop
  endfacet
  facet normal -0.707107 0.707107 0
    outer loop
      vertex -52 41 77.8039
      vertex -55 38 69.7995
      vertex -55 38 77.8039
    endloop
  endfacet
  facet normal 0.408248 -0.408248 -0.816497
    outer loop
      vertex 52 -41 69.7995
      vertex 52.6 -35.6 67.3995
      vertex 55 -38 69.7995
    endloop
  endfacet
  facet normal 0.408248 -0.408248 -0.816497
    outer loop
      vertex 52.6 -35.6 67.3995
      vertex 52 -41 69.7995
      vertex 49.6 -38.6 67.3995
    endloop
  endfacet
  facet normal 0.408248 0.408248 0.816497
    outer loop
      vertex 52 41 77.8039
      vertex 54.2039 37.2039 78.6
      vertex 55 38 77.8039
    endloop
  endfacet
  facet normal 0.408248 0.408248 0.816497
    outer loop
      vertex 54.2039 37.2039 78.6
      vertex 52 41 77.8039
      vertex 51.2039 40.2039 78.6
    endloop
  endfacet
  facet normal -0.707107 0 0.707107
    outer loop
      vertex -55 38 77.8039
      vertex -54.2039 -37.2039 78.6
      vertex -54.2039 37.2039 78.6
    endloop
  endfacet
  facet normal -0.707107 0 0.707107
    outer loop
      vertex -54.2039 -37.2039 78.6
      vertex -55 38 77.8039
      vertex -55 -38 77.8039
    endloop
  endfacet
  facet normal -0.408248 0.408248 0.816497
    outer loop
      vertex -52 41 77.8039
      vertex -54.2039 37.2039 78.6
      vertex -51.2039 40.2039 78.6
    endloop
  endfacet
  facet normal -0.408248 0.408248 0.816497
    outer loop
      vertex -54.2039 37.2039 78.6
      vertex -52 41 77.8039
      vertex -55 38 77.8039
    endloop
  endfacet
  facet normal 1 -0 0
    outer loop
      vertex 56.5 -9.9 74.0005
      vertex 56.5 9.9 73.9995
      vertex 56.5 9.9 74.0005
    endloop
  endfacet
  facet normal 1 0 0
    outer loop
      vertex 56.5 9.9 73.9995
      vertex 56.5 -9.9 74.0005
      vertex 56.5 -9.9 73.9995
    endloop
  endfacet
  facet normal 0.554508 0 -0.832178
    outer loop
      vertex 55 -9.9 73
      vertex 56.5 9.9 73.9995
      vertex 56.5 -9.9 73.9995
    endloop
  endfacet
  facet normal 0.554508 0 -0.832178
    outer loop
      vertex 56.5 9.9 73.9995
      vertex 55 -9.9 73
      vertex 55 9.9 73
    endloop
  endfacet
  facet normal 0.554508 0 0.832178
    outer loop
      vertex 55 9.9 75
      vertex 56.5 -9.9 74.0005
      vertex 56.5 9.9 74.0005
    endloop
  endfacet
  facet normal 0.554508 0 0.832178
    outer loop
      vertex 56.5 -9.9 74.0005
      vertex 55 9.9 75
      vertex 55 -9.9 75
    endloop
  endfacet
  facet normal 0 1 -0
    outer loop
      vertex 56.5 9.9 73.9995
      vertex 55 9.9 75
      vertex 56.5 9.9 74.0005
    endloop
  endfacet
  facet normal 0 1 0
    outer loop
      vertex 55 9.9 75
      vertex 56.5 9.9 73.9995
      vertex 55 9.9 73
    endloop
  endfacet
  facet normal 0 -1 0
    outer loop
      vertex 55 -9.9 75
      vertex 56.5 -9.9 73.9995
      vertex 56.5 -9.9 74.0005
    endloop
  endfacet
  facet normal -0 -1 0
    outer loop
      vertex 56.5 -9.9 73.9995
      vertex 55 -9.9 75
      vertex 55 -9.9 73
    endloop
  endfacet
  facet normal 0 1 -0
    outer loop
      vertex 9.9 42.5 73.9995
      vertex -9.9 42.5 74.0005
      vertex 9.9 42.5 74.0005
    endloop
  endfacet
  facet normal 0 1 0
    outer loop
      vertex -9.9 42.5 74.0005
      vertex 9.9 42.5 73.9995
      vertex -9.9 42.5 73.9995
    endloop
  endfacet
  facet normal -0 0.554508 0.832178
    outer loop
      vertex -9.9 42.5 74.0005
      vertex 9.9 41 75
      vertex 9.9 42.5 74.0005
    endloop
  endfacet
  facet normal 0 0.554508 0.832178
    outer loop
      vertex 9.9 41 75
      vertex -9.9 42.5 74.0005
      vertex -9.9 41 75
    endloop
  endfacet
  facet normal -1 0 0
    outer loop
      vertex -9.9 41 73
      vertex -9.9 42.5 74.0005
      vertex -9.9 42.5 73.9995
    endloop
  endfacet
  facet normal -1 -0 0
    outer loop
      vertex -9.9 42.5 74.0005
      vertex -9.9 41 73
      vertex -9.9 41 75
    endloop
  endfacet
  facet normal 0 0.554508 -0.832178
    outer loop
      vertex -9.9 41 73
      vertex 9.9 42.5 73.9995
      vertex 9.9 41 73
    endloop
  endfacet
  facet normal 0 0.554508 -0.832178
    outer loop
      vertex 9.9 42.5 73.9995
      vertex -9.9 41 73
      vertex -9.9 42.5 73.9995
    endloop
  endfacet
  facet normal 1 0 0
    outer loop
      vertex 9.9 41 75
      vertex 9.9 42.5 73.9995
      vertex 9.9 42.5 74.0005
    endloop
  endfacet
  facet normal 1 0 0
    outer loop
      vertex 9.9 42.5 73.9995
      vertex 9.9 41 75
      vertex 9.9 41 73
    endloop
  endfacet
  facet normal -1 0 0
    outer loop
      vertex -56.5 -9.9 73.9995
      vertex -56.5 9.9 74.0005
      vertex -56.5 9.9 73.9995
    endloop
  endfacet
  facet normal -1 -0 0
    outer loop
      vertex -56.5 9.9 74.0005
      vertex -56.5 -9.9 73.9995
      vertex -56.5 -9.9 74.0005
    endloop
  endfacet
  facet normal -0.554508 0 0.832178
    outer loop
      vertex -56.5 9.9 74.0005
      vertex -55 -9.9 75
      vertex -55 9.9 75
    endloop
  endfacet
  facet normal -0.554508 0 0.832178
    outer loop
      vertex -55 -9.9 75
      vertex -56.5 9.9 74.0005
      vertex -56.5 -9.9 74.0005
    endloop
  endfacet
  facet normal 0 -1 0
    outer loop
      vertex -56.5 -9.9 73.9995
      vertex -55 -9.9 75
      vertex -56.5 -9.9 74.0005
    endloop
  endfacet
  facet normal 0 -1 -0
    outer loop
      vertex -55 -9.9 75
      vertex -56.5 -9.9 73.9995
      vertex -55 -9.9 73
    endloop
  endfacet
  facet normal -0.554508 0 -0.832178
    outer loop
      vertex -56.5 -9.9 73.9995
      vertex -55 9.9 73
      vertex -55 -9.9 73
    endloop
  endfacet
  facet normal -0.554508 0 -0.832178
    outer loop
      vertex -55 9.9 73
      vertex -56.5 -9.9 73.9995
      vertex -56.5 9.9 73.9995
    endloop
  endfacet
  facet normal 0 1 0
    outer loop
      vertex -55 9.9 75
      vertex -56.5 9.9 73.9995
      vertex -56.5 9.9 74.0005
    endloop
  endfacet
  facet normal -0 1 0
    outer loop
      vertex -56.5 9.9 73.9995
      vertex -55 9.9 75
      vertex -55 9.9 73
    endloop
  endfacet
  facet normal 0 -1 0
    outer loop
      vertex -9.9 -42.5 73.9995
      vertex 9.9 -42.5 74.0005
      vertex -9.9 -42.5 74.0005
    endloop
  endfacet
  facet normal 0 -1 -0
    outer loop
      vertex 9.9 -42.5 74.0005
      vertex -9.9 -42.5 73.9995
      vertex 9.9 -42.5 73.9995
    endloop
  endfacet
  facet normal 0 -0.554508 -0.832178
    outer loop
      vertex -9.9 -42.5 73.9995
      vertex 9.9 -41 73
      vertex 9.9 -42.5 73.9995
    endloop
  endfacet
  facet normal -0 -0.554508 -0.832178
    outer loop
      vertex 9.9 -41 73
      vertex -9.9 -42.5 73.9995
      vertex -9.9 -41 73
    endloop
  endfacet
  facet normal 0 -0.554508 0.832178
    outer loop
      vertex -9.9 -41 75
      vertex 9.9 -42.5 74.0005
      vertex 9.9 -41 75
    endloop
  endfacet
  facet normal 0 -0.554508 0.832178
    outer loop
      vertex 9.9 -42.5 74.0005
      vertex -9.9 -41 75
      vertex -9.9 -42.5 74.0005
    endloop
  endfacet
  facet normal 1 -0 0
    outer loop
      vertex 9.9 -42.5 74.0005
      vertex 9.9 -41 73
      vertex 9.9 -41 75
    endloop
  endfacet
  facet normal 1 0 0
    outer loop
      vertex 9.9 -41 73
      vertex 9.9 -42.5 74.0005
      vertex 9.9 -42.5 73.9995
    endloop
  endfacet
  facet normal -1 0 0
    outer loop
      vertex -9.9 -42.5 73.9995
      vertex -9.9 -41 75
      vertex -9.9 -41 73
    endloop
  endfacet
  facet normal -1 0 0
    outer loop
      vertex -9.9 -41 75
      vertex -9.9 -42.5 73.9995
      vertex -9.9 -42.5 74.0005
    endloop
  endfacet
  facet normal 0 0 1
    outer loop
      vertex 51.2039 40.2039 78.6
      vertex 54.2039 -37.2039 78.6
      vertex 54.2039 37.2039 78.6
    endloop
  endfacet
  facet normal 0 0 1
    outer loop
      vertex 51.2039 40.2039 78.6
      vertex 51.2039 -40.2039 78.6
      vertex 54.2039 -37.2039 78.6
    endloop
  endfacet
  facet normal -0 0 1
    outer loop
      vertex -51.2039 40.2039 78.6
      vertex 51.2039 -40.2039 78.6
      vertex 51.2039 40.2039 78.6
    endloop
  endfacet
  facet normal 0 0 1
    outer loop
      vertex -51.2039 40.2039 78.6
      vertex -51.2039 -40.2039 78.6
      vertex 51.2039 -40.2039 78.6
    endloop
  endfacet
  facet normal -0 0 1
    outer loop
      vertex -54.2039 37.2039 78.6
      vertex -51.2039 -40.2039 78.6
      vertex -51.2039 40.2039 78.6
    endloop
  endfacet
  facet normal 0 0 1
    outer loop
      vertex -51.2039 -40.2039 78.6
      vertex -54.2039 37.2039 78.6
      vertex -54.2039 -37.2039 78.6
    endloop
  endfacet
endsolid OpenSCAD_Model
