solid OpenSCAD_Model
  facet normal 0.57735 0.57735 -0.57735
    outer loop
      vertex 121 48.6 2.9995
      vertex 118 48.6 -0.000499725
      vertex 118 51.6 2.9995
    endloop
  endfacet
  facet normal -0.707107 0.707107 0
    outer loop
      vertex -121 48.6 2.9995
      vertex -118 51.6 88.8995
      vertex -118 51.6 2.9995
    endloop
  endfacet
  facet normal -0.707107 0.707107 0
    outer loop
      vertex -118 51.6 88.8995
      vertex -121 48.6 2.9995
      vertex -121 48.6 88.8995
    endloop
  endfacet
  facet normal -0.707107 0 -0.707107
    outer loop
      vertex -118 -48.6 -0.000499725
      vertex -121 48.6 2.9995
      vertex -118 48.6 -0.000499725
    endloop
  endfacet
  facet normal -0.707107 -0 -0.707107
    outer loop
      vertex -121 48.6 2.9995
      vertex -118 -48.6 -0.000499725
      vertex -121 -48.6 2.9995
    endloop
  endfacet
  facet normal 0 -0.707107 -0.707107
    outer loop
      vertex -118 -48.6 -0.000499725
      vertex 118 -51.6 2.9995
      vertex -118 -51.6 2.9995
    endloop
  endfacet
  facet normal 0 -0.707107 -0.707107
    outer loop
      vertex 118 -51.6 2.9995
      vertex -118 -48.6 -0.000499725
      vertex 118 -48.6 -0.000499725
    endloop
  endfacet
  facet normal -0.707107 -0.707107 0
    outer loop
      vertex -118 -51.6 2.9995
      vertex -121 -48.6 88.8995
      vertex -121 -48.6 2.9995
    endloop
  endfacet
  facet normal -0.707107 -0.707107 0
    outer loop
      vertex -121 -48.6 88.8995
      vertex -118 -51.6 2.9995
      vertex -118 -51.6 88.8995
    endloop
  endfacet
  facet normal 0 0 -1
    outer loop
      vertex -118 -48.6 -0.000499725
      vertex 118 48.6 -0.000499725
      vertex 118 -48.6 -0.000499725
    endloop
  endfacet
  facet normal -0 0 -1
    outer loop
      vertex 118 48.6 -0.000499725
      vertex -118 -48.6 -0.000499725
      vertex -118 48.6 -0.000499725
    endloop
  endfacet
  facet normal -0.57735 -0.57735 -0.57735
    outer loop
      vertex -118 -51.6 2.9995
      vertex -121 -48.6 2.9995
      vertex -118 -48.6 -0.000499725
    endloop
  endfacet
  facet normal -0.57735 0.57735 -0.57735
    outer loop
      vertex -118 48.6 -0.000499725
      vertex -121 48.6 2.9995
      vertex -118 51.6 2.9995
    endloop
  endfacet
  facet normal 0 -1 0
    outer loop
      vertex -118 -51.6 2.9995
      vertex 118 -51.6 88.8995
      vertex -118 -51.6 88.8995
    endloop
  endfacet
  facet normal 0 -1 -0
    outer loop
      vertex 118 -51.6 88.8995
      vertex -118 -51.6 2.9995
      vertex 118 -51.6 2.9995
    endloop
  endfacet
  facet normal 0 1 -0
    outer loop
      vertex 118 51.6 2.9995
      vertex -118 51.6 88.8995
      vertex 118 51.6 88.8995
    endloop
  endfacet
  facet normal 0 1 0
    outer loop
      vertex -118 51.6 88.8995
      vertex 118 51.6 2.9995
      vertex -118 51.6 2.9995
    endloop
  endfacet
  facet normal 0.707107 -0.707107 0
    outer loop
      vertex 118 -51.6 88.8995
      vertex 121 -48.6 2.9995
      vertex 121 -48.6 88.8995
    endloop
  endfacet
  facet normal 0.707107 -0.707107 0
    outer loop
      vertex 121 -48.6 2.9995
      vertex 118 -51.6 88.8995
      vertex 118 -51.6 2.9995
    endloop
  endfacet
  facet normal 0.707107 0.707107 0
    outer loop
      vertex 121 48.6 88.8995
      vertex 118 51.6 2.9995
      vertex 118 51.6 88.8995
    endloop
  endfacet
  facet normal 0.707107 0.707107 0
    outer loop
      vertex 118 51.6 2.9995
      vertex 121 48.6 88.8995
      vertex 121 48.6 2.9995
    endloop
  endfacet
  facet normal -1 0 0
    outer loop
      vertex -121 -48.6 2.9995
      vertex -121 48.6 88.8995
      vertex -121 48.6 2.9995
    endloop
  endfacet
  facet normal -1 -0 0
    outer loop
      vertex -121 48.6 88.8995
      vertex -121 -48.6 2.9995
      vertex -121 -48.6 88.8995
    endloop
  endfacet
  facet normal 0 0.707107 -0.707107
    outer loop
      vertex 118 48.6 -0.000499725
      vertex -118 51.6 2.9995
      vertex 118 51.6 2.9995
    endloop
  endfacet
  facet normal 0 0.707107 -0.707107
    outer loop
      vertex -118 51.6 2.9995
      vertex 118 48.6 -0.000499725
      vertex -118 48.6 -0.000499725
    endloop
  endfacet
  facet normal 0.57735 -0.57735 -0.57735
    outer loop
      vertex 121 -48.6 2.9995
      vertex 118 -51.6 2.9995
      vertex 118 -48.6 -0.000499725
    endloop
  endfacet
  facet normal 1 -0 0
    outer loop
      vertex 121 -48.6 88.8995
      vertex 121 48.6 2.9995
      vertex 121 48.6 88.8995
    endloop
  endfacet
  facet normal 1 0 0
    outer loop
      vertex 121 48.6 2.9995
      vertex 121 -48.6 88.8995
      vertex 121 -48.6 2.9995
    endloop
  endfacet
  facet normal 0.707107 0 -0.707107
    outer loop
      vertex 121 -48.6 2.9995
      vertex 118 48.6 -0.000499725
      vertex 121 48.6 2.9995
    endloop
  endfacet
  facet normal 0.707107 0 -0.707107
    outer loop
      vertex 118 48.6 -0.000499725
      vertex 121 -48.6 2.9995
      vertex 118 -48.6 -0.000499725
    endloop
  endfacet
  facet normal -1 0 0
    outer loop
      vertex -121.9 49.5 89.7995
      vertex -121.9 9.9 93
      vertex -121.9 49.5 97.3113
    endloop
  endfacet
  facet normal -1 0 0
    outer loop
      vertex -121.9 49.5 89.7995
      vertex -121.9 -9.9 93
      vertex -121.9 9.9 93
    endloop
  endfacet
  facet normal -1 0 0
    outer loop
      vertex -121.9 -49.5 97.3113
      vertex -121.9 -9.9 93
      vertex -121.9 -49.5 89.7995
    endloop
  endfacet
  facet normal -1 0 0
    outer loop
      vertex -121.9 -49.5 89.7995
      vertex -121.9 -9.9 93
      vertex -121.9 49.5 89.7995
    endloop
  endfacet
  facet normal -1 0 0
    outer loop
      vertex -121.9 9.9 95
      vertex -121.9 49.5 97.3113
      vertex -121.9 9.9 93
    endloop
  endfacet
  facet normal -1 0 0
    outer loop
      vertex -121.9 -9.9 95
      vertex -121.9 49.5 97.3113
      vertex -121.9 9.9 95
    endloop
  endfacet
  facet normal -1 0 0
    outer loop
      vertex -121.9 -9.9 95
      vertex -121.9 -49.5 97.3113
      vertex -121.9 49.5 97.3113
    endloop
  endfacet
  facet normal -1 0 0
    outer loop
      vertex -121.9 -9.9 93
      vertex -121.9 -49.5 97.3113
      vertex -121.9 -9.9 95
    endloop
  endfacet
  facet normal 0.707107 -0.707107 0
    outer loop
      vertex 118.9 -52.5 97.3113
      vertex 121.9 -49.5 89.7995
      vertex 121.9 -49.5 97.3113
    endloop
  endfacet
  facet normal 0.707107 -0.707107 0
    outer loop
      vertex 121.9 -49.5 89.7995
      vertex 118.9 -52.5 97.3113
      vertex 118.9 -52.5 89.7995
    endloop
  endfacet
  facet normal 0 1 0
    outer loop
      vertex 118.9 52.5 97.3113
      vertex 9.9 52.5 95
      vertex -118.9 52.5 97.3113
    endloop
  endfacet
  facet normal 0 1 0
    outer loop
      vertex 118.9 52.5 97.3113
      vertex 9.9 52.5 93
      vertex 9.9 52.5 95
    endloop
  endfacet
  facet normal 0 1 0
    outer loop
      vertex 9.9 52.5 93
      vertex 118.9 52.5 89.7995
      vertex -9.9 52.5 93
    endloop
  endfacet
  facet normal 0 1 -0
    outer loop
      vertex 118.9 52.5 89.7995
      vertex 9.9 52.5 93
      vertex 118.9 52.5 97.3113
    endloop
  endfacet
  facet normal 0 1 -0
    outer loop
      vertex -9.9 52.5 95
      vertex -118.9 52.5 97.3113
      vertex 9.9 52.5 95
    endloop
  endfacet
  facet normal 0 1 -0
    outer loop
      vertex -9.9 52.5 93
      vertex -118.9 52.5 97.3113
      vertex -9.9 52.5 95
    endloop
  endfacet
  facet normal 0 1 0
    outer loop
      vertex -9.9 52.5 93
      vertex -118.9 52.5 89.7995
      vertex -118.9 52.5 97.3113
    endloop
  endfacet
  facet normal 0 1 0
    outer loop
      vertex -118.9 52.5 89.7995
      vertex -9.9 52.5 93
      vertex 118.9 52.5 89.7995
    endloop
  endfacet
  facet normal 0 -0.707107 0.707107
    outer loop
      vertex -118.264 -51.8636 97.9477
      vertex 118.9 -52.5 97.3113
      vertex 118.264 -51.8636 97.9477
    endloop
  endfacet
  facet normal 0 -0.707107 0.707107
    outer loop
      vertex 118.9 -52.5 97.3113
      vertex -118.264 -51.8636 97.9477
      vertex -118.9 -52.5 97.3113
    endloop
  endfacet
  facet normal 0.408248 -0.408248 -0.816497
    outer loop
      vertex 118.9 -52.5 89.7995
      vertex 121 -48.6 88.8995
      vertex 121.9 -49.5 89.7995
    endloop
  endfacet
  facet normal 0.408248 -0.408248 -0.816497
    outer loop
      vertex 121 -48.6 88.8995
      vertex 118.9 -52.5 89.7995
      vertex 118 -51.6 88.8995
    endloop
  endfacet
  facet normal 0.408334 -0.408334 0.816411
    outer loop
      vertex 121.264 -48.8636 97.9477
      vertex 118.9 -52.5 97.3113
      vertex 121.9 -49.5 97.3113
    endloop
  endfacet
  facet normal 0.408334 -0.408334 0.816411
    outer loop
      vertex 118.9 -52.5 97.3113
      vertex 121.264 -48.8636 97.9477
      vertex 118.264 -51.8636 97.9477
    endloop
  endfacet
  facet normal 1 0 0
    outer loop
      vertex 121.9 9.9 93
      vertex 121.9 49.5 97.3113
      vertex 121.9 9.9 95
    endloop
  endfacet
  facet normal 1 0 0
    outer loop
      vertex 121.9 49.5 97.3113
      vertex 121.9 -9.9 95
      vertex 121.9 9.9 95
    endloop
  endfacet
  facet normal 1 0 0
    outer loop
      vertex 121.9 -9.9 95
      vertex 121.9 -49.5 97.3113
      vertex 121.9 -9.9 93
    endloop
  endfacet
  facet normal 1 -0 0
    outer loop
      vertex 121.9 -49.5 97.3113
      vertex 121.9 -9.9 95
      vertex 121.9 49.5 97.3113
    endloop
  endfacet
  facet normal 1 0 0
    outer loop
      vertex 121.9 49.5 97.3113
      vertex 121.9 9.9 93
      vertex 121.9 49.5 89.7995
    endloop
  endfacet
  facet normal 1 -0 0
    outer loop
      vertex 121.9 -9.9 93
      vertex 121.9 49.5 89.7995
      vertex 121.9 9.9 93
    endloop
  endfacet
  facet normal 1 0 0
    outer loop
      vertex 121.9 -9.9 93
      vertex 121.9 -49.5 89.7995
      vertex 121.9 49.5 89.7995
    endloop
  endfacet
  facet normal 1 0 0
    outer loop
      vertex 121.9 -49.5 89.7995
      vertex 121.9 -9.9 93
      vertex 121.9 -49.5 97.3113
    endloop
  endfacet
  facet normal 0 0.707107 -0.707107
    outer loop
      vertex 118 51.6 88.8995
      vertex -118.9 52.5 89.7995
      vertex 118.9 52.5 89.7995
    endloop
  endfacet
  facet normal 0 0.707107 -0.707107
    outer loop
      vertex -118.9 52.5 89.7995
      vertex 118 51.6 88.8995
      vertex -118 51.6 88.8995
    endloop
  endfacet
  facet normal 0.408248 0.408248 -0.816497
    outer loop
      vertex 121 48.6 88.8995
      vertex 118.9 52.5 89.7995
      vertex 121.9 49.5 89.7995
    endloop
  endfacet
  facet normal 0.408248 0.408248 -0.816497
    outer loop
      vertex 118.9 52.5 89.7995
      vertex 121 48.6 88.8995
      vertex 118 51.6 88.8995
    endloop
  endfacet
  facet normal -0.408248 0.408248 -0.816497
    outer loop
      vertex -121 48.6 88.8995
      vertex -118.9 52.5 89.7995
      vertex -118 51.6 88.8995
    endloop
  endfacet
  facet normal -0.408248 0.408248 -0.816497
    outer loop
      vertex -118.9 52.5 89.7995
      vertex -121 48.6 88.8995
      vertex -121.9 49.5 89.7995
    endloop
  endfacet
  facet normal -0.408334 -0.408334 0.816411
    outer loop
      vertex -121.264 -48.8636 97.9477
      vertex -118.9 -52.5 97.3113
      vertex -118.264 -51.8636 97.9477
    endloop
  endfacet
  facet normal -0.408334 -0.408334 0.816411
    outer loop
      vertex -118.9 -52.5 97.3113
      vertex -121.264 -48.8636 97.9477
      vertex -121.9 -49.5 97.3113
    endloop
  endfacet
  facet normal -0.707107 0.707107 0
    outer loop
      vertex -121.9 49.5 89.7995
      vertex -118.9 52.5 97.3113
      vertex -118.9 52.5 89.7995
    endloop
  endfacet
  facet normal -0.707107 0.707107 0
    outer loop
      vertex -118.9 52.5 97.3113
      vertex -121.9 49.5 89.7995
      vertex -121.9 49.5 97.3113
    endloop
  endfacet
  facet normal 0.707107 0.707107 0
    outer loop
      vertex 121.9 49.5 97.3113
      vertex 118.9 52.5 89.7995
      vertex 118.9 52.5 97.3113
    endloop
  endfacet
  facet normal 0.707107 0.707107 0
    outer loop
      vertex 118.9 52.5 89.7995
      vertex 121.9 49.5 97.3113
      vertex 121.9 49.5 89.7995
    endloop
  endfacet
  facet normal 0.408334 0.408334 0.816411
    outer loop
      vertex 118.9 52.5 97.3113
      vertex 121.264 48.8636 97.9477
      vertex 121.9 49.5 97.3113
    endloop
  endfacet
  facet normal 0.408334 0.408334 0.816411
    outer loop
      vertex 121.264 48.8636 97.9477
      vertex 118.9 52.5 97.3113
      vertex 118.264 51.8636 97.9477
    endloop
  endfacet
  facet normal 0 -0.707107 -0.707107
    outer loop
      vertex -118 -51.6 88.8995
      vertex 118.9 -52.5 89.7995
      vertex -118.9 -52.5 89.7995
    endloop
  endfacet
  facet normal 0 -0.707107 -0.707107
    outer loop
      vertex 118.9 -52.5 89.7995
      vertex -118 -51.6 88.8995
      vertex 118 -51.6 88.8995
    endloop
  endfacet
  facet normal 0.707107 0 -0.707107
    outer loop
      vertex 121.9 49.5 89.7995
      vertex 121 -48.6 88.8995
      vertex 121 48.6 88.8995
    endloop
  endfacet
  facet normal 0.707107 0 -0.707107
    outer loop
      vertex 121 -48.6 88.8995
      vertex 121.9 49.5 89.7995
      vertex 121.9 -49.5 89.7995
    endloop
  endfacet
  facet normal -0.707107 0 -0.707107
    outer loop
      vertex -121 -48.6 88.8995
      vertex -121.9 49.5 89.7995
      vertex -121 48.6 88.8995
    endloop
  endfacet
  facet normal -0.707107 -0 -0.707107
    outer loop
      vertex -121.9 49.5 89.7995
      vertex -121 -48.6 88.8995
      vertex -121.9 -49.5 89.7995
    endloop
  endfacet
  facet normal -0.408334 0.408334 0.816411
    outer loop
      vertex -118.9 52.5 97.3113
      vertex -121.264 48.8636 97.9477
      vertex -118.264 51.8636 97.9477
    endloop
  endfacet
  facet normal -0.408334 0.408334 0.816411
    outer loop
      vertex -121.264 48.8636 97.9477
      vertex -118.9 52.5 97.3113
      vertex -121.9 49.5 97.3113
    endloop
  endfacet
  facet normal -0.707329 0 0.706884
    outer loop
      vertex -121.9 49.5 97.3113
      vertex -121.264 -48.8636 97.9477
      vertex -121.264 48.8636 97.9477
    endloop
  endfacet
  facet normal -0.707329 0 0.706884
    outer loop
      vertex -121.264 -48.8636 97.9477
      vertex -121.9 49.5 97.3113
      vertex -121.9 -49.5 97.3113
    endloop
  endfacet
  facet normal -0.707107 -0.707107 0
    outer loop
      vertex -118.9 -52.5 89.7995
      vertex -121.9 -49.5 97.3113
      vertex -121.9 -49.5 89.7995
    endloop
  endfacet
  facet normal -0.707107 -0.707107 0
    outer loop
      vertex -121.9 -49.5 97.3113
      vertex -118.9 -52.5 89.7995
      vertex -118.9 -52.5 97.3113
    endloop
  endfacet
  facet normal 0.707329 0 0.706884
    outer loop
      vertex 121.264 48.8636 97.9477
      vertex 121.9 -49.5 97.3113
      vertex 121.9 49.5 97.3113
    endloop
  endfacet
  facet normal 0.707329 0 0.706884
    outer loop
      vertex 121.9 -49.5 97.3113
      vertex 121.264 48.8636 97.9477
      vertex 121.264 -48.8636 97.9477
    endloop
  endfacet
  facet normal 0 0 1
    outer loop
      vertex 118.264 51.8636 97.9477
      vertex 121.264 -48.8636 97.9477
      vertex 121.264 48.8636 97.9477
    endloop
  endfacet
  facet normal 0 0 1
    outer loop
      vertex 118.264 51.8636 97.9477
      vertex 118.264 -51.8636 97.9477
      vertex 121.264 -48.8636 97.9477
    endloop
  endfacet
  facet normal -0 0 1
    outer loop
      vertex -118.264 51.8636 97.9477
      vertex 118.264 -51.8636 97.9477
      vertex 118.264 51.8636 97.9477
    endloop
  endfacet
  facet normal 0 0 1
    outer loop
      vertex -118.264 51.8636 97.9477
      vertex -118.264 -51.8636 97.9477
      vertex 118.264 -51.8636 97.9477
    endloop
  endfacet
  facet normal -0 0 1
    outer loop
      vertex -121.264 48.8636 97.9477
      vertex -118.264 -51.8636 97.9477
      vertex -118.264 51.8636 97.9477
    endloop
  endfacet
  facet normal 0 0 1
    outer loop
      vertex -118.264 -51.8636 97.9477
      vertex -121.264 48.8636 97.9477
      vertex -121.264 -48.8636 97.9477
    endloop
  endfacet
  facet normal -0.408248 -0.408248 -0.816497
    outer loop
      vertex -118.9 -52.5 89.7995
      vertex -121 -48.6 88.8995
      vertex -118 -51.6 88.8995
    endloop
  endfacet
  facet normal -0.408248 -0.408248 -0.816497
    outer loop
      vertex -121 -48.6 88.8995
      vertex -118.9 -52.5 89.7995
      vertex -121.9 -49.5 89.7995
    endloop
  endfacet
  facet normal 0 -1 0
    outer loop
      vertex -118.9 -52.5 97.3113
      vertex -9.9 -52.5 95
      vertex 118.9 -52.5 97.3113
    endloop
  endfacet
  facet normal 0 -1 0
    outer loop
      vertex -118.9 -52.5 97.3113
      vertex -9.9 -52.5 93
      vertex -9.9 -52.5 95
    endloop
  endfacet
  facet normal 0 -1 -0
    outer loop
      vertex -9.9 -52.5 93
      vertex -118.9 -52.5 89.7995
      vertex 9.9 -52.5 93
    endloop
  endfacet
  facet normal 0 -1 0
    outer loop
      vertex -118.9 -52.5 89.7995
      vertex -9.9 -52.5 93
      vertex -118.9 -52.5 97.3113
    endloop
  endfacet
  facet normal 0 -1 0
    outer loop
      vertex 9.9 -52.5 95
      vertex 118.9 -52.5 97.3113
      vertex -9.9 -52.5 95
    endloop
  endfacet
  facet normal 0 -1 0
    outer loop
      vertex 9.9 -52.5 93
      vertex 118.9 -52.5 97.3113
      vertex 9.9 -52.5 95
    endloop
  endfacet
  facet normal 0 -1 0
    outer loop
      vertex 9.9 -52.5 93
      vertex 118.9 -52.5 89.7995
      vertex 118.9 -52.5 97.3113
    endloop
  endfacet
  facet normal 0 -1 0
    outer loop
      vertex 118.9 -52.5 89.7995
      vertex 9.9 -52.5 93
      vertex -118.9 -52.5 89.7995
    endloop
  endfacet
  facet normal 0 0.707107 0.707107
    outer loop
      vertex 118.9 52.5 97.3113
      vertex -118.264 51.8636 97.9477
      vertex 118.264 51.8636 97.9477
    endloop
  endfacet
  facet normal 0 0.707107 0.707107
    outer loop
      vertex -118.264 51.8636 97.9477
      vertex 118.9 52.5 97.3113
      vertex -118.9 52.5 97.3113
    endloop
  endfacet
  facet normal 0.5547 0 -0.83205
    outer loop
      vertex 121.9 -9.9 93
      vertex 123.4 9.9 94
      vertex 123.4 -9.9 94
    endloop
  endfacet
  facet normal 0.5547 0 -0.83205
    outer loop
      vertex 123.4 9.9 94
      vertex 121.9 -9.9 93
      vertex 121.9 9.9 93
    endloop
  endfacet
  facet normal 0.5547 0 0.83205
    outer loop
      vertex 121.9 9.9 95
      vertex 123.4 -9.9 94
      vertex 123.4 9.9 94
    endloop
  endfacet
  facet normal 0.5547 0 0.83205
    outer loop
      vertex 123.4 -9.9 94
      vertex 121.9 9.9 95
      vertex 121.9 -9.9 95
    endloop
  endfacet
  facet normal 0 1 0
    outer loop
      vertex 121.9 9.9 95
      vertex 123.4 9.9 94
      vertex 121.9 9.9 93
    endloop
  endfacet
  facet normal -0 -1 0
    outer loop
      vertex 123.4 -9.9 94
      vertex 121.9 -9.9 95
      vertex 121.9 -9.9 93
    endloop
  endfacet
  facet normal -0 0.5547 0.83205
    outer loop
      vertex -9.9 54 94
      vertex 9.9 52.5 95
      vertex 9.9 54 94
    endloop
  endfacet
  facet normal 0 0.5547 0.83205
    outer loop
      vertex 9.9 52.5 95
      vertex -9.9 54 94
      vertex -9.9 52.5 95
    endloop
  endfacet
  facet normal -1 -0 0
    outer loop
      vertex -9.9 54 94
      vertex -9.9 52.5 93
      vertex -9.9 52.5 95
    endloop
  endfacet
  facet normal 0 0.5547 -0.83205
    outer loop
      vertex -9.9 52.5 93
      vertex 9.9 54 94
      vertex 9.9 52.5 93
    endloop
  endfacet
  facet normal 0 0.5547 -0.83205
    outer loop
      vertex 9.9 54 94
      vertex -9.9 52.5 93
      vertex -9.9 54 94
    endloop
  endfacet
  facet normal 1 0 0
    outer loop
      vertex 9.9 54 94
      vertex 9.9 52.5 95
      vertex 9.9 52.5 93
    endloop
  endfacet
  facet normal -0.5547 0 0.83205
    outer loop
      vertex -123.4 9.9 94
      vertex -121.9 -9.9 95
      vertex -121.9 9.9 95
    endloop
  endfacet
  facet normal -0.5547 0 0.83205
    outer loop
      vertex -121.9 -9.9 95
      vertex -123.4 9.9 94
      vertex -123.4 -9.9 94
    endloop
  endfacet
  facet normal 0 -1 -0
    outer loop
      vertex -121.9 -9.9 95
      vertex -123.4 -9.9 94
      vertex -121.9 -9.9 93
    endloop
  endfacet
  facet normal -0.5547 0 -0.83205
    outer loop
      vertex -123.4 -9.9 94
      vertex -121.9 9.9 93
      vertex -121.9 -9.9 93
    endloop
  endfacet
  facet normal -0.5547 0 -0.83205
    outer loop
      vertex -121.9 9.9 93
      vertex -123.4 -9.9 94
      vertex -123.4 9.9 94
    endloop
  endfacet
  facet normal -0 1 0
    outer loop
      vertex -123.4 9.9 94
      vertex -121.9 9.9 95
      vertex -121.9 9.9 93
    endloop
  endfacet
  facet normal 0 -0.5547 -0.83205
    outer loop
      vertex -9.9 -54 94
      vertex 9.9 -52.5 93
      vertex 9.9 -54 94
    endloop
  endfacet
  facet normal -0 -0.5547 -0.83205
    outer loop
      vertex 9.9 -52.5 93
      vertex -9.9 -54 94
      vertex -9.9 -52.5 93
    endloop
  endfacet
  facet normal 0 -0.5547 0.83205
    outer loop
      vertex -9.9 -52.5 95
      vertex 9.9 -54 94
      vertex 9.9 -52.5 95
    endloop
  endfacet
  facet normal 0 -0.5547 0.83205
    outer loop
      vertex 9.9 -54 94
      vertex -9.9 -52.5 95
      vertex -9.9 -54 94
    endloop
  endfacet
  facet normal 1 -0 0
    outer loop
      vertex 9.9 -54 94
      vertex 9.9 -52.5 93
      vertex 9.9 -52.5 95
    endloop
  endfacet
  facet normal -1 0 0
    outer loop
      vertex -9.9 -54 94
      vertex -9.9 -52.5 95
      vertex -9.9 -52.5 93
    endloop
  endfacet
endsolid OpenSCAD_Model
