solid OpenSCAD_Model
  facet normal 1 0 0
    outer loop
      vertex 31 9.9 29
      vertex 31 17.5385 32.889
      vertex 31 9.9 31
    endloop
  endfacet
  facet normal 1 0 0
    outer loop
      vertex 31 17.5385 32.889
      vertex 31 -9.9 31
      vertex 31 9.9 31
    endloop
  endfacet
  facet normal 1 0 0
    outer loop
      vertex 31 -9.9 31
      vertex 31 -17.5385 32.889
      vertex 31 -9.9 29
    endloop
  endfacet
  facet normal 1 -0 0
    outer loop
      vertex 31 -17.5385 32.889
      vertex 31 -9.9 31
      vertex 31 17.5385 32.889
    endloop
  endfacet
  facet normal 1 0 0
    outer loop
      vertex 31 17.5385 32.889
      vertex 31 9.9 29
      vertex 31 17.5385 25.7995
    endloop
  endfacet
  facet normal 1 -0 0
    outer loop
      vertex 31 -9.9 29
      vertex 31 17.5385 25.7995
      vertex 31 9.9 29
    endloop
  endfacet
  facet normal 1 0 0
    outer loop
      vertex 31 -9.9 29
      vertex 31 -17.5385 25.7995
      vertex 31 17.5385 25.7995
    endloop
  endfacet
  facet normal 1 0 0
    outer loop
      vertex 31 -17.5385 25.7995
      vertex 31 -9.9 29
      vertex 31 -17.5385 32.889
    endloop
  endfacet
  facet normal 1 -0 0
    outer loop
      vertex 32.5 -9.9 30.0005
      vertex 32.5 9.9 29.9995
      vertex 32.5 9.9 30.0005
    endloop
  endfacet
  facet normal 1 0 0
    outer loop
      vertex 32.5 9.9 29.9995
      vertex 32.5 -9.9 30.0005
      vertex 32.5 -9.9 29.9995
    endloop
  endfacet
  facet normal 0.554508 0 -0.832178
    outer loop
      vertex 31 -9.9 29
      vertex 32.5 9.9 29.9995
      vertex 32.5 -9.9 29.9995
    endloop
  endfacet
  facet normal 0.554508 0 -0.832178
    outer loop
      vertex 32.5 9.9 29.9995
      vertex 31 -9.9 29
      vertex 31 9.9 29
    endloop
  endfacet
  facet normal 0.554508 0 0.832178
    outer loop
      vertex 31 9.9 31
      vertex 32.5 -9.9 30.0005
      vertex 32.5 9.9 30.0005
    endloop
  endfacet
  facet normal 0.554508 0 0.832178
    outer loop
      vertex 32.5 -9.9 30.0005
      vertex 31 9.9 31
      vertex 31 -9.9 31
    endloop
  endfacet
  facet normal 0 1 -0
    outer loop
      vertex 32.5 9.9 29.9995
      vertex 31 9.9 31
      vertex 32.5 9.9 30.0005
    endloop
  endfacet
  facet normal 0 1 0
    outer loop
      vertex 31 9.9 31
      vertex 32.5 9.9 29.9995
      vertex 31 9.9 29
    endloop
  endfacet
  facet normal 0 -1 0
    outer loop
      vertex 31 -9.9 31
      vertex 32.5 -9.9 29.9995
      vertex 32.5 -9.9 30.0005
    endloop
  endfacet
  facet normal -0 -1 0
    outer loop
      vertex 32.5 -9.9 29.9995
      vertex 31 -9.9 31
      vertex 31 -9.9 29
    endloop
  endfacet
  facet normal 0 1 -0
    outer loop
      vertex 9.9 21.5 29.9995
      vertex -9.9 21.5 30.0005
      vertex 9.9 21.5 30.0005
    endloop
  endfacet
  facet normal 0 1 0
    outer loop
      vertex -9.9 21.5 30.0005
      vertex 9.9 21.5 29.9995
      vertex -9.9 21.5 29.9995
    endloop
  endfacet
  facet normal 0 1 0
    outer loop
      vertex 28.5385 20 32.889
      vertex 9.9 20 31
      vertex -28.5385 20 32.889
    endloop
  endfacet
  facet normal 0 1 0
    outer loop
      vertex 28.5385 20 32.889
      vertex 9.9 20 29
      vertex 9.9 20 31
    endloop
  endfacet
  facet normal 0 1 0
    outer loop
      vertex 9.9 20 29
      vertex 28.5385 20 25.7995
      vertex -9.9 20 29
    endloop
  endfacet
  facet normal 0 1 -0
    outer loop
      vertex 28.5385 20 25.7995
      vertex 9.9 20 29
      vertex 28.5385 20 32.889
    endloop
  endfacet
  facet normal 0 1 -0
    outer loop
      vertex -9.9 20 31
      vertex -28.5385 20 32.889
      vertex 9.9 20 31
    endloop
  endfacet
  facet normal 0 1 -0
    outer loop
      vertex -9.9 20 29
      vertex -28.5385 20 32.889
      vertex -9.9 20 31
    endloop
  endfacet
  facet normal 0 1 0
    outer loop
      vertex -9.9 20 29
      vertex -28.5385 20 25.7995
      vertex -28.5385 20 32.889
    endloop
  endfacet
  facet normal 0 1 0
    outer loop
      vertex -28.5385 20 25.7995
      vertex -9.9 20 29
      vertex 28.5385 20 25.7995
    endloop
  endfacet
  facet normal -0 0.554508 0.832178
    outer loop
      vertex -9.9 21.5 30.0005
      vertex 9.9 20 31
      vertex 9.9 21.5 30.0005
    endloop
  endfacet
  facet normal 0 0.554508 0.832178
    outer loop
      vertex 9.9 20 31
      vertex -9.9 21.5 30.0005
      vertex -9.9 20 31
    endloop
  endfacet
  facet normal -1 0 0
    outer loop
      vertex -9.9 20 29
      vertex -9.9 21.5 30.0005
      vertex -9.9 21.5 29.9995
    endloop
  endfacet
  facet normal -1 -0 0
    outer loop
      vertex -9.9 21.5 30.0005
      vertex -9.9 20 29
      vertex -9.9 20 31
    endloop
  endfacet
  facet normal 0 0.554508 -0.832178
    outer loop
      vertex -9.9 20 29
      vertex 9.9 21.5 29.9995
      vertex 9.9 20 29
    endloop
  endfacet
  facet normal 0 0.554508 -0.832178
    outer loop
      vertex 9.9 21.5 29.9995
      vertex -9.9 20 29
      vertex -9.9 21.5 29.9995
    endloop
  endfacet
  facet normal 1 0 0
    outer loop
      vertex 9.9 20 31
      vertex 9.9 21.5 29.9995
      vertex 9.9 21.5 30.0005
    endloop
  endfacet
  facet normal 1 0 0
    outer loop
      vertex 9.9 21.5 29.9995
      vertex 9.9 20 31
      vertex 9.9 20 29
    endloop
  endfacet
  facet normal -1 0 0
    outer loop
      vertex -32.5 -9.9 29.9995
      vertex -32.5 9.9 30.0005
      vertex -32.5 9.9 29.9995
    endloop
  endfacet
  facet normal -1 -0 0
    outer loop
      vertex -32.5 9.9 30.0005
      vertex -32.5 -9.9 29.9995
      vertex -32.5 -9.9 30.0005
    endloop
  endfacet
  facet normal -0.554508 0 0.832178
    outer loop
      vertex -32.5 9.9 30.0005
      vertex -31 -9.9 31
      vertex -31 9.9 31
    endloop
  endfacet
  facet normal -0.554508 0 0.832178
    outer loop
      vertex -31 -9.9 31
      vertex -32.5 9.9 30.0005
      vertex -32.5 -9.9 30.0005
    endloop
  endfacet
  facet normal -1 0 0
    outer loop
      vertex -31 17.5385 25.7995
      vertex -31 9.9 29
      vertex -31 17.5385 32.889
    endloop
  endfacet
  facet normal -1 0 0
    outer loop
      vertex -31 17.5385 25.7995
      vertex -31 -9.9 29
      vertex -31 9.9 29
    endloop
  endfacet
  facet normal -1 0 0
    outer loop
      vertex -31 -17.5385 32.889
      vertex -31 -9.9 29
      vertex -31 -17.5385 25.7995
    endloop
  endfacet
  facet normal -1 0 0
    outer loop
      vertex -31 -17.5385 25.7995
      vertex -31 -9.9 29
      vertex -31 17.5385 25.7995
    endloop
  endfacet
  facet normal -1 0 0
    outer loop
      vertex -31 9.9 31
      vertex -31 17.5385 32.889
      vertex -31 9.9 29
    endloop
  endfacet
  facet normal -1 0 0
    outer loop
      vertex -31 -9.9 31
      vertex -31 17.5385 32.889
      vertex -31 9.9 31
    endloop
  endfacet
  facet normal -1 0 0
    outer loop
      vertex -31 -9.9 31
      vertex -31 -17.5385 32.889
      vertex -31 17.5385 32.889
    endloop
  endfacet
  facet normal -1 0 0
    outer loop
      vertex -31 -9.9 29
      vertex -31 -17.5385 32.889
      vertex -31 -9.9 31
    endloop
  endfacet
  facet normal 0 -1 0
    outer loop
      vertex -32.5 -9.9 29.9995
      vertex -31 -9.9 31
      vertex -32.5 -9.9 30.0005
    endloop
  endfacet
  facet normal 0 -1 -0
    outer loop
      vertex -31 -9.9 31
      vertex -32.5 -9.9 29.9995
      vertex -31 -9.9 29
    endloop
  endfacet
  facet normal -0.554508 0 -0.832178
    outer loop
      vertex -32.5 -9.9 29.9995
      vertex -31 9.9 29
      vertex -31 -9.9 29
    endloop
  endfacet
  facet normal -0.554508 0 -0.832178
    outer loop
      vertex -31 9.9 29
      vertex -32.5 -9.9 29.9995
      vertex -32.5 9.9 29.9995
    endloop
  endfacet
  facet normal 0 1 0
    outer loop
      vertex -31 9.9 31
      vertex -32.5 9.9 29.9995
      vertex -32.5 9.9 30.0005
    endloop
  endfacet
  facet normal -0 1 0
    outer loop
      vertex -32.5 9.9 29.9995
      vertex -31 9.9 31
      vertex -31 9.9 29
    endloop
  endfacet
  facet normal 0 -1 0
    outer loop
      vertex -28.5385 -20 32.889
      vertex -9.9 -20 31
      vertex 28.5385 -20 32.889
    endloop
  endfacet
  facet normal 0 -1 0
    outer loop
      vertex -28.5385 -20 32.889
      vertex -9.9 -20 29
      vertex -9.9 -20 31
    endloop
  endfacet
  facet normal 0 -1 -0
    outer loop
      vertex -9.9 -20 29
      vertex -28.5385 -20 25.7995
      vertex 9.9 -20 29
    endloop
  endfacet
  facet normal 0 -1 0
    outer loop
      vertex -28.5385 -20 25.7995
      vertex -9.9 -20 29
      vertex -28.5385 -20 32.889
    endloop
  endfacet
  facet normal 0 -1 0
    outer loop
      vertex 9.9 -20 31
      vertex 28.5385 -20 32.889
      vertex -9.9 -20 31
    endloop
  endfacet
  facet normal 0 -1 0
    outer loop
      vertex 9.9 -20 29
      vertex 28.5385 -20 32.889
      vertex 9.9 -20 31
    endloop
  endfacet
  facet normal 0 -1 0
    outer loop
      vertex 9.9 -20 29
      vertex 28.5385 -20 25.7995
      vertex 28.5385 -20 32.889
    endloop
  endfacet
  facet normal 0 -1 0
    outer loop
      vertex 28.5385 -20 25.7995
      vertex 9.9 -20 29
      vertex -28.5385 -20 25.7995
    endloop
  endfacet
  facet normal 0 -1 0
    outer loop
      vertex -9.9 -21.5 29.9995
      vertex 9.9 -21.5 30.0005
      vertex -9.9 -21.5 30.0005
    endloop
  endfacet
  facet normal 0 -1 -0
    outer loop
      vertex 9.9 -21.5 30.0005
      vertex -9.9 -21.5 29.9995
      vertex 9.9 -21.5 29.9995
    endloop
  endfacet
  facet normal 0 -0.554508 -0.832178
    outer loop
      vertex -9.9 -21.5 29.9995
      vertex 9.9 -20 29
      vertex 9.9 -21.5 29.9995
    endloop
  endfacet
  facet normal -0 -0.554508 -0.832178
    outer loop
      vertex 9.9 -20 29
      vertex -9.9 -21.5 29.9995
      vertex -9.9 -20 29
    endloop
  endfacet
  facet normal 0 -0.554508 0.832178
    outer loop
      vertex -9.9 -20 31
      vertex 9.9 -21.5 30.0005
      vertex 9.9 -20 31
    endloop
  endfacet
  facet normal 0 -0.554508 0.832178
    outer loop
      vertex 9.9 -21.5 30.0005
      vertex -9.9 -20 31
      vertex -9.9 -21.5 30.0005
    endloop
  endfacet
  facet normal 1 -0 0
    outer loop
      vertex 9.9 -21.5 30.0005
      vertex 9.9 -20 29
      vertex 9.9 -20 31
    endloop
  endfacet
  facet normal 1 0 0
    outer loop
      vertex 9.9 -20 29
      vertex 9.9 -21.5 30.0005
      vertex 9.9 -21.5 29.9995
    endloop
  endfacet
  facet normal -1 0 0
    outer loop
      vertex -9.9 -21.5 29.9995
      vertex -9.9 -20 31
      vertex -9.9 -20 29
    endloop
  endfacet
  facet normal -1 0 0
    outer loop
      vertex -9.9 -20 31
      vertex -9.9 -21.5 29.9995
      vertex -9.9 -21.5 30.0005
    endloop
  endfacet
  facet normal 0 -0.70711 -0.707104
    outer loop
      vertex -27.6385 -16.6385 -0.000499725
      vertex 27.6385 -19.1 2.46102
      vertex -27.6385 -19.1 2.46102
    endloop
  endfacet
  facet normal 0 -0.70711 -0.707104
    outer loop
      vertex 27.6385 -19.1 2.46102
      vertex -27.6385 -16.6385 -0.000499725
      vertex 27.6385 -16.6385 -0.000499725
    endloop
  endfacet
  facet normal -0.706058 -0.706058 -0.0544553
    outer loop
      vertex -27.6385 -19.1 2.46102
      vertex -31 -17.5385 25.7995
      vertex -30.1 -16.6385 2.46102
    endloop
  endfacet
  facet normal -0.706058 -0.706058 -0.0544553
    outer loop
      vertex -31 -17.5385 25.7995
      vertex -27.6385 -19.1 2.46102
      vertex -28.5385 -20 25.7995
    endloop
  endfacet
  facet normal -0.707107 0 0.707107
    outer loop
      vertex -31 17.5385 32.889
      vertex -28.539 -17.5385 35.35
      vertex -28.539 17.5385 35.35
    endloop
  endfacet
  facet normal -0.707107 0 0.707107
    outer loop
      vertex -28.539 -17.5385 35.35
      vertex -31 17.5385 32.889
      vertex -31 -17.5385 32.889
    endloop
  endfacet
  facet normal -0.57735 0.57735 0.57735
    outer loop
      vertex -28.5385 20 32.889
      vertex -28.539 17.5385 35.35
      vertex -28.5385 17.539 35.35
    endloop
  endfacet
  facet normal -0.57735 0.57735 0.57735
    outer loop
      vertex -28.539 17.5385 35.35
      vertex -28.5385 20 32.889
      vertex -31 17.5385 32.889
    endloop
  endfacet
  facet normal 0.706058 -0.706058 -0.0544553
    outer loop
      vertex 31 -17.5385 25.7995
      vertex 27.6385 -19.1 2.46102
      vertex 30.1 -16.6385 2.46102
    endloop
  endfacet
  facet normal 0.706058 -0.706058 -0.0544553
    outer loop
      vertex 27.6385 -19.1 2.46102
      vertex 31 -17.5385 25.7995
      vertex 28.5385 -20 25.7995
    endloop
  endfacet
  facet normal -0.706058 0.706058 -0.0544553
    outer loop
      vertex -27.6385 19.1 2.46102
      vertex -31 17.5385 25.7995
      vertex -28.5385 20 25.7995
    endloop
  endfacet
  facet normal -0.706058 0.706058 -0.0544553
    outer loop
      vertex -31 17.5385 25.7995
      vertex -27.6385 19.1 2.46102
      vertex -30.1 16.6385 2.46102
    endloop
  endfacet
  facet normal 0 0.999257 -0.0385343
    outer loop
      vertex 27.6385 19.1 2.46102
      vertex -28.5385 20 25.7995
      vertex 28.5385 20 25.7995
    endloop
  endfacet
  facet normal 0 0.999257 -0.0385343
    outer loop
      vertex -28.5385 20 25.7995
      vertex 27.6385 19.1 2.46102
      vertex -27.6385 19.1 2.46102
    endloop
  endfacet
  facet normal -0.70711 0 -0.707104
    outer loop
      vertex -27.6385 -16.6385 -0.000499725
      vertex -30.1 16.6385 2.46102
      vertex -27.6385 16.6385 -0.000499725
    endloop
  endfacet
  facet normal -0.70711 -0 -0.707104
    outer loop
      vertex -30.1 16.6385 2.46102
      vertex -27.6385 -16.6385 -0.000499725
      vertex -30.1 -16.6385 2.46102
    endloop
  endfacet
  facet normal 0 -0.707107 0.707107
    outer loop
      vertex -28.5385 -17.539 35.35
      vertex 28.5385 -20 32.889
      vertex 28.5385 -17.539 35.35
    endloop
  endfacet
  facet normal 0 -0.707107 0.707107
    outer loop
      vertex 28.5385 -20 32.889
      vertex -28.5385 -17.539 35.35
      vertex -28.5385 -20 32.889
    endloop
  endfacet
  facet normal 0.999257 0 -0.0385343
    outer loop
      vertex 31 17.5385 25.7995
      vertex 30.1 -16.6385 2.46102
      vertex 30.1 16.6385 2.46102
    endloop
  endfacet
  facet normal 0.999257 0 -0.0385343
    outer loop
      vertex 30.1 -16.6385 2.46102
      vertex 31 17.5385 25.7995
      vertex 31 -17.5385 25.7995
    endloop
  endfacet
  facet normal 0 0 -1
    outer loop
      vertex -27.6385 -16.6385 -0.000499725
      vertex 27.6385 16.6385 -0.000499725
      vertex 27.6385 -16.6385 -0.000499725
    endloop
  endfacet
  facet normal -0 0 -1
    outer loop
      vertex 27.6385 16.6385 -0.000499725
      vertex -27.6385 -16.6385 -0.000499725
      vertex -27.6385 16.6385 -0.000499725
    endloop
  endfacet
  facet normal -0.577352 0.577352 -0.577347
    outer loop
      vertex -27.6385 16.6385 -0.000499725
      vertex -30.1 16.6385 2.46102
      vertex -27.6385 19.1 2.46102
    endloop
  endfacet
  facet normal -0.707107 0.707107 0
    outer loop
      vertex -31 17.5385 25.7995
      vertex -28.5385 20 32.889
      vertex -28.5385 20 25.7995
    endloop
  endfacet
  facet normal -0.707107 0.707107 0
    outer loop
      vertex -28.5385 20 32.889
      vertex -31 17.5385 25.7995
      vertex -31 17.5385 32.889
    endloop
  endfacet
  facet normal -0 0.707107 0.707107
    outer loop
      vertex -28.5385 20 32.889
      vertex 28.5385 17.539 35.35
      vertex 28.5385 20 32.889
    endloop
  endfacet
  facet normal 0 0.707107 0.707107
    outer loop
      vertex 28.5385 17.539 35.35
      vertex -28.5385 20 32.889
      vertex -28.5385 17.539 35.35
    endloop
  endfacet
  facet normal 0.577352 0.577352 -0.577347
    outer loop
      vertex 30.1 16.6385 2.46102
      vertex 27.6385 16.6385 -0.000499725
      vertex 27.6385 19.1 2.46102
    endloop
  endfacet
  facet normal -0.999257 0 -0.0385343
    outer loop
      vertex -30.1 -16.6385 2.46102
      vertex -31 17.5385 25.7995
      vertex -30.1 16.6385 2.46102
    endloop
  endfacet
  facet normal -0.999257 -0 -0.0385343
    outer loop
      vertex -31 17.5385 25.7995
      vertex -30.1 -16.6385 2.46102
      vertex -31 -17.5385 25.7995
    endloop
  endfacet
  facet normal -0.57735 -0.57735 0.57735
    outer loop
      vertex -28.539 -17.5385 35.35
      vertex -28.5385 -20 32.889
      vertex -28.5385 -17.539 35.35
    endloop
  endfacet
  facet normal -0.57735 -0.57735 0.57735
    outer loop
      vertex -28.5385 -20 32.889
      vertex -28.539 -17.5385 35.35
      vertex -31 -17.5385 32.889
    endloop
  endfacet
  facet normal 0.707107 -0.707107 0
    outer loop
      vertex 28.5385 -20 32.889
      vertex 31 -17.5385 25.7995
      vertex 31 -17.5385 32.889
    endloop
  endfacet
  facet normal 0.707107 -0.707107 0
    outer loop
      vertex 31 -17.5385 25.7995
      vertex 28.5385 -20 32.889
      vertex 28.5385 -20 25.7995
    endloop
  endfacet
  facet normal 0 0.70711 -0.707104
    outer loop
      vertex 27.6385 16.6385 -0.000499725
      vertex -27.6385 19.1 2.46102
      vertex 27.6385 19.1 2.46102
    endloop
  endfacet
  facet normal 0 0.70711 -0.707104
    outer loop
      vertex -27.6385 19.1 2.46102
      vertex 27.6385 16.6385 -0.000499725
      vertex -27.6385 16.6385 -0.000499725
    endloop
  endfacet
  facet normal 0.707107 0 0.707107
    outer loop
      vertex 28.539 17.5385 35.35
      vertex 31 -17.5385 32.889
      vertex 31 17.5385 32.889
    endloop
  endfacet
  facet normal 0.707107 0 0.707107
    outer loop
      vertex 31 -17.5385 32.889
      vertex 28.539 17.5385 35.35
      vertex 28.539 -17.5385 35.35
    endloop
  endfacet
  facet normal 0.706058 0.706058 -0.0544553
    outer loop
      vertex 31 17.5385 25.7995
      vertex 27.6385 19.1 2.46102
      vertex 28.5385 20 25.7995
    endloop
  endfacet
  facet normal 0.706058 0.706058 -0.0544553
    outer loop
      vertex 27.6385 19.1 2.46102
      vertex 31 17.5385 25.7995
      vertex 30.1 16.6385 2.46102
    endloop
  endfacet
  facet normal -0.707107 -0.707107 0
    outer loop
      vertex -28.5385 -20 25.7995
      vertex -31 -17.5385 32.889
      vertex -31 -17.5385 25.7995
    endloop
  endfacet
  facet normal -0.707107 -0.707107 0
    outer loop
      vertex -31 -17.5385 32.889
      vertex -28.5385 -20 25.7995
      vertex -28.5385 -20 32.889
    endloop
  endfacet
  facet normal -0.577352 -0.577352 -0.577347
    outer loop
      vertex -27.6385 -19.1 2.46102
      vertex -30.1 -16.6385 2.46102
      vertex -27.6385 -16.6385 -0.000499725
    endloop
  endfacet
  facet normal 0.57735 0.57735 0.57735
    outer loop
      vertex 28.5385 20 32.889
      vertex 28.539 17.5385 35.35
      vertex 31 17.5385 32.889
    endloop
  endfacet
  facet normal 0.57735 0.57735 0.57735
    outer loop
      vertex 28.539 17.5385 35.35
      vertex 28.5385 20 32.889
      vertex 28.5385 17.539 35.35
    endloop
  endfacet
  facet normal 0 -0.999257 -0.0385343
    outer loop
      vertex -27.6385 -19.1 2.46102
      vertex 28.5385 -20 25.7995
      vertex -28.5385 -20 25.7995
    endloop
  endfacet
  facet normal 0 -0.999257 -0.0385343
    outer loop
      vertex 28.5385 -20 25.7995
      vertex -27.6385 -19.1 2.46102
      vertex 27.6385 -19.1 2.46102
    endloop
  endfacet
  facet normal 0.57735 -0.57735 0.57735
    outer loop
      vertex 28.5385 -17.539 35.35
      vertex 31 -17.5385 32.889
      vertex 28.539 -17.5385 35.35
    endloop
  endfacet
  facet normal 0.57735 -0.57735 0.57735
    outer loop
      vertex 31 -17.5385 32.889
      vertex 28.5385 -17.539 35.35
      vertex 28.5385 -20 32.889
    endloop
  endfacet
  facet normal 0.577352 -0.577352 -0.577347
    outer loop
      vertex 30.1 -16.6385 2.46102
      vertex 27.6385 -19.1 2.46102
      vertex 27.6385 -16.6385 -0.000499725
    endloop
  endfacet
  facet normal 0.70711 0 -0.707104
    outer loop
      vertex 30.1 -16.6385 2.46102
      vertex 27.6385 16.6385 -0.000499725
      vertex 30.1 16.6385 2.46102
    endloop
  endfacet
  facet normal 0.70711 0 -0.707104
    outer loop
      vertex 27.6385 16.6385 -0.000499725
      vertex 30.1 -16.6385 2.46102
      vertex 27.6385 -16.6385 -0.000499725
    endloop
  endfacet
  facet normal 0.707107 0.707107 0
    outer loop
      vertex 31 17.5385 32.889
      vertex 28.5385 20 25.7995
      vertex 28.5385 20 32.889
    endloop
  endfacet
  facet normal 0.707107 0.707107 0
    outer loop
      vertex 28.5385 20 25.7995
      vertex 31 17.5385 32.889
      vertex 31 17.5385 25.7995
    endloop
  endfacet
  facet normal 0 0 1
    outer loop
      vertex 28.5385 17.539 35.35
      vertex 28.539 -17.5385 35.35
      vertex 28.539 17.5385 35.35
    endloop
  endfacet
  facet normal 0 0 1
    outer loop
      vertex 28.5385 17.539 35.35
      vertex 28.5385 -17.539 35.35
      vertex 28.539 -17.5385 35.35
    endloop
  endfacet
  facet normal -0 0 1
    outer loop
      vertex -28.5385 17.539 35.35
      vertex 28.5385 -17.539 35.35
      vertex 28.5385 17.539 35.35
    endloop
  endfacet
  facet normal 0 0 1
    outer loop
      vertex -28.5385 17.539 35.35
      vertex -28.5385 -17.539 35.35
      vertex 28.5385 -17.539 35.35
    endloop
  endfacet
  facet normal -0 0 1
    outer loop
      vertex -28.539 17.5385 35.35
      vertex -28.5385 -17.539 35.35
      vertex -28.5385 17.539 35.35
    endloop
  endfacet
  facet normal 0 0 1
    outer loop
      vertex -28.5385 -17.539 35.35
      vertex -28.539 17.5385 35.35
      vertex -28.539 -17.5385 35.35
    endloop
  endfacet
endsolid OpenSCAD_Model
