solid OpenSCAD_Model
  facet normal 0 -0.707107 -0.707107
    outer loop
      vertex -27.1 -16.1 -0.000499725
      vertex 27.1 -19.1 2.9995
      vertex -27.1 -19.1 2.9995
    endloop
  endfacet
  facet normal 0 -0.707107 -0.707107
    outer loop
      vertex 27.1 -19.1 2.9995
      vertex -27.1 -16.1 -0.000499725
      vertex 27.1 -16.1 -0.000499725
    endloop
  endfacet
  facet normal -1 0 0
    outer loop
      vertex -30.1 -16.1 2.9995
      vertex -30.1 16.1 24.8995
      vertex -30.1 16.1 2.9995
    endloop
  endfacet
  facet normal -1 -0 0
    outer loop
      vertex -30.1 16.1 24.8995
      vertex -30.1 -16.1 2.9995
      vertex -30.1 -16.1 24.8995
    endloop
  endfacet
  facet normal 0.707107 -0.707107 0
    outer loop
      vertex 27.1 -19.1 24.8995
      vertex 30.1 -16.1 2.9995
      vertex 30.1 -16.1 24.8995
    endloop
  endfacet
  facet normal 0.707107 -0.707107 0
    outer loop
      vertex 30.1 -16.1 2.9995
      vertex 27.1 -19.1 24.8995
      vertex 27.1 -19.1 2.9995
    endloop
  endfacet
  facet normal 1 -0 0
    outer loop
      vertex 30.1 -16.1 24.8995
      vertex 30.1 16.1 2.9995
      vertex 30.1 16.1 24.8995
    endloop
  endfacet
  facet normal 1 0 0
    outer loop
      vertex 30.1 16.1 2.9995
      vertex 30.1 -16.1 24.8995
      vertex 30.1 -16.1 2.9995
    endloop
  endfacet
  facet normal -0.57735 0.57735 -0.57735
    outer loop
      vertex -27.1 16.1 -0.000499725
      vertex -30.1 16.1 2.9995
      vertex -27.1 19.1 2.9995
    endloop
  endfacet
  facet normal 0 -1 0
    outer loop
      vertex -27.1 -19.1 2.9995
      vertex 27.1 -19.1 24.8995
      vertex -27.1 -19.1 24.8995
    endloop
  endfacet
  facet normal 0 -1 -0
    outer loop
      vertex 27.1 -19.1 24.8995
      vertex -27.1 -19.1 2.9995
      vertex 27.1 -19.1 2.9995
    endloop
  endfacet
  facet normal -0.707107 0.707107 0
    outer loop
      vertex -30.1 16.1 2.9995
      vertex -27.1 19.1 24.8995
      vertex -27.1 19.1 2.9995
    endloop
  endfacet
  facet normal -0.707107 0.707107 0
    outer loop
      vertex -27.1 19.1 24.8995
      vertex -30.1 16.1 2.9995
      vertex -30.1 16.1 24.8995
    endloop
  endfacet
  facet normal 0 0 -1
    outer loop
      vertex -27.1 -16.1 -0.000499725
      vertex 27.1 16.1 -0.000499725
      vertex 27.1 -16.1 -0.000499725
    endloop
  endfacet
  facet normal -0 0 -1
    outer loop
      vertex 27.1 16.1 -0.000499725
      vertex -27.1 -16.1 -0.000499725
      vertex -27.1 16.1 -0.000499725
    endloop
  endfacet
  facet normal -0.707107 0 -0.707107
    outer loop
      vertex -27.1 -16.1 -0.000499725
      vertex -30.1 16.1 2.9995
      vertex -27.1 16.1 -0.000499725
    endloop
  endfacet
  facet normal -0.707107 -0 -0.707107
    outer loop
      vertex -30.1 16.1 2.9995
      vertex -27.1 -16.1 -0.000499725
      vertex -30.1 -16.1 2.9995
    endloop
  endfacet
  facet normal -0.57735 -0.57735 -0.57735
    outer loop
      vertex -27.1 -19.1 2.9995
      vertex -30.1 -16.1 2.9995
      vertex -27.1 -16.1 -0.000499725
    endloop
  endfacet
  facet normal 0.57735 0.57735 -0.57735
    outer loop
      vertex 30.1 16.1 2.9995
      vertex 27.1 16.1 -0.000499725
      vertex 27.1 19.1 2.9995
    endloop
  endfacet
  facet normal 0 0.707107 -0.707107
    outer loop
      vertex 27.1 16.1 -0.000499725
      vertex -27.1 19.1 2.9995
      vertex 27.1 19.1 2.9995
    endloop
  endfacet
  facet normal 0 0.707107 -0.707107
    outer loop
      vertex -27.1 19.1 2.9995
      vertex 27.1 16.1 -0.000499725
      vertex -27.1 16.1 -0.000499725
    endloop
  endfacet
  facet normal 0.707107 0.707107 0
    outer loop
      vertex 30.1 16.1 24.8995
      vertex 27.1 19.1 2.9995
      vertex 27.1 19.1 24.8995
    endloop
  endfacet
  facet normal 0.707107 0.707107 0
    outer loop
      vertex 27.1 19.1 2.9995
      vertex 30.1 16.1 24.8995
      vertex 30.1 16.1 2.9995
    endloop
  endfacet
  facet normal 0 1 -0
    outer loop
      vertex 27.1 19.1 2.9995
      vertex -27.1 19.1 24.8995
      vertex 27.1 19.1 24.8995
    endloop
  endfacet
  facet normal 0 1 0
    outer loop
      vertex -27.1 19.1 24.8995
      vertex 27.1 19.1 2.9995
      vertex -27.1 19.1 2.9995
    endloop
  endfacet
  facet normal 0.57735 -0.57735 -0.57735
    outer loop
      vertex 30.1 -16.1 2.9995
      vertex 27.1 -19.1 2.9995
      vertex 27.1 -16.1 -0.000499725
    endloop
  endfacet
  facet normal -0.707107 -0.707107 0
    outer loop
      vertex -27.1 -19.1 2.9995
      vertex -30.1 -16.1 24.8995
      vertex -30.1 -16.1 2.9995
    endloop
  endfacet
  facet normal -0.707107 -0.707107 0
    outer loop
      vertex -30.1 -16.1 24.8995
      vertex -27.1 -19.1 2.9995
      vertex -27.1 -19.1 24.8995
    endloop
  endfacet
  facet normal 0.707107 0 -0.707107
    outer loop
      vertex 30.1 -16.1 2.9995
      vertex 27.1 16.1 -0.000499725
      vertex 30.1 16.1 2.9995
    endloop
  endfacet
  facet normal 0.707107 0 -0.707107
    outer loop
      vertex 27.1 16.1 -0.000499725
      vertex 30.1 -16.1 2.9995
      vertex 27.1 -16.1 -0.000499725
    endloop
  endfacet
  facet normal -0.707107 0 0.707107
    outer loop
      vertex -31 17 33.3113
      vertex -30.3636 -16.3636 33.9477
      vertex -30.3636 16.3636 33.9477
    endloop
  endfacet
  facet normal -0.707107 0 0.707107
    outer loop
      vertex -30.3636 -16.3636 33.9477
      vertex -31 17 33.3113
      vertex -31 -17 33.3113
    endloop
  endfacet
  facet normal -0.408248 -0.408248 -0.816497
    outer loop
      vertex -28 -20 25.7995
      vertex -30.1 -16.1 24.8995
      vertex -27.1 -19.1 24.8995
    endloop
  endfacet
  facet normal -0.408248 -0.408248 -0.816497
    outer loop
      vertex -30.1 -16.1 24.8995
      vertex -28 -20 25.7995
      vertex -31 -17 25.7995
    endloop
  endfacet
  facet normal 0 0.707107 -0.707107
    outer loop
      vertex -27.1 19.1 24.8995
      vertex 28 20 25.7995
      vertex 27.1 19.1 24.8995
    endloop
  endfacet
  facet normal 0 0.707107 -0.707107
    outer loop
      vertex 28 20 25.7995
      vertex -27.1 19.1 24.8995
      vertex -28 20 25.7995
    endloop
  endfacet
  facet normal -0.707107 -0.707107 0
    outer loop
      vertex -28 -20 25.7995
      vertex -31 -17 33.3113
      vertex -31 -17 25.7995
    endloop
  endfacet
  facet normal -0.707107 -0.707107 0
    outer loop
      vertex -31 -17 33.3113
      vertex -28 -20 25.7995
      vertex -28 -20 33.3113
    endloop
  endfacet
  facet normal 0 -1 0
    outer loop
      vertex -28 -20 33.3113
      vertex -9.9 -20 31
      vertex 28 -20 33.3113
    endloop
  endfacet
  facet normal 0 -1 0
    outer loop
      vertex -28 -20 33.3113
      vertex -9.9 -20 29
      vertex -9.9 -20 31
    endloop
  endfacet
  facet normal 0 -1 -0
    outer loop
      vertex -9.9 -20 29
      vertex -28 -20 25.7995
      vertex 9.9 -20 29
    endloop
  endfacet
  facet normal 0 -1 0
    outer loop
      vertex -28 -20 25.7995
      vertex -9.9 -20 29
      vertex -28 -20 33.3113
    endloop
  endfacet
  facet normal 0 -1 0
    outer loop
      vertex 9.9 -20 31
      vertex 28 -20 33.3113
      vertex -9.9 -20 31
    endloop
  endfacet
  facet normal 0 -1 0
    outer loop
      vertex 9.9 -20 29
      vertex 28 -20 33.3113
      vertex 9.9 -20 31
    endloop
  endfacet
  facet normal 0 -1 0
    outer loop
      vertex 9.9 -20 29
      vertex 28 -20 25.7995
      vertex 28 -20 33.3113
    endloop
  endfacet
  facet normal 0 -1 0
    outer loop
      vertex 28 -20 25.7995
      vertex 9.9 -20 29
      vertex -28 -20 25.7995
    endloop
  endfacet
  facet normal -0.707107 0.707107 0
    outer loop
      vertex -31 17 25.7995
      vertex -28 20 33.3113
      vertex -28 20 25.7995
    endloop
  endfacet
  facet normal -0.707107 0.707107 0
    outer loop
      vertex -28 20 33.3113
      vertex -31 17 25.7995
      vertex -31 17 33.3113
    endloop
  endfacet
  facet normal -0.707107 0 -0.707107
    outer loop
      vertex -31 -17 25.7995
      vertex -30.1 16.1 24.8995
      vertex -30.1 -16.1 24.8995
    endloop
  endfacet
  facet normal -0.707107 0 -0.707107
    outer loop
      vertex -30.1 16.1 24.8995
      vertex -31 -17 25.7995
      vertex -31 17 25.7995
    endloop
  endfacet
  facet normal -0.408248 0.408248 0.816497
    outer loop
      vertex -28 20 33.3113
      vertex -30.3636 16.3636 33.9477
      vertex -27.3636 19.3636 33.9477
    endloop
  endfacet
  facet normal -0.408248 0.408248 0.816497
    outer loop
      vertex -30.3636 16.3636 33.9477
      vertex -28 20 33.3113
      vertex -31 17 33.3113
    endloop
  endfacet
  facet normal 0.408248 -0.408248 -0.816497
    outer loop
      vertex 28 -20 25.7995
      vertex 30.1 -16.1 24.8995
      vertex 31 -17 25.7995
    endloop
  endfacet
  facet normal 0.408248 -0.408248 -0.816497
    outer loop
      vertex 30.1 -16.1 24.8995
      vertex 28 -20 25.7995
      vertex 27.1 -19.1 24.8995
    endloop
  endfacet
  facet normal 0 -0.707107 0.707107
    outer loop
      vertex -27.3636 -19.3636 33.9477
      vertex 28 -20 33.3113
      vertex 27.3636 -19.3636 33.9477
    endloop
  endfacet
  facet normal 0 -0.707107 0.707107
    outer loop
      vertex 28 -20 33.3113
      vertex -27.3636 -19.3636 33.9477
      vertex -28 -20 33.3113
    endloop
  endfacet
  facet normal 0.408248 -0.408248 0.816497
    outer loop
      vertex 30.3636 -16.3636 33.9477
      vertex 28 -20 33.3113
      vertex 31 -17 33.3113
    endloop
  endfacet
  facet normal 0.408248 -0.408248 0.816497
    outer loop
      vertex 28 -20 33.3113
      vertex 30.3636 -16.3636 33.9477
      vertex 27.3636 -19.3636 33.9477
    endloop
  endfacet
  facet normal 0 -0.707107 -0.707107
    outer loop
      vertex 28 -20 25.7995
      vertex -27.1 -19.1 24.8995
      vertex 27.1 -19.1 24.8995
    endloop
  endfacet
  facet normal 0 -0.707107 -0.707107
    outer loop
      vertex -27.1 -19.1 24.8995
      vertex 28 -20 25.7995
      vertex -28 -20 25.7995
    endloop
  endfacet
  facet normal 0 0.707107 0.707107
    outer loop
      vertex 28 20 33.3113
      vertex -27.3636 19.3636 33.9477
      vertex 27.3636 19.3636 33.9477
    endloop
  endfacet
  facet normal 0 0.707107 0.707107
    outer loop
      vertex -27.3636 19.3636 33.9477
      vertex 28 20 33.3113
      vertex -28 20 33.3113
    endloop
  endfacet
  facet normal -0.408248 0.408248 -0.816497
    outer loop
      vertex -30.1 16.1 24.8995
      vertex -28 20 25.7995
      vertex -27.1 19.1 24.8995
    endloop
  endfacet
  facet normal -0.408248 0.408248 -0.816497
    outer loop
      vertex -28 20 25.7995
      vertex -30.1 16.1 24.8995
      vertex -31 17 25.7995
    endloop
  endfacet
  facet normal -1 0 0
    outer loop
      vertex -31 17 25.7995
      vertex -31 9.9 29
      vertex -31 17 33.3113
    endloop
  endfacet
  facet normal -1 0 0
    outer loop
      vertex -31 17 25.7995
      vertex -31 -9.9 29
      vertex -31 9.9 29
    endloop
  endfacet
  facet normal -1 0 0
    outer loop
      vertex -31 -17 33.3113
      vertex -31 -9.9 29
      vertex -31 -17 25.7995
    endloop
  endfacet
  facet normal -1 0 0
    outer loop
      vertex -31 -17 25.7995
      vertex -31 -9.9 29
      vertex -31 17 25.7995
    endloop
  endfacet
  facet normal -1 0 0
    outer loop
      vertex -31 9.9 31
      vertex -31 17 33.3113
      vertex -31 9.9 29
    endloop
  endfacet
  facet normal -1 0 0
    outer loop
      vertex -31 -9.9 31
      vertex -31 17 33.3113
      vertex -31 9.9 31
    endloop
  endfacet
  facet normal -1 0 0
    outer loop
      vertex -31 -9.9 31
      vertex -31 -17 33.3113
      vertex -31 17 33.3113
    endloop
  endfacet
  facet normal -1 0 0
    outer loop
      vertex -31 -9.9 29
      vertex -31 -17 33.3113
      vertex -31 -9.9 31
    endloop
  endfacet
  facet normal -0.408248 -0.408248 0.816497
    outer loop
      vertex -30.3636 -16.3636 33.9477
      vertex -28 -20 33.3113
      vertex -27.3636 -19.3636 33.9477
    endloop
  endfacet
  facet normal -0.408248 -0.408248 0.816497
    outer loop
      vertex -28 -20 33.3113
      vertex -30.3636 -16.3636 33.9477
      vertex -31 -17 33.3113
    endloop
  endfacet
  facet normal 0 1 0
    outer loop
      vertex 28 20 33.3113
      vertex 9.9 20 31
      vertex -28 20 33.3113
    endloop
  endfacet
  facet normal 0 1 0
    outer loop
      vertex 28 20 33.3113
      vertex 9.9 20 29
      vertex 9.9 20 31
    endloop
  endfacet
  facet normal 0 1 0
    outer loop
      vertex 9.9 20 29
      vertex 28 20 25.7995
      vertex -9.9 20 29
    endloop
  endfacet
  facet normal 0 1 -0
    outer loop
      vertex 28 20 25.7995
      vertex 9.9 20 29
      vertex 28 20 33.3113
    endloop
  endfacet
  facet normal 0 1 -0
    outer loop
      vertex -9.9 20 31
      vertex -28 20 33.3113
      vertex 9.9 20 31
    endloop
  endfacet
  facet normal 0 1 -0
    outer loop
      vertex -9.9 20 29
      vertex -28 20 33.3113
      vertex -9.9 20 31
    endloop
  endfacet
  facet normal 0 1 0
    outer loop
      vertex -9.9 20 29
      vertex -28 20 25.7995
      vertex -28 20 33.3113
    endloop
  endfacet
  facet normal 0 1 0
    outer loop
      vertex -28 20 25.7995
      vertex -9.9 20 29
      vertex 28 20 25.7995
    endloop
  endfacet
  facet normal 0.408248 0.408248 0.816497
    outer loop
      vertex 28 20 33.3113
      vertex 30.3636 16.3636 33.9477
      vertex 31 17 33.3113
    endloop
  endfacet
  facet normal 0.408248 0.408248 0.816497
    outer loop
      vertex 30.3636 16.3636 33.9477
      vertex 28 20 33.3113
      vertex 27.3636 19.3636 33.9477
    endloop
  endfacet
  facet normal 1 0 0
    outer loop
      vertex 31 9.9 29
      vertex 31 17 33.3113
      vertex 31 9.9 31
    endloop
  endfacet
  facet normal 1 0 0
    outer loop
      vertex 31 17 33.3113
      vertex 31 -9.9 31
      vertex 31 9.9 31
    endloop
  endfacet
  facet normal 1 0 0
    outer loop
      vertex 31 -9.9 31
      vertex 31 -17 33.3113
      vertex 31 -9.9 29
    endloop
  endfacet
  facet normal 1 -0 0
    outer loop
      vertex 31 -17 33.3113
      vertex 31 -9.9 31
      vertex 31 17 33.3113
    endloop
  endfacet
  facet normal 1 0 0
    outer loop
      vertex 31 17 33.3113
      vertex 31 9.9 29
      vertex 31 17 25.7995
    endloop
  endfacet
  facet normal 1 -0 0
    outer loop
      vertex 31 -9.9 29
      vertex 31 17 25.7995
      vertex 31 9.9 29
    endloop
  endfacet
  facet normal 1 0 0
    outer loop
      vertex 31 -9.9 29
      vertex 31 -17 25.7995
      vertex 31 17 25.7995
    endloop
  endfacet
  facet normal 1 0 0
    outer loop
      vertex 31 -17 25.7995
      vertex 31 -9.9 29
      vertex 31 -17 33.3113
    endloop
  endfacet
  facet normal 0.707107 -0.707107 0
    outer loop
      vertex 28 -20 33.3113
      vertex 31 -17 25.7995
      vertex 31 -17 33.3113
    endloop
  endfacet
  facet normal 0.707107 -0.707107 0
    outer loop
      vertex 31 -17 25.7995
      vertex 28 -20 33.3113
      vertex 28 -20 25.7995
    endloop
  endfacet
  facet normal 0.707107 0 0.707107
    outer loop
      vertex 30.3636 16.3636 33.9477
      vertex 31 -17 33.3113
      vertex 31 17 33.3113
    endloop
  endfacet
  facet normal 0.707107 0 0.707107
    outer loop
      vertex 31 -17 33.3113
      vertex 30.3636 16.3636 33.9477
      vertex 30.3636 -16.3636 33.9477
    endloop
  endfacet
  facet normal 0.408248 0.408248 -0.816497
    outer loop
      vertex 30.1 16.1 24.8995
      vertex 28 20 25.7995
      vertex 31 17 25.7995
    endloop
  endfacet
  facet normal 0.408248 0.408248 -0.816497
    outer loop
      vertex 28 20 25.7995
      vertex 30.1 16.1 24.8995
      vertex 27.1 19.1 24.8995
    endloop
  endfacet
  facet normal 0 0 1
    outer loop
      vertex 27.3636 19.3636 33.9477
      vertex 30.3636 -16.3636 33.9477
      vertex 30.3636 16.3636 33.9477
    endloop
  endfacet
  facet normal 0 0 1
    outer loop
      vertex 27.3636 19.3636 33.9477
      vertex 27.3636 -19.3636 33.9477
      vertex 30.3636 -16.3636 33.9477
    endloop
  endfacet
  facet normal -0 0 1
    outer loop
      vertex -27.3636 19.3636 33.9477
      vertex 27.3636 -19.3636 33.9477
      vertex 27.3636 19.3636 33.9477
    endloop
  endfacet
  facet normal 0 0 1
    outer loop
      vertex -27.3636 19.3636 33.9477
      vertex -27.3636 -19.3636 33.9477
      vertex 27.3636 -19.3636 33.9477
    endloop
  endfacet
  facet normal -0 0 1
    outer loop
      vertex -30.3636 16.3636 33.9477
      vertex -27.3636 -19.3636 33.9477
      vertex -27.3636 19.3636 33.9477
    endloop
  endfacet
  facet normal 0 0 1
    outer loop
      vertex -27.3636 -19.3636 33.9477
      vertex -30.3636 16.3636 33.9477
      vertex -30.3636 -16.3636 33.9477
    endloop
  endfacet
  facet normal 0.707107 0.707107 0
    outer loop
      vertex 31 17 33.3113
      vertex 28 20 25.7995
      vertex 28 20 33.3113
    endloop
  endfacet
  facet normal 0.707107 0.707107 0
    outer loop
      vertex 28 20 25.7995
      vertex 31 17 33.3113
      vertex 31 17 25.7995
    endloop
  endfacet
  facet normal 0.707107 0 -0.707107
    outer loop
      vertex 30.1 -16.1 24.8995
      vertex 31 17 25.7995
      vertex 31 -17 25.7995
    endloop
  endfacet
  facet normal 0.707107 0 -0.707107
    outer loop
      vertex 31 17 25.7995
      vertex 30.1 -16.1 24.8995
      vertex 30.1 16.1 24.8995
    endloop
  endfacet
  facet normal 1 -0 0
    outer loop
      vertex 32.5 -9.9 30.0005
      vertex 32.5 9.9 29.9995
      vertex 32.5 9.9 30.0005
    endloop
  endfacet
  facet normal 1 0 0
    outer loop
      vertex 32.5 9.9 29.9995
      vertex 32.5 -9.9 30.0005
      vertex 32.5 -9.9 29.9995
    endloop
  endfacet
  facet normal 0.554508 0 -0.832178
    outer loop
      vertex 31 -9.9 29
      vertex 32.5 9.9 29.9995
      vertex 32.5 -9.9 29.9995
    endloop
  endfacet
  facet normal 0.554508 0 -0.832178
    outer loop
      vertex 32.5 9.9 29.9995
      vertex 31 -9.9 29
      vertex 31 9.9 29
    endloop
  endfacet
  facet normal 0.554508 0 0.832178
    outer loop
      vertex 31 9.9 31
      vertex 32.5 -9.9 30.0005
      vertex 32.5 9.9 30.0005
    endloop
  endfacet
  facet normal 0.554508 0 0.832178
    outer loop
      vertex 32.5 -9.9 30.0005
      vertex 31 9.9 31
      vertex 31 -9.9 31
    endloop
  endfacet
  facet normal 0 1 -0
    outer loop
      vertex 32.5 9.9 29.9995
      vertex 31 9.9 31
      vertex 32.5 9.9 30.0005
    endloop
  endfacet
  facet normal 0 1 0
    outer loop
      vertex 31 9.9 31
      vertex 32.5 9.9 29.9995
      vertex 31 9.9 29
    endloop
  endfacet
  facet normal 0 -1 0
    outer loop
      vertex 31 -9.9 31
      vertex 32.5 -9.9 29.9995
      vertex 32.5 -9.9 30.0005
    endloop
  endfacet
  facet normal -0 -1 0
    outer loop
      vertex 32.5 -9.9 29.9995
      vertex 31 -9.9 31
      vertex 31 -9.9 29
    endloop
  endfacet
  facet normal 0 1 -0
    outer loop
      vertex 9.9 21.5 29.9995
      vertex -9.9 21.5 30.0005
      vertex 9.9 21.5 30.0005
    endloop
  endfacet
  facet normal 0 1 0
    outer loop
      vertex -9.9 21.5 30.0005
      vertex 9.9 21.5 29.9995
      vertex -9.9 21.5 29.9995
    endloop
  endfacet
  facet normal -0 0.554508 0.832178
    outer loop
      vertex -9.9 21.5 30.0005
      vertex 9.9 20 31
      vertex 9.9 21.5 30.0005
    endloop
  endfacet
  facet normal 0 0.554508 0.832178
    outer loop
      vertex 9.9 20 31
      vertex -9.9 21.5 30.0005
      vertex -9.9 20 31
    endloop
  endfacet
  facet normal -1 0 0
    outer loop
      vertex -9.9 20 29
      vertex -9.9 21.5 30.0005
      vertex -9.9 21.5 29.9995
    endloop
  endfacet
  facet normal -1 -0 0
    outer loop
      vertex -9.9 21.5 30.0005
      vertex -9.9 20 29
      vertex -9.9 20 31
    endloop
  endfacet
  facet normal 0 0.554508 -0.832178
    outer loop
      vertex -9.9 20 29
      vertex 9.9 21.5 29.9995
      vertex 9.9 20 29
    endloop
  endfacet
  facet normal 0 0.554508 -0.832178
    outer loop
      vertex 9.9 21.5 29.9995
      vertex -9.9 20 29
      vertex -9.9 21.5 29.9995
    endloop
  endfacet
  facet normal 1 0 0
    outer loop
      vertex 9.9 20 31
      vertex 9.9 21.5 29.9995
      vertex 9.9 21.5 30.0005
    endloop
  endfacet
  facet normal 1 0 0
    outer loop
      vertex 9.9 21.5 29.9995
      vertex 9.9 20 31
      vertex 9.9 20 29
    endloop
  endfacet
  facet normal -1 0 0
    outer loop
      vertex -32.5 -9.9 29.9995
      vertex -32.5 9.9 30.0005
      vertex -32.5 9.9 29.9995
    endloop
  endfacet
  facet normal -1 -0 0
    outer loop
      vertex -32.5 9.9 30.0005
      vertex -32.5 -9.9 29.9995
      vertex -32.5 -9.9 30.0005
    endloop
  endfacet
  facet normal -0.554508 0 0.832178
    outer loop
      vertex -32.5 9.9 30.0005
      vertex -31 -9.9 31
      vertex -31 9.9 31
    endloop
  endfacet
  facet normal -0.554508 0 0.832178
    outer loop
      vertex -31 -9.9 31
      vertex -32.5 9.9 30.0005
      vertex -32.5 -9.9 30.0005
    endloop
  endfacet
  facet normal 0 -1 0
    outer loop
      vertex -32.5 -9.9 29.9995
      vertex -31 -9.9 31
      vertex -32.5 -9.9 30.0005
    endloop
  endfacet
  facet normal 0 -1 -0
    outer loop
      vertex -31 -9.9 31
      vertex -32.5 -9.9 29.9995
      vertex -31 -9.9 29
    endloop
  endfacet
  facet normal -0.554508 0 -0.832178
    outer loop
      vertex -32.5 -9.9 29.9995
      vertex -31 9.9 29
      vertex -31 -9.9 29
    endloop
  endfacet
  facet normal -0.554508 0 -0.832178
    outer loop
      vertex -31 9.9 29
      vertex -32.5 -9.9 29.9995
      vertex -32.5 9.9 29.9995
    endloop
  endfacet
  facet normal 0 1 0
    outer loop
      vertex -31 9.9 31
      vertex -32.5 9.9 29.9995
      vertex -32.5 9.9 30.0005
    endloop
  endfacet
  facet normal -0 1 0
    outer loop
      vertex -32.5 9.9 29.9995
      vertex -31 9.9 31
      vertex -31 9.9 29
    endloop
  endfacet
  facet normal 0 -1 0
    outer loop
      vertex -9.9 -21.5 29.9995
      vertex 9.9 -21.5 30.0005
      vertex -9.9 -21.5 30.0005
    endloop
  endfacet
  facet normal 0 -1 -0
    outer loop
      vertex 9.9 -21.5 30.0005
      vertex -9.9 -21.5 29.9995
      vertex 9.9 -21.5 29.9995
    endloop
  endfacet
  facet normal 0 -0.554508 -0.832178
    outer loop
      vertex -9.9 -21.5 29.9995
      vertex 9.9 -20 29
      vertex 9.9 -21.5 29.9995
    endloop
  endfacet
  facet normal -0 -0.554508 -0.832178
    outer loop
      vertex 9.9 -20 29
      vertex -9.9 -21.5 29.9995
      vertex -9.9 -20 29
    endloop
  endfacet
  facet normal 0 -0.554508 0.832178
    outer loop
      vertex -9.9 -20 31
      vertex 9.9 -21.5 30.0005
      vertex 9.9 -20 31
    endloop
  endfacet
  facet normal 0 -0.554508 0.832178
    outer loop
      vertex 9.9 -21.5 30.0005
      vertex -9.9 -20 31
      vertex -9.9 -21.5 30.0005
    endloop
  endfacet
  facet normal 1 -0 0
    outer loop
      vertex 9.9 -21.5 30.0005
      vertex 9.9 -20 29
      vertex 9.9 -20 31
    endloop
  endfacet
  facet normal 1 0 0
    outer loop
      vertex 9.9 -20 29
      vertex 9.9 -21.5 30.0005
      vertex 9.9 -21.5 29.9995
    endloop
  endfacet
  facet normal -1 0 0
    outer loop
      vertex -9.9 -21.5 29.9995
      vertex -9.9 -20 31
      vertex -9.9 -20 29
    endloop
  endfacet
  facet normal -1 0 0
    outer loop
      vertex -9.9 -20 31
      vertex -9.9 -21.5 29.9995
      vertex -9.9 -21.5 30.0005
    endloop
  endfacet
endsolid OpenSCAD_Model
