solid OpenSCAD_Model
  facet normal 0 0.707094 0.707119
    outer loop
      vertex 28.9225 -17.9225 0.900001
      vertex -28.9225 -19.1 2.07746
      vertex 28.9225 -19.1 2.07746
    endloop
  endfacet
  facet normal 0 0.707094 0.707119
    outer loop
      vertex 28.9225 -17.9225 0.900001
      vertex -28.9225 -17.9225 0.900001
      vertex -28.9225 -19.1 2.07746
    endloop
  endfacet
  facet normal 0 1 -0
    outer loop
      vertex 28.9225 -17.9225 0.9
      vertex -28.9225 -17.9225 0.900001
      vertex 28.9225 -17.9225 0.900001
    endloop
  endfacet
  facet normal 0 1 0
    outer loop
      vertex -28.9225 -17.9225 0.900001
      vertex 28.9225 -17.9225 0.9
      vertex -28.9225 -17.9225 0.9
    endloop
  endfacet
  facet normal 0.707094 0 0.707119
    outer loop
      vertex -30.1 17.9225 2.07746
      vertex -30.1 -17.9225 2.07746
      vertex -28.9225 17.9225 0.900001
    endloop
  endfacet
  facet normal 0.707094 -0 0.707119
    outer loop
      vertex -28.9225 -17.9225 0.900001
      vertex -28.9225 17.9225 0.900001
      vertex -30.1 -17.9225 2.07746
    endloop
  endfacet
  facet normal 1 0 0
    outer loop
      vertex -28.9225 17.9225 0.900001
      vertex -28.9225 -17.9225 0.900001
      vertex -28.9225 17.9225 0.9
    endloop
  endfacet
  facet normal 1 0 0
    outer loop
      vertex -28.9225 17.9225 0.9
      vertex -28.9225 -17.9225 0.900001
      vertex -28.9225 -17.9225 0.9
    endloop
  endfacet
  facet normal 0.707107 0.707107 0
    outer loop
      vertex -28.9225 -19.1 33.6172
      vertex -30.1 -17.9225 2.07746
      vertex -30.1 -17.9225 33.6172
    endloop
  endfacet
  facet normal 0.707107 0.707107 0.000457971
    outer loop
      vertex -28.9225 -19.1 33.6172
      vertex -30.1 -17.9225 33.6172
      vertex -29.9456 -18.077 33.7716
    endloop
  endfacet
  facet normal 0.707107 0.707107 0.000457971
    outer loop
      vertex -28.9225 -19.1 33.6172
      vertex -29.9456 -18.077 33.7716
      vertex -29.077 -18.9456 33.7716
    endloop
  endfacet
  facet normal 0.707107 0.707107 -0
    outer loop
      vertex -28.9225 -19.1 2.07746
      vertex -30.1 -17.9225 2.07746
      vertex -28.9225 -19.1 33.6172
    endloop
  endfacet
  facet normal 0 -0.707094 0.707119
    outer loop
      vertex -28.9225 17.9225 0.900001
      vertex 28.9225 19.1 2.07746
      vertex -28.9225 19.1 2.07746
    endloop
  endfacet
  facet normal 0 -0.707094 0.707119
    outer loop
      vertex -28.9225 17.9225 0.900001
      vertex 28.9225 17.9225 0.900001
      vertex 28.9225 19.1 2.07746
    endloop
  endfacet
  facet normal 0 -1 0
    outer loop
      vertex -28.9225 17.9225 0.9
      vertex 28.9225 17.9225 0.900001
      vertex -28.9225 17.9225 0.900001
    endloop
  endfacet
  facet normal 0 -1 -0
    outer loop
      vertex 28.9225 17.9225 0.900001
      vertex -28.9225 17.9225 0.9
      vertex 28.9225 17.9225 0.9
    endloop
  endfacet
  facet normal -1 0 0
    outer loop
      vertex 28.9225 -17.9225 0.900001
      vertex 28.9225 17.9225 0.900001
      vertex 28.9225 17.9225 0.9
    endloop
  endfacet
  facet normal -0.707094 0 0.707119
    outer loop
      vertex 28.9225 17.9225 0.900001
      vertex 28.9225 -17.9225 0.900001
      vertex 30.1 17.9225 2.07746
    endloop
  endfacet
  facet normal -1 0 0
    outer loop
      vertex 28.9225 -17.9225 0.900001
      vertex 28.9225 17.9225 0.9
      vertex 28.9225 -17.9225 0.9
    endloop
  endfacet
  facet normal -0.707094 0 0.707119
    outer loop
      vertex 30.1 -17.9225 2.07746
      vertex 30.1 17.9225 2.07746
      vertex 28.9225 -17.9225 0.900001
    endloop
  endfacet
  facet normal -0.707107 0.707107 0
    outer loop
      vertex 30.1 -17.9225 2.07746
      vertex 28.9225 -19.1 33.6172
      vertex 30.1 -17.9225 33.6172
    endloop
  endfacet
  facet normal -0.707107 0.707107 0.000457971
    outer loop
      vertex 30.1 -17.9225 33.6172
      vertex 28.9225 -19.1 33.6172
      vertex 29.9456 -18.077 33.7716
    endloop
  endfacet
  facet normal -0.707107 0.707107 0
    outer loop
      vertex 30.1 -17.9225 2.07746
      vertex 28.9225 -19.1 2.07746
      vertex 28.9225 -19.1 33.6172
    endloop
  endfacet
  facet normal -0.707107 0.707107 0.000457971
    outer loop
      vertex 29.9456 -18.077 33.7716
      vertex 28.9225 -19.1 33.6172
      vertex 29.077 -18.9456 33.7716
    endloop
  endfacet
  facet normal 0.707107 -0.707107 0
    outer loop
      vertex -30.1 17.9225 33.6172
      vertex -28.9225 19.1 2.07746
      vertex -28.9225 19.1 33.6172
    endloop
  endfacet
  facet normal 0.707107 -0.707107 0.000457971
    outer loop
      vertex -30.1 17.9225 33.6172
      vertex -28.9225 19.1 33.6172
      vertex -29.077 18.9456 33.7716
    endloop
  endfacet
  facet normal 0.707107 -0.707107 0.000457971
    outer loop
      vertex -30.1 17.9225 33.6172
      vertex -29.077 18.9456 33.7716
      vertex -29.9456 18.077 33.7716
    endloop
  endfacet
  facet normal 0.707107 -0.707107 0
    outer loop
      vertex -30.1 17.9225 2.07746
      vertex -28.9225 19.1 2.07746
      vertex -30.1 17.9225 33.6172
    endloop
  endfacet
  facet normal -0.707107 -0.707107 0
    outer loop
      vertex 28.9225 19.1 2.07746
      vertex 30.1 17.9225 33.6172
      vertex 28.9225 19.1 33.6172
    endloop
  endfacet
  facet normal -0.707107 -0.707107 0.000457971
    outer loop
      vertex 28.9225 19.1 33.6172
      vertex 30.1 17.9225 33.6172
      vertex 29.077 18.9456 33.7716
    endloop
  endfacet
  facet normal -0.707107 -0.707107 0
    outer loop
      vertex 28.9225 19.1 2.07746
      vertex 30.1 17.9225 2.07746
      vertex 30.1 17.9225 33.6172
    endloop
  endfacet
  facet normal -0.707107 -0.707107 0.000457971
    outer loop
      vertex 29.077 18.9456 33.7716
      vertex 30.1 17.9225 33.6172
      vertex 29.9456 18.077 33.7716
    endloop
  endfacet
  facet normal 0.577344 0.577344 0.577364
    outer loop
      vertex -28.9225 -17.9225 0.900001
      vertex -30.1 -17.9225 2.07746
      vertex -28.9225 -19.1 2.07746
    endloop
  endfacet
  facet normal -0.577344 0.577344 0.577364
    outer loop
      vertex 28.9225 -17.9225 0.900001
      vertex 28.9225 -19.1 2.07746
      vertex 30.1 -17.9225 2.07746
    endloop
  endfacet
  facet normal 0.577344 -0.577344 0.577364
    outer loop
      vertex -28.9225 19.1 2.07746
      vertex -30.1 17.9225 2.07746
      vertex -28.9225 17.9225 0.900001
    endloop
  endfacet
  facet normal -0.577344 -0.577344 0.577364
    outer loop
      vertex 28.9225 19.1 2.07746
      vertex 28.9225 17.9225 0.900001
      vertex 30.1 17.9225 2.07746
    endloop
  endfacet
  facet normal -0 0 1
    outer loop
      vertex -28.9225 17.9225 0.9
      vertex 28.9225 -17.9225 0.9
      vertex 28.9225 17.9225 0.9
    endloop
  endfacet
  facet normal 0 0 1
    outer loop
      vertex 28.9225 -17.9225 0.9
      vertex -28.9225 17.9225 0.9
      vertex -28.9225 -17.9225 0.9
    endloop
  endfacet
  facet normal 1 -0 0
    outer loop
      vertex -30.1 -17.9225 33.6172
      vertex -30.1 17.9225 2.07746
      vertex -30.1 17.9225 33.6172
    endloop
  endfacet
  facet normal 1 0 0
    outer loop
      vertex -30.1 17.9225 2.07746
      vertex -30.1 -17.9225 33.6172
      vertex -30.1 -17.9225 2.07746
    endloop
  endfacet
  facet normal 0 -1 0
    outer loop
      vertex -28.9225 19.1 2.07746
      vertex 28.9225 19.1 33.6172
      vertex -28.9225 19.1 33.6172
    endloop
  endfacet
  facet normal 0 -1 -0
    outer loop
      vertex 28.9225 19.1 33.6172
      vertex -28.9225 19.1 2.07746
      vertex 28.9225 19.1 2.07746
    endloop
  endfacet
  facet normal -1 0 0
    outer loop
      vertex 30.1 -17.9225 2.07746
      vertex 30.1 17.9225 33.6172
      vertex 30.1 17.9225 2.07746
    endloop
  endfacet
  facet normal -1 -0 0
    outer loop
      vertex 30.1 17.9225 33.6172
      vertex 30.1 -17.9225 2.07746
      vertex 30.1 -17.9225 33.6172
    endloop
  endfacet
  facet normal 0 1 -0
    outer loop
      vertex 28.9225 -19.1 2.07746
      vertex -28.9225 -19.1 33.6172
      vertex 28.9225 -19.1 33.6172
    endloop
  endfacet
  facet normal 0 1 0
    outer loop
      vertex -28.9225 -19.1 33.6172
      vertex 28.9225 -19.1 2.07746
      vertex -28.9225 -19.1 2.07746
    endloop
  endfacet
  facet normal 0 0.707107 0.707107
    outer loop
      vertex 28.9225 19.1 33.6172
      vertex 29.077 20 32.7172
      vertex -28.9225 19.1 33.6172
    endloop
  endfacet
  facet normal 0 0.707107 0.707107
    outer loop
      vertex 29.077 20 32.7172
      vertex 28.9225 19.1 33.6172
      vertex 29.077 18.9456 33.7716
    endloop
  endfacet
  facet normal 0 0.707107 0.707107
    outer loop
      vertex -28.9225 19.1 33.6172
      vertex -29.077 20 32.7172
      vertex -29.077 18.9456 33.7716
    endloop
  endfacet
  facet normal -0 0.707107 0.707107
    outer loop
      vertex -29.077 20 32.7172
      vertex -28.9225 19.1 33.6172
      vertex 29.077 20 32.7172
    endloop
  endfacet
  facet normal -0.707114 0 -0.707099
    outer loop
      vertex -31 -18.077 1.92304
      vertex -29.077 18.077 0
      vertex -29.077 -18.077 0
    endloop
  endfacet
  facet normal -0.707114 0 -0.707099
    outer loop
      vertex -29.077 18.077 0
      vertex -31 -18.077 1.92304
      vertex -31 18.077 1.92304
    endloop
  endfacet
  facet normal 0.707107 -0.707107 0
    outer loop
      vertex 29.077 -20 32.7172
      vertex 31 -18.077 1.92304
      vertex 31 -18.077 32.7172
    endloop
  endfacet
  facet normal 0.707107 -0.707107 0
    outer loop
      vertex 31 -18.077 1.92304
      vertex 29.077 -20 32.7172
      vertex 29.077 -20 1.92304
    endloop
  endfacet
  facet normal -0.57735 0.57735 0.57735
    outer loop
      vertex -31 18.077 32.7172
      vertex -29.077 18.9456 33.7716
      vertex -29.077 20 32.7172
    endloop
  endfacet
  facet normal -0.57735 0.57735 0.57735
    outer loop
      vertex -29.077 18.9456 33.7716
      vertex -31 18.077 32.7172
      vertex -29.9456 18.077 33.7716
    endloop
  endfacet
  facet normal -1 0 0
    outer loop
      vertex -31 18.077 1.92304
      vertex -31 9.8 20
      vertex -31 18.077 32.7172
    endloop
  endfacet
  facet normal -1 0 0
    outer loop
      vertex -31 18.077 1.92304
      vertex -31 -9.8 20
      vertex -31 9.8 20
    endloop
  endfacet
  facet normal -1 0 0
    outer loop
      vertex -31 -18.077 32.7172
      vertex -31 -9.8 20
      vertex -31 -18.077 1.92304
    endloop
  endfacet
  facet normal -1 0 0
    outer loop
      vertex -31 -18.077 1.92304
      vertex -31 -9.8 20
      vertex -31 18.077 1.92304
    endloop
  endfacet
  facet normal -1 0 0
    outer loop
      vertex -31 9.8 22
      vertex -31 18.077 32.7172
      vertex -31 9.8 20
    endloop
  endfacet
  facet normal -1 0 0
    outer loop
      vertex -31 -9.8 22
      vertex -31 18.077 32.7172
      vertex -31 9.8 22
    endloop
  endfacet
  facet normal -1 0 0
    outer loop
      vertex -31 -9.8 22
      vertex -31 -18.077 32.7172
      vertex -31 18.077 32.7172
    endloop
  endfacet
  facet normal -1 0 0
    outer loop
      vertex -31 -9.8 20
      vertex -31 -18.077 32.7172
      vertex -31 -9.8 22
    endloop
  endfacet
  facet normal 0.57735 -0.57735 0.57735
    outer loop
      vertex 29.077 -18.9456 33.7716
      vertex 31 -18.077 32.7172
      vertex 29.9456 -18.077 33.7716
    endloop
  endfacet
  facet normal 0.57735 -0.57735 0.57735
    outer loop
      vertex 31 -18.077 32.7172
      vertex 29.077 -18.9456 33.7716
      vertex 29.077 -20 32.7172
    endloop
  endfacet
  facet normal 0.707107 0.707107 0
    outer loop
      vertex 31 18.077 32.7172
      vertex 29.077 20 1.92304
      vertex 29.077 20 32.7172
    endloop
  endfacet
  facet normal 0.707107 0.707107 0
    outer loop
      vertex 29.077 20 1.92304
      vertex 31 18.077 32.7172
      vertex 31 18.077 1.92304
    endloop
  endfacet
  facet normal 0.57735 0.57735 0.57735
    outer loop
      vertex 31 18.077 32.7172
      vertex 29.077 18.9456 33.7716
      vertex 29.9456 18.077 33.7716
    endloop
  endfacet
  facet normal 0.57735 0.57735 0.57735
    outer loop
      vertex 29.077 18.9456 33.7716
      vertex 31 18.077 32.7172
      vertex 29.077 20 32.7172
    endloop
  endfacet
  facet normal -0.57735 -0.57735 0.57735
    outer loop
      vertex -31 -18.077 32.7172
      vertex -29.077 -18.9456 33.7716
      vertex -29.9456 -18.077 33.7716
    endloop
  endfacet
  facet normal -0.57735 -0.57735 0.57735
    outer loop
      vertex -29.077 -18.9456 33.7716
      vertex -31 -18.077 32.7172
      vertex -29.077 -20 32.7172
    endloop
  endfacet
  facet normal 0.707114 0 -0.707099
    outer loop
      vertex 29.077 -18.077 0
      vertex 31 18.077 1.92304
      vertex 31 -18.077 1.92304
    endloop
  endfacet
  facet normal 0.707114 0 -0.707099
    outer loop
      vertex 31 18.077 1.92304
      vertex 29.077 -18.077 0
      vertex 29.077 18.077 0
    endloop
  endfacet
  facet normal 0.577354 0.577354 -0.577342
    outer loop
      vertex 31 18.077 1.92304
      vertex 29.077 18.077 0
      vertex 29.077 20 1.92304
    endloop
  endfacet
  facet normal 0.707107 0 0.707107
    outer loop
      vertex 30.1 17.9225 33.6172
      vertex 31 18.077 32.7172
      vertex 29.9456 18.077 33.7716
    endloop
  endfacet
  facet normal 0.707107 -0 0.707107
    outer loop
      vertex 30.1 -17.9225 33.6172
      vertex 31 18.077 32.7172
      vertex 30.1 17.9225 33.6172
    endloop
  endfacet
  facet normal 0.707107 0 0.707107
    outer loop
      vertex 30.1 -17.9225 33.6172
      vertex 31 -18.077 32.7172
      vertex 31 18.077 32.7172
    endloop
  endfacet
  facet normal 0.707107 0 0.707107
    outer loop
      vertex 31 -18.077 32.7172
      vertex 30.1 -17.9225 33.6172
      vertex 29.9456 -18.077 33.7716
    endloop
  endfacet
  facet normal -0.707107 -0.707107 0
    outer loop
      vertex -29.077 -20 1.92304
      vertex -31 -18.077 32.7172
      vertex -31 -18.077 1.92304
    endloop
  endfacet
  facet normal -0.707107 -0.707107 0
    outer loop
      vertex -31 -18.077 32.7172
      vertex -29.077 -20 1.92304
      vertex -29.077 -20 32.7172
    endloop
  endfacet
  facet normal 0 -0.707114 -0.707099
    outer loop
      vertex -29.077 -20 1.92304
      vertex 29.077 -18.077 0
      vertex 29.077 -20 1.92304
    endloop
  endfacet
  facet normal -0 -0.707114 -0.707099
    outer loop
      vertex 29.077 -18.077 0
      vertex -29.077 -20 1.92304
      vertex -29.077 -18.077 0
    endloop
  endfacet
  facet normal 0 0 -1
    outer loop
      vertex -29.077 -18.077 0
      vertex 29.077 18.077 0
      vertex 29.077 -18.077 0
    endloop
  endfacet
  facet normal -0 0 -1
    outer loop
      vertex 29.077 18.077 0
      vertex -29.077 -18.077 0
      vertex -29.077 18.077 0
    endloop
  endfacet
  facet normal -0.707107 0 0.707107
    outer loop
      vertex -31 18.077 32.7172
      vertex -30.1 17.9225 33.6172
      vertex -29.9456 18.077 33.7716
    endloop
  endfacet
  facet normal -0.707107 0 0.707107
    outer loop
      vertex -31 18.077 32.7172
      vertex -30.1 -17.9225 33.6172
      vertex -30.1 17.9225 33.6172
    endloop
  endfacet
  facet normal -0.707107 0 0.707107
    outer loop
      vertex -31 -18.077 32.7172
      vertex -30.1 -17.9225 33.6172
      vertex -31 18.077 32.7172
    endloop
  endfacet
  facet normal -0.707107 0 0.707107
    outer loop
      vertex -30.1 -17.9225 33.6172
      vertex -31 -18.077 32.7172
      vertex -29.9456 -18.077 33.7716
    endloop
  endfacet
  facet normal 1 0 0
    outer loop
      vertex 31 9.8 20
      vertex 31 18.077 32.7172
      vertex 31 9.8 22
    endloop
  endfacet
  facet normal 1 0 0
    outer loop
      vertex 31 18.077 32.7172
      vertex 31 -9.8 22
      vertex 31 9.8 22
    endloop
  endfacet
  facet normal 1 0 0
    outer loop
      vertex 31 -9.8 22
      vertex 31 -18.077 32.7172
      vertex 31 -9.8 20
    endloop
  endfacet
  facet normal 1 -0 0
    outer loop
      vertex 31 -18.077 32.7172
      vertex 31 -9.8 22
      vertex 31 18.077 32.7172
    endloop
  endfacet
  facet normal 1 0 0
    outer loop
      vertex 31 18.077 32.7172
      vertex 31 9.8 20
      vertex 31 18.077 1.92304
    endloop
  endfacet
  facet normal 1 -0 0
    outer loop
      vertex 31 -9.8 20
      vertex 31 18.077 1.92304
      vertex 31 9.8 20
    endloop
  endfacet
  facet normal 1 0 0
    outer loop
      vertex 31 -9.8 20
      vertex 31 -18.077 1.92304
      vertex 31 18.077 1.92304
    endloop
  endfacet
  facet normal 1 0 0
    outer loop
      vertex 31 -18.077 1.92304
      vertex 31 -9.8 20
      vertex 31 -18.077 32.7172
    endloop
  endfacet
  facet normal 0 -1 0
    outer loop
      vertex -29.077 -20 32.7172
      vertex -9.8 -20 22
      vertex 29.077 -20 32.7172
    endloop
  endfacet
  facet normal 0 -1 0
    outer loop
      vertex -29.077 -20 32.7172
      vertex -9.8 -20 20
      vertex -9.8 -20 22
    endloop
  endfacet
  facet normal 0 -1 -0
    outer loop
      vertex -9.8 -20 20
      vertex -29.077 -20 1.92304
      vertex 9.8 -20 20
    endloop
  endfacet
  facet normal 0 -1 0
    outer loop
      vertex -29.077 -20 1.92304
      vertex -9.8 -20 20
      vertex -29.077 -20 32.7172
    endloop
  endfacet
  facet normal 0 -1 0
    outer loop
      vertex 9.8 -20 22
      vertex 29.077 -20 32.7172
      vertex -9.8 -20 22
    endloop
  endfacet
  facet normal 0 -1 0
    outer loop
      vertex 9.8 -20 20
      vertex 29.077 -20 32.7172
      vertex 9.8 -20 22
    endloop
  endfacet
  facet normal 0 -1 0
    outer loop
      vertex 9.8 -20 20
      vertex 29.077 -20 1.92304
      vertex 29.077 -20 32.7172
    endloop
  endfacet
  facet normal 0 -1 0
    outer loop
      vertex 29.077 -20 1.92304
      vertex 9.8 -20 20
      vertex -29.077 -20 1.92304
    endloop
  endfacet
  facet normal -0.577354 -0.577354 -0.577342
    outer loop
      vertex -29.077 -20 1.92304
      vertex -31 -18.077 1.92304
      vertex -29.077 -18.077 0
    endloop
  endfacet
  facet normal -0.577354 0.577354 -0.577342
    outer loop
      vertex -29.077 18.077 0
      vertex -31 18.077 1.92304
      vertex -29.077 20 1.92304
    endloop
  endfacet
  facet normal -0.707107 0.707107 0
    outer loop
      vertex -31 18.077 1.92304
      vertex -29.077 20 32.7172
      vertex -29.077 20 1.92304
    endloop
  endfacet
  facet normal -0.707107 0.707107 0
    outer loop
      vertex -29.077 20 32.7172
      vertex -31 18.077 1.92304
      vertex -31 18.077 32.7172
    endloop
  endfacet
  facet normal 0 -0.707107 0.707107
    outer loop
      vertex -28.9225 -19.1 33.6172
      vertex -29.077 -20 32.7172
      vertex 28.9225 -19.1 33.6172
    endloop
  endfacet
  facet normal 0 -0.707107 0.707107
    outer loop
      vertex -29.077 -20 32.7172
      vertex -28.9225 -19.1 33.6172
      vertex -29.077 -18.9456 33.7716
    endloop
  endfacet
  facet normal 0 -0.707107 0.707107
    outer loop
      vertex 28.9225 -19.1 33.6172
      vertex 29.077 -20 32.7172
      vertex 29.077 -18.9456 33.7716
    endloop
  endfacet
  facet normal 0 -0.707107 0.707107
    outer loop
      vertex 29.077 -20 32.7172
      vertex 28.9225 -19.1 33.6172
      vertex -29.077 -20 32.7172
    endloop
  endfacet
  facet normal 0.577354 -0.577354 -0.577342
    outer loop
      vertex 31 -18.077 1.92304
      vertex 29.077 -20 1.92304
      vertex 29.077 -18.077 0
    endloop
  endfacet
  facet normal 0 1 0
    outer loop
      vertex 29.077 20 32.7172
      vertex 9.8 20 22
      vertex -29.077 20 32.7172
    endloop
  endfacet
  facet normal 0 1 0
    outer loop
      vertex 29.077 20 32.7172
      vertex 9.8 20 20
      vertex 9.8 20 22
    endloop
  endfacet
  facet normal 0 1 0
    outer loop
      vertex 9.8 20 20
      vertex 29.077 20 1.92304
      vertex -9.8 20 20
    endloop
  endfacet
  facet normal 0 1 -0
    outer loop
      vertex 29.077 20 1.92304
      vertex 9.8 20 20
      vertex 29.077 20 32.7172
    endloop
  endfacet
  facet normal 0 1 -0
    outer loop
      vertex -9.8 20 22
      vertex -29.077 20 32.7172
      vertex 9.8 20 22
    endloop
  endfacet
  facet normal 0 1 -0
    outer loop
      vertex -9.8 20 20
      vertex -29.077 20 32.7172
      vertex -9.8 20 22
    endloop
  endfacet
  facet normal 0 1 0
    outer loop
      vertex -9.8 20 20
      vertex -29.077 20 1.92304
      vertex -29.077 20 32.7172
    endloop
  endfacet
  facet normal 0 1 0
    outer loop
      vertex -29.077 20 1.92304
      vertex -9.8 20 20
      vertex 29.077 20 1.92304
    endloop
  endfacet
  facet normal 0 0.707114 -0.707099
    outer loop
      vertex -29.077 18.077 0
      vertex 29.077 20 1.92304
      vertex 29.077 18.077 0
    endloop
  endfacet
  facet normal 0 0.707114 -0.707099
    outer loop
      vertex 29.077 20 1.92304
      vertex -29.077 18.077 0
      vertex -29.077 20 1.92304
    endloop
  endfacet
  facet normal 1 -0 0
    outer loop
      vertex 32.5 -9.8 21.0005
      vertex 32.5 9.8 20.9995
      vertex 32.5 9.8 21.0005
    endloop
  endfacet
  facet normal 1 0 0
    outer loop
      vertex 32.5 9.8 20.9995
      vertex 32.5 -9.8 21.0005
      vertex 32.5 -9.8 20.9995
    endloop
  endfacet
  facet normal 0.554508 0 -0.832178
    outer loop
      vertex 31 -9.8 20
      vertex 32.5 9.8 20.9995
      vertex 32.5 -9.8 20.9995
    endloop
  endfacet
  facet normal 0.554508 0 -0.832178
    outer loop
      vertex 32.5 9.8 20.9995
      vertex 31 -9.8 20
      vertex 31 9.8 20
    endloop
  endfacet
  facet normal 0.554508 0 0.832178
    outer loop
      vertex 31 9.8 22
      vertex 32.5 -9.8 21.0005
      vertex 32.5 9.8 21.0005
    endloop
  endfacet
  facet normal 0.554508 0 0.832178
    outer loop
      vertex 32.5 -9.8 21.0005
      vertex 31 9.8 22
      vertex 31 -9.8 22
    endloop
  endfacet
  facet normal 0 1 -0
    outer loop
      vertex 32.5 9.8 20.9995
      vertex 31 9.8 22
      vertex 32.5 9.8 21.0005
    endloop
  endfacet
  facet normal 0 1 0
    outer loop
      vertex 31 9.8 22
      vertex 32.5 9.8 20.9995
      vertex 31 9.8 20
    endloop
  endfacet
  facet normal 0 -1 0
    outer loop
      vertex 31 -9.8 22
      vertex 32.5 -9.8 20.9995
      vertex 32.5 -9.8 21.0005
    endloop
  endfacet
  facet normal -0 -1 0
    outer loop
      vertex 32.5 -9.8 20.9995
      vertex 31 -9.8 22
      vertex 31 -9.8 20
    endloop
  endfacet
  facet normal 0 1 -0
    outer loop
      vertex 9.8 21.5 20.9995
      vertex -9.8 21.5 21.0005
      vertex 9.8 21.5 21.0005
    endloop
  endfacet
  facet normal 0 1 0
    outer loop
      vertex -9.8 21.5 21.0005
      vertex 9.8 21.5 20.9995
      vertex -9.8 21.5 20.9995
    endloop
  endfacet
  facet normal -0 0.554508 0.832178
    outer loop
      vertex -9.8 21.5 21.0005
      vertex 9.8 20 22
      vertex 9.8 21.5 21.0005
    endloop
  endfacet
  facet normal 0 0.554508 0.832178
    outer loop
      vertex 9.8 20 22
      vertex -9.8 21.5 21.0005
      vertex -9.8 20 22
    endloop
  endfacet
  facet normal -1 0 0
    outer loop
      vertex -9.8 20 20
      vertex -9.8 21.5 21.0005
      vertex -9.8 21.5 20.9995
    endloop
  endfacet
  facet normal -1 -0 0
    outer loop
      vertex -9.8 21.5 21.0005
      vertex -9.8 20 20
      vertex -9.8 20 22
    endloop
  endfacet
  facet normal 0 0.554508 -0.832178
    outer loop
      vertex -9.8 20 20
      vertex 9.8 21.5 20.9995
      vertex 9.8 20 20
    endloop
  endfacet
  facet normal 0 0.554508 -0.832178
    outer loop
      vertex 9.8 21.5 20.9995
      vertex -9.8 20 20
      vertex -9.8 21.5 20.9995
    endloop
  endfacet
  facet normal 1 0 0
    outer loop
      vertex 9.8 20 22
      vertex 9.8 21.5 20.9995
      vertex 9.8 21.5 21.0005
    endloop
  endfacet
  facet normal 1 0 0
    outer loop
      vertex 9.8 21.5 20.9995
      vertex 9.8 20 22
      vertex 9.8 20 20
    endloop
  endfacet
  facet normal -1 0 0
    outer loop
      vertex -32.5 -9.8 20.9995
      vertex -32.5 9.8 21.0005
      vertex -32.5 9.8 20.9995
    endloop
  endfacet
  facet normal -1 -0 0
    outer loop
      vertex -32.5 9.8 21.0005
      vertex -32.5 -9.8 20.9995
      vertex -32.5 -9.8 21.0005
    endloop
  endfacet
  facet normal -0.554508 0 0.832178
    outer loop
      vertex -32.5 9.8 21.0005
      vertex -31 -9.8 22
      vertex -31 9.8 22
    endloop
  endfacet
  facet normal -0.554508 0 0.832178
    outer loop
      vertex -31 -9.8 22
      vertex -32.5 9.8 21.0005
      vertex -32.5 -9.8 21.0005
    endloop
  endfacet
  facet normal 0 -1 0
    outer loop
      vertex -32.5 -9.8 20.9995
      vertex -31 -9.8 22
      vertex -32.5 -9.8 21.0005
    endloop
  endfacet
  facet normal 0 -1 -0
    outer loop
      vertex -31 -9.8 22
      vertex -32.5 -9.8 20.9995
      vertex -31 -9.8 20
    endloop
  endfacet
  facet normal -0.554508 0 -0.832178
    outer loop
      vertex -32.5 -9.8 20.9995
      vertex -31 9.8 20
      vertex -31 -9.8 20
    endloop
  endfacet
  facet normal -0.554508 0 -0.832178
    outer loop
      vertex -31 9.8 20
      vertex -32.5 -9.8 20.9995
      vertex -32.5 9.8 20.9995
    endloop
  endfacet
  facet normal 0 1 0
    outer loop
      vertex -31 9.8 22
      vertex -32.5 9.8 20.9995
      vertex -32.5 9.8 21.0005
    endloop
  endfacet
  facet normal -0 1 0
    outer loop
      vertex -32.5 9.8 20.9995
      vertex -31 9.8 22
      vertex -31 9.8 20
    endloop
  endfacet
  facet normal 0 -1 0
    outer loop
      vertex -9.8 -21.5 20.9995
      vertex 9.8 -21.5 21.0005
      vertex -9.8 -21.5 21.0005
    endloop
  endfacet
  facet normal 0 -1 -0
    outer loop
      vertex 9.8 -21.5 21.0005
      vertex -9.8 -21.5 20.9995
      vertex 9.8 -21.5 20.9995
    endloop
  endfacet
  facet normal 0 -0.554508 -0.832178
    outer loop
      vertex -9.8 -21.5 20.9995
      vertex 9.8 -20 20
      vertex 9.8 -21.5 20.9995
    endloop
  endfacet
  facet normal -0 -0.554508 -0.832178
    outer loop
      vertex 9.8 -20 20
      vertex -9.8 -21.5 20.9995
      vertex -9.8 -20 20
    endloop
  endfacet
  facet normal 0 -0.554508 0.832178
    outer loop
      vertex -9.8 -20 22
      vertex 9.8 -21.5 21.0005
      vertex 9.8 -20 22
    endloop
  endfacet
  facet normal 0 -0.554508 0.832178
    outer loop
      vertex 9.8 -21.5 21.0005
      vertex -9.8 -20 22
      vertex -9.8 -21.5 21.0005
    endloop
  endfacet
  facet normal 1 -0 0
    outer loop
      vertex 9.8 -21.5 21.0005
      vertex 9.8 -20 20
      vertex 9.8 -20 22
    endloop
  endfacet
  facet normal 1 0 0
    outer loop
      vertex 9.8 -20 20
      vertex 9.8 -21.5 21.0005
      vertex 9.8 -21.5 20.9995
    endloop
  endfacet
  facet normal -1 0 0
    outer loop
      vertex -9.8 -21.5 20.9995
      vertex -9.8 -20 22
      vertex -9.8 -20 20
    endloop
  endfacet
  facet normal -1 0 0
    outer loop
      vertex -9.8 -20 22
      vertex -9.8 -21.5 20.9995
      vertex -9.8 -21.5 21.0005
    endloop
  endfacet
endsolid OpenSCAD_Model
