solid OpenSCAD_Model
  facet normal 0 -0.707107 -0.707107
    outer loop
      vertex -53.4 -39.4 0
      vertex 53.4 -42.4 3
      vertex -53.4 -42.4 3
    endloop
  endfacet
  facet normal 0 -0.707107 -0.707107
    outer loop
      vertex 53.4 -42.4 3
      vertex -53.4 -39.4 0
      vertex 53.4 -39.4 0
    endloop
  endfacet
  facet normal -0.707107 0 -0.707107
    outer loop
      vertex -53.4 -39.4 0
      vertex -56.4 39.4 3
      vertex -53.4 39.4 0
    endloop
  endfacet
  facet normal -0.707107 0 -0.707107
    outer loop
      vertex -56.4 -39.4 3
      vertex -56.4 39.4 3
      vertex -53.4 -39.4 0
    endloop
  endfacet
  facet normal -0.707107 -0.707107 0
    outer loop
      vertex -56.4 -39.4 3
      vertex -53.4 -42.4 3
      vertex -56.4 -39.4 10
    endloop
  endfacet
  facet normal -0.707107 -0.707107 0
    outer loop
      vertex -53.4 -42.4 3
      vertex -53.4 -42.4 10
      vertex -56.4 -39.4 10
    endloop
  endfacet
  facet normal 0 0.707107 -0.707107
    outer loop
      vertex 53.4 39.4 0
      vertex -53.4 42.4 3
      vertex 53.4 42.4 3
    endloop
  endfacet
  facet normal 0 0.707107 -0.707107
    outer loop
      vertex -53.4 42.4 3
      vertex 53.4 39.4 0
      vertex -53.4 39.4 0
    endloop
  endfacet
  facet normal 0.707107 0 -0.707107
    outer loop
      vertex 56.4 39.4 3
      vertex 56.4 -39.4 3
      vertex 53.4 39.4 0
    endloop
  endfacet
  facet normal 0.707107 0 -0.707107
    outer loop
      vertex 53.4 39.4 0
      vertex 56.4 -39.4 3
      vertex 53.4 -39.4 0
    endloop
  endfacet
  facet normal 0.707107 -0.707107 0
    outer loop
      vertex 53.4 -42.4 3
      vertex 56.4 -39.4 3
      vertex 56.4 -39.4 10
    endloop
  endfacet
  facet normal 0.707107 -0.707107 0
    outer loop
      vertex 53.4 -42.4 10
      vertex 53.4 -42.4 3
      vertex 56.4 -39.4 10
    endloop
  endfacet
  facet normal -0.707107 0.707107 0
    outer loop
      vertex -53.4 42.4 3
      vertex -56.4 39.4 3
      vertex -53.4 42.4 10
    endloop
  endfacet
  facet normal -0.707107 0.707107 0
    outer loop
      vertex -53.4 42.4 10
      vertex -56.4 39.4 3
      vertex -56.4 39.4 10
    endloop
  endfacet
  facet normal 0.707107 0.707107 0
    outer loop
      vertex 56.4 39.4 10
      vertex 53.4 42.4 3
      vertex 53.4 42.4 10
    endloop
  endfacet
  facet normal 0.707107 0.707107 -0
    outer loop
      vertex 56.4 39.4 3
      vertex 53.4 42.4 3
      vertex 56.4 39.4 10
    endloop
  endfacet
  facet normal -0.57735 -0.57735 -0.57735
    outer loop
      vertex -53.4 -39.4 0
      vertex -53.4 -42.4 3
      vertex -56.4 -39.4 3
    endloop
  endfacet
  facet normal 0.57735 -0.57735 -0.57735
    outer loop
      vertex 56.4 -39.4 3
      vertex 53.4 -42.4 3
      vertex 53.4 -39.4 0
    endloop
  endfacet
  facet normal -0.57735 0.57735 -0.57735
    outer loop
      vertex -53.4 42.4 3
      vertex -53.4 39.4 0
      vertex -56.4 39.4 3
    endloop
  endfacet
  facet normal 0.57735 0.57735 -0.57735
    outer loop
      vertex 53.4 42.4 3
      vertex 56.4 39.4 3
      vertex 53.4 39.4 0
    endloop
  endfacet
  facet normal 0 0 -1
    outer loop
      vertex -53.4 -39.4 0
      vertex 53.4 39.4 0
      vertex 53.4 -39.4 0
    endloop
  endfacet
  facet normal -0 0 -1
    outer loop
      vertex 53.4 39.4 0
      vertex -53.4 -39.4 0
      vertex -53.4 39.4 0
    endloop
  endfacet
  facet normal -1 0 0
    outer loop
      vertex -56.4 9.9 6.93337
      vertex -56.4 39.4 3
      vertex -56.4 9.9 5.06663
    endloop
  endfacet
  facet normal -1 0 0
    outer loop
      vertex -56.4 39.4 3
      vertex -56.4 -9.9 5.06663
      vertex -56.4 9.9 5.06663
    endloop
  endfacet
  facet normal -1 -0 0
    outer loop
      vertex -56.4 -9.9 5.06663
      vertex -56.4 -39.4 3
      vertex -56.4 -9.9 6.93337
    endloop
  endfacet
  facet normal -1 0 0
    outer loop
      vertex -56.4 -39.4 3
      vertex -56.4 -9.9 5.06663
      vertex -56.4 39.4 3
    endloop
  endfacet
  facet normal -1 0 0
    outer loop
      vertex -56.4 39.4 3
      vertex -56.4 9.9 6.93337
      vertex -56.4 39.4 10
    endloop
  endfacet
  facet normal -1 0 0
    outer loop
      vertex -56.4 -9.9 6.93337
      vertex -56.4 39.4 10
      vertex -56.4 9.9 6.93337
    endloop
  endfacet
  facet normal -1 0 0
    outer loop
      vertex -56.4 -9.9 6.93337
      vertex -56.4 -39.4 10
      vertex -56.4 39.4 10
    endloop
  endfacet
  facet normal -1 0 0
    outer loop
      vertex -56.4 -39.4 10
      vertex -56.4 -9.9 6.93337
      vertex -56.4 -39.4 3
    endloop
  endfacet
  facet normal 0 0 1
    outer loop
      vertex 53.4 42.4 10
      vertex 56.4 -39.4 10
      vertex 56.4 39.4 10
    endloop
  endfacet
  facet normal 0 0 1
    outer loop
      vertex 53.4 42.4 10
      vertex 53.4 -42.4 10
      vertex 56.4 -39.4 10
    endloop
  endfacet
  facet normal -0 0 1
    outer loop
      vertex -53.4 42.4 10
      vertex 53.4 -42.4 10
      vertex 53.4 42.4 10
    endloop
  endfacet
  facet normal 0 0 1
    outer loop
      vertex -53.4 42.4 10
      vertex -53.4 -42.4 10
      vertex 53.4 -42.4 10
    endloop
  endfacet
  facet normal -0 0 1
    outer loop
      vertex -56.4 39.4 10
      vertex -53.4 -42.4 10
      vertex -53.4 42.4 10
    endloop
  endfacet
  facet normal 0 0 1
    outer loop
      vertex -53.4 -42.4 10
      vertex -56.4 39.4 10
      vertex -56.4 -39.4 10
    endloop
  endfacet
  facet normal 0 1 0
    outer loop
      vertex 53.4 42.4 10
      vertex 9.9 42.4 6.93337
      vertex -53.4 42.4 10
    endloop
  endfacet
  facet normal 0 1 -0
    outer loop
      vertex 53.4 42.4 3
      vertex 9.9 42.4 6.93337
      vertex 53.4 42.4 10
    endloop
  endfacet
  facet normal 0 1 0
    outer loop
      vertex 9.9 42.4 5.06663
      vertex 53.4 42.4 3
      vertex -9.9 42.4 5.06663
    endloop
  endfacet
  facet normal 0 1 0
    outer loop
      vertex 9.9 42.4 6.93337
      vertex 53.4 42.4 3
      vertex 9.9 42.4 5.06663
    endloop
  endfacet
  facet normal 0 1 -0
    outer loop
      vertex -9.9 42.4 6.93337
      vertex -53.4 42.4 10
      vertex 9.9 42.4 6.93337
    endloop
  endfacet
  facet normal 0 1 0
    outer loop
      vertex -53.4 42.4 3
      vertex -9.9 42.4 6.93337
      vertex -9.9 42.4 5.06663
    endloop
  endfacet
  facet normal 0 1 0
    outer loop
      vertex -9.9 42.4 6.93337
      vertex -53.4 42.4 3
      vertex -53.4 42.4 10
    endloop
  endfacet
  facet normal 0 1 0
    outer loop
      vertex -53.4 42.4 3
      vertex -9.9 42.4 5.06663
      vertex 53.4 42.4 3
    endloop
  endfacet
  facet normal 1 0 0
    outer loop
      vertex 56.4 39.4 10
      vertex 56.4 9.9 6.93337
      vertex 56.4 39.4 3
    endloop
  endfacet
  facet normal 1 0 0
    outer loop
      vertex 56.4 39.4 10
      vertex 56.4 -9.9 6.93337
      vertex 56.4 9.9 6.93337
    endloop
  endfacet
  facet normal 1 0 0
    outer loop
      vertex 56.4 -39.4 3
      vertex 56.4 -9.9 6.93337
      vertex 56.4 -39.4 10
    endloop
  endfacet
  facet normal 1 -0 0
    outer loop
      vertex 56.4 -39.4 10
      vertex 56.4 -9.9 6.93337
      vertex 56.4 39.4 10
    endloop
  endfacet
  facet normal 1 -0 0
    outer loop
      vertex 56.4 9.9 5.06663
      vertex 56.4 39.4 3
      vertex 56.4 9.9 6.93337
    endloop
  endfacet
  facet normal 1 -0 0
    outer loop
      vertex 56.4 -9.9 5.06663
      vertex 56.4 39.4 3
      vertex 56.4 9.9 5.06663
    endloop
  endfacet
  facet normal 1 0 0
    outer loop
      vertex 56.4 -9.9 5.06663
      vertex 56.4 -39.4 3
      vertex 56.4 39.4 3
    endloop
  endfacet
  facet normal 1 0 0
    outer loop
      vertex 56.4 -9.9 6.93337
      vertex 56.4 -39.4 3
      vertex 56.4 -9.9 5.06663
    endloop
  endfacet
  facet normal 0 -1 0
    outer loop
      vertex -53.4 -42.4 10
      vertex -9.9 -42.4 6.93337
      vertex 53.4 -42.4 10
    endloop
  endfacet
  facet normal 0 -1 0
    outer loop
      vertex -53.4 -42.4 3
      vertex -9.9 -42.4 6.93337
      vertex -53.4 -42.4 10
    endloop
  endfacet
  facet normal 0 -1 -0
    outer loop
      vertex -9.9 -42.4 5.06663
      vertex -53.4 -42.4 3
      vertex 9.9 -42.4 5.06663
    endloop
  endfacet
  facet normal 0 -1 -0
    outer loop
      vertex -9.9 -42.4 6.93337
      vertex -53.4 -42.4 3
      vertex -9.9 -42.4 5.06663
    endloop
  endfacet
  facet normal 0 -1 0
    outer loop
      vertex 9.9 -42.4 6.93337
      vertex 53.4 -42.4 10
      vertex -9.9 -42.4 6.93337
    endloop
  endfacet
  facet normal 0 -1 0
    outer loop
      vertex 53.4 -42.4 3
      vertex 9.9 -42.4 6.93337
      vertex 9.9 -42.4 5.06663
    endloop
  endfacet
  facet normal 0 -1 0
    outer loop
      vertex 9.9 -42.4 6.93337
      vertex 53.4 -42.4 3
      vertex 53.4 -42.4 10
    endloop
  endfacet
  facet normal 0 -1 0
    outer loop
      vertex 53.4 -42.4 3
      vertex 9.9 -42.4 5.06663
      vertex -53.4 -42.4 3
    endloop
  endfacet
  facet normal 0 1 -0
    outer loop
      vertex 57.8 9.9 5.9995
      vertex 56.4 9.9 6.93337
      vertex 57.8 9.9 6.0005
    endloop
  endfacet
  facet normal 0 1 0
    outer loop
      vertex 56.4 9.9 6.93337
      vertex 57.8 9.9 5.9995
      vertex 56.4 9.9 5.06663
    endloop
  endfacet
  facet normal 1 -0 0
    outer loop
      vertex 57.8 -9.9 6.0005
      vertex 57.8 9.9 5.9995
      vertex 57.8 9.9 6.0005
    endloop
  endfacet
  facet normal 1 0 0
    outer loop
      vertex 57.8 9.9 5.9995
      vertex 57.8 -9.9 6.0005
      vertex 57.8 -9.9 5.9995
    endloop
  endfacet
  facet normal 0.55451 0 -0.832177
    outer loop
      vertex 56.4 -9.9 5.06663
      vertex 57.8 9.9 5.9995
      vertex 57.8 -9.9 5.9995
    endloop
  endfacet
  facet normal 0.55451 0 -0.832177
    outer loop
      vertex 57.8 9.9 5.9995
      vertex 56.4 -9.9 5.06663
      vertex 56.4 9.9 5.06663
    endloop
  endfacet
  facet normal 0.55451 0 0.832177
    outer loop
      vertex 56.4 9.9 6.93337
      vertex 57.8 -9.9 6.0005
      vertex 57.8 9.9 6.0005
    endloop
  endfacet
  facet normal 0.55451 0 0.832177
    outer loop
      vertex 57.8 -9.9 6.0005
      vertex 56.4 9.9 6.93337
      vertex 56.4 -9.9 6.93337
    endloop
  endfacet
  facet normal 0 -1 0
    outer loop
      vertex 56.4 -9.9 6.93337
      vertex 57.8 -9.9 5.9995
      vertex 57.8 -9.9 6.0005
    endloop
  endfacet
  facet normal -0 -1 0
    outer loop
      vertex 57.8 -9.9 5.9995
      vertex 56.4 -9.9 6.93337
      vertex 56.4 -9.9 5.06663
    endloop
  endfacet
  facet normal 0 1 -0
    outer loop
      vertex 9.9 43.8 5.9995
      vertex -9.9 43.8 6.0005
      vertex 9.9 43.8 6.0005
    endloop
  endfacet
  facet normal 0 1 0
    outer loop
      vertex -9.9 43.8 6.0005
      vertex 9.9 43.8 5.9995
      vertex -9.9 43.8 5.9995
    endloop
  endfacet
  facet normal -0 0.55451 0.832177
    outer loop
      vertex -9.9 43.8 6.0005
      vertex 9.9 42.4 6.93337
      vertex 9.9 43.8 6.0005
    endloop
  endfacet
  facet normal 0 0.55451 0.832177
    outer loop
      vertex 9.9 42.4 6.93337
      vertex -9.9 43.8 6.0005
      vertex -9.9 42.4 6.93337
    endloop
  endfacet
  facet normal -1 0 0
    outer loop
      vertex -9.9 42.4 5.06663
      vertex -9.9 43.8 6.0005
      vertex -9.9 43.8 5.9995
    endloop
  endfacet
  facet normal -1 -0 0
    outer loop
      vertex -9.9 43.8 6.0005
      vertex -9.9 42.4 5.06663
      vertex -9.9 42.4 6.93337
    endloop
  endfacet
  facet normal 0 0.55451 -0.832177
    outer loop
      vertex -9.9 42.4 5.06663
      vertex 9.9 43.8 5.9995
      vertex 9.9 42.4 5.06663
    endloop
  endfacet
  facet normal 0 0.55451 -0.832177
    outer loop
      vertex 9.9 43.8 5.9995
      vertex -9.9 42.4 5.06663
      vertex -9.9 43.8 5.9995
    endloop
  endfacet
  facet normal 1 0 0
    outer loop
      vertex 9.9 42.4 6.93337
      vertex 9.9 43.8 5.9995
      vertex 9.9 43.8 6.0005
    endloop
  endfacet
  facet normal 1 0 0
    outer loop
      vertex 9.9 43.8 5.9995
      vertex 9.9 42.4 6.93337
      vertex 9.9 42.4 5.06663
    endloop
  endfacet
  facet normal -1 0 0
    outer loop
      vertex -57.8 -9.9 5.9995
      vertex -57.8 9.9 6.0005
      vertex -57.8 9.9 5.9995
    endloop
  endfacet
  facet normal -1 -0 0
    outer loop
      vertex -57.8 9.9 6.0005
      vertex -57.8 -9.9 5.9995
      vertex -57.8 -9.9 6.0005
    endloop
  endfacet
  facet normal -0.55451 0 0.832177
    outer loop
      vertex -57.8 9.9 6.0005
      vertex -56.4 -9.9 6.93337
      vertex -56.4 9.9 6.93337
    endloop
  endfacet
  facet normal -0.55451 0 0.832177
    outer loop
      vertex -56.4 -9.9 6.93337
      vertex -57.8 9.9 6.0005
      vertex -57.8 -9.9 6.0005
    endloop
  endfacet
  facet normal 0 -1 0
    outer loop
      vertex -57.8 -9.9 5.9995
      vertex -56.4 -9.9 6.93337
      vertex -57.8 -9.9 6.0005
    endloop
  endfacet
  facet normal 0 -1 -0
    outer loop
      vertex -56.4 -9.9 6.93337
      vertex -57.8 -9.9 5.9995
      vertex -56.4 -9.9 5.06663
    endloop
  endfacet
  facet normal -0.55451 0 -0.832177
    outer loop
      vertex -57.8 -9.9 5.9995
      vertex -56.4 9.9 5.06663
      vertex -56.4 -9.9 5.06663
    endloop
  endfacet
  facet normal -0.55451 0 -0.832177
    outer loop
      vertex -56.4 9.9 5.06663
      vertex -57.8 -9.9 5.9995
      vertex -57.8 9.9 5.9995
    endloop
  endfacet
  facet normal 0 1 0
    outer loop
      vertex -56.4 9.9 6.93337
      vertex -57.8 9.9 5.9995
      vertex -57.8 9.9 6.0005
    endloop
  endfacet
  facet normal -0 1 0
    outer loop
      vertex -57.8 9.9 5.9995
      vertex -56.4 9.9 6.93337
      vertex -56.4 9.9 5.06663
    endloop
  endfacet
  facet normal 0 -1 0
    outer loop
      vertex -9.9 -43.8 5.9995
      vertex 9.9 -43.8 6.0005
      vertex -9.9 -43.8 6.0005
    endloop
  endfacet
  facet normal 0 -1 -0
    outer loop
      vertex 9.9 -43.8 6.0005
      vertex -9.9 -43.8 5.9995
      vertex 9.9 -43.8 5.9995
    endloop
  endfacet
  facet normal 0 -0.55451 -0.832177
    outer loop
      vertex -9.9 -43.8 5.9995
      vertex 9.9 -42.4 5.06663
      vertex 9.9 -43.8 5.9995
    endloop
  endfacet
  facet normal -0 -0.55451 -0.832177
    outer loop
      vertex 9.9 -42.4 5.06663
      vertex -9.9 -43.8 5.9995
      vertex -9.9 -42.4 5.06663
    endloop
  endfacet
  facet normal 0 -0.55451 0.832177
    outer loop
      vertex -9.9 -42.4 6.93337
      vertex 9.9 -43.8 6.0005
      vertex 9.9 -42.4 6.93337
    endloop
  endfacet
  facet normal 0 -0.55451 0.832177
    outer loop
      vertex 9.9 -43.8 6.0005
      vertex -9.9 -42.4 6.93337
      vertex -9.9 -43.8 6.0005
    endloop
  endfacet
  facet normal 1 -0 0
    outer loop
      vertex 9.9 -43.8 6.0005
      vertex 9.9 -42.4 5.06663
      vertex 9.9 -42.4 6.93337
    endloop
  endfacet
  facet normal 1 0 0
    outer loop
      vertex 9.9 -42.4 5.06663
      vertex 9.9 -43.8 6.0005
      vertex 9.9 -43.8 5.9995
    endloop
  endfacet
  facet normal -1 0 0
    outer loop
      vertex -9.9 -43.8 5.9995
      vertex -9.9 -42.4 6.93337
      vertex -9.9 -42.4 5.06663
    endloop
  endfacet
  facet normal -1 0 0
    outer loop
      vertex -9.9 -42.4 6.93337
      vertex -9.9 -43.8 5.9995
      vertex -9.9 -43.8 6.0005
    endloop
  endfacet
endsolid OpenSCAD_Model
