solid OpenSCAD_Model
  facet normal 0.706814 -0.10205 0.7
    outer loop
      vertex 12.226 8 33.3247
      vertex 15 7.97805 30.5205
      vertex 15 8 30.5237
    endloop
  endfacet
  facet normal 0.706675 -0.103841 0.699877
    outer loop
      vertex 15 7.97805 30.5205
      vertex 12.226 8 33.3247
      vertex 12 7.39277 33.4628
    endloop
  endfacet
  facet normal 0.706708 -0.171934 0.686296
    outer loop
      vertex 12.7674 0 30.8208
      vertex 15 7.97805 30.5205
      vertex 12.0815 0 31.5271
    endloop
  endfacet
  facet normal 0.70667 -0.171922 0.686338
    outer loop
      vertex 15 7.97805 30.5205
      vertex 12.7674 0 30.8208
      vertex 15 0.648079 28.6844
    endloop
  endfacet
  facet normal 0.706682 -0.103846 0.699869
    outer loop
      vertex 12 8 33.5529
      vertex 12 7.39277 33.4628
      vertex 12.226 8 33.3247
    endloop
  endfacet
  facet normal -0.70667 -0.171922 0.686338
    outer loop
      vertex -12.7674 0 30.8208
      vertex -15 7.97805 30.5205
      vertex -15 0.648079 28.6844
    endloop
  endfacet
  facet normal -0.706708 -0.171934 0.686296
    outer loop
      vertex -15 7.97805 30.5205
      vertex -12.7674 0 30.8208
      vertex -12.0815 0 31.5271
    endloop
  endfacet
  facet normal -0.70667 -0.238377 0.666179
    outer loop
      vertex -15 0.648079 28.6844
      vertex -15 0 28.4525
      vertex -12.7674 0 30.8208
    endloop
  endfacet
  facet normal 0 -0.242981 0.970031
    outer loop
      vertex -12 7.39277 33.4628
      vertex 12 0 31.611
      vertex 12 7.39277 33.4628
    endloop
  endfacet
  facet normal 0 -0.242981 0.970031
    outer loop
      vertex 12 0 31.611
      vertex -12 7.39277 33.4628
      vertex -12 0 31.611
    endloop
  endfacet
  facet normal 0.70667 -0.238377 0.666179
    outer loop
      vertex 15 0.648079 28.6844
      vertex 12.7674 0 30.8208
      vertex 15 0 28.4525
    endloop
  endfacet
  facet normal -0.706682 -0.103846 0.699869
    outer loop
      vertex -12 8 33.5529
      vertex -12.226 8 33.3247
      vertex -12 7.39277 33.4628
    endloop
  endfacet
  facet normal 0.70661 -0.171934 0.686397
    outer loop
      vertex 12.0815 0 31.5271
      vertex 12 7.39277 33.4628
      vertex 12 0 31.611
    endloop
  endfacet
  facet normal 0.706674 -0.171917 0.686335
    outer loop
      vertex 12 7.39277 33.4628
      vertex 12.0815 0 31.5271
      vertex 15 7.97805 30.5205
    endloop
  endfacet
  facet normal 0 -0.146772 0.98917
    outer loop
      vertex -12 8 33.5529
      vertex 12 7.39277 33.4628
      vertex 12 8 33.5529
    endloop
  endfacet
  facet normal 0 -0.146772 0.98917
    outer loop
      vertex 12 7.39277 33.4628
      vertex -12 8 33.5529
      vertex -12 7.39277 33.4628
    endloop
  endfacet
  facet normal -0.706814 -0.10205 0.7
    outer loop
      vertex -15 7.97805 30.5205
      vertex -12.226 8 33.3247
      vertex -15 8 30.5237
    endloop
  endfacet
  facet normal -0.706675 -0.103841 0.699877
    outer loop
      vertex -12.226 8 33.3247
      vertex -15 7.97805 30.5205
      vertex -12 7.39277 33.4628
    endloop
  endfacet
  facet normal -0.706674 -0.171917 0.686335
    outer loop
      vertex -12.0815 0 31.5271
      vertex -12 7.39277 33.4628
      vertex -15 7.97805 30.5205
    endloop
  endfacet
  facet normal -0.70661 -0.171934 0.686397
    outer loop
      vertex -12 7.39277 33.4628
      vertex -12.0815 0 31.5271
      vertex -12 0 31.611
    endloop
  endfacet
  facet normal -1 0 0
    outer loop
      vertex -15 8 0
      vertex -15 7.97805 30.5205
      vertex -15 8 30.5237
    endloop
  endfacet
  facet normal -1 0 0
    outer loop
      vertex -15 8 0
      vertex -15 0.648079 28.6844
      vertex -15 7.97805 30.5205
    endloop
  endfacet
  facet normal -1 0 0
    outer loop
      vertex -15 0 28.4525
      vertex -15 8 0
      vertex -15 0 0
    endloop
  endfacet
  facet normal -1 0 0
    outer loop
      vertex -15 8 0
      vertex -15 0 28.4525
      vertex -15 0.648079 28.6844
    endloop
  endfacet
  facet normal 1 -0 0
    outer loop
      vertex 15 7.97805 30.5205
      vertex 15 8 0
      vertex 15 8 30.5237
    endloop
  endfacet
  facet normal 1 -0 0
    outer loop
      vertex 15 0.648079 28.6844
      vertex 15 8 0
      vertex 15 7.97805 30.5205
    endloop
  endfacet
  facet normal 1 -0 0
    outer loop
      vertex 15 0 28.4525
      vertex 15 8 0
      vertex 15 0.648079 28.6844
    endloop
  endfacet
  facet normal 1 0 0
    outer loop
      vertex 15 8 0
      vertex 15 0 28.4525
      vertex 15 0 0
    endloop
  endfacet
  facet normal 0 0 -1
    outer loop
      vertex -15 0 0
      vertex 15 8 0
      vertex 15 0 0
    endloop
  endfacet
  facet normal -0 0 -1
    outer loop
      vertex 15 8 0
      vertex -15 0 0
      vertex -15 8 0
    endloop
  endfacet
  facet normal 0 1 0
    outer loop
      vertex 12.226 8 33.3247
      vertex -12 8 33.5529
      vertex 12 8 33.5529
    endloop
  endfacet
  facet normal 0 1 0
    outer loop
      vertex 12.226 8 33.3247
      vertex -12.226 8 33.3247
      vertex -12 8 33.5529
    endloop
  endfacet
  facet normal 0 1 0
    outer loop
      vertex 15 8 30.5237
      vertex -12.226 8 33.3247
      vertex 12.226 8 33.3247
    endloop
  endfacet
  facet normal 0 1 0
    outer loop
      vertex 15 8 30.5237
      vertex -15 8 30.5237
      vertex -12.226 8 33.3247
    endloop
  endfacet
  facet normal 0 1 -0
    outer loop
      vertex 15 8 0
      vertex -15 8 30.5237
      vertex 15 8 30.5237
    endloop
  endfacet
  facet normal 0 1 0
    outer loop
      vertex -15 8 30.5237
      vertex 15 8 0
      vertex -15 8 0
    endloop
  endfacet
  facet normal 0 -1 0
    outer loop
      vertex -12.0815 0 31.5271
      vertex 12 0 31.611
      vertex -12 0 31.611
    endloop
  endfacet
  facet normal 0 -1 0
    outer loop
      vertex -12.0815 0 31.5271
      vertex 12.0815 0 31.5271
      vertex 12 0 31.611
    endloop
  endfacet
  facet normal 0 -1 0
    outer loop
      vertex -12.7674 0 30.8208
      vertex 12.0815 0 31.5271
      vertex -12.0815 0 31.5271
    endloop
  endfacet
  facet normal 0 -1 0
    outer loop
      vertex -12.7674 0 30.8208
      vertex 12.7674 0 30.8208
      vertex 12.0815 0 31.5271
    endloop
  endfacet
  facet normal 0 -1 0
    outer loop
      vertex -15 0 28.4525
      vertex 12.7674 0 30.8208
      vertex -12.7674 0 30.8208
    endloop
  endfacet
  facet normal 0 -1 0
    outer loop
      vertex -15 0 28.4525
      vertex 15 0 28.4525
      vertex 12.7674 0 30.8208
    endloop
  endfacet
  facet normal 0 -1 0
    outer loop
      vertex -15 0 0
      vertex 15 0 28.4525
      vertex -15 0 28.4525
    endloop
  endfacet
  facet normal 0 -1 -0
    outer loop
      vertex 15 0 28.4525
      vertex -15 0 0
      vertex 15 0 0
    endloop
  endfacet
endsolid OpenSCAD_Model
