solid OpenSCAD_Model
  facet normal 0 0 -1
    outer loop
      vertex 50 -25 0
      vertex 46.625 -21.625 0
      vertex 50 25 0
    endloop
  endfacet
  facet normal 0 0 -1
    outer loop
      vertex 50 -25 0
      vertex -46.625 -21.625 0
      vertex 46.625 -21.625 0
    endloop
  endfacet
  facet normal -0 0 -1
    outer loop
      vertex -46.625 -21.625 0
      vertex -50 -25 0
      vertex -46.625 21.625 0
    endloop
  endfacet
  facet normal 0 0 -1
    outer loop
      vertex -50 -25 0
      vertex -46.625 -21.625 0
      vertex 50 -25 0
    endloop
  endfacet
  facet normal 0 0 -1
    outer loop
      vertex 46.625 21.625 0
      vertex 50 25 0
      vertex 46.625 -21.625 0
    endloop
  endfacet
  facet normal 0 0 -1
    outer loop
      vertex -46.625 21.625 0
      vertex 50 25 0
      vertex 46.625 21.625 0
    endloop
  endfacet
  facet normal 0 0 -1
    outer loop
      vertex -46.625 21.625 0
      vertex -50 25 0
      vertex 50 25 0
    endloop
  endfacet
  facet normal 0 0 -1
    outer loop
      vertex -50 25 0
      vertex -46.625 21.625 0
      vertex -50 -25 0
    endloop
  endfacet
  facet normal 1 -0 0
    outer loop
      vertex 50 -25 100
      vertex 50 25 0
      vertex 50 25 100
    endloop
  endfacet
  facet normal 1 0 0
    outer loop
      vertex 50 25 0
      vertex 50 -25 100
      vertex 50 -25 0
    endloop
  endfacet
  facet normal 0 -1 0
    outer loop
      vertex -50 -25 0
      vertex 50 -25 100
      vertex -50 -25 100
    endloop
  endfacet
  facet normal 0 -1 -0
    outer loop
      vertex 50 -25 100
      vertex -50 -25 0
      vertex 50 -25 0
    endloop
  endfacet
  facet normal 0 0 1
    outer loop
      vertex 50 25 100
      vertex 49.55 24.55 100
      vertex 50 -25 100
    endloop
  endfacet
  facet normal 0 0 1
    outer loop
      vertex 50 25 100
      vertex -49.55 24.55 100
      vertex 49.55 24.55 100
    endloop
  endfacet
  facet normal 0 0 1
    outer loop
      vertex -49.55 24.55 100
      vertex -50 25 100
      vertex -49.55 -24.55 100
    endloop
  endfacet
  facet normal -0 0 1
    outer loop
      vertex -50 25 100
      vertex -49.55 24.55 100
      vertex 50 25 100
    endloop
  endfacet
  facet normal -0 0 1
    outer loop
      vertex 49.55 -24.55 100
      vertex 50 -25 100
      vertex 49.55 24.55 100
    endloop
  endfacet
  facet normal -0 0 1
    outer loop
      vertex -49.55 -24.55 100
      vertex 50 -25 100
      vertex 49.55 -24.55 100
    endloop
  endfacet
  facet normal 0 0 1
    outer loop
      vertex -49.55 -24.55 100
      vertex -50 -25 100
      vertex 50 -25 100
    endloop
  endfacet
  facet normal 0 0 1
    outer loop
      vertex -50 -25 100
      vertex -49.55 -24.55 100
      vertex -50 25 100
    endloop
  endfacet
  facet normal -1 0 0
    outer loop
      vertex -50 -25 0
      vertex -50 25 100
      vertex -50 25 0
    endloop
  endfacet
  facet normal -1 -0 0
    outer loop
      vertex -50 25 100
      vertex -50 -25 0
      vertex -50 -25 100
    endloop
  endfacet
  facet normal 0 1 -0
    outer loop
      vertex 50 25 0
      vertex -50 25 100
      vertex 50 25 100
    endloop
  endfacet
  facet normal 0 1 0
    outer loop
      vertex -50 25 100
      vertex 50 25 0
      vertex -50 25 0
    endloop
  endfacet
  facet normal 0 0 1
    outer loop
      vertex 49.55 24.55 0.299999
      vertex 46.625 21.625 0.299999
      vertex 49.55 -24.55 0.299999
    endloop
  endfacet
  facet normal 0 0 1
    outer loop
      vertex 49.55 24.55 0.299999
      vertex -46.625 21.625 0.299999
      vertex 46.625 21.625 0.299999
    endloop
  endfacet
  facet normal 0 0 1
    outer loop
      vertex -46.625 21.625 0.299999
      vertex -49.55 24.55 0.299999
      vertex -46.625 -21.625 0.299999
    endloop
  endfacet
  facet normal -0 0 1
    outer loop
      vertex -49.55 24.55 0.299999
      vertex -46.625 21.625 0.299999
      vertex 49.55 24.55 0.299999
    endloop
  endfacet
  facet normal -0 0 1
    outer loop
      vertex 46.625 -21.625 0.299999
      vertex 49.55 -24.55 0.299999
      vertex 46.625 21.625 0.299999
    endloop
  endfacet
  facet normal -0 0 1
    outer loop
      vertex -46.625 -21.625 0.299999
      vertex 49.55 -24.55 0.299999
      vertex 46.625 -21.625 0.299999
    endloop
  endfacet
  facet normal 0 0 1
    outer loop
      vertex -46.625 -21.625 0.299999
      vertex -49.55 -24.55 0.299999
      vertex 49.55 -24.55 0.299999
    endloop
  endfacet
  facet normal 0 0 1
    outer loop
      vertex -49.55 -24.55 0.299999
      vertex -46.625 -21.625 0.299999
      vertex -49.55 24.55 0.299999
    endloop
  endfacet
  facet normal -1 0 0
    outer loop
      vertex 49.55 -24.55 0.299999
      vertex 49.55 24.55 100
      vertex 49.55 24.55 0.299999
    endloop
  endfacet
  facet normal -1 -0 0
    outer loop
      vertex 49.55 24.55 100
      vertex 49.55 -24.55 0.299999
      vertex 49.55 -24.55 100
    endloop
  endfacet
  facet normal 0 1 -0
    outer loop
      vertex 49.55 -24.55 0.299999
      vertex -49.55 -24.55 100
      vertex 49.55 -24.55 100
    endloop
  endfacet
  facet normal 0 1 0
    outer loop
      vertex -49.55 -24.55 100
      vertex 49.55 -24.55 0.299999
      vertex -49.55 -24.55 0.299999
    endloop
  endfacet
  facet normal 1 -0 0
    outer loop
      vertex -49.55 -24.55 100
      vertex -49.55 24.55 0.299999
      vertex -49.55 24.55 100
    endloop
  endfacet
  facet normal 1 0 0
    outer loop
      vertex -49.55 24.55 0.299999
      vertex -49.55 -24.55 100
      vertex -49.55 -24.55 0.299999
    endloop
  endfacet
  facet normal 0 -1 0
    outer loop
      vertex -49.55 24.55 0.299999
      vertex 49.55 24.55 100
      vertex -49.55 24.55 100
    endloop
  endfacet
  facet normal 0 -1 -0
    outer loop
      vertex 49.55 24.55 100
      vertex -49.55 24.55 0.299999
      vertex 49.55 24.55 0.299999
    endloop
  endfacet
  facet normal -1 0 0
    outer loop
      vertex 46.625 -21.625 0
      vertex 46.625 21.625 0.299999
      vertex 46.625 21.625 0
    endloop
  endfacet
  facet normal -1 -0 0
    outer loop
      vertex 46.625 21.625 0.299999
      vertex 46.625 -21.625 0
      vertex 46.625 -21.625 0.299999
    endloop
  endfacet
  facet normal 0 1 -0
    outer loop
      vertex 46.625 -21.625 0
      vertex -46.625 -21.625 0.299999
      vertex 46.625 -21.625 0.299999
    endloop
  endfacet
  facet normal 0 1 0
    outer loop
      vertex -46.625 -21.625 0.299999
      vertex 46.625 -21.625 0
      vertex -46.625 -21.625 0
    endloop
  endfacet
  facet normal 1 -0 0
    outer loop
      vertex -46.625 -21.625 0.299999
      vertex -46.625 21.625 0
      vertex -46.625 21.625 0.299999
    endloop
  endfacet
  facet normal 1 0 0
    outer loop
      vertex -46.625 21.625 0
      vertex -46.625 -21.625 0.299999
      vertex -46.625 -21.625 0
    endloop
  endfacet
  facet normal 0 -1 0
    outer loop
      vertex -46.625 21.625 0
      vertex 46.625 21.625 0.299999
      vertex -46.625 21.625 0.299999
    endloop
  endfacet
  facet normal 0 -1 -0
    outer loop
      vertex 46.625 21.625 0.299999
      vertex -46.625 21.625 0
      vertex 46.625 21.625 0
    endloop
  endfacet
endsolid OpenSCAD_Model
