solid OpenSCAD_Model
  facet normal -1 0 0
    outer loop
      vertex -7.37 109.672 1.93268
      vertex -7.37 111 -0.349999
      vertex -7.37 110.99 -0.349999
    endloop
  endfacet
  facet normal -1 0 0
    outer loop
      vertex -7.37 111 -0.349999
      vertex -7.37 109.672 1.93268
      vertex -7.37 111 7.75
    endloop
  endfacet
  facet normal -1 0 0
    outer loop
      vertex -7.37 109.672 5.46732
      vertex -7.37 111 7.75
      vertex -7.37 109.672 1.93268
    endloop
  endfacet
  facet normal -1 -0 0
    outer loop
      vertex -7.37 111 7.75
      vertex -7.37 109.672 5.46732
      vertex -7.37 110.99 7.75
    endloop
  endfacet
  facet normal 0 0 -1
    outer loop
      vertex -12.63 110.99 7.75
      vertex -12.625 111 7.75
      vertex -12.625 110.99 7.75
    endloop
  endfacet
  facet normal -0 0 -1
    outer loop
      vertex -12.625 111 7.75
      vertex -12.63 110.99 7.75
      vertex -12.63 111 7.75
    endloop
  endfacet
  facet normal 0 0 -1
    outer loop
      vertex -7.375 110.99 7.75
      vertex -7.37 111 7.75
      vertex -7.37 110.99 7.75
    endloop
  endfacet
  facet normal -0 0 -1
    outer loop
      vertex -7.37 111 7.75
      vertex -7.375 110.99 7.75
      vertex -7.375 111 7.75
    endloop
  endfacet
  facet normal -0 0 1
    outer loop
      vertex -12.63 111 -0.349999
      vertex -12.625 110.99 -0.349999
      vertex -12.625 111 -0.349999
    endloop
  endfacet
  facet normal 0 0 1
    outer loop
      vertex -12.625 110.99 -0.349999
      vertex -12.63 111 -0.349999
      vertex -12.63 110.99 -0.349999
    endloop
  endfacet
  facet normal -0 0 1
    outer loop
      vertex -7.375 111 -0.349999
      vertex -7.37 110.99 -0.349999
      vertex -7.37 111 -0.349999
    endloop
  endfacet
  facet normal 0 0 1
    outer loop
      vertex -7.37 110.99 -0.349999
      vertex -7.375 111 -0.349999
      vertex -7.375 110.99 -0.349999
    endloop
  endfacet
  facet normal 1 0 0
    outer loop
      vertex -12.63 109.672 5.46732
      vertex -12.63 111 7.75
      vertex -12.63 110.99 7.75
    endloop
  endfacet
  facet normal 1 0 0
    outer loop
      vertex -12.63 111 7.75
      vertex -12.63 109.672 5.46732
      vertex -12.63 111 -0.349999
    endloop
  endfacet
  facet normal 1 -0 0
    outer loop
      vertex -12.63 109.672 1.93268
      vertex -12.63 111 -0.349999
      vertex -12.63 109.672 5.46732
    endloop
  endfacet
  facet normal 1 0 0
    outer loop
      vertex -12.63 111 -0.349999
      vertex -12.63 109.672 1.93268
      vertex -12.63 110.99 -0.349999
    endloop
  endfacet
  facet normal 0 0.86601 -0.500027
    outer loop
      vertex -12.625 109.672 5.46732
      vertex -12.63 110.99 7.75
      vertex -12.625 110.99 7.75
    endloop
  endfacet
  facet normal 0 0.86601 -0.500027
    outer loop
      vertex -12.63 110.99 7.75
      vertex -12.625 109.672 5.46732
      vertex -12.63 109.672 5.46732
    endloop
  endfacet
  facet normal 0 0.86601 -0.500027
    outer loop
      vertex -7.37 109.672 5.46732
      vertex -7.375 110.99 7.75
      vertex -7.37 110.99 7.75
    endloop
  endfacet
  facet normal 0 0.86601 -0.500027
    outer loop
      vertex -7.375 110.99 7.75
      vertex -7.37 109.672 5.46732
      vertex -7.375 109.672 5.46732
    endloop
  endfacet
  facet normal 0 0.86601 0.500027
    outer loop
      vertex -12.625 110.99 -0.349999
      vertex -12.63 109.672 1.93268
      vertex -12.625 109.672 1.93268
    endloop
  endfacet
  facet normal 0 0.86601 0.500027
    outer loop
      vertex -12.63 109.672 1.93268
      vertex -12.625 110.99 -0.349999
      vertex -12.63 110.99 -0.349999
    endloop
  endfacet
  facet normal 0 0.86601 0.500027
    outer loop
      vertex -7.37 110.99 -0.349999
      vertex -7.375 109.672 1.93268
      vertex -7.37 109.672 1.93268
    endloop
  endfacet
  facet normal 0 0.86601 0.500027
    outer loop
      vertex -7.375 109.672 1.93268
      vertex -7.37 110.99 -0.349999
      vertex -7.375 110.99 -0.349999
    endloop
  endfacet
  facet normal 0 1 0
    outer loop
      vertex -8.46875 109.672 3.7
      vertex -10.875 109.672 5.45
      vertex -9.125 109.672 5.45
    endloop
  endfacet
  facet normal 0 1 0
    outer loop
      vertex -8.46875 109.672 3.7
      vertex -11.5312 109.672 3.7
      vertex -10.875 109.672 5.45
    endloop
  endfacet
  facet normal 0 1 -0
    outer loop
      vertex -9.125 109.672 1.95
      vertex -11.5312 109.672 3.7
      vertex -8.46875 109.672 3.7
    endloop
  endfacet
  facet normal 0 1 0
    outer loop
      vertex -9.125 109.672 1.95
      vertex -10.875 109.672 1.95
      vertex -11.5312 109.672 3.7
    endloop
  endfacet
  facet normal 0 1 -0
    outer loop
      vertex -12.625 109.672 1.93268
      vertex -12.63 109.672 5.46732
      vertex -12.625 109.672 5.46732
    endloop
  endfacet
  facet normal 0 1 0
    outer loop
      vertex -12.63 109.672 5.46732
      vertex -12.625 109.672 1.93268
      vertex -12.63 109.672 1.93268
    endloop
  endfacet
  facet normal 0 1 -0
    outer loop
      vertex -7.37 109.672 1.93268
      vertex -7.375 109.672 5.46732
      vertex -7.37 109.672 5.46732
    endloop
  endfacet
  facet normal 0 1 0
    outer loop
      vertex -7.375 109.672 5.46732
      vertex -7.37 109.672 1.93268
      vertex -7.375 109.672 1.93268
    endloop
  endfacet
  facet normal 0 1 -0
    outer loop
      vertex 0 111 -0.799988
      vertex -4 111 0
      vertex 0 111 0
    endloop
  endfacet
  facet normal 0 1 0
    outer loop
      vertex -15 111 -0.799988
      vertex -7.375 111 -0.349999
      vertex -7.37 111 -0.349999
    endloop
  endfacet
  facet normal 0 1 0
    outer loop
      vertex -7.375 111 -0.349999
      vertex -15 111 -0.799988
      vertex -9.125 111 -0.349999
    endloop
  endfacet
  facet normal 0 1 0
    outer loop
      vertex -9.125 111 -0.349999
      vertex -15 111 -0.799988
      vertex -10.875 111 -0.349999
    endloop
  endfacet
  facet normal 0 1 0
    outer loop
      vertex -10.875 111 -0.349999
      vertex -15 111 -0.799988
      vertex -12.625 111 -0.349999
    endloop
  endfacet
  facet normal 0 1 0
    outer loop
      vertex -15 111 -0.799988
      vertex -7.37 111 -0.349999
      vertex 0 111 -0.799988
    endloop
  endfacet
  facet normal 0 1 0
    outer loop
      vertex -4 111 0
      vertex 0 111 -0.799988
      vertex -7.37 111 -0.349999
    endloop
  endfacet
  facet normal 0 1 0
    outer loop
      vertex 0 111 8.2
      vertex -7.37 111 7.75
      vertex -15 111 8.2
    endloop
  endfacet
  facet normal 0 1 -0
    outer loop
      vertex 0 111 7.59549
      vertex -7.37 111 7.75
      vertex 0 111 8.2
    endloop
  endfacet
  facet normal 0 1 -0
    outer loop
      vertex -5 111 3.39999
      vertex -7.37 111 7.75
      vertex 0 111 7.59549
    endloop
  endfacet
  facet normal 0 1 0
    outer loop
      vertex -7.37 111 -0.349999
      vertex -5 111 3.39999
      vertex -5 111 1
    endloop
  endfacet
  facet normal 0 1 0
    outer loop
      vertex -5 111 3.39999
      vertex -7.37 111 -0.349999
      vertex -7.37 111 7.75
    endloop
  endfacet
  facet normal 0 1 0
    outer loop
      vertex -7.37 111 -0.349999
      vertex -5 111 1
      vertex -4 111 0
    endloop
  endfacet
  facet normal 0 1 -0
    outer loop
      vertex -7.375 111 7.75
      vertex -15 111 8.2
      vertex -7.37 111 7.75
    endloop
  endfacet
  facet normal 0 1 -0
    outer loop
      vertex -9.125 111 7.75
      vertex -15 111 8.2
      vertex -7.375 111 7.75
    endloop
  endfacet
  facet normal 0 1 -0
    outer loop
      vertex -10.875 111 7.75
      vertex -15 111 8.2
      vertex -9.125 111 7.75
    endloop
  endfacet
  facet normal 0 1 -0
    outer loop
      vertex -12.625 111 7.75
      vertex -15 111 8.2
      vertex -10.875 111 7.75
    endloop
  endfacet
  facet normal 0 1 -0
    outer loop
      vertex -12.63 111 7.75
      vertex -15 111 8.2
      vertex -12.625 111 7.75
    endloop
  endfacet
  facet normal 0 1 -0
    outer loop
      vertex -12.63 111 -0.349999
      vertex -15 111 8.2
      vertex -12.63 111 7.75
    endloop
  endfacet
  facet normal 0 1 0
    outer loop
      vertex -12.63 111 -0.349999
      vertex -15 111 -0.799988
      vertex -15 111 8.2
    endloop
  endfacet
  facet normal 0 1 0
    outer loop
      vertex -12.625 111 -0.349999
      vertex -15 111 -0.799988
      vertex -12.63 111 -0.349999
    endloop
  endfacet
  facet normal -0 0 1
    outer loop
      vertex -4 111 0
      vertex 0 0 0
      vertex 0 111 0
    endloop
  endfacet
  facet normal 0 0 1
    outer loop
      vertex 0 0 0
      vertex -4 111 0
      vertex -4 -4 0
    endloop
  endfacet
  facet normal 0.707107 0 0.707107
    outer loop
      vertex -5 111 1
      vertex -4 -4 0
      vertex -4 111 0
    endloop
  endfacet
  facet normal 0.707107 0 0.707107
    outer loop
      vertex -4 -4 0
      vertex -5 111 1
      vertex -5 -5 1
    endloop
  endfacet
  facet normal 1 -0 0
    outer loop
      vertex -5 -5 3.39999
      vertex -5 111 1
      vertex -5 111 3.39999
    endloop
  endfacet
  facet normal 1 0 0
    outer loop
      vertex -5 111 1
      vertex -5 -5 3.39999
      vertex -5 -5 1
    endloop
  endfacet
  facet normal 0.642788 0 -0.766044
    outer loop
      vertex -5 111 3.39999
      vertex 0 0 7.59549
      vertex -5 -5 3.39999
    endloop
  endfacet
  facet normal 0.642788 0 -0.766044
    outer loop
      vertex 0 0 7.59549
      vertex -5 111 3.39999
      vertex 0 111 7.59549
    endloop
  endfacet
  facet normal 1 -0 0
    outer loop
      vertex 0 0 8.2
      vertex 0 111 7.59549
      vertex 0 111 8.2
    endloop
  endfacet
  facet normal 1 0 0
    outer loop
      vertex 0 111 7.59549
      vertex 0 0 8.2
      vertex 0 0 7.59549
    endloop
  endfacet
  facet normal -0 0 1
    outer loop
      vertex -15 111 8.2
      vertex 0 0 8.2
      vertex 0 111 8.2
    endloop
  endfacet
  facet normal 0 0 1
    outer loop
      vertex 0 0 8.2
      vertex -15 111 8.2
      vertex -15 -15 8.2
    endloop
  endfacet
  facet normal -1 0 0
    outer loop
      vertex -15 -15 -0.799988
      vertex -15 111 8.2
      vertex -15 111 -0.799988
    endloop
  endfacet
  facet normal -1 -0 0
    outer loop
      vertex -15 111 8.2
      vertex -15 -15 -0.799988
      vertex -15 -15 8.2
    endloop
  endfacet
  facet normal 0 0 -1
    outer loop
      vertex -15 111 -0.799988
      vertex 0 0 -0.799988
      vertex -15 -15 -0.799988
    endloop
  endfacet
  facet normal 0 0 -1
    outer loop
      vertex 0 0 -0.799988
      vertex -15 111 -0.799988
      vertex 0 111 -0.799988
    endloop
  endfacet
  facet normal 1 -0 0
    outer loop
      vertex 0 0 0
      vertex 0 111 -0.799988
      vertex 0 111 0
    endloop
  endfacet
  facet normal 1 0 0
    outer loop
      vertex 0 111 -0.799988
      vertex 0 0 0
      vertex 0 0 -0.799988
    endloop
  endfacet
  facet normal 0 1 0
    outer loop
      vertex -7.375 112.328 5.45
      vertex -8.46875 112.328 3.7
      vertex -9.125 112.328 5.45
    endloop
  endfacet
  facet normal 0 1 -0
    outer loop
      vertex -7.375 112.328 1.95
      vertex -8.46875 112.328 3.7
      vertex -7.375 112.328 5.45
    endloop
  endfacet
  facet normal 0 1 0
    outer loop
      vertex -8.46875 112.328 3.7
      vertex -7.375 112.328 1.95
      vertex -9.125 112.328 1.95
    endloop
  endfacet
  facet normal 0 1 -0
    outer loop
      vertex -11.5312 112.328 3.7
      vertex -12.625 112.328 5.45
      vertex -10.875 112.328 5.45
    endloop
  endfacet
  facet normal 0 1 0
    outer loop
      vertex -12.625 112.328 1.95
      vertex -11.5312 112.328 3.7
      vertex -10.875 112.328 1.95
    endloop
  endfacet
  facet normal 0 1 0
    outer loop
      vertex -11.5312 112.328 3.7
      vertex -12.625 112.328 1.95
      vertex -12.625 112.328 5.45
    endloop
  endfacet
  facet normal 0 0.86601 0.500027
    outer loop
      vertex -7.375 112.328 5.45
      vertex -9.125 111 7.75
      vertex -7.375 111 7.75
    endloop
  endfacet
  facet normal 0 0.86601 0.500027
    outer loop
      vertex -9.125 111 7.75
      vertex -7.375 112.328 5.45
      vertex -9.125 112.328 5.45
    endloop
  endfacet
  facet normal 0 0.86601 0.500027
    outer loop
      vertex -10.875 112.328 5.45
      vertex -12.625 111 7.75
      vertex -10.875 111 7.75
    endloop
  endfacet
  facet normal 0 0.86601 0.500027
    outer loop
      vertex -12.625 111 7.75
      vertex -10.875 112.328 5.45
      vertex -12.625 112.328 5.45
    endloop
  endfacet
  facet normal 0 0.86601 -0.500027
    outer loop
      vertex -10.875 111 -0.349999
      vertex -12.625 112.328 1.95
      vertex -10.875 112.328 1.95
    endloop
  endfacet
  facet normal 0 0.86601 -0.500027
    outer loop
      vertex -12.625 112.328 1.95
      vertex -10.875 111 -0.349999
      vertex -12.625 111 -0.349999
    endloop
  endfacet
  facet normal 0 0.86601 -0.500027
    outer loop
      vertex -7.375 111 -0.349999
      vertex -9.125 112.328 1.95
      vertex -7.375 112.328 1.95
    endloop
  endfacet
  facet normal 0 0.86601 -0.500027
    outer loop
      vertex -9.125 112.328 1.95
      vertex -7.375 111 -0.349999
      vertex -9.125 111 -0.349999
    endloop
  endfacet
  facet normal 1 0 0
    outer loop
      vertex -10.875 111.438 5.45
      vertex -10.875 112.328 5.45
      vertex -10.875 111.438 6.03827
    endloop
  endfacet
  facet normal 1 0 0
    outer loop
      vertex -10.875 111 7.75
      vertex -10.875 111.438 6.03827
      vertex -10.875 112.328 5.45
    endloop
  endfacet
  facet normal 1 0 0
    outer loop
      vertex -10.875 111 7.75
      vertex -10.875 110.562 6.03827
      vertex -10.875 111.438 6.03827
    endloop
  endfacet
  facet normal 1 0 0
    outer loop
      vertex -10.875 109.672 5.45
      vertex -10.875 110.562 6.03827
      vertex -10.875 111 7.75
    endloop
  endfacet
  facet normal 1 0 0
    outer loop
      vertex -10.875 109.672 5.45
      vertex -10.875 110.562 5.45
      vertex -10.875 110.562 6.03827
    endloop
  endfacet
  facet normal 1 0 0
    outer loop
      vertex -10.875 111.438 1.36173
      vertex -10.875 112.328 1.95
      vertex -10.875 111.438 1.95
    endloop
  endfacet
  facet normal 1 -0 0
    outer loop
      vertex -10.875 111.438 1.36173
      vertex -10.875 111 -0.349999
      vertex -10.875 112.328 1.95
    endloop
  endfacet
  facet normal 1 -0 0
    outer loop
      vertex -10.875 110.562 1.36173
      vertex -10.875 111 -0.349999
      vertex -10.875 111.438 1.36173
    endloop
  endfacet
  facet normal 1 0 0
    outer loop
      vertex -10.875 110.562 1.95
      vertex -10.875 109.672 1.95
      vertex -10.875 110.562 1.36173
    endloop
  endfacet
  facet normal 1 0 0
    outer loop
      vertex -10.875 110.562 1.36173
      vertex -10.875 109.672 1.95
      vertex -10.875 111 -0.349999
    endloop
  endfacet
  facet normal -1 0 0
    outer loop
      vertex -9.125 111.438 6.03827
      vertex -9.125 112.328 5.45
      vertex -9.125 111.438 5.45
    endloop
  endfacet
  facet normal -1 0 0
    outer loop
      vertex -9.125 111.438 6.03827
      vertex -9.125 111 7.75
      vertex -9.125 112.328 5.45
    endloop
  endfacet
  facet normal -1 0 0
    outer loop
      vertex -9.125 110.562 6.03827
      vertex -9.125 111 7.75
      vertex -9.125 111.438 6.03827
    endloop
  endfacet
  facet normal -1 0 0
    outer loop
      vertex -9.125 110.562 5.45
      vertex -9.125 109.672 5.45
      vertex -9.125 110.562 6.03827
    endloop
  endfacet
  facet normal -1 -0 0
    outer loop
      vertex -9.125 110.562 6.03827
      vertex -9.125 109.672 5.45
      vertex -9.125 111 7.75
    endloop
  endfacet
  facet normal -1 0 0
    outer loop
      vertex -9.125 111.438 1.95
      vertex -9.125 112.328 1.95
      vertex -9.125 111.438 1.36173
    endloop
  endfacet
  facet normal -1 0 0
    outer loop
      vertex -9.125 111 -0.349999
      vertex -9.125 111.438 1.36173
      vertex -9.125 112.328 1.95
    endloop
  endfacet
  facet normal -1 0 0
    outer loop
      vertex -9.125 111 -0.349999
      vertex -9.125 110.562 1.36173
      vertex -9.125 111.438 1.36173
    endloop
  endfacet
  facet normal -1 0 0
    outer loop
      vertex -9.125 109.672 1.95
      vertex -9.125 110.562 1.36173
      vertex -9.125 111 -0.349999
    endloop
  endfacet
  facet normal -1 0 0
    outer loop
      vertex -9.125 109.672 1.95
      vertex -9.125 110.562 1.95
      vertex -9.125 110.562 1.36173
    endloop
  endfacet
  facet normal 0 0.86601 0.500027
    outer loop
      vertex -9.125 111 -0.349999
      vertex -10.875 109.672 1.95
      vertex -9.125 109.672 1.95
    endloop
  endfacet
  facet normal 0 0.86601 0.500027
    outer loop
      vertex -10.875 109.672 1.95
      vertex -9.125 111 -0.349999
      vertex -10.875 111 -0.349999
    endloop
  endfacet
  facet normal 0 0.86601 -0.500027
    outer loop
      vertex -9.125 109.672 5.45
      vertex -10.875 111 7.75
      vertex -9.125 111 7.75
    endloop
  endfacet
  facet normal 0 0.86601 -0.500027
    outer loop
      vertex -10.875 111 7.75
      vertex -9.125 109.672 5.45
      vertex -10.875 109.672 5.45
    endloop
  endfacet
  facet normal -0.936329 0 0.351125
    outer loop
      vertex -8.90625 111 2.53333
      vertex -9.125 112.328 1.95
      vertex -9.125 111.438 1.95
    endloop
  endfacet
  facet normal -0.936329 -8.81334e-07 0.351123
    outer loop
      vertex -9.125 112.328 1.95
      vertex -8.90625 111 2.53333
      vertex -8.46875 112.328 3.7
    endloop
  endfacet
  facet normal -0.936329 0 0.351125
    outer loop
      vertex -9.125 109.672 1.95
      vertex -8.90625 111 2.53333
      vertex -9.125 110.562 1.95
    endloop
  endfacet
  facet normal -0.936329 8.81334e-07 0.351123
    outer loop
      vertex -8.46875 109.672 3.7
      vertex -8.90625 111 2.53333
      vertex -9.125 109.672 1.95
    endloop
  endfacet
  facet normal -0.93633 0 0.351123
    outer loop
      vertex -8.90625 111 2.53333
      vertex -8.46875 109.672 3.7
      vertex -8.46875 112.328 3.7
    endloop
  endfacet
  facet normal -0.936329 -8.81334e-07 -0.351123
    outer loop
      vertex -8.90625 111 4.86667
      vertex -9.125 112.328 5.45
      vertex -8.46875 112.328 3.7
    endloop
  endfacet
  facet normal -0.936329 -0 -0.351125
    outer loop
      vertex -9.125 112.328 5.45
      vertex -8.90625 111 4.86667
      vertex -9.125 111.438 5.45
    endloop
  endfacet
  facet normal -0.93633 0 -0.351123
    outer loop
      vertex -8.46875 109.672 3.7
      vertex -8.90625 111 4.86667
      vertex -8.46875 112.328 3.7
    endloop
  endfacet
  facet normal -0.936329 8.81334e-07 -0.351123
    outer loop
      vertex -9.125 109.672 5.45
      vertex -8.90625 111 4.86667
      vertex -8.46875 109.672 3.7
    endloop
  endfacet
  facet normal -0.936329 0 -0.351125
    outer loop
      vertex -8.90625 111 4.86667
      vertex -9.125 109.672 5.45
      vertex -9.125 110.562 5.45
    endloop
  endfacet
  facet normal 0 0 -1
    outer loop
      vertex -9.125 111.438 6.03827
      vertex -8.90625 111 6.03827
      vertex -9.125 110.562 6.03827
    endloop
  endfacet
  facet normal -0.894631 -0.446805 -0
    outer loop
      vertex -8.90625 111 6.03827
      vertex -9.125 111.438 5.45
      vertex -8.90625 111 4.86667
    endloop
  endfacet
  facet normal -0.894631 -0.446805 0
    outer loop
      vertex -9.125 111.438 5.45
      vertex -8.90625 111 6.03827
      vertex -9.125 111.438 6.03827
    endloop
  endfacet
  facet normal -0.894631 -0.446805 0
    outer loop
      vertex -8.90625 111 1.36173
      vertex -9.125 111.438 1.95
      vertex -9.125 111.438 1.36173
    endloop
  endfacet
  facet normal -0.894631 -0.446805 0
    outer loop
      vertex -9.125 111.438 1.95
      vertex -8.90625 111 1.36173
      vertex -8.90625 111 2.53333
    endloop
  endfacet
  facet normal -0.894631 0.446805 0
    outer loop
      vertex -9.125 110.562 5.45
      vertex -8.90625 111 6.03827
      vertex -8.90625 111 4.86667
    endloop
  endfacet
  facet normal -0.894631 0.446805 0
    outer loop
      vertex -8.90625 111 6.03827
      vertex -9.125 110.562 5.45
      vertex -9.125 110.562 6.03827
    endloop
  endfacet
  facet normal -0.894631 0.446805 0
    outer loop
      vertex -9.125 110.562 1.95
      vertex -8.90625 111 1.36173
      vertex -9.125 110.562 1.36173
    endloop
  endfacet
  facet normal -0.894631 0.446805 0
    outer loop
      vertex -8.90625 111 1.36173
      vertex -9.125 110.562 1.95
      vertex -8.90625 111 2.53333
    endloop
  endfacet
  facet normal 0 0 1
    outer loop
      vertex -8.90625 111 1.36173
      vertex -9.125 111.438 1.36173
      vertex -9.125 110.562 1.36173
    endloop
  endfacet
  facet normal 0.936338 -4.78862e-05 0.3511
    outer loop
      vertex -11.0938 111 2.53333
      vertex -10.875 112.328 1.95
      vertex -11.5312 112.328 3.7
    endloop
  endfacet
  facet normal 0.936302 0 0.351196
    outer loop
      vertex -10.875 112.328 1.95
      vertex -11.0938 111 2.53333
      vertex -10.875 111.438 1.95
    endloop
  endfacet
  facet normal 0.936356 -0 0.351052
    outer loop
      vertex -11.5312 109.672 3.7
      vertex -11.0938 111 2.53333
      vertex -11.5312 112.328 3.7
    endloop
  endfacet
  facet normal 0.936338 4.78862e-05 0.3511
    outer loop
      vertex -10.875 109.672 1.95
      vertex -11.0938 111 2.53333
      vertex -11.5312 109.672 3.7
    endloop
  endfacet
  facet normal 0.936302 0 0.351196
    outer loop
      vertex -11.0938 111 2.53333
      vertex -10.875 109.672 1.95
      vertex -10.875 110.562 1.95
    endloop
  endfacet
  facet normal 0.936302 0 -0.351196
    outer loop
      vertex -11.0938 111 4.86667
      vertex -10.875 112.328 5.45
      vertex -10.875 111.438 5.45
    endloop
  endfacet
  facet normal 0.936338 -4.78862e-05 -0.3511
    outer loop
      vertex -10.875 112.328 5.45
      vertex -11.0938 111 4.86667
      vertex -11.5312 112.328 3.7
    endloop
  endfacet
  facet normal 0.936302 0 -0.351196
    outer loop
      vertex -10.875 109.672 5.45
      vertex -11.0938 111 4.86667
      vertex -10.875 110.562 5.45
    endloop
  endfacet
  facet normal 0.936338 4.78862e-05 -0.3511
    outer loop
      vertex -11.5312 109.672 3.7
      vertex -11.0938 111 4.86667
      vertex -10.875 109.672 5.45
    endloop
  endfacet
  facet normal 0.936356 0 -0.351052
    outer loop
      vertex -11.0938 111 4.86667
      vertex -11.5312 109.672 3.7
      vertex -11.5312 112.328 3.7
    endloop
  endfacet
  facet normal 0 -0 -1
    outer loop
      vertex -10.875 111.438 6.03827
      vertex -10.875 110.562 6.03827
      vertex -11.0938 111 6.03827
    endloop
  endfacet
  facet normal 0 -0 1
    outer loop
      vertex -10.875 110.562 1.36173
      vertex -10.875 111.438 1.36173
      vertex -11.0938 111 1.36173
    endloop
  endfacet
  facet normal 0.894591 -0.446887 0
    outer loop
      vertex -11.0938 111 6.03827
      vertex -10.875 111.438 5.45
      vertex -10.875 111.438 6.03827
    endloop
  endfacet
  facet normal 0.894591 -0.446887 0
    outer loop
      vertex -10.875 111.438 5.45
      vertex -11.0938 111 6.03827
      vertex -11.0938 111 4.86667
    endloop
  endfacet
  facet normal 0.894591 -0.446887 0
    outer loop
      vertex -11.0938 111 1.36173
      vertex -10.875 111.438 1.95
      vertex -11.0938 111 2.53333
    endloop
  endfacet
  facet normal 0.894591 -0.446887 0
    outer loop
      vertex -10.875 111.438 1.95
      vertex -11.0938 111 1.36173
      vertex -10.875 111.438 1.36173
    endloop
  endfacet
  facet normal 0.894591 0.446887 -0
    outer loop
      vertex -10.875 110.562 5.45
      vertex -11.0938 111 6.03827
      vertex -10.875 110.562 6.03827
    endloop
  endfacet
  facet normal 0.894591 0.446887 0
    outer loop
      vertex -11.0938 111 6.03827
      vertex -10.875 110.562 5.45
      vertex -11.0938 111 4.86667
    endloop
  endfacet
  facet normal 0.894591 0.446887 0
    outer loop
      vertex -10.875 110.562 1.95
      vertex -11.0938 111 1.36173
      vertex -11.0938 111 2.53333
    endloop
  endfacet
  facet normal 0.894591 0.446887 0
    outer loop
      vertex -11.0938 111 1.36173
      vertex -10.875 110.562 1.95
      vertex -10.875 110.562 1.36173
    endloop
  endfacet
  facet normal 1 -0 0
    outer loop
      vertex -7.375 109.672 5.46732
      vertex -7.375 112.328 5.45
      vertex -7.375 111 7.75
    endloop
  endfacet
  facet normal 1 0 0
    outer loop
      vertex -7.375 112.328 5.45
      vertex -7.375 109.672 5.46732
      vertex -7.375 112.328 1.95
    endloop
  endfacet
  facet normal 1 0 0
    outer loop
      vertex -7.375 109.672 5.46732
      vertex -7.375 111 7.75
      vertex -7.375 110.99 7.75
    endloop
  endfacet
  facet normal 1 0 0
    outer loop
      vertex -7.375 109.672 1.93268
      vertex -7.375 112.328 1.95
      vertex -7.375 109.672 5.46732
    endloop
  endfacet
  facet normal 1 0 0
    outer loop
      vertex -7.375 112.328 1.95
      vertex -7.375 109.672 1.93268
      vertex -7.375 111 -0.349999
    endloop
  endfacet
  facet normal 1 0 0
    outer loop
      vertex -7.375 111 -0.349999
      vertex -7.375 109.672 1.93268
      vertex -7.375 110.99 -0.349999
    endloop
  endfacet
  facet normal -1 0 0
    outer loop
      vertex -12.625 109.672 1.93268
      vertex -12.625 112.328 1.95
      vertex -12.625 111 -0.349999
    endloop
  endfacet
  facet normal -1 -0 0
    outer loop
      vertex -12.625 112.328 1.95
      vertex -12.625 109.672 1.93268
      vertex -12.625 112.328 5.45
    endloop
  endfacet
  facet normal -1 0 0
    outer loop
      vertex -12.625 109.672 1.93268
      vertex -12.625 111 -0.349999
      vertex -12.625 110.99 -0.349999
    endloop
  endfacet
  facet normal -1 0 0
    outer loop
      vertex -12.625 109.672 5.46732
      vertex -12.625 112.328 5.45
      vertex -12.625 109.672 1.93268
    endloop
  endfacet
  facet normal -1 0 0
    outer loop
      vertex -12.625 112.328 5.45
      vertex -12.625 109.672 5.46732
      vertex -12.625 111 7.75
    endloop
  endfacet
  facet normal -1 -0 0
    outer loop
      vertex -12.625 111 7.75
      vertex -12.625 109.672 5.46732
      vertex -12.625 110.99 7.75
    endloop
  endfacet
  facet normal 0 -1 0
    outer loop
      vertex 109.672 -7.37 5.46732
      vertex 111 -7.37 7.75
      vertex 110.99 -7.37 7.75
    endloop
  endfacet
  facet normal 0 -1 0
    outer loop
      vertex 109.672 -7.37 1.93268
      vertex 111 -7.37 7.75
      vertex 109.672 -7.37 5.46732
    endloop
  endfacet
  facet normal 0 -1 0
    outer loop
      vertex 111 -7.37 -0.349999
      vertex 109.672 -7.37 1.93268
      vertex 110.99 -7.37 -0.349999
    endloop
  endfacet
  facet normal 0 -1 0
    outer loop
      vertex 109.672 -7.37 1.93268
      vertex 111 -7.37 -0.349999
      vertex 111 -7.37 7.75
    endloop
  endfacet
  facet normal 0 0 -1
    outer loop
      vertex 110.99 -12.63 7.75
      vertex 111 -10.775 7.75
      vertex 111 -12.63 7.75
    endloop
  endfacet
  facet normal -0 0 -1
    outer loop
      vertex 111 -10.775 7.75
      vertex 110.99 -12.63 7.75
      vertex 110.99 -10.775 7.75
    endloop
  endfacet
  facet normal 0 0 -1
    outer loop
      vertex 110.99 -9.225 7.75
      vertex 111 -7.37 7.75
      vertex 111 -9.225 7.75
    endloop
  endfacet
  facet normal -0 0 -1
    outer loop
      vertex 111 -7.37 7.75
      vertex 110.99 -9.225 7.75
      vertex 110.99 -7.37 7.75
    endloop
  endfacet
  facet normal -0 0 1
    outer loop
      vertex 110.99 -10.775 -0.349999
      vertex 111 -12.63 -0.349999
      vertex 111 -10.775 -0.349999
    endloop
  endfacet
  facet normal 0 0 1
    outer loop
      vertex 111 -12.63 -0.349999
      vertex 110.99 -10.775 -0.349999
      vertex 110.99 -12.63 -0.349999
    endloop
  endfacet
  facet normal -0 0 1
    outer loop
      vertex 110.99 -7.37 -0.349999
      vertex 111 -9.225 -0.349999
      vertex 111 -7.37 -0.349999
    endloop
  endfacet
  facet normal 0 0 1
    outer loop
      vertex 111 -9.225 -0.349999
      vertex 110.99 -7.37 -0.349999
      vertex 110.99 -9.225 -0.349999
    endloop
  endfacet
  facet normal 0 1 0
    outer loop
      vertex 111 -12.63 7.75
      vertex 109.672 -12.63 5.46732
      vertex 110.99 -12.63 7.75
    endloop
  endfacet
  facet normal 0 1 0
    outer loop
      vertex 111 -12.63 7.75
      vertex 109.672 -12.63 1.93268
      vertex 109.672 -12.63 5.46732
    endloop
  endfacet
  facet normal 0 1 -0
    outer loop
      vertex 111 -12.63 -0.349999
      vertex 109.672 -12.63 1.93268
      vertex 111 -12.63 7.75
    endloop
  endfacet
  facet normal 0 1 0
    outer loop
      vertex 109.672 -12.63 1.93268
      vertex 111 -12.63 -0.349999
      vertex 110.99 -12.63 -0.349999
    endloop
  endfacet
  facet normal 0.86601 0 -0.500027
    outer loop
      vertex 110.99 -12.63 7.75
      vertex 109.672 -10.775 5.46732
      vertex 110.99 -10.775 7.75
    endloop
  endfacet
  facet normal 0.86601 0 -0.500027
    outer loop
      vertex 109.672 -10.775 5.46732
      vertex 110.99 -12.63 7.75
      vertex 109.672 -12.63 5.46732
    endloop
  endfacet
  facet normal 0.86601 0 -0.500027
    outer loop
      vertex 110.99 -9.225 7.75
      vertex 109.672 -7.37 5.46732
      vertex 110.99 -7.37 7.75
    endloop
  endfacet
  facet normal 0.86601 0 -0.500027
    outer loop
      vertex 109.672 -7.37 5.46732
      vertex 110.99 -9.225 7.75
      vertex 109.672 -9.225 5.46732
    endloop
  endfacet
  facet normal 0.86601 -0 0.500027
    outer loop
      vertex 109.672 -12.63 1.93268
      vertex 110.99 -10.775 -0.349999
      vertex 109.672 -10.775 1.93268
    endloop
  endfacet
  facet normal 0.86601 0 0.500027
    outer loop
      vertex 110.99 -10.775 -0.349999
      vertex 109.672 -12.63 1.93268
      vertex 110.99 -12.63 -0.349999
    endloop
  endfacet
  facet normal 0.86601 -0 0.500027
    outer loop
      vertex 109.672 -9.225 1.93268
      vertex 110.99 -7.37 -0.349999
      vertex 109.672 -7.37 1.93268
    endloop
  endfacet
  facet normal 0.86601 0 0.500027
    outer loop
      vertex 110.99 -7.37 -0.349999
      vertex 109.672 -9.225 1.93268
      vertex 110.99 -9.225 -0.349999
    endloop
  endfacet
  facet normal 1 -0 0
    outer loop
      vertex 109.672 -12.63 5.46732
      vertex 109.672 -10.775 5.45
      vertex 109.672 -10.775 5.46732
    endloop
  endfacet
  facet normal 1 0 0
    outer loop
      vertex 109.672 -10.775 5.45
      vertex 109.672 -12.63 5.46732
      vertex 109.672 -11.4312 3.7
    endloop
  endfacet
  facet normal 1 0 0
    outer loop
      vertex 109.672 -12.63 1.93268
      vertex 109.672 -10.775 1.95
      vertex 109.672 -11.4312 3.7
    endloop
  endfacet
  facet normal 1 0 0
    outer loop
      vertex 109.672 -12.63 1.93268
      vertex 109.672 -11.4312 3.7
      vertex 109.672 -12.63 5.46732
    endloop
  endfacet
  facet normal 1 0 0
    outer loop
      vertex 109.672 -10.775 1.95
      vertex 109.672 -12.63 1.93268
      vertex 109.672 -10.775 1.93268
    endloop
  endfacet
  facet normal 1 0 0
    outer loop
      vertex 109.672 -7.37 5.46732
      vertex 109.672 -8.56875 3.7
      vertex 109.672 -7.37 1.93268
    endloop
  endfacet
  facet normal 1 0 0
    outer loop
      vertex 109.672 -9.225 5.45
      vertex 109.672 -7.37 5.46732
      vertex 109.672 -9.225 5.46732
    endloop
  endfacet
  facet normal 1 0 0
    outer loop
      vertex 109.672 -7.37 5.46732
      vertex 109.672 -9.225 5.45
      vertex 109.672 -8.56875 3.7
    endloop
  endfacet
  facet normal 1 -0 0
    outer loop
      vertex 109.672 -9.225 1.95
      vertex 109.672 -7.37 1.93268
      vertex 109.672 -8.56875 3.7
    endloop
  endfacet
  facet normal 1 0 0
    outer loop
      vertex 109.672 -7.37 1.93268
      vertex 109.672 -9.225 1.95
      vertex 109.672 -9.225 1.93268
    endloop
  endfacet
  facet normal 1 -0 0
    outer loop
      vertex 111 -7.37 7.75
      vertex 111 0 7.59549
      vertex 111 0 8.2
    endloop
  endfacet
  facet normal 1 0 0
    outer loop
      vertex 111 -7.37 -0.349999
      vertex 111 -5 3.39999
      vertex 111 -7.37 7.75
    endloop
  endfacet
  facet normal 1 0 0
    outer loop
      vertex 111 0 7.59549
      vertex 111 -7.37 7.75
      vertex 111 -5 3.39999
    endloop
  endfacet
  facet normal 1 -0 0
    outer loop
      vertex 111 -15 8.2
      vertex 111 -7.37 7.75
      vertex 111 0 8.2
    endloop
  endfacet
  facet normal 1 0 0
    outer loop
      vertex 111 -7.37 7.75
      vertex 111 -15 8.2
      vertex 111 -9.225 7.75
    endloop
  endfacet
  facet normal 1 0 0
    outer loop
      vertex 111 -9.225 7.75
      vertex 111 -15 8.2
      vertex 111 -10.775 7.75
    endloop
  endfacet
  facet normal 1 0 0
    outer loop
      vertex 111 -12.63 7.75
      vertex 111 -15 8.2
      vertex 111 -12.63 -0.349999
    endloop
  endfacet
  facet normal 1 0 0
    outer loop
      vertex 111 -10.775 7.75
      vertex 111 -15 8.2
      vertex 111 -12.63 7.75
    endloop
  endfacet
  facet normal 1 -0 0
    outer loop
      vertex 111 -4 0
      vertex 111 0 -0.799988
      vertex 111 0 0
    endloop
  endfacet
  facet normal 1 0 0
    outer loop
      vertex 111 -5 3.39999
      vertex 111 -7.37 -0.349999
      vertex 111 -5 1
    endloop
  endfacet
  facet normal 1 0 0
    outer loop
      vertex 111 -7.37 -0.349999
      vertex 111 -4 0
      vertex 111 -5 1
    endloop
  endfacet
  facet normal 1 -0 0
    outer loop
      vertex 111 -7.37 -0.349999
      vertex 111 0 -0.799988
      vertex 111 -4 0
    endloop
  endfacet
  facet normal 1 0 0
    outer loop
      vertex 111 -15 -0.799988
      vertex 111 -7.37 -0.349999
      vertex 111 -9.225 -0.349999
    endloop
  endfacet
  facet normal 1 0 0
    outer loop
      vertex 111 -15 -0.799988
      vertex 111 -9.225 -0.349999
      vertex 111 -10.775 -0.349999
    endloop
  endfacet
  facet normal 1 0 0
    outer loop
      vertex 111 -15 -0.799988
      vertex 111 -10.775 -0.349999
      vertex 111 -12.63 -0.349999
    endloop
  endfacet
  facet normal 1 0 0
    outer loop
      vertex 111 -7.37 -0.349999
      vertex 111 -15 -0.799988
      vertex 111 0 -0.799988
    endloop
  endfacet
  facet normal 1 0 0
    outer loop
      vertex 111 -15 -0.799988
      vertex 111 -12.63 -0.349999
      vertex 111 -15 8.2
    endloop
  endfacet
  facet normal -0 0 1
    outer loop
      vertex 0 0 0
      vertex 111 -4 0
      vertex 111 0 0
    endloop
  endfacet
  facet normal 0 0 1
    outer loop
      vertex 111 -4 0
      vertex 0 0 0
      vertex -4 -4 0
    endloop
  endfacet
  facet normal -0 0.707107 0.707107
    outer loop
      vertex -4 -4 0
      vertex 111 -5 1
      vertex 111 -4 0
    endloop
  endfacet
  facet normal 0 0.707107 0.707107
    outer loop
      vertex 111 -5 1
      vertex -4 -4 0
      vertex -5 -5 1
    endloop
  endfacet
  facet normal 0 1 -0
    outer loop
      vertex 111 -5 1
      vertex -5 -5 3.39999
      vertex 111 -5 3.39999
    endloop
  endfacet
  facet normal 0 1 0
    outer loop
      vertex -5 -5 3.39999
      vertex 111 -5 1
      vertex -5 -5 1
    endloop
  endfacet
  facet normal 0 0.642788 -0.766044
    outer loop
      vertex 111 -5 3.39999
      vertex 0 0 7.59549
      vertex 111 0 7.59549
    endloop
  endfacet
  facet normal 0 0.642788 -0.766044
    outer loop
      vertex 0 0 7.59549
      vertex 111 -5 3.39999
      vertex -5 -5 3.39999
    endloop
  endfacet
  facet normal 0 1 -0
    outer loop
      vertex 111 0 7.59549
      vertex 0 0 8.2
      vertex 111 0 8.2
    endloop
  endfacet
  facet normal 0 1 0
    outer loop
      vertex 0 0 8.2
      vertex 111 0 7.59549
      vertex 0 0 7.59549
    endloop
  endfacet
  facet normal -0 0 1
    outer loop
      vertex 0 0 8.2
      vertex 111 -15 8.2
      vertex 111 0 8.2
    endloop
  endfacet
  facet normal 0 0 1
    outer loop
      vertex 111 -15 8.2
      vertex 0 0 8.2
      vertex -15 -15 8.2
    endloop
  endfacet
  facet normal 0 -1 0
    outer loop
      vertex -15 -15 -0.799988
      vertex 111 -15 8.2
      vertex -15 -15 8.2
    endloop
  endfacet
  facet normal 0 -1 -0
    outer loop
      vertex 111 -15 8.2
      vertex -15 -15 -0.799988
      vertex 111 -15 -0.799988
    endloop
  endfacet
  facet normal 0 0 -1
    outer loop
      vertex 111 -15 -0.799988
      vertex 0 0 -0.799988
      vertex 111 0 -0.799988
    endloop
  endfacet
  facet normal 0 -0 -1
    outer loop
      vertex 0 0 -0.799988
      vertex 111 -15 -0.799988
      vertex -15 -15 -0.799988
    endloop
  endfacet
  facet normal 0 1 -0
    outer loop
      vertex 111 0 -0.799988
      vertex 0 0 0
      vertex 111 0 0
    endloop
  endfacet
  facet normal 0 1 0
    outer loop
      vertex 0 0 0
      vertex 111 0 -0.799988
      vertex 0 0 -0.799988
    endloop
  endfacet
  facet normal 0 1 0
    outer loop
      vertex 111 -9.225 7.75
      vertex 111.438 -9.225 5.93827
      vertex 110.99 -9.225 7.75
    endloop
  endfacet
  facet normal 0 1 0
    outer loop
      vertex 112.328 -9.225 5.45
      vertex 111.438 -9.225 5.93827
      vertex 111 -9.225 7.75
    endloop
  endfacet
  facet normal 0 1 0
    outer loop
      vertex 112.328 -9.225 5.45
      vertex 111.438 -9.225 5.45
      vertex 111.438 -9.225 5.93827
    endloop
  endfacet
  facet normal 0 1 0
    outer loop
      vertex 110.562 -9.225 5.93827
      vertex 110.99 -9.225 7.75
      vertex 111.438 -9.225 5.93827
    endloop
  endfacet
  facet normal 0 1 -0
    outer loop
      vertex 110.562 -9.225 5.93827
      vertex 109.672 -9.225 5.46732
      vertex 110.99 -9.225 7.75
    endloop
  endfacet
  facet normal 0 1 -0
    outer loop
      vertex 110.562 -9.225 5.45
      vertex 109.672 -9.225 5.46732
      vertex 110.562 -9.225 5.93827
    endloop
  endfacet
  facet normal 0 1 0
    outer loop
      vertex 109.672 -9.225 5.46732
      vertex 110.562 -9.225 5.45
      vertex 109.672 -9.225 5.45
    endloop
  endfacet
  facet normal 0 1 0
    outer loop
      vertex 112.328 -9.225 1.95
      vertex 111.438 -9.225 1.46173
      vertex 111.438 -9.225 1.95
    endloop
  endfacet
  facet normal 0 1 0
    outer loop
      vertex 111.438 -9.225 1.46173
      vertex 111 -9.225 -0.349999
      vertex 110.562 -9.225 1.46173
    endloop
  endfacet
  facet normal 0 1 0
    outer loop
      vertex 111 -9.225 -0.349999
      vertex 111.438 -9.225 1.46173
      vertex 112.328 -9.225 1.95
    endloop
  endfacet
  facet normal 0 1 0
    outer loop
      vertex 110.562 -9.225 1.95
      vertex 109.672 -9.225 1.93268
      vertex 109.672 -9.225 1.95
    endloop
  endfacet
  facet normal 0 1 -0
    outer loop
      vertex 110.562 -9.225 1.46173
      vertex 109.672 -9.225 1.93268
      vertex 110.562 -9.225 1.95
    endloop
  endfacet
  facet normal 0 1 -0
    outer loop
      vertex 110.99 -9.225 -0.349999
      vertex 110.562 -9.225 1.46173
      vertex 111 -9.225 -0.349999
    endloop
  endfacet
  facet normal 0 1 0
    outer loop
      vertex 110.562 -9.225 1.46173
      vertex 110.99 -9.225 -0.349999
      vertex 109.672 -9.225 1.93268
    endloop
  endfacet
  facet normal 0 -1 -0
    outer loop
      vertex 110.99 -10.775 7.75
      vertex 110.562 -10.775 5.93827
      vertex 111 -10.775 7.75
    endloop
  endfacet
  facet normal 0 -1 0
    outer loop
      vertex 109.672 -10.775 5.46732
      vertex 110.562 -10.775 5.93827
      vertex 110.99 -10.775 7.75
    endloop
  endfacet
  facet normal 0 -1 0
    outer loop
      vertex 110.562 -10.775 5.45
      vertex 109.672 -10.775 5.46732
      vertex 109.672 -10.775 5.45
    endloop
  endfacet
  facet normal 0 -1 0
    outer loop
      vertex 109.672 -10.775 5.46732
      vertex 110.562 -10.775 5.45
      vertex 110.562 -10.775 5.93827
    endloop
  endfacet
  facet normal 0 -1 0
    outer loop
      vertex 111.438 -10.775 5.93827
      vertex 111 -10.775 7.75
      vertex 110.562 -10.775 5.93827
    endloop
  endfacet
  facet normal 0 -1 0
    outer loop
      vertex 111.438 -10.775 5.93827
      vertex 112.328 -10.775 5.45
      vertex 111 -10.775 7.75
    endloop
  endfacet
  facet normal 0 -1 0
    outer loop
      vertex 111.438 -10.775 5.45
      vertex 112.328 -10.775 5.45
      vertex 111.438 -10.775 5.93827
    endloop
  endfacet
  facet normal 0 -1 0
    outer loop
      vertex 109.672 -10.775 1.93268
      vertex 110.562 -10.775 1.95
      vertex 109.672 -10.775 1.95
    endloop
  endfacet
  facet normal 0 -1 0
    outer loop
      vertex 109.672 -10.775 1.93268
      vertex 110.562 -10.775 1.46173
      vertex 110.562 -10.775 1.95
    endloop
  endfacet
  facet normal 0 -1 0
    outer loop
      vertex 110.562 -10.775 1.46173
      vertex 110.99 -10.775 -0.349999
      vertex 111.438 -10.775 1.46173
    endloop
  endfacet
  facet normal 0 -1 0
    outer loop
      vertex 110.99 -10.775 -0.349999
      vertex 110.562 -10.775 1.46173
      vertex 109.672 -10.775 1.93268
    endloop
  endfacet
  facet normal 0 -1 0
    outer loop
      vertex 111.438 -10.775 1.46173
      vertex 112.328 -10.775 1.95
      vertex 111.438 -10.775 1.95
    endloop
  endfacet
  facet normal 0 -1 0
    outer loop
      vertex 111 -10.775 -0.349999
      vertex 111.438 -10.775 1.46173
      vertex 110.99 -10.775 -0.349999
    endloop
  endfacet
  facet normal 0 -1 -0
    outer loop
      vertex 111.438 -10.775 1.46173
      vertex 111 -10.775 -0.349999
      vertex 112.328 -10.775 1.95
    endloop
  endfacet
  facet normal 0.86601 0 -0.500027
    outer loop
      vertex 112.328 -10.775 1.95
      vertex 111 -9.225 -0.349999
      vertex 112.328 -9.225 1.95
    endloop
  endfacet
  facet normal 0.86601 0 -0.500027
    outer loop
      vertex 111 -9.225 -0.349999
      vertex 112.328 -10.775 1.95
      vertex 111 -10.775 -0.349999
    endloop
  endfacet
  facet normal 0.86601 -0 0.500027
    outer loop
      vertex 111 -10.775 7.75
      vertex 112.328 -9.225 5.45
      vertex 111 -9.225 7.75
    endloop
  endfacet
  facet normal 0.86601 0 0.500027
    outer loop
      vertex 112.328 -9.225 5.45
      vertex 111 -10.775 7.75
      vertex 112.328 -10.775 5.45
    endloop
  endfacet
  facet normal 0 -0.93633 -0.351123
    outer loop
      vertex 109.672 -11.4312 3.7
      vertex 111 -10.9937 2.53333
      vertex 112.328 -11.4312 3.7
    endloop
  endfacet
  facet normal 2.26212e-05 -0.936338 -0.3511
    outer loop
      vertex 109.672 -10.775 1.95
      vertex 111 -10.9937 2.53333
      vertex 109.672 -11.4312 3.7
    endloop
  endfacet
  facet normal 0 -0.936355 -0.351055
    outer loop
      vertex 111 -10.9937 2.53333
      vertex 109.672 -10.775 1.95
      vertex 110.562 -10.775 1.95
    endloop
  endfacet
  facet normal -0 -0.936355 -0.351055
    outer loop
      vertex 112.328 -10.775 1.95
      vertex 111 -10.9937 2.53333
      vertex 111.438 -10.775 1.95
    endloop
  endfacet
  facet normal -2.26212e-05 -0.936338 -0.3511
    outer loop
      vertex 111 -10.9937 2.53333
      vertex 112.328 -10.775 1.95
      vertex 112.328 -11.4312 3.7
    endloop
  endfacet
  facet normal 0 -0.936355 0.351055
    outer loop
      vertex 109.672 -10.775 5.45
      vertex 111 -10.9937 4.86667
      vertex 110.562 -10.775 5.45
    endloop
  endfacet
  facet normal 2.26212e-05 -0.936338 0.3511
    outer loop
      vertex 111 -10.9937 4.86667
      vertex 109.672 -10.775 5.45
      vertex 109.672 -11.4312 3.7
    endloop
  endfacet
  facet normal 0 -0.936355 0.351055
    outer loop
      vertex 111 -10.9937 4.86667
      vertex 112.328 -10.775 5.45
      vertex 111.438 -10.775 5.45
    endloop
  endfacet
  facet normal 0 -0.93633 0.351123
    outer loop
      vertex 112.328 -11.4312 3.7
      vertex 111 -10.9937 4.86667
      vertex 109.672 -11.4312 3.7
    endloop
  endfacet
  facet normal -2.26212e-05 -0.936338 0.3511
    outer loop
      vertex 111 -10.9937 4.86667
      vertex 112.328 -11.4312 3.7
      vertex 112.328 -10.775 5.45
    endloop
  endfacet
  facet normal 0 -0 1
    outer loop
      vertex 111 -10.9937 5.93827
      vertex 111.438 -10.775 5.93827
      vertex 110.562 -10.775 5.93827
    endloop
  endfacet
  facet normal -0.446723 -0.894672 0
    outer loop
      vertex 110.562 -10.775 5.45
      vertex 111 -10.9937 5.93827
      vertex 110.562 -10.775 5.93827
    endloop
  endfacet
  facet normal -0.446723 -0.894672 -0
    outer loop
      vertex 111 -10.9937 5.93827
      vertex 110.562 -10.775 5.45
      vertex 111 -10.9937 4.86667
    endloop
  endfacet
  facet normal -0.446723 -0.894672 0
    outer loop
      vertex 111 -10.9937 1.46173
      vertex 110.562 -10.775 1.95
      vertex 110.562 -10.775 1.46173
    endloop
  endfacet
  facet normal -0.446723 -0.894672 0
    outer loop
      vertex 110.562 -10.775 1.95
      vertex 111 -10.9937 1.46173
      vertex 111 -10.9937 2.53333
    endloop
  endfacet
  facet normal 0.446723 -0.894672 0
    outer loop
      vertex 111 -10.9937 5.93827
      vertex 111.438 -10.775 5.45
      vertex 111.438 -10.775 5.93827
    endloop
  endfacet
  facet normal 0.446723 -0.894672 0
    outer loop
      vertex 111.438 -10.775 5.45
      vertex 111 -10.9937 5.93827
      vertex 111 -10.9937 4.86667
    endloop
  endfacet
  facet normal 0.446723 -0.894672 0
    outer loop
      vertex 111 -10.9937 1.46173
      vertex 111.438 -10.775 1.95
      vertex 111 -10.9937 2.53333
    endloop
  endfacet
  facet normal 0.446723 -0.894672 0
    outer loop
      vertex 111.438 -10.775 1.95
      vertex 111 -10.9937 1.46173
      vertex 111.438 -10.775 1.46173
    endloop
  endfacet
  facet normal 0 0 -1
    outer loop
      vertex 110.562 -10.775 1.46173
      vertex 111.438 -10.775 1.46173
      vertex 111 -10.9937 1.46173
    endloop
  endfacet
  facet normal 0 0.93633 -0.351123
    outer loop
      vertex 112.328 -8.56875 3.7
      vertex 111 -9.00625 2.53333
      vertex 109.672 -8.56875 3.7
    endloop
  endfacet
  facet normal 8.81334e-07 0.936329 -0.351123
    outer loop
      vertex 112.328 -9.225 1.95
      vertex 111 -9.00625 2.53333
      vertex 112.328 -8.56875 3.7
    endloop
  endfacet
  facet normal 0 0.936329 -0.351125
    outer loop
      vertex 111 -9.00625 2.53333
      vertex 112.328 -9.225 1.95
      vertex 111.438 -9.225 1.95
    endloop
  endfacet
  facet normal 0 0.936329 -0.351125
    outer loop
      vertex 109.672 -9.225 1.95
      vertex 111 -9.00625 2.53333
      vertex 110.562 -9.225 1.95
    endloop
  endfacet
  facet normal -8.81334e-07 0.936329 -0.351123
    outer loop
      vertex 111 -9.00625 2.53333
      vertex 109.672 -9.225 1.95
      vertex 109.672 -8.56875 3.7
    endloop
  endfacet
  facet normal 0 0.936329 0.351125
    outer loop
      vertex 112.328 -9.225 5.45
      vertex 111 -9.00625 4.86667
      vertex 111.438 -9.225 5.45
    endloop
  endfacet
  facet normal 8.81334e-07 0.936329 0.351123
    outer loop
      vertex 111 -9.00625 4.86667
      vertex 112.328 -9.225 5.45
      vertex 112.328 -8.56875 3.7
    endloop
  endfacet
  facet normal 0 0.936329 0.351125
    outer loop
      vertex 111 -9.00625 4.86667
      vertex 109.672 -9.225 5.45
      vertex 110.562 -9.225 5.45
    endloop
  endfacet
  facet normal -0 0.93633 0.351123
    outer loop
      vertex 109.672 -8.56875 3.7
      vertex 111 -9.00625 4.86667
      vertex 112.328 -8.56875 3.7
    endloop
  endfacet
  facet normal -8.81334e-07 0.936329 0.351123
    outer loop
      vertex 111 -9.00625 4.86667
      vertex 109.672 -8.56875 3.7
      vertex 109.672 -9.225 5.45
    endloop
  endfacet
  facet normal 0 0 1
    outer loop
      vertex 110.562 -9.225 5.93827
      vertex 111.438 -9.225 5.93827
      vertex 111 -9.00625 5.93827
    endloop
  endfacet
  facet normal 0 -0 -1
    outer loop
      vertex 111 -9.00625 1.46173
      vertex 111.438 -9.225 1.46173
      vertex 110.562 -9.225 1.46173
    endloop
  endfacet
  facet normal -0.446805 0.894631 0
    outer loop
      vertex 111 -9.00625 5.93827
      vertex 110.562 -9.225 5.45
      vertex 110.562 -9.225 5.93827
    endloop
  endfacet
  facet normal -0.446805 0.894631 0
    outer loop
      vertex 110.562 -9.225 5.45
      vertex 111 -9.00625 5.93827
      vertex 111 -9.00625 4.86667
    endloop
  endfacet
  facet normal -0.446805 0.894631 0
    outer loop
      vertex 111 -9.00625 1.46173
      vertex 110.562 -9.225 1.95
      vertex 111 -9.00625 2.53333
    endloop
  endfacet
  facet normal -0.446805 0.894631 0
    outer loop
      vertex 110.562 -9.225 1.95
      vertex 111 -9.00625 1.46173
      vertex 110.562 -9.225 1.46173
    endloop
  endfacet
  facet normal 0.446805 0.894631 -0
    outer loop
      vertex 111.438 -9.225 5.45
      vertex 111 -9.00625 5.93827
      vertex 111.438 -9.225 5.93827
    endloop
  endfacet
  facet normal 0.446805 0.894631 0
    outer loop
      vertex 111 -9.00625 5.93827
      vertex 111.438 -9.225 5.45
      vertex 111 -9.00625 4.86667
    endloop
  endfacet
  facet normal 0.446805 0.894631 0
    outer loop
      vertex 111 -9.00625 1.46173
      vertex 111.438 -9.225 1.95
      vertex 111.438 -9.225 1.46173
    endloop
  endfacet
  facet normal 0.446805 0.894631 0
    outer loop
      vertex 111.438 -9.225 1.95
      vertex 111 -9.00625 1.46173
      vertex 111 -9.00625 2.53333
    endloop
  endfacet
  facet normal 1 0 0
    outer loop
      vertex 112.328 -11.4312 3.7
      vertex 112.328 -8.56875 3.7
      vertex 112.328 -9.225 5.45
    endloop
  endfacet
  facet normal 1 0 0
    outer loop
      vertex 112.328 -8.56875 3.7
      vertex 112.328 -11.4312 3.7
      vertex 112.328 -9.225 1.95
    endloop
  endfacet
  facet normal 1 0 -0
    outer loop
      vertex 112.328 -10.775 1.95
      vertex 112.328 -9.225 1.95
      vertex 112.328 -11.4312 3.7
    endloop
  endfacet
  facet normal 1 0 0
    outer loop
      vertex 112.328 -9.225 5.45
      vertex 112.328 -10.775 5.45
      vertex 112.328 -11.4312 3.7
    endloop
  endfacet
endsolid OpenSCAD_Model
