<svg xmlns="http://www.w3.org/2000/svg" data-name="Layer 1" viewBox="0 0 100 125" x="0px" y="0px"><title>Artboard 2</title><path d="M26.89,61.61a11.5,11.5,0,1,0,23,0,2.5,2.5,0,0,1,5,0,16.5,16.5,0,1,1-16.49-16.5,2.5,2.5,0,0,1,0,5A11.51,11.51,0,0,0,26.89,61.61Zm-20,8.55,3.63.64a29.17,29.17,0,0,0,1.68,4l-2.12,3a6.45,6.45,0,0,0,.72,8.28l3.09,3.09a6.45,6.45,0,0,0,8.28.72l3-2.12a29.31,29.31,0,0,0,4.05,1.68l.64,3.63A6.45,6.45,0,0,0,36.2,98.5h4.37a6.45,6.45,0,0,0,6.37-5.35l.64-3.63a29.3,29.3,0,0,0,4-1.68l3,2.12a6.46,6.46,0,0,0,8.28-.72L66,86.15a6.45,6.45,0,0,0,.72-8.28l-2.12-3a29.24,29.24,0,0,0,1.68-4l3.63-.64a2.5,2.5,0,1,0-.86-4.92l-5.15.9a2.5,2.5,0,0,0-2,1.81,24.24,24.24,0,0,1-2.41,5.82,2.5,2.5,0,0,0,.12,2.68l3,4.29a1.46,1.46,0,0,1-.16,1.87l-3.09,3.09a1.46,1.46,0,0,1-1.87.16l-4.28-3a2.5,2.5,0,0,0-2.69-.12,24.23,24.23,0,0,1-5.82,2.41,2.5,2.5,0,0,0-1.81,2L42,92.29a1.46,1.46,0,0,1-1.44,1.21H36.2a1.46,1.46,0,0,1-1.44-1.21l-.9-5.15a2.5,2.5,0,0,0-1.81-2,24.3,24.3,0,0,1-5.82-2.41,2.5,2.5,0,0,0-2.69.12l-4.28,3a1.46,1.46,0,0,1-1.87-.16l-3.09-3.09a1.46,1.46,0,0,1-.16-1.87l3-4.28a2.5,2.5,0,0,0,.12-2.69A24.17,24.17,0,0,1,14.84,68a2.5,2.5,0,0,0-2-1.81l-5.15-.9A1.46,1.46,0,0,1,6.5,63.8V59.43A1.46,1.46,0,0,1,7.71,58l5.15-.9a2.5,2.5,0,0,0,2-1.81,24.17,24.17,0,0,1,2.41-5.82,2.5,2.5,0,0,0-.12-2.69l-3-4.28a1.46,1.46,0,0,1,.16-1.87l3.09-3.09a1.46,1.46,0,0,1,1.87-.16l4.28,3a2.5,2.5,0,0,0,2.69.12A24.27,24.27,0,0,1,32,38.07a2.5,2.5,0,0,0,1.81-2l.9-5.15a2.5,2.5,0,1,0-4.92-.86L29.2,33.7a29.33,29.33,0,0,0-4.05,1.68l-3-2.12a6.45,6.45,0,0,0-8.28.72l-3.09,3.09A6.46,6.46,0,0,0,10,45.36l2.12,3a29.15,29.15,0,0,0-1.68,4.05l-3.63.64A6.45,6.45,0,0,0,1.5,59.43V63.8A6.45,6.45,0,0,0,6.84,70.17ZM98.5,29.38v3.44a5.62,5.62,0,0,1-4.65,5.54l-2.55.45a23.59,23.59,0,0,1-1.11,2.68l1.49,2.12a5.61,5.61,0,0,1-.63,7.2l-2.44,2.44a5.61,5.61,0,0,1-7.2.63l-2.12-1.49a23.53,23.53,0,0,1-2.68,1.11L76.16,56a5.61,5.61,0,0,1-5.54,4.65H67.18A5.62,5.62,0,0,1,61.64,56l-.45-2.55a23.57,23.57,0,0,1-2.68-1.11l-2.12,1.49a5.61,5.61,0,0,1-7.2-.63l-2.44-2.44a5.61,5.61,0,0,1-.63-7.2l1.49-2.12a23.48,23.48,0,0,1-1.11-2.68L44,38.36a5.61,5.61,0,0,1-4.65-5.54V29.38A5.61,5.61,0,0,1,44,23.84l2.55-.45a23.54,23.54,0,0,1,1.11-2.68l-1.49-2.12a5.62,5.62,0,0,1,.63-7.21L49.19,9a5.61,5.61,0,0,1,7.2-.63l2.12,1.49A23.56,23.56,0,0,1,61.19,8.7l.45-2.55A5.62,5.62,0,0,1,67.18,1.5h3.44a5.61,5.61,0,0,1,5.54,4.65l.45,2.55a23.48,23.48,0,0,1,2.68,1.11l2.12-1.49a5.61,5.61,0,0,1,7.2.63L91,11.39a5.61,5.61,0,0,1,.63,7.2l-1.49,2.12a23.66,23.66,0,0,1,1.11,2.68l2.55.45A5.61,5.61,0,0,1,98.5,29.38Zm-5,0a.62.62,0,0,0-.51-.61l-4.06-.71a2.5,2.5,0,0,1-2-1.81,18.53,18.53,0,0,0-1.85-4.46,2.5,2.5,0,0,1,.12-2.69l2.37-3.38a.62.62,0,0,0-.07-.8l-2.44-2.44a.63.63,0,0,0-.8-.07L80.9,14.79a2.5,2.5,0,0,1-2.69.12,18.52,18.52,0,0,0-4.46-1.85,2.5,2.5,0,0,1-1.81-2L71.24,7a.62.62,0,0,0-.61-.51H67.18a.62.62,0,0,0-.61.52l-.71,4.06a2.5,2.5,0,0,1-1.81,2,18.53,18.53,0,0,0-4.46,1.85,2.5,2.5,0,0,1-2.69-.12l-3.38-2.37a.62.62,0,0,0-.8.07l-2.44,2.44a.62.62,0,0,0-.07.8l2.37,3.37a2.5,2.5,0,0,1,.12,2.69,18.54,18.54,0,0,0-1.85,4.46,2.5,2.5,0,0,1-2,1.81l-4.06.71a.62.62,0,0,0-.51.61v3.44a.62.62,0,0,0,.52.61l4.06.71a2.5,2.5,0,0,1,2,1.81,18.51,18.51,0,0,0,1.85,4.46,2.5,2.5,0,0,1-.12,2.69l-2.37,3.38a.62.62,0,0,0,.07.8l2.44,2.44a.62.62,0,0,0,.8.07l3.38-2.37a2.5,2.5,0,0,1,2.69-.12A18.57,18.57,0,0,0,64,49.14a2.5,2.5,0,0,1,1.81,2l.71,4.06a.62.62,0,0,0,.61.51h3.44a.62.62,0,0,0,.61-.51l.71-4.06a2.5,2.5,0,0,1,1.81-2,18.56,18.56,0,0,0,4.46-1.85,2.5,2.5,0,0,1,2.69.12l3.38,2.37a.62.62,0,0,0,.8-.07l2.44-2.44a.62.62,0,0,0,.07-.8L85.21,43.1a2.5,2.5,0,0,1-.12-2.68A18.56,18.56,0,0,0,86.94,36a2.5,2.5,0,0,1,2-1.81L93,33.44a.62.62,0,0,0,.51-.61ZM80.7,31.1A11.8,11.8,0,1,1,68.9,19.3,11.81,11.81,0,0,1,80.7,31.1Zm-5,0a6.8,6.8,0,1,0-6.8,6.8A6.8,6.8,0,0,0,75.7,31.1Z"/><text x="0" y="115" fill="#000000" font-size="5px" font-weight="bold" font-family="'Helvetica Neue', Helvetica, Arial-Unicode, Arial, Sans-serif">Created by Gregor Cresnar</text><text x="0" y="120" fill="#000000" font-size="5px" font-weight="bold" font-family="'Helvetica Neue', Helvetica, Arial-Unicode, Arial, Sans-serif">from the Noun Project</text></svg>