solid OpenSCAD_Model
  facet normal -1 0 0
    outer loop
      vertex 244 6.2 1
      vertex 244 3 1
      vertex 244 6.2 191.7
    endloop
  endfacet
  facet normal -1 0 0
    outer loop
      vertex 244 12.8 1
      vertex 244 7.2 1
      vertex 244 12.8 176.993
    endloop
  endfacet
  facet normal -1 0 0
    outer loop
      vertex 244 28.4 1
      vertex 244 13.8 1
      vertex 244 28.4 155.2
    endloop
  endfacet
  facet normal -1 0 0
    outer loop
      vertex 244 13.8 176.993
      vertex 244 31.4 155.2
      vertex 244 28.4 155.2
    endloop
  endfacet
  facet normal -1 0 0
    outer loop
      vertex 244 13.8 176.993
      vertex 244 28.4 155.2
      vertex 244 13.8 1
    endloop
  endfacet
  facet normal -1 0 0
    outer loop
      vertex 244 31.4 155.2
      vertex 244 13.8 176.993
      vertex 244 31.4 194
    endloop
  endfacet
  facet normal -1 0 0
    outer loop
      vertex 244 13.8 186.993
      vertex 244 31.4 194
      vertex 244 13.8 176.993
    endloop
  endfacet
  facet normal -1 0 0
    outer loop
      vertex 244 13.8 191.7
      vertex 244 31.4 194
      vertex 244 13.8 186.993
    endloop
  endfacet
  facet normal -1 0 0
    outer loop
      vertex 244 3 194
      vertex 244 13.8 191.7
      vertex 244 6.2 191.7
    endloop
  endfacet
  facet normal -1 0 0
    outer loop
      vertex 244 13.8 191.7
      vertex 244 3 194
      vertex 244 31.4 194
    endloop
  endfacet
  facet normal -1 0 0
    outer loop
      vertex 244 3 194
      vertex 244 6.2 191.7
      vertex 244 3 1
    endloop
  endfacet
  facet normal -1 0 0
    outer loop
      vertex 244 12.8 176.993
      vertex 244 13.8 186.993
      vertex 244 13.8 176.993
    endloop
  endfacet
  facet normal -1 0 0
    outer loop
      vertex 244 12.8 176.993
      vertex 244 7.2 186.993
      vertex 244 13.8 186.993
    endloop
  endfacet
  facet normal -1 0 0
    outer loop
      vertex 244 7.2 186.993
      vertex 244 12.8 176.993
      vertex 244 7.2 1
    endloop
  endfacet
  facet normal 0 -1 0
    outer loop
      vertex 1 31.4 155.2
      vertex 244 31.4 194
      vertex 1 31.4 194
    endloop
  endfacet
  facet normal 0 -1 -0
    outer loop
      vertex 244 31.4 194
      vertex 1 31.4 155.2
      vertex 244 31.4 155.2
    endloop
  endfacet
  facet normal 0 1 -0
    outer loop
      vertex 244 3 1
      vertex 1 3 194
      vertex 244 3 194
    endloop
  endfacet
  facet normal 0 1 0
    outer loop
      vertex 1 3 194
      vertex 244 3 1
      vertex 1 3 1
    endloop
  endfacet
  facet normal 1 0 0
    outer loop
      vertex 1 13.8 186.993
      vertex 1 12.8 176.993
      vertex 1 13.8 176.993
    endloop
  endfacet
  facet normal 1 -0 0
    outer loop
      vertex 1 7.2 186.993
      vertex 1 12.8 176.993
      vertex 1 13.8 186.993
    endloop
  endfacet
  facet normal 1 0 0
    outer loop
      vertex 1 7.2 1
      vertex 1 12.8 176.993
      vertex 1 7.2 186.993
    endloop
  endfacet
  facet normal 1 0 0
    outer loop
      vertex 1 12.8 176.993
      vertex 1 7.2 1
      vertex 1 12.8 1
    endloop
  endfacet
  facet normal 1 -0 0
    outer loop
      vertex 1 13.8 176.993
      vertex 1 31.4 155.2
      vertex 1 31.4 194
    endloop
  endfacet
  facet normal 1 0 0
    outer loop
      vertex 1 13.8 176.993
      vertex 1 31.4 194
      vertex 1 13.8 186.993
    endloop
  endfacet
  facet normal 1 0 0
    outer loop
      vertex 1 13.8 186.993
      vertex 1 31.4 194
      vertex 1 13.8 191.7
    endloop
  endfacet
  facet normal 1 -0 0
    outer loop
      vertex 1 3 194
      vertex 1 13.8 191.7
      vertex 1 31.4 194
    endloop
  endfacet
  facet normal 1 0 0
    outer loop
      vertex 1 13.8 191.7
      vertex 1 3 194
      vertex 1 6.2 191.7
    endloop
  endfacet
  facet normal 1 0 0
    outer loop
      vertex 1 3 1
      vertex 1 6.2 191.7
      vertex 1 3 194
    endloop
  endfacet
  facet normal 1 0 0
    outer loop
      vertex 1 6.2 191.7
      vertex 1 3 1
      vertex 1 6.2 1
    endloop
  endfacet
  facet normal 1 0 0
    outer loop
      vertex 1 31.4 155.2
      vertex 1 13.8 176.993
      vertex 1 28.4 155.2
    endloop
  endfacet
  facet normal 1 0 0
    outer loop
      vertex 1 13.8 1
      vertex 1 28.4 155.2
      vertex 1 13.8 176.993
    endloop
  endfacet
  facet normal 1 0 0
    outer loop
      vertex 1 28.4 155.2
      vertex 1 13.8 1
      vertex 1 28.4 1
    endloop
  endfacet
  facet normal -0 0 1
    outer loop
      vertex 1 12.8 1
      vertex 4 7.2 1
      vertex 4 12.8 1
    endloop
  endfacet
  facet normal 0 0 1
    outer loop
      vertex 4 7.2 1
      vertex 1 12.8 1
      vertex 1 7.2 1
    endloop
  endfacet
  facet normal 0 0 1
    outer loop
      vertex 244 28.4 1
      vertex 241 13.8 1
      vertex 244 13.8 1
    endloop
  endfacet
  facet normal 0 0 1
    outer loop
      vertex 4 12.8 1
      vertex 241 12.8 1
      vertex 241 13.8 1
    endloop
  endfacet
  facet normal 0 0 1
    outer loop
      vertex 241 12.8 1
      vertex 4 12.8 1
      vertex 241 7.2 1
    endloop
  endfacet
  facet normal 0 0 1
    outer loop
      vertex 4 12.8 1
      vertex 241 13.8 1
      vertex 4 13.8 1
    endloop
  endfacet
  facet normal 0 0 1
    outer loop
      vertex 244 28.4 1
      vertex 4 13.8 1
      vertex 241 13.8 1
    endloop
  endfacet
  facet normal -0 0 1
    outer loop
      vertex 1 28.4 1
      vertex 4 13.8 1
      vertex 244 28.4 1
    endloop
  endfacet
  facet normal 0 0 1
    outer loop
      vertex 4 13.8 1
      vertex 1 28.4 1
      vertex 1 13.8 1
    endloop
  endfacet
  facet normal -0 0 1
    outer loop
      vertex 241 12.8 1
      vertex 244 7.2 1
      vertex 244 12.8 1
    endloop
  endfacet
  facet normal 0 0 1
    outer loop
      vertex 244 7.2 1
      vertex 241 12.8 1
      vertex 241 7.2 1
    endloop
  endfacet
  facet normal -0 0 1
    outer loop
      vertex 241 6.2 1
      vertex 244 3 1
      vertex 244 6.2 1
    endloop
  endfacet
  facet normal 0 0 1
    outer loop
      vertex 4 7.2 1
      vertex 241 7.2 1
      vertex 4 12.8 1
    endloop
  endfacet
  facet normal 0 0 1
    outer loop
      vertex 241 7.2 1
      vertex 4 7.2 1
      vertex 241 6.2 1
    endloop
  endfacet
  facet normal 0 0 1
    outer loop
      vertex 4 6.2 1
      vertex 241 6.2 1
      vertex 4 7.2 1
    endloop
  endfacet
  facet normal 0 0 1
    outer loop
      vertex 241 6.2 1
      vertex 4 6.2 1
      vertex 244 3 1
    endloop
  endfacet
  facet normal 0 0 1
    outer loop
      vertex 1 3 1
      vertex 4 6.2 1
      vertex 1 6.2 1
    endloop
  endfacet
  facet normal 0 0 1
    outer loop
      vertex 4 6.2 1
      vertex 1 3 1
      vertex 244 3 1
    endloop
  endfacet
  facet normal -1 0 0
    outer loop
      vertex 244 34.4 155.2
      vertex 244 37.6 1
      vertex 244 34.4 1
    endloop
  endfacet
  facet normal -1 0 0
    outer loop
      vertex 244 44.2 1
      vertex 244 38.6 1
      vertex 244 44.2 176.993
    endloop
  endfacet
  facet normal -1 0 0
    outer loop
      vertex 244 59.8 1
      vertex 244 45.2 1
      vertex 244 59.8 155.2
    endloop
  endfacet
  facet normal -1 0 0
    outer loop
      vertex 244 45.2 176.993
      vertex 244 62.8 155.2
      vertex 244 59.8 155.2
    endloop
  endfacet
  facet normal -1 0 0
    outer loop
      vertex 244 45.2 176.993
      vertex 244 59.8 155.2
      vertex 244 45.2 1
    endloop
  endfacet
  facet normal -1 0 0
    outer loop
      vertex 244 62.8 155.2
      vertex 244 45.2 176.993
      vertex 244 62.8 194
    endloop
  endfacet
  facet normal -1 0 0
    outer loop
      vertex 244 45.2 186.993
      vertex 244 62.8 194
      vertex 244 45.2 176.993
    endloop
  endfacet
  facet normal -1 0 0
    outer loop
      vertex 244 45.2 191.7
      vertex 244 62.8 194
      vertex 244 45.2 186.993
    endloop
  endfacet
  facet normal -1 0 0
    outer loop
      vertex 244 34.4 194
      vertex 244 45.2 191.7
      vertex 244 37.6 191.7
    endloop
  endfacet
  facet normal -1 0 0
    outer loop
      vertex 244 37.6 1
      vertex 244 34.4 155.2
      vertex 244 37.6 191.7
    endloop
  endfacet
  facet normal -1 0 0
    outer loop
      vertex 244 45.2 191.7
      vertex 244 34.4 194
      vertex 244 62.8 194
    endloop
  endfacet
  facet normal -1 0 0
    outer loop
      vertex 244 34.4 194
      vertex 244 37.6 191.7
      vertex 244 34.4 155.2
    endloop
  endfacet
  facet normal -1 0 0
    outer loop
      vertex 244 44.2 176.993
      vertex 244 45.2 186.993
      vertex 244 45.2 176.993
    endloop
  endfacet
  facet normal -1 0 0
    outer loop
      vertex 244 44.2 176.993
      vertex 244 38.6 186.993
      vertex 244 45.2 186.993
    endloop
  endfacet
  facet normal -1 0 0
    outer loop
      vertex 244 38.6 186.993
      vertex 244 44.2 176.993
      vertex 244 38.6 1
    endloop
  endfacet
  facet normal 0 -1 0
    outer loop
      vertex 1 62.8 155.2
      vertex 244 62.8 194
      vertex 1 62.8 194
    endloop
  endfacet
  facet normal 0 -1 -0
    outer loop
      vertex 244 62.8 194
      vertex 1 62.8 155.2
      vertex 244 62.8 155.2
    endloop
  endfacet
  facet normal 0 1 -0
    outer loop
      vertex 244 34.4 1
      vertex 1 34.4 155.2
      vertex 244 34.4 155.2
    endloop
  endfacet
  facet normal 0 1 0
    outer loop
      vertex 1 34.4 155.2
      vertex 244 34.4 1
      vertex 1 34.4 1
    endloop
  endfacet
  facet normal 0 1 -0
    outer loop
      vertex 244 34.4 155.2
      vertex 1 34.4 194
      vertex 244 34.4 194
    endloop
  endfacet
  facet normal 0 1 0
    outer loop
      vertex 1 34.4 194
      vertex 244 34.4 155.2
      vertex 1 34.4 155.2
    endloop
  endfacet
  facet normal 1 0 0
    outer loop
      vertex 1 45.2 186.993
      vertex 1 44.2 176.993
      vertex 1 45.2 176.993
    endloop
  endfacet
  facet normal 1 -0 0
    outer loop
      vertex 1 38.6 186.993
      vertex 1 44.2 176.993
      vertex 1 45.2 186.993
    endloop
  endfacet
  facet normal 1 0 0
    outer loop
      vertex 1 38.6 1
      vertex 1 44.2 176.993
      vertex 1 38.6 186.993
    endloop
  endfacet
  facet normal 1 0 0
    outer loop
      vertex 1 44.2 176.993
      vertex 1 38.6 1
      vertex 1 44.2 1
    endloop
  endfacet
  facet normal 1 -0 0
    outer loop
      vertex 1 45.2 176.993
      vertex 1 62.8 155.2
      vertex 1 62.8 194
    endloop
  endfacet
  facet normal 1 0 0
    outer loop
      vertex 1 45.2 176.993
      vertex 1 62.8 194
      vertex 1 45.2 186.993
    endloop
  endfacet
  facet normal 1 0 0
    outer loop
      vertex 1 45.2 186.993
      vertex 1 62.8 194
      vertex 1 45.2 191.7
    endloop
  endfacet
  facet normal 1 -0 0
    outer loop
      vertex 1 34.4 194
      vertex 1 45.2 191.7
      vertex 1 62.8 194
    endloop
  endfacet
  facet normal 1 0 0
    outer loop
      vertex 1 45.2 191.7
      vertex 1 34.4 194
      vertex 1 37.6 191.7
    endloop
  endfacet
  facet normal 1 0 0
    outer loop
      vertex 1 34.4 155.2
      vertex 1 37.6 191.7
      vertex 1 34.4 194
    endloop
  endfacet
  facet normal 1 0 0
    outer loop
      vertex 1 37.6 191.7
      vertex 1 34.4 155.2
      vertex 1 37.6 1
    endloop
  endfacet
  facet normal 1 0 0
    outer loop
      vertex 1 37.6 1
      vertex 1 34.4 155.2
      vertex 1 34.4 1
    endloop
  endfacet
  facet normal 1 0 0
    outer loop
      vertex 1 62.8 155.2
      vertex 1 45.2 176.993
      vertex 1 59.8 155.2
    endloop
  endfacet
  facet normal 1 0 0
    outer loop
      vertex 1 45.2 1
      vertex 1 59.8 155.2
      vertex 1 45.2 176.993
    endloop
  endfacet
  facet normal 1 0 0
    outer loop
      vertex 1 59.8 155.2
      vertex 1 45.2 1
      vertex 1 59.8 1
    endloop
  endfacet
  facet normal -0 0 1
    outer loop
      vertex 1 44.2 1
      vertex 4 38.6 1
      vertex 4 44.2 1
    endloop
  endfacet
  facet normal 0 0 1
    outer loop
      vertex 4 38.6 1
      vertex 1 44.2 1
      vertex 1 38.6 1
    endloop
  endfacet
  facet normal 0 0 1
    outer loop
      vertex 244 59.8 1
      vertex 241 45.2 1
      vertex 244 45.2 1
    endloop
  endfacet
  facet normal 0 0 1
    outer loop
      vertex 4 44.2 1
      vertex 241 44.2 1
      vertex 241 45.2 1
    endloop
  endfacet
  facet normal 0 0 1
    outer loop
      vertex 241 44.2 1
      vertex 4 44.2 1
      vertex 241 38.6 1
    endloop
  endfacet
  facet normal 0 0 1
    outer loop
      vertex 4 44.2 1
      vertex 241 45.2 1
      vertex 4 45.2 1
    endloop
  endfacet
  facet normal 0 0 1
    outer loop
      vertex 244 59.8 1
      vertex 4 45.2 1
      vertex 241 45.2 1
    endloop
  endfacet
  facet normal -0 0 1
    outer loop
      vertex 1 59.8 1
      vertex 4 45.2 1
      vertex 244 59.8 1
    endloop
  endfacet
  facet normal 0 0 1
    outer loop
      vertex 4 45.2 1
      vertex 1 59.8 1
      vertex 1 45.2 1
    endloop
  endfacet
  facet normal -0 0 1
    outer loop
      vertex 241 44.2 1
      vertex 244 38.6 1
      vertex 244 44.2 1
    endloop
  endfacet
  facet normal 0 0 1
    outer loop
      vertex 244 38.6 1
      vertex 241 44.2 1
      vertex 241 38.6 1
    endloop
  endfacet
  facet normal -0 0 1
    outer loop
      vertex 241 37.6 1
      vertex 244 34.4 1
      vertex 244 37.6 1
    endloop
  endfacet
  facet normal 0 0 1
    outer loop
      vertex 4 38.6 1
      vertex 241 38.6 1
      vertex 4 44.2 1
    endloop
  endfacet
  facet normal 0 0 1
    outer loop
      vertex 241 38.6 1
      vertex 4 38.6 1
      vertex 241 37.6 1
    endloop
  endfacet
  facet normal 0 0 1
    outer loop
      vertex 4 37.6 1
      vertex 241 37.6 1
      vertex 4 38.6 1
    endloop
  endfacet
  facet normal 0 0 1
    outer loop
      vertex 241 37.6 1
      vertex 4 37.6 1
      vertex 244 34.4 1
    endloop
  endfacet
  facet normal 0 0 1
    outer loop
      vertex 1 34.4 1
      vertex 4 37.6 1
      vertex 1 37.6 1
    endloop
  endfacet
  facet normal 0 0 1
    outer loop
      vertex 4 37.6 1
      vertex 1 34.4 1
      vertex 244 34.4 1
    endloop
  endfacet
  facet normal -1 0 0
    outer loop
      vertex 244 65.8 155.2
      vertex 244 69 1
      vertex 244 65.8 1
    endloop
  endfacet
  facet normal -1 0 0
    outer loop
      vertex 244 75.6 1
      vertex 244 70 1
      vertex 244 75.6 176.993
    endloop
  endfacet
  facet normal -1 0 0
    outer loop
      vertex 244 91.2 1
      vertex 244 76.6 1
      vertex 244 91.2 155.2
    endloop
  endfacet
  facet normal -1 0 0
    outer loop
      vertex 244 76.6 176.993
      vertex 244 94.2 155.2
      vertex 244 91.2 155.2
    endloop
  endfacet
  facet normal -1 0 0
    outer loop
      vertex 244 76.6 176.993
      vertex 244 91.2 155.2
      vertex 244 76.6 1
    endloop
  endfacet
  facet normal -1 0 0
    outer loop
      vertex 244 94.2 155.2
      vertex 244 76.6 176.993
      vertex 244 94.2 194
    endloop
  endfacet
  facet normal -1 0 0
    outer loop
      vertex 244 76.6 186.993
      vertex 244 94.2 194
      vertex 244 76.6 176.993
    endloop
  endfacet
  facet normal -1 0 0
    outer loop
      vertex 244 76.6 191.7
      vertex 244 94.2 194
      vertex 244 76.6 186.993
    endloop
  endfacet
  facet normal -1 0 0
    outer loop
      vertex 244 65.8 194
      vertex 244 76.6 191.7
      vertex 244 69 191.7
    endloop
  endfacet
  facet normal -1 0 0
    outer loop
      vertex 244 69 1
      vertex 244 65.8 155.2
      vertex 244 69 191.7
    endloop
  endfacet
  facet normal -1 0 0
    outer loop
      vertex 244 76.6 191.7
      vertex 244 65.8 194
      vertex 244 94.2 194
    endloop
  endfacet
  facet normal -1 0 0
    outer loop
      vertex 244 65.8 194
      vertex 244 69 191.7
      vertex 244 65.8 155.2
    endloop
  endfacet
  facet normal -1 0 0
    outer loop
      vertex 244 75.6 176.993
      vertex 244 76.6 186.993
      vertex 244 76.6 176.993
    endloop
  endfacet
  facet normal -1 0 0
    outer loop
      vertex 244 75.6 176.993
      vertex 244 70 186.993
      vertex 244 76.6 186.993
    endloop
  endfacet
  facet normal -1 0 0
    outer loop
      vertex 244 70 186.993
      vertex 244 75.6 176.993
      vertex 244 70 1
    endloop
  endfacet
  facet normal 0 -1 0
    outer loop
      vertex 1 94.2 155.2
      vertex 244 94.2 194
      vertex 1 94.2 194
    endloop
  endfacet
  facet normal 0 -1 -0
    outer loop
      vertex 244 94.2 194
      vertex 1 94.2 155.2
      vertex 244 94.2 155.2
    endloop
  endfacet
  facet normal 0 1 -0
    outer loop
      vertex 244 65.8 1
      vertex 1 65.8 155.2
      vertex 244 65.8 155.2
    endloop
  endfacet
  facet normal 0 1 0
    outer loop
      vertex 1 65.8 155.2
      vertex 244 65.8 1
      vertex 1 65.8 1
    endloop
  endfacet
  facet normal 0 1 -0
    outer loop
      vertex 244 65.8 155.2
      vertex 1 65.8 194
      vertex 244 65.8 194
    endloop
  endfacet
  facet normal 0 1 0
    outer loop
      vertex 1 65.8 194
      vertex 244 65.8 155.2
      vertex 1 65.8 155.2
    endloop
  endfacet
  facet normal 1 0 0
    outer loop
      vertex 1 76.6 186.993
      vertex 1 75.6 176.993
      vertex 1 76.6 176.993
    endloop
  endfacet
  facet normal 1 -0 0
    outer loop
      vertex 1 70 186.993
      vertex 1 75.6 176.993
      vertex 1 76.6 186.993
    endloop
  endfacet
  facet normal 1 0 0
    outer loop
      vertex 1 70 1
      vertex 1 75.6 176.993
      vertex 1 70 186.993
    endloop
  endfacet
  facet normal 1 0 0
    outer loop
      vertex 1 75.6 176.993
      vertex 1 70 1
      vertex 1 75.6 1
    endloop
  endfacet
  facet normal 1 -0 0
    outer loop
      vertex 1 76.6 176.993
      vertex 1 94.2 155.2
      vertex 1 94.2 194
    endloop
  endfacet
  facet normal 1 0 0
    outer loop
      vertex 1 76.6 176.993
      vertex 1 94.2 194
      vertex 1 76.6 186.993
    endloop
  endfacet
  facet normal 1 0 0
    outer loop
      vertex 1 76.6 186.993
      vertex 1 94.2 194
      vertex 1 76.6 191.7
    endloop
  endfacet
  facet normal 1 -0 0
    outer loop
      vertex 1 65.8 194
      vertex 1 76.6 191.7
      vertex 1 94.2 194
    endloop
  endfacet
  facet normal 1 0 0
    outer loop
      vertex 1 76.6 191.7
      vertex 1 65.8 194
      vertex 1 69 191.7
    endloop
  endfacet
  facet normal 1 0 0
    outer loop
      vertex 1 65.8 155.2
      vertex 1 69 191.7
      vertex 1 65.8 194
    endloop
  endfacet
  facet normal 1 0 0
    outer loop
      vertex 1 69 191.7
      vertex 1 65.8 155.2
      vertex 1 69 1
    endloop
  endfacet
  facet normal 1 0 0
    outer loop
      vertex 1 69 1
      vertex 1 65.8 155.2
      vertex 1 65.8 1
    endloop
  endfacet
  facet normal 1 0 0
    outer loop
      vertex 1 94.2 155.2
      vertex 1 76.6 176.993
      vertex 1 91.2 155.2
    endloop
  endfacet
  facet normal 1 0 0
    outer loop
      vertex 1 76.6 1
      vertex 1 91.2 155.2
      vertex 1 76.6 176.993
    endloop
  endfacet
  facet normal 1 0 0
    outer loop
      vertex 1 91.2 155.2
      vertex 1 76.6 1
      vertex 1 91.2 1
    endloop
  endfacet
  facet normal -0 0 1
    outer loop
      vertex 1 75.6 1
      vertex 4 70 1
      vertex 4 75.6 1
    endloop
  endfacet
  facet normal 0 0 1
    outer loop
      vertex 4 70 1
      vertex 1 75.6 1
      vertex 1 70 1
    endloop
  endfacet
  facet normal 0 0 1
    outer loop
      vertex 244 91.2 1
      vertex 241 76.6 1
      vertex 244 76.6 1
    endloop
  endfacet
  facet normal 0 0 1
    outer loop
      vertex 4 75.6 1
      vertex 241 75.6 1
      vertex 241 76.6 1
    endloop
  endfacet
  facet normal 0 0 1
    outer loop
      vertex 241 75.6 1
      vertex 4 75.6 1
      vertex 241 70 1
    endloop
  endfacet
  facet normal 0 0 1
    outer loop
      vertex 4 75.6 1
      vertex 241 76.6 1
      vertex 4 76.6 1
    endloop
  endfacet
  facet normal 0 0 1
    outer loop
      vertex 244 91.2 1
      vertex 4 76.6 1
      vertex 241 76.6 1
    endloop
  endfacet
  facet normal -0 0 1
    outer loop
      vertex 1 91.2 1
      vertex 4 76.6 1
      vertex 244 91.2 1
    endloop
  endfacet
  facet normal 0 0 1
    outer loop
      vertex 4 76.6 1
      vertex 1 91.2 1
      vertex 1 76.6 1
    endloop
  endfacet
  facet normal -0 0 1
    outer loop
      vertex 241 75.6 1
      vertex 244 70 1
      vertex 244 75.6 1
    endloop
  endfacet
  facet normal 0 0 1
    outer loop
      vertex 244 70 1
      vertex 241 75.6 1
      vertex 241 70 1
    endloop
  endfacet
  facet normal -0 0 1
    outer loop
      vertex 241 69 1
      vertex 244 65.8 1
      vertex 244 69 1
    endloop
  endfacet
  facet normal 0 0 1
    outer loop
      vertex 4 70 1
      vertex 241 70 1
      vertex 4 75.6 1
    endloop
  endfacet
  facet normal 0 0 1
    outer loop
      vertex 241 70 1
      vertex 4 70 1
      vertex 241 69 1
    endloop
  endfacet
  facet normal 0 0 1
    outer loop
      vertex 4 69 1
      vertex 241 69 1
      vertex 4 70 1
    endloop
  endfacet
  facet normal 0 0 1
    outer loop
      vertex 241 69 1
      vertex 4 69 1
      vertex 244 65.8 1
    endloop
  endfacet
  facet normal 0 0 1
    outer loop
      vertex 1 65.8 1
      vertex 4 69 1
      vertex 1 69 1
    endloop
  endfacet
  facet normal 0 0 1
    outer loop
      vertex 4 69 1
      vertex 1 65.8 1
      vertex 244 65.8 1
    endloop
  endfacet
  facet normal -1 0 0
    outer loop
      vertex 244 97.2 155.2
      vertex 244 100.4 1
      vertex 244 97.2 1
    endloop
  endfacet
  facet normal -1 0 0
    outer loop
      vertex 244 107 1
      vertex 244 101.4 1
      vertex 244 107 176.993
    endloop
  endfacet
  facet normal -1 0 0
    outer loop
      vertex 244 122.6 1
      vertex 244 108 1
      vertex 244 122.6 155.2
    endloop
  endfacet
  facet normal -1 0 0
    outer loop
      vertex 244 108 176.993
      vertex 244 125.6 155.2
      vertex 244 122.6 155.2
    endloop
  endfacet
  facet normal -1 0 0
    outer loop
      vertex 244 108 176.993
      vertex 244 122.6 155.2
      vertex 244 108 1
    endloop
  endfacet
  facet normal -1 0 0
    outer loop
      vertex 244 125.6 155.2
      vertex 244 108 176.993
      vertex 244 125.6 194
    endloop
  endfacet
  facet normal -1 0 0
    outer loop
      vertex 244 108 186.993
      vertex 244 125.6 194
      vertex 244 108 176.993
    endloop
  endfacet
  facet normal -1 0 0
    outer loop
      vertex 244 108 191.7
      vertex 244 125.6 194
      vertex 244 108 186.993
    endloop
  endfacet
  facet normal -1 0 0
    outer loop
      vertex 244 97.2 194
      vertex 244 108 191.7
      vertex 244 100.4 191.7
    endloop
  endfacet
  facet normal -1 0 0
    outer loop
      vertex 244 100.4 1
      vertex 244 97.2 155.2
      vertex 244 100.4 191.7
    endloop
  endfacet
  facet normal -1 0 0
    outer loop
      vertex 244 108 191.7
      vertex 244 97.2 194
      vertex 244 125.6 194
    endloop
  endfacet
  facet normal -1 0 0
    outer loop
      vertex 244 97.2 194
      vertex 244 100.4 191.7
      vertex 244 97.2 155.2
    endloop
  endfacet
  facet normal -1 0 0
    outer loop
      vertex 244 107 176.993
      vertex 244 108 186.993
      vertex 244 108 176.993
    endloop
  endfacet
  facet normal -1 0 0
    outer loop
      vertex 244 107 176.993
      vertex 244 101.4 186.993
      vertex 244 108 186.993
    endloop
  endfacet
  facet normal -1 0 0
    outer loop
      vertex 244 101.4 186.993
      vertex 244 107 176.993
      vertex 244 101.4 1
    endloop
  endfacet
  facet normal 0 -1 0
    outer loop
      vertex 1 125.6 155.2
      vertex 244 125.6 194
      vertex 1 125.6 194
    endloop
  endfacet
  facet normal 0 -1 -0
    outer loop
      vertex 244 125.6 194
      vertex 1 125.6 155.2
      vertex 244 125.6 155.2
    endloop
  endfacet
  facet normal 0 1 -0
    outer loop
      vertex 244 97.2 1
      vertex 1 97.2 155.2
      vertex 244 97.2 155.2
    endloop
  endfacet
  facet normal 0 1 0
    outer loop
      vertex 1 97.2 155.2
      vertex 244 97.2 1
      vertex 1 97.2 1
    endloop
  endfacet
  facet normal 0 1 -0
    outer loop
      vertex 244 97.2 155.2
      vertex 1 97.2 194
      vertex 244 97.2 194
    endloop
  endfacet
  facet normal 0 1 0
    outer loop
      vertex 1 97.2 194
      vertex 244 97.2 155.2
      vertex 1 97.2 155.2
    endloop
  endfacet
  facet normal 1 0 0
    outer loop
      vertex 1 108 186.993
      vertex 1 107 176.993
      vertex 1 108 176.993
    endloop
  endfacet
  facet normal 1 -0 0
    outer loop
      vertex 1 101.4 186.993
      vertex 1 107 176.993
      vertex 1 108 186.993
    endloop
  endfacet
  facet normal 1 0 0
    outer loop
      vertex 1 101.4 1
      vertex 1 107 176.993
      vertex 1 101.4 186.993
    endloop
  endfacet
  facet normal 1 0 0
    outer loop
      vertex 1 107 176.993
      vertex 1 101.4 1
      vertex 1 107 1
    endloop
  endfacet
  facet normal 1 -0 0
    outer loop
      vertex 1 108 176.993
      vertex 1 125.6 155.2
      vertex 1 125.6 194
    endloop
  endfacet
  facet normal 1 0 0
    outer loop
      vertex 1 108 176.993
      vertex 1 125.6 194
      vertex 1 108 186.993
    endloop
  endfacet
  facet normal 1 0 0
    outer loop
      vertex 1 108 186.993
      vertex 1 125.6 194
      vertex 1 108 191.7
    endloop
  endfacet
  facet normal 1 -0 0
    outer loop
      vertex 1 97.2 194
      vertex 1 108 191.7
      vertex 1 125.6 194
    endloop
  endfacet
  facet normal 1 0 0
    outer loop
      vertex 1 108 191.7
      vertex 1 97.2 194
      vertex 1 100.4 191.7
    endloop
  endfacet
  facet normal 1 0 0
    outer loop
      vertex 1 97.2 155.2
      vertex 1 100.4 191.7
      vertex 1 97.2 194
    endloop
  endfacet
  facet normal 1 0 0
    outer loop
      vertex 1 100.4 191.7
      vertex 1 97.2 155.2
      vertex 1 100.4 1
    endloop
  endfacet
  facet normal 1 0 0
    outer loop
      vertex 1 100.4 1
      vertex 1 97.2 155.2
      vertex 1 97.2 1
    endloop
  endfacet
  facet normal 1 0 0
    outer loop
      vertex 1 125.6 155.2
      vertex 1 108 176.993
      vertex 1 122.6 155.2
    endloop
  endfacet
  facet normal 1 0 0
    outer loop
      vertex 1 108 1
      vertex 1 122.6 155.2
      vertex 1 108 176.993
    endloop
  endfacet
  facet normal 1 0 0
    outer loop
      vertex 1 122.6 155.2
      vertex 1 108 1
      vertex 1 122.6 1
    endloop
  endfacet
  facet normal -0 0 1
    outer loop
      vertex 1 107 1
      vertex 4 101.4 1
      vertex 4 107 1
    endloop
  endfacet
  facet normal 0 0 1
    outer loop
      vertex 4 101.4 1
      vertex 1 107 1
      vertex 1 101.4 1
    endloop
  endfacet
  facet normal 0 0 1
    outer loop
      vertex 244 122.6 1
      vertex 241 108 1
      vertex 244 108 1
    endloop
  endfacet
  facet normal 0 0 1
    outer loop
      vertex 4 107 1
      vertex 241 107 1
      vertex 241 108 1
    endloop
  endfacet
  facet normal 0 0 1
    outer loop
      vertex 241 107 1
      vertex 4 107 1
      vertex 241 101.4 1
    endloop
  endfacet
  facet normal 0 0 1
    outer loop
      vertex 4 107 1
      vertex 241 108 1
      vertex 4 108 1
    endloop
  endfacet
  facet normal 0 0 1
    outer loop
      vertex 244 122.6 1
      vertex 4 108 1
      vertex 241 108 1
    endloop
  endfacet
  facet normal -0 0 1
    outer loop
      vertex 1 122.6 1
      vertex 4 108 1
      vertex 244 122.6 1
    endloop
  endfacet
  facet normal 0 0 1
    outer loop
      vertex 4 108 1
      vertex 1 122.6 1
      vertex 1 108 1
    endloop
  endfacet
  facet normal -0 0 1
    outer loop
      vertex 241 107 1
      vertex 244 101.4 1
      vertex 244 107 1
    endloop
  endfacet
  facet normal 0 0 1
    outer loop
      vertex 244 101.4 1
      vertex 241 107 1
      vertex 241 101.4 1
    endloop
  endfacet
  facet normal -0 0 1
    outer loop
      vertex 241 100.4 1
      vertex 244 97.2 1
      vertex 244 100.4 1
    endloop
  endfacet
  facet normal 0 0 1
    outer loop
      vertex 4 101.4 1
      vertex 241 101.4 1
      vertex 4 107 1
    endloop
  endfacet
  facet normal 0 0 1
    outer loop
      vertex 241 101.4 1
      vertex 4 101.4 1
      vertex 241 100.4 1
    endloop
  endfacet
  facet normal 0 0 1
    outer loop
      vertex 4 100.4 1
      vertex 241 100.4 1
      vertex 4 101.4 1
    endloop
  endfacet
  facet normal 0 0 1
    outer loop
      vertex 241 100.4 1
      vertex 4 100.4 1
      vertex 244 97.2 1
    endloop
  endfacet
  facet normal 0 0 1
    outer loop
      vertex 1 97.2 1
      vertex 4 100.4 1
      vertex 1 100.4 1
    endloop
  endfacet
  facet normal 0 0 1
    outer loop
      vertex 4 100.4 1
      vertex 1 97.2 1
      vertex 244 97.2 1
    endloop
  endfacet
  facet normal -1 0 0
    outer loop
      vertex 244 128.6 155.2
      vertex 244 131.8 1
      vertex 244 128.6 1
    endloop
  endfacet
  facet normal -1 0 0
    outer loop
      vertex 244 138.4 1
      vertex 244 132.8 1
      vertex 244 138.4 176.993
    endloop
  endfacet
  facet normal -1 0 0
    outer loop
      vertex 244 154 1
      vertex 244 139.4 1
      vertex 244 154 155.2
    endloop
  endfacet
  facet normal -1 0 0
    outer loop
      vertex 244 139.4 176.993
      vertex 244 157 155.2
      vertex 244 154 155.2
    endloop
  endfacet
  facet normal -1 0 0
    outer loop
      vertex 244 139.4 176.993
      vertex 244 154 155.2
      vertex 244 139.4 1
    endloop
  endfacet
  facet normal -1 0 0
    outer loop
      vertex 244 157 155.2
      vertex 244 139.4 176.993
      vertex 244 157 194
    endloop
  endfacet
  facet normal -1 0 0
    outer loop
      vertex 244 139.4 186.993
      vertex 244 157 194
      vertex 244 139.4 176.993
    endloop
  endfacet
  facet normal -1 0 0
    outer loop
      vertex 244 139.4 191.7
      vertex 244 157 194
      vertex 244 139.4 186.993
    endloop
  endfacet
  facet normal -1 0 0
    outer loop
      vertex 244 128.6 194
      vertex 244 139.4 191.7
      vertex 244 131.8 191.7
    endloop
  endfacet
  facet normal -1 0 0
    outer loop
      vertex 244 131.8 1
      vertex 244 128.6 155.2
      vertex 244 131.8 191.7
    endloop
  endfacet
  facet normal -1 0 0
    outer loop
      vertex 244 139.4 191.7
      vertex 244 128.6 194
      vertex 244 157 194
    endloop
  endfacet
  facet normal -1 0 0
    outer loop
      vertex 244 128.6 194
      vertex 244 131.8 191.7
      vertex 244 128.6 155.2
    endloop
  endfacet
  facet normal -1 0 0
    outer loop
      vertex 244 138.4 176.993
      vertex 244 139.4 186.993
      vertex 244 139.4 176.993
    endloop
  endfacet
  facet normal -1 0 0
    outer loop
      vertex 244 138.4 176.993
      vertex 244 132.8 186.993
      vertex 244 139.4 186.993
    endloop
  endfacet
  facet normal -1 0 0
    outer loop
      vertex 244 132.8 186.993
      vertex 244 138.4 176.993
      vertex 244 132.8 1
    endloop
  endfacet
  facet normal 0 -1 0
    outer loop
      vertex 1 157 155.2
      vertex 244 157 194
      vertex 1 157 194
    endloop
  endfacet
  facet normal 0 -1 -0
    outer loop
      vertex 244 157 194
      vertex 1 157 155.2
      vertex 244 157 155.2
    endloop
  endfacet
  facet normal 0 1 -0
    outer loop
      vertex 244 128.6 1
      vertex 1 128.6 155.2
      vertex 244 128.6 155.2
    endloop
  endfacet
  facet normal 0 1 0
    outer loop
      vertex 1 128.6 155.2
      vertex 244 128.6 1
      vertex 1 128.6 1
    endloop
  endfacet
  facet normal 0 1 -0
    outer loop
      vertex 244 128.6 155.2
      vertex 1 128.6 194
      vertex 244 128.6 194
    endloop
  endfacet
  facet normal 0 1 0
    outer loop
      vertex 1 128.6 194
      vertex 244 128.6 155.2
      vertex 1 128.6 155.2
    endloop
  endfacet
  facet normal 1 0 0
    outer loop
      vertex 1 139.4 186.993
      vertex 1 138.4 176.993
      vertex 1 139.4 176.993
    endloop
  endfacet
  facet normal 1 -0 0
    outer loop
      vertex 1 132.8 186.993
      vertex 1 138.4 176.993
      vertex 1 139.4 186.993
    endloop
  endfacet
  facet normal 1 0 0
    outer loop
      vertex 1 132.8 1
      vertex 1 138.4 176.993
      vertex 1 132.8 186.993
    endloop
  endfacet
  facet normal 1 0 0
    outer loop
      vertex 1 138.4 176.993
      vertex 1 132.8 1
      vertex 1 138.4 1
    endloop
  endfacet
  facet normal 1 -0 0
    outer loop
      vertex 1 139.4 176.993
      vertex 1 157 155.2
      vertex 1 157 194
    endloop
  endfacet
  facet normal 1 0 0
    outer loop
      vertex 1 139.4 176.993
      vertex 1 157 194
      vertex 1 139.4 186.993
    endloop
  endfacet
  facet normal 1 0 0
    outer loop
      vertex 1 139.4 186.993
      vertex 1 157 194
      vertex 1 139.4 191.7
    endloop
  endfacet
  facet normal 1 -0 0
    outer loop
      vertex 1 128.6 194
      vertex 1 139.4 191.7
      vertex 1 157 194
    endloop
  endfacet
  facet normal 1 0 0
    outer loop
      vertex 1 139.4 191.7
      vertex 1 128.6 194
      vertex 1 131.8 191.7
    endloop
  endfacet
  facet normal 1 0 0
    outer loop
      vertex 1 128.6 155.2
      vertex 1 131.8 191.7
      vertex 1 128.6 194
    endloop
  endfacet
  facet normal 1 0 0
    outer loop
      vertex 1 131.8 191.7
      vertex 1 128.6 155.2
      vertex 1 131.8 1
    endloop
  endfacet
  facet normal 1 0 0
    outer loop
      vertex 1 131.8 1
      vertex 1 128.6 155.2
      vertex 1 128.6 1
    endloop
  endfacet
  facet normal 1 0 0
    outer loop
      vertex 1 157 155.2
      vertex 1 139.4 176.993
      vertex 1 154 155.2
    endloop
  endfacet
  facet normal 1 0 0
    outer loop
      vertex 1 139.4 1
      vertex 1 154 155.2
      vertex 1 139.4 176.993
    endloop
  endfacet
  facet normal 1 0 0
    outer loop
      vertex 1 154 155.2
      vertex 1 139.4 1
      vertex 1 154 1
    endloop
  endfacet
  facet normal -0 0 1
    outer loop
      vertex 1 138.4 1
      vertex 4 132.8 1
      vertex 4 138.4 1
    endloop
  endfacet
  facet normal 0 0 1
    outer loop
      vertex 4 132.8 1
      vertex 1 138.4 1
      vertex 1 132.8 1
    endloop
  endfacet
  facet normal 0 0 1
    outer loop
      vertex 244 154 1
      vertex 241 139.4 1
      vertex 244 139.4 1
    endloop
  endfacet
  facet normal 0 0 1
    outer loop
      vertex 4 138.4 1
      vertex 241 138.4 1
      vertex 241 139.4 1
    endloop
  endfacet
  facet normal 0 0 1
    outer loop
      vertex 241 138.4 1
      vertex 4 138.4 1
      vertex 241 132.8 1
    endloop
  endfacet
  facet normal 0 0 1
    outer loop
      vertex 4 138.4 1
      vertex 241 139.4 1
      vertex 4 139.4 1
    endloop
  endfacet
  facet normal 0 0 1
    outer loop
      vertex 244 154 1
      vertex 4 139.4 1
      vertex 241 139.4 1
    endloop
  endfacet
  facet normal -0 0 1
    outer loop
      vertex 1 154 1
      vertex 4 139.4 1
      vertex 244 154 1
    endloop
  endfacet
  facet normal 0 0 1
    outer loop
      vertex 4 139.4 1
      vertex 1 154 1
      vertex 1 139.4 1
    endloop
  endfacet
  facet normal -0 0 1
    outer loop
      vertex 241 138.4 1
      vertex 244 132.8 1
      vertex 244 138.4 1
    endloop
  endfacet
  facet normal 0 0 1
    outer loop
      vertex 244 132.8 1
      vertex 241 138.4 1
      vertex 241 132.8 1
    endloop
  endfacet
  facet normal -0 0 1
    outer loop
      vertex 241 131.8 1
      vertex 244 128.6 1
      vertex 244 131.8 1
    endloop
  endfacet
  facet normal 0 0 1
    outer loop
      vertex 4 132.8 1
      vertex 241 132.8 1
      vertex 4 138.4 1
    endloop
  endfacet
  facet normal 0 0 1
    outer loop
      vertex 241 132.8 1
      vertex 4 132.8 1
      vertex 241 131.8 1
    endloop
  endfacet
  facet normal 0 0 1
    outer loop
      vertex 4 131.8 1
      vertex 241 131.8 1
      vertex 4 132.8 1
    endloop
  endfacet
  facet normal 0 0 1
    outer loop
      vertex 241 131.8 1
      vertex 4 131.8 1
      vertex 244 128.6 1
    endloop
  endfacet
  facet normal 0 0 1
    outer loop
      vertex 1 128.6 1
      vertex 4 131.8 1
      vertex 1 131.8 1
    endloop
  endfacet
  facet normal 0 0 1
    outer loop
      vertex 4 131.8 1
      vertex 1 128.6 1
      vertex 244 128.6 1
    endloop
  endfacet
  facet normal 1 -0 0
    outer loop
      vertex 245 0 194
      vertex 245 160 0
      vertex 245 160 194
    endloop
  endfacet
  facet normal 1 0 0
    outer loop
      vertex 245 160 0
      vertex 245 0 194
      vertex 245 0 0
    endloop
  endfacet
  facet normal 0 1 -0
    outer loop
      vertex 245 160 0
      vertex 0 160 194
      vertex 245 160 194
    endloop
  endfacet
  facet normal 0 1 0
    outer loop
      vertex 0 160 194
      vertex 245 160 0
      vertex 0 160 0
    endloop
  endfacet
  facet normal 0 -1 0
    outer loop
      vertex 0 0 0
      vertex 245 0 194
      vertex 0 0 194
    endloop
  endfacet
  facet normal 0 -1 -0
    outer loop
      vertex 245 0 194
      vertex 0 0 0
      vertex 245 0 0
    endloop
  endfacet
  facet normal -1 0 0
    outer loop
      vertex 0 0 0
      vertex 0 160 194
      vertex 0 160 0
    endloop
  endfacet
  facet normal -1 -0 0
    outer loop
      vertex 0 160 194
      vertex 0 0 0
      vertex 0 0 194
    endloop
  endfacet
  facet normal 0 0 -1
    outer loop
      vertex 0 0 0
      vertex 245 160 0
      vertex 245 0 0
    endloop
  endfacet
  facet normal -0 0 -1
    outer loop
      vertex 245 160 0
      vertex 0 0 0
      vertex 0 160 0
    endloop
  endfacet
  facet normal -0 0 1
    outer loop
      vertex 1 34.4 194
      vertex 244 31.4 194
      vertex 244 34.4 194
    endloop
  endfacet
  facet normal 0 0 1
    outer loop
      vertex 244 31.4 194
      vertex 1 34.4 194
      vertex 1 31.4 194
    endloop
  endfacet
  facet normal -0 0 1
    outer loop
      vertex 1 65.8 194
      vertex 244 62.8 194
      vertex 244 65.8 194
    endloop
  endfacet
  facet normal 0 0 1
    outer loop
      vertex 244 62.8 194
      vertex 1 65.8 194
      vertex 1 62.8 194
    endloop
  endfacet
  facet normal -0 0 1
    outer loop
      vertex 1 97.2 194
      vertex 244 94.2 194
      vertex 244 97.2 194
    endloop
  endfacet
  facet normal 0 0 1
    outer loop
      vertex 244 94.2 194
      vertex 1 97.2 194
      vertex 1 94.2 194
    endloop
  endfacet
  facet normal -0 0 1
    outer loop
      vertex 1 128.6 194
      vertex 244 125.6 194
      vertex 244 128.6 194
    endloop
  endfacet
  facet normal 0 0 1
    outer loop
      vertex 244 125.6 194
      vertex 1 128.6 194
      vertex 1 125.6 194
    endloop
  endfacet
  facet normal 0 0 1
    outer loop
      vertex 244 128.6 194
      vertex 245 160 194
      vertex 244 157 194
    endloop
  endfacet
  facet normal 0 0 1
    outer loop
      vertex 245 160 194
      vertex 1 157 194
      vertex 244 157 194
    endloop
  endfacet
  facet normal 0 0 1
    outer loop
      vertex 0 160 194
      vertex 1 128.6 194
      vertex 1 157 194
    endloop
  endfacet
  facet normal 0 0 1
    outer loop
      vertex 1 128.6 194
      vertex 0 160 194
      vertex 1 125.6 194
    endloop
  endfacet
  facet normal 0 0 1
    outer loop
      vertex 1 125.6 194
      vertex 0 160 194
      vertex 1 97.2 194
    endloop
  endfacet
  facet normal 0 0 1
    outer loop
      vertex 1 97.2 194
      vertex 0 160 194
      vertex 1 94.2 194
    endloop
  endfacet
  facet normal 0 0 1
    outer loop
      vertex 1 94.2 194
      vertex 0 160 194
      vertex 1 65.8 194
    endloop
  endfacet
  facet normal 0 0 1
    outer loop
      vertex 1 65.8 194
      vertex 0 160 194
      vertex 1 62.8 194
    endloop
  endfacet
  facet normal 0 0 1
    outer loop
      vertex 0 0 194
      vertex 1 62.8 194
      vertex 0 160 194
    endloop
  endfacet
  facet normal 0 0 1
    outer loop
      vertex 1 62.8 194
      vertex 0 0 194
      vertex 1 34.4 194
    endloop
  endfacet
  facet normal 0 0 1
    outer loop
      vertex 1 34.4 194
      vertex 0 0 194
      vertex 1 31.4 194
    endloop
  endfacet
  facet normal -0 0 1
    outer loop
      vertex 0 160 194
      vertex 1 157 194
      vertex 245 160 194
    endloop
  endfacet
  facet normal 0 0 1
    outer loop
      vertex 244 125.6 194
      vertex 245 160 194
      vertex 244 128.6 194
    endloop
  endfacet
  facet normal 0 0 1
    outer loop
      vertex 244 97.2 194
      vertex 245 160 194
      vertex 244 125.6 194
    endloop
  endfacet
  facet normal 0 0 1
    outer loop
      vertex 245 160 194
      vertex 244 97.2 194
      vertex 245 0 194
    endloop
  endfacet
  facet normal -0 0 1
    outer loop
      vertex 244 94.2 194
      vertex 245 0 194
      vertex 244 97.2 194
    endloop
  endfacet
  facet normal -0 0 1
    outer loop
      vertex 244 65.8 194
      vertex 245 0 194
      vertex 244 94.2 194
    endloop
  endfacet
  facet normal -0 0 1
    outer loop
      vertex 244 62.8 194
      vertex 245 0 194
      vertex 244 65.8 194
    endloop
  endfacet
  facet normal -0 0 1
    outer loop
      vertex 244 34.4 194
      vertex 245 0 194
      vertex 244 62.8 194
    endloop
  endfacet
  facet normal -0 0 1
    outer loop
      vertex 244 31.4 194
      vertex 245 0 194
      vertex 244 34.4 194
    endloop
  endfacet
  facet normal -0 0 1
    outer loop
      vertex 244 3 194
      vertex 245 0 194
      vertex 244 31.4 194
    endloop
  endfacet
  facet normal -0 0 1
    outer loop
      vertex 1 3 194
      vertex 245 0 194
      vertex 244 3 194
    endloop
  endfacet
  facet normal 0 0 1
    outer loop
      vertex 1 3 194
      vertex 0 0 194
      vertex 245 0 194
    endloop
  endfacet
  facet normal 0 0 1
    outer loop
      vertex 1 31.4 194
      vertex 0 0 194
      vertex 1 3 194
    endloop
  endfacet
  facet normal 0 1 -0
    outer loop
      vertex 244 13.8 1
      vertex 241 13.8 176.993
      vertex 244 13.8 176.993
    endloop
  endfacet
  facet normal 0 1 0
    outer loop
      vertex 241 13.8 176.993
      vertex 244 13.8 1
      vertex 241 13.8 1
    endloop
  endfacet
  facet normal 0 1 0
    outer loop
      vertex 244 13.8 191.7
      vertex 241 13.8 189.993
      vertex 241 13.8 191.7
    endloop
  endfacet
  facet normal -0 1 0
    outer loop
      vertex 241 13.8 189.993
      vertex 244 13.8 191.7
      vertex 244 13.8 186.993
    endloop
  endfacet
  facet normal 0 -1 0
    outer loop
      vertex 241 6.2 1
      vertex 244 6.2 191.7
      vertex 241 6.2 191.7
    endloop
  endfacet
  facet normal 0 -1 -0
    outer loop
      vertex 244 6.2 191.7
      vertex 241 6.2 1
      vertex 244 6.2 1
    endloop
  endfacet
  facet normal -1 0 0
    outer loop
      vertex 241 12.8 1
      vertex 241 13.8 176.993
      vertex 241 13.8 1
    endloop
  endfacet
  facet normal -1 -0 0
    outer loop
      vertex 241 13.8 176.993
      vertex 241 12.8 1
      vertex 241 12.8 176.993
    endloop
  endfacet
  facet normal -1 0 0
    outer loop
      vertex 241 7.2 1
      vertex 241 6.2 1
      vertex 241 7.2 189.993
    endloop
  endfacet
  facet normal -1 0 0
    outer loop
      vertex 241 7.2 189.993
      vertex 241 13.8 191.7
      vertex 241 13.8 189.993
    endloop
  endfacet
  facet normal -1 0 0
    outer loop
      vertex 241 7.2 189.993
      vertex 241 6.2 191.7
      vertex 241 13.8 191.7
    endloop
  endfacet
  facet normal -1 0 0
    outer loop
      vertex 241 6.2 191.7
      vertex 241 7.2 189.993
      vertex 241 6.2 1
    endloop
  endfacet
  facet normal -0 0 1
    outer loop
      vertex 241 13.8 191.7
      vertex 244 6.2 191.7
      vertex 244 13.8 191.7
    endloop
  endfacet
  facet normal 0 0 1
    outer loop
      vertex 244 6.2 191.7
      vertex 241 13.8 191.7
      vertex 241 6.2 191.7
    endloop
  endfacet
  facet normal 0 1 0
    outer loop
      vertex 241 7.2 1
      vertex 244 7.2 186.993
      vertex 244 7.2 1
    endloop
  endfacet
  facet normal 0 1 0
    outer loop
      vertex 244 7.2 186.993
      vertex 241 7.2 1
      vertex 241 7.2 189.993
    endloop
  endfacet
  facet normal 0 -1 0
    outer loop
      vertex 241 12.8 1
      vertex 244 12.8 176.993
      vertex 241 12.8 176.993
    endloop
  endfacet
  facet normal 0 -1 -0
    outer loop
      vertex 244 12.8 176.993
      vertex 241 12.8 1
      vertex 244 12.8 1
    endloop
  endfacet
  facet normal -0.707107 0 -0.707107
    outer loop
      vertex 244 7.2 186.993
      vertex 241 13.8 189.993
      vertex 244 13.8 186.993
    endloop
  endfacet
  facet normal -0.707107 -0 -0.707107
    outer loop
      vertex 241 13.8 189.993
      vertex 244 7.2 186.993
      vertex 241 7.2 189.993
    endloop
  endfacet
  facet normal -0 0 1
    outer loop
      vertex 241 13.8 176.993
      vertex 244 12.8 176.993
      vertex 244 13.8 176.993
    endloop
  endfacet
  facet normal 0 0 1
    outer loop
      vertex 244 12.8 176.993
      vertex 241 13.8 176.993
      vertex 241 12.8 176.993
    endloop
  endfacet
  facet normal 0 1 -0
    outer loop
      vertex 4 13.8 1
      vertex 1 13.8 176.993
      vertex 4 13.8 176.993
    endloop
  endfacet
  facet normal 0 1 0
    outer loop
      vertex 1 13.8 176.993
      vertex 4 13.8 1
      vertex 1 13.8 1
    endloop
  endfacet
  facet normal 0 1 -0
    outer loop
      vertex 4 13.8 189.993
      vertex 1 13.8 191.7
      vertex 4 13.8 191.7
    endloop
  endfacet
  facet normal 0 1 0
    outer loop
      vertex 1 13.8 191.7
      vertex 4 13.8 189.993
      vertex 1 13.8 186.993
    endloop
  endfacet
  facet normal 0 -1 0
    outer loop
      vertex 1 6.2 1
      vertex 4 6.2 191.7
      vertex 1 6.2 191.7
    endloop
  endfacet
  facet normal 0 -1 -0
    outer loop
      vertex 4 6.2 191.7
      vertex 1 6.2 1
      vertex 4 6.2 1
    endloop
  endfacet
  facet normal 1 -0 0
    outer loop
      vertex 4 12.8 176.993
      vertex 4 13.8 1
      vertex 4 13.8 176.993
    endloop
  endfacet
  facet normal 1 0 0
    outer loop
      vertex 4 13.8 1
      vertex 4 12.8 176.993
      vertex 4 12.8 1
    endloop
  endfacet
  facet normal 1 0 0
    outer loop
      vertex 4 13.8 191.7
      vertex 4 7.2 189.993
      vertex 4 13.8 189.993
    endloop
  endfacet
  facet normal 1 -0 0
    outer loop
      vertex 4 6.2 191.7
      vertex 4 7.2 189.993
      vertex 4 13.8 191.7
    endloop
  endfacet
  facet normal 1 0 0
    outer loop
      vertex 4 6.2 1
      vertex 4 7.2 189.993
      vertex 4 6.2 191.7
    endloop
  endfacet
  facet normal 1 0 0
    outer loop
      vertex 4 7.2 189.993
      vertex 4 6.2 1
      vertex 4 7.2 1
    endloop
  endfacet
  facet normal -0 0 1
    outer loop
      vertex 1 13.8 191.7
      vertex 4 6.2 191.7
      vertex 4 13.8 191.7
    endloop
  endfacet
  facet normal 0 0 1
    outer loop
      vertex 4 6.2 191.7
      vertex 1 13.8 191.7
      vertex 1 6.2 191.7
    endloop
  endfacet
  facet normal 0 1 -0
    outer loop
      vertex 4 7.2 1
      vertex 1 7.2 186.993
      vertex 4 7.2 189.993
    endloop
  endfacet
  facet normal 0 1 0
    outer loop
      vertex 1 7.2 186.993
      vertex 4 7.2 1
      vertex 1 7.2 1
    endloop
  endfacet
  facet normal 0 -1 0
    outer loop
      vertex 1 12.8 1
      vertex 4 12.8 176.993
      vertex 1 12.8 176.993
    endloop
  endfacet
  facet normal 0 -1 -0
    outer loop
      vertex 4 12.8 176.993
      vertex 1 12.8 1
      vertex 4 12.8 1
    endloop
  endfacet
  facet normal 0.707107 0 -0.707107
    outer loop
      vertex 4 7.2 189.993
      vertex 1 13.8 186.993
      vertex 4 13.8 189.993
    endloop
  endfacet
  facet normal 0.707107 0 -0.707107
    outer loop
      vertex 1 13.8 186.993
      vertex 4 7.2 189.993
      vertex 1 7.2 186.993
    endloop
  endfacet
  facet normal -0 0 1
    outer loop
      vertex 1 13.8 176.993
      vertex 4 12.8 176.993
      vertex 4 13.8 176.993
    endloop
  endfacet
  facet normal 0 0 1
    outer loop
      vertex 4 12.8 176.993
      vertex 1 13.8 176.993
      vertex 1 12.8 176.993
    endloop
  endfacet
  facet normal 0 1 -0
    outer loop
      vertex 244 45.2 1
      vertex 241 45.2 176.993
      vertex 244 45.2 176.993
    endloop
  endfacet
  facet normal 0 1 0
    outer loop
      vertex 241 45.2 176.993
      vertex 244 45.2 1
      vertex 241 45.2 1
    endloop
  endfacet
  facet normal 0 1 0
    outer loop
      vertex 244 45.2 191.7
      vertex 241 45.2 189.993
      vertex 241 45.2 191.7
    endloop
  endfacet
  facet normal -0 1 0
    outer loop
      vertex 241 45.2 189.993
      vertex 244 45.2 191.7
      vertex 244 45.2 186.993
    endloop
  endfacet
  facet normal 0 -1 0
    outer loop
      vertex 241 37.6 1
      vertex 244 37.6 191.7
      vertex 241 37.6 191.7
    endloop
  endfacet
  facet normal 0 -1 -0
    outer loop
      vertex 244 37.6 191.7
      vertex 241 37.6 1
      vertex 244 37.6 1
    endloop
  endfacet
  facet normal -1 0 0
    outer loop
      vertex 241 44.2 1
      vertex 241 45.2 176.993
      vertex 241 45.2 1
    endloop
  endfacet
  facet normal -1 -0 0
    outer loop
      vertex 241 45.2 176.993
      vertex 241 44.2 1
      vertex 241 44.2 176.993
    endloop
  endfacet
  facet normal -1 0 0
    outer loop
      vertex 241 38.6 1
      vertex 241 37.6 1
      vertex 241 38.6 189.993
    endloop
  endfacet
  facet normal -1 0 0
    outer loop
      vertex 241 38.6 189.993
      vertex 241 45.2 191.7
      vertex 241 45.2 189.993
    endloop
  endfacet
  facet normal -1 0 0
    outer loop
      vertex 241 38.6 189.993
      vertex 241 37.6 191.7
      vertex 241 45.2 191.7
    endloop
  endfacet
  facet normal -1 0 0
    outer loop
      vertex 241 37.6 191.7
      vertex 241 38.6 189.993
      vertex 241 37.6 1
    endloop
  endfacet
  facet normal -0 0 1
    outer loop
      vertex 241 45.2 191.7
      vertex 244 37.6 191.7
      vertex 244 45.2 191.7
    endloop
  endfacet
  facet normal 0 0 1
    outer loop
      vertex 244 37.6 191.7
      vertex 241 45.2 191.7
      vertex 241 37.6 191.7
    endloop
  endfacet
  facet normal 0 1 0
    outer loop
      vertex 241 38.6 1
      vertex 244 38.6 186.993
      vertex 244 38.6 1
    endloop
  endfacet
  facet normal 0 1 0
    outer loop
      vertex 244 38.6 186.993
      vertex 241 38.6 1
      vertex 241 38.6 189.993
    endloop
  endfacet
  facet normal 0 -1 0
    outer loop
      vertex 241 44.2 1
      vertex 244 44.2 176.993
      vertex 241 44.2 176.993
    endloop
  endfacet
  facet normal 0 -1 -0
    outer loop
      vertex 244 44.2 176.993
      vertex 241 44.2 1
      vertex 244 44.2 1
    endloop
  endfacet
  facet normal -0.707107 0 -0.707107
    outer loop
      vertex 244 38.6 186.993
      vertex 241 45.2 189.993
      vertex 244 45.2 186.993
    endloop
  endfacet
  facet normal -0.707107 -0 -0.707107
    outer loop
      vertex 241 45.2 189.993
      vertex 244 38.6 186.993
      vertex 241 38.6 189.993
    endloop
  endfacet
  facet normal -0 0 1
    outer loop
      vertex 241 45.2 176.993
      vertex 244 44.2 176.993
      vertex 244 45.2 176.993
    endloop
  endfacet
  facet normal 0 0 1
    outer loop
      vertex 244 44.2 176.993
      vertex 241 45.2 176.993
      vertex 241 44.2 176.993
    endloop
  endfacet
  facet normal 0 1 -0
    outer loop
      vertex 4 45.2 1
      vertex 1 45.2 176.993
      vertex 4 45.2 176.993
    endloop
  endfacet
  facet normal 0 1 0
    outer loop
      vertex 1 45.2 176.993
      vertex 4 45.2 1
      vertex 1 45.2 1
    endloop
  endfacet
  facet normal 0 1 -0
    outer loop
      vertex 4 45.2 189.993
      vertex 1 45.2 191.7
      vertex 4 45.2 191.7
    endloop
  endfacet
  facet normal 0 1 0
    outer loop
      vertex 1 45.2 191.7
      vertex 4 45.2 189.993
      vertex 1 45.2 186.993
    endloop
  endfacet
  facet normal 0 -1 0
    outer loop
      vertex 1 37.6 1
      vertex 4 37.6 191.7
      vertex 1 37.6 191.7
    endloop
  endfacet
  facet normal 0 -1 -0
    outer loop
      vertex 4 37.6 191.7
      vertex 1 37.6 1
      vertex 4 37.6 1
    endloop
  endfacet
  facet normal 1 -0 0
    outer loop
      vertex 4 44.2 176.993
      vertex 4 45.2 1
      vertex 4 45.2 176.993
    endloop
  endfacet
  facet normal 1 0 0
    outer loop
      vertex 4 45.2 1
      vertex 4 44.2 176.993
      vertex 4 44.2 1
    endloop
  endfacet
  facet normal 1 0 0
    outer loop
      vertex 4 45.2 191.7
      vertex 4 38.6 189.993
      vertex 4 45.2 189.993
    endloop
  endfacet
  facet normal 1 -0 0
    outer loop
      vertex 4 37.6 191.7
      vertex 4 38.6 189.993
      vertex 4 45.2 191.7
    endloop
  endfacet
  facet normal 1 0 0
    outer loop
      vertex 4 37.6 1
      vertex 4 38.6 189.993
      vertex 4 37.6 191.7
    endloop
  endfacet
  facet normal 1 0 0
    outer loop
      vertex 4 38.6 189.993
      vertex 4 37.6 1
      vertex 4 38.6 1
    endloop
  endfacet
  facet normal -0 0 1
    outer loop
      vertex 1 45.2 191.7
      vertex 4 37.6 191.7
      vertex 4 45.2 191.7
    endloop
  endfacet
  facet normal 0 0 1
    outer loop
      vertex 4 37.6 191.7
      vertex 1 45.2 191.7
      vertex 1 37.6 191.7
    endloop
  endfacet
  facet normal 0 1 -0
    outer loop
      vertex 4 38.6 1
      vertex 1 38.6 186.993
      vertex 4 38.6 189.993
    endloop
  endfacet
  facet normal 0 1 0
    outer loop
      vertex 1 38.6 186.993
      vertex 4 38.6 1
      vertex 1 38.6 1
    endloop
  endfacet
  facet normal 0 -1 0
    outer loop
      vertex 1 44.2 1
      vertex 4 44.2 176.993
      vertex 1 44.2 176.993
    endloop
  endfacet
  facet normal 0 -1 -0
    outer loop
      vertex 4 44.2 176.993
      vertex 1 44.2 1
      vertex 4 44.2 1
    endloop
  endfacet
  facet normal 0.707107 0 -0.707107
    outer loop
      vertex 4 38.6 189.993
      vertex 1 45.2 186.993
      vertex 4 45.2 189.993
    endloop
  endfacet
  facet normal 0.707107 0 -0.707107
    outer loop
      vertex 1 45.2 186.993
      vertex 4 38.6 189.993
      vertex 1 38.6 186.993
    endloop
  endfacet
  facet normal -0 0 1
    outer loop
      vertex 1 45.2 176.993
      vertex 4 44.2 176.993
      vertex 4 45.2 176.993
    endloop
  endfacet
  facet normal 0 0 1
    outer loop
      vertex 4 44.2 176.993
      vertex 1 45.2 176.993
      vertex 1 44.2 176.993
    endloop
  endfacet
  facet normal 0 1 -0
    outer loop
      vertex 244 76.6 1
      vertex 241 76.6 176.993
      vertex 244 76.6 176.993
    endloop
  endfacet
  facet normal 0 1 0
    outer loop
      vertex 241 76.6 176.993
      vertex 244 76.6 1
      vertex 241 76.6 1
    endloop
  endfacet
  facet normal 0 1 0
    outer loop
      vertex 244 76.6 191.7
      vertex 241 76.6 189.993
      vertex 241 76.6 191.7
    endloop
  endfacet
  facet normal -0 1 0
    outer loop
      vertex 241 76.6 189.993
      vertex 244 76.6 191.7
      vertex 244 76.6 186.993
    endloop
  endfacet
  facet normal 0 -1 0
    outer loop
      vertex 241 69 1
      vertex 244 69 191.7
      vertex 241 69 191.7
    endloop
  endfacet
  facet normal 0 -1 -0
    outer loop
      vertex 244 69 191.7
      vertex 241 69 1
      vertex 244 69 1
    endloop
  endfacet
  facet normal -1 0 0
    outer loop
      vertex 241 75.6 1
      vertex 241 76.6 176.993
      vertex 241 76.6 1
    endloop
  endfacet
  facet normal -1 -0 0
    outer loop
      vertex 241 76.6 176.993
      vertex 241 75.6 1
      vertex 241 75.6 176.993
    endloop
  endfacet
  facet normal -1 0 0
    outer loop
      vertex 241 70 1
      vertex 241 69 1
      vertex 241 70 189.993
    endloop
  endfacet
  facet normal -1 0 0
    outer loop
      vertex 241 70 189.993
      vertex 241 76.6 191.7
      vertex 241 76.6 189.993
    endloop
  endfacet
  facet normal -1 0 0
    outer loop
      vertex 241 70 189.993
      vertex 241 69 191.7
      vertex 241 76.6 191.7
    endloop
  endfacet
  facet normal -1 0 0
    outer loop
      vertex 241 69 191.7
      vertex 241 70 189.993
      vertex 241 69 1
    endloop
  endfacet
  facet normal -0 0 1
    outer loop
      vertex 241 76.6 191.7
      vertex 244 69 191.7
      vertex 244 76.6 191.7
    endloop
  endfacet
  facet normal 0 0 1
    outer loop
      vertex 244 69 191.7
      vertex 241 76.6 191.7
      vertex 241 69 191.7
    endloop
  endfacet
  facet normal 0 1 0
    outer loop
      vertex 241 70 1
      vertex 244 70 186.993
      vertex 244 70 1
    endloop
  endfacet
  facet normal 0 1 0
    outer loop
      vertex 244 70 186.993
      vertex 241 70 1
      vertex 241 70 189.993
    endloop
  endfacet
  facet normal 0 -1 0
    outer loop
      vertex 241 75.6 1
      vertex 244 75.6 176.993
      vertex 241 75.6 176.993
    endloop
  endfacet
  facet normal 0 -1 -0
    outer loop
      vertex 244 75.6 176.993
      vertex 241 75.6 1
      vertex 244 75.6 1
    endloop
  endfacet
  facet normal -0.707107 0 -0.707107
    outer loop
      vertex 244 70 186.993
      vertex 241 76.6 189.993
      vertex 244 76.6 186.993
    endloop
  endfacet
  facet normal -0.707107 -0 -0.707107
    outer loop
      vertex 241 76.6 189.993
      vertex 244 70 186.993
      vertex 241 70 189.993
    endloop
  endfacet
  facet normal -0 0 1
    outer loop
      vertex 241 76.6 176.993
      vertex 244 75.6 176.993
      vertex 244 76.6 176.993
    endloop
  endfacet
  facet normal 0 0 1
    outer loop
      vertex 244 75.6 176.993
      vertex 241 76.6 176.993
      vertex 241 75.6 176.993
    endloop
  endfacet
  facet normal 0 1 -0
    outer loop
      vertex 4 76.6 1
      vertex 1 76.6 176.993
      vertex 4 76.6 176.993
    endloop
  endfacet
  facet normal 0 1 0
    outer loop
      vertex 1 76.6 176.993
      vertex 4 76.6 1
      vertex 1 76.6 1
    endloop
  endfacet
  facet normal 0 1 -0
    outer loop
      vertex 4 76.6 189.993
      vertex 1 76.6 191.7
      vertex 4 76.6 191.7
    endloop
  endfacet
  facet normal 0 1 0
    outer loop
      vertex 1 76.6 191.7
      vertex 4 76.6 189.993
      vertex 1 76.6 186.993
    endloop
  endfacet
  facet normal 0 -1 0
    outer loop
      vertex 1 69 1
      vertex 4 69 191.7
      vertex 1 69 191.7
    endloop
  endfacet
  facet normal 0 -1 -0
    outer loop
      vertex 4 69 191.7
      vertex 1 69 1
      vertex 4 69 1
    endloop
  endfacet
  facet normal 1 -0 0
    outer loop
      vertex 4 75.6 176.993
      vertex 4 76.6 1
      vertex 4 76.6 176.993
    endloop
  endfacet
  facet normal 1 0 0
    outer loop
      vertex 4 76.6 1
      vertex 4 75.6 176.993
      vertex 4 75.6 1
    endloop
  endfacet
  facet normal 1 0 0
    outer loop
      vertex 4 76.6 191.7
      vertex 4 70 189.993
      vertex 4 76.6 189.993
    endloop
  endfacet
  facet normal 1 -0 0
    outer loop
      vertex 4 69 191.7
      vertex 4 70 189.993
      vertex 4 76.6 191.7
    endloop
  endfacet
  facet normal 1 0 0
    outer loop
      vertex 4 69 1
      vertex 4 70 189.993
      vertex 4 69 191.7
    endloop
  endfacet
  facet normal 1 0 0
    outer loop
      vertex 4 70 189.993
      vertex 4 69 1
      vertex 4 70 1
    endloop
  endfacet
  facet normal -0 0 1
    outer loop
      vertex 1 76.6 191.7
      vertex 4 69 191.7
      vertex 4 76.6 191.7
    endloop
  endfacet
  facet normal 0 0 1
    outer loop
      vertex 4 69 191.7
      vertex 1 76.6 191.7
      vertex 1 69 191.7
    endloop
  endfacet
  facet normal 0 1 -0
    outer loop
      vertex 4 70 1
      vertex 1 70 186.993
      vertex 4 70 189.993
    endloop
  endfacet
  facet normal 0 1 0
    outer loop
      vertex 1 70 186.993
      vertex 4 70 1
      vertex 1 70 1
    endloop
  endfacet
  facet normal 0 -1 0
    outer loop
      vertex 1 75.6 1
      vertex 4 75.6 176.993
      vertex 1 75.6 176.993
    endloop
  endfacet
  facet normal 0 -1 -0
    outer loop
      vertex 4 75.6 176.993
      vertex 1 75.6 1
      vertex 4 75.6 1
    endloop
  endfacet
  facet normal 0.707107 0 -0.707107
    outer loop
      vertex 4 70 189.993
      vertex 1 76.6 186.993
      vertex 4 76.6 189.993
    endloop
  endfacet
  facet normal 0.707107 0 -0.707107
    outer loop
      vertex 1 76.6 186.993
      vertex 4 70 189.993
      vertex 1 70 186.993
    endloop
  endfacet
  facet normal -0 0 1
    outer loop
      vertex 1 76.6 176.993
      vertex 4 75.6 176.993
      vertex 4 76.6 176.993
    endloop
  endfacet
  facet normal 0 0 1
    outer loop
      vertex 4 75.6 176.993
      vertex 1 76.6 176.993
      vertex 1 75.6 176.993
    endloop
  endfacet
  facet normal 0 1 -0
    outer loop
      vertex 244 108 1
      vertex 241 108 176.993
      vertex 244 108 176.993
    endloop
  endfacet
  facet normal 0 1 0
    outer loop
      vertex 241 108 176.993
      vertex 244 108 1
      vertex 241 108 1
    endloop
  endfacet
  facet normal 0 1 0
    outer loop
      vertex 244 108 191.7
      vertex 241 108 189.993
      vertex 241 108 191.7
    endloop
  endfacet
  facet normal -0 1 0
    outer loop
      vertex 241 108 189.993
      vertex 244 108 191.7
      vertex 244 108 186.993
    endloop
  endfacet
  facet normal 0 -1 0
    outer loop
      vertex 241 100.4 1
      vertex 244 100.4 191.7
      vertex 241 100.4 191.7
    endloop
  endfacet
  facet normal 0 -1 -0
    outer loop
      vertex 244 100.4 191.7
      vertex 241 100.4 1
      vertex 244 100.4 1
    endloop
  endfacet
  facet normal -1 0 0
    outer loop
      vertex 241 107 1
      vertex 241 108 176.993
      vertex 241 108 1
    endloop
  endfacet
  facet normal -1 -0 0
    outer loop
      vertex 241 108 176.993
      vertex 241 107 1
      vertex 241 107 176.993
    endloop
  endfacet
  facet normal -1 0 0
    outer loop
      vertex 241 101.4 1
      vertex 241 100.4 1
      vertex 241 101.4 189.993
    endloop
  endfacet
  facet normal -1 0 0
    outer loop
      vertex 241 101.4 189.993
      vertex 241 108 191.7
      vertex 241 108 189.993
    endloop
  endfacet
  facet normal -1 0 0
    outer loop
      vertex 241 101.4 189.993
      vertex 241 100.4 191.7
      vertex 241 108 191.7
    endloop
  endfacet
  facet normal -1 0 0
    outer loop
      vertex 241 100.4 191.7
      vertex 241 101.4 189.993
      vertex 241 100.4 1
    endloop
  endfacet
  facet normal -0 0 1
    outer loop
      vertex 241 108 191.7
      vertex 244 100.4 191.7
      vertex 244 108 191.7
    endloop
  endfacet
  facet normal 0 0 1
    outer loop
      vertex 244 100.4 191.7
      vertex 241 108 191.7
      vertex 241 100.4 191.7
    endloop
  endfacet
  facet normal 0 1 0
    outer loop
      vertex 241 101.4 1
      vertex 244 101.4 186.993
      vertex 244 101.4 1
    endloop
  endfacet
  facet normal 0 1 0
    outer loop
      vertex 244 101.4 186.993
      vertex 241 101.4 1
      vertex 241 101.4 189.993
    endloop
  endfacet
  facet normal 0 -1 0
    outer loop
      vertex 241 107 1
      vertex 244 107 176.993
      vertex 241 107 176.993
    endloop
  endfacet
  facet normal 0 -1 -0
    outer loop
      vertex 244 107 176.993
      vertex 241 107 1
      vertex 244 107 1
    endloop
  endfacet
  facet normal -0.707107 0 -0.707107
    outer loop
      vertex 244 101.4 186.993
      vertex 241 108 189.993
      vertex 244 108 186.993
    endloop
  endfacet
  facet normal -0.707107 -0 -0.707107
    outer loop
      vertex 241 108 189.993
      vertex 244 101.4 186.993
      vertex 241 101.4 189.993
    endloop
  endfacet
  facet normal -0 0 1
    outer loop
      vertex 241 108 176.993
      vertex 244 107 176.993
      vertex 244 108 176.993
    endloop
  endfacet
  facet normal 0 0 1
    outer loop
      vertex 244 107 176.993
      vertex 241 108 176.993
      vertex 241 107 176.993
    endloop
  endfacet
  facet normal 0 1 -0
    outer loop
      vertex 4 108 1
      vertex 1 108 176.993
      vertex 4 108 176.993
    endloop
  endfacet
  facet normal 0 1 0
    outer loop
      vertex 1 108 176.993
      vertex 4 108 1
      vertex 1 108 1
    endloop
  endfacet
  facet normal 0 1 -0
    outer loop
      vertex 4 108 189.993
      vertex 1 108 191.7
      vertex 4 108 191.7
    endloop
  endfacet
  facet normal 0 1 0
    outer loop
      vertex 1 108 191.7
      vertex 4 108 189.993
      vertex 1 108 186.993
    endloop
  endfacet
  facet normal 0 -1 0
    outer loop
      vertex 1 100.4 1
      vertex 4 100.4 191.7
      vertex 1 100.4 191.7
    endloop
  endfacet
  facet normal 0 -1 -0
    outer loop
      vertex 4 100.4 191.7
      vertex 1 100.4 1
      vertex 4 100.4 1
    endloop
  endfacet
  facet normal 1 -0 0
    outer loop
      vertex 4 107 176.993
      vertex 4 108 1
      vertex 4 108 176.993
    endloop
  endfacet
  facet normal 1 0 0
    outer loop
      vertex 4 108 1
      vertex 4 107 176.993
      vertex 4 107 1
    endloop
  endfacet
  facet normal 1 0 0
    outer loop
      vertex 4 108 191.7
      vertex 4 101.4 189.993
      vertex 4 108 189.993
    endloop
  endfacet
  facet normal 1 -0 0
    outer loop
      vertex 4 100.4 191.7
      vertex 4 101.4 189.993
      vertex 4 108 191.7
    endloop
  endfacet
  facet normal 1 0 0
    outer loop
      vertex 4 100.4 1
      vertex 4 101.4 189.993
      vertex 4 100.4 191.7
    endloop
  endfacet
  facet normal 1 0 0
    outer loop
      vertex 4 101.4 189.993
      vertex 4 100.4 1
      vertex 4 101.4 1
    endloop
  endfacet
  facet normal -0 0 1
    outer loop
      vertex 1 108 191.7
      vertex 4 100.4 191.7
      vertex 4 108 191.7
    endloop
  endfacet
  facet normal 0 0 1
    outer loop
      vertex 4 100.4 191.7
      vertex 1 108 191.7
      vertex 1 100.4 191.7
    endloop
  endfacet
  facet normal 0 1 -0
    outer loop
      vertex 4 101.4 1
      vertex 1 101.4 186.993
      vertex 4 101.4 189.993
    endloop
  endfacet
  facet normal 0 1 0
    outer loop
      vertex 1 101.4 186.993
      vertex 4 101.4 1
      vertex 1 101.4 1
    endloop
  endfacet
  facet normal 0 -1 0
    outer loop
      vertex 1 107 1
      vertex 4 107 176.993
      vertex 1 107 176.993
    endloop
  endfacet
  facet normal 0 -1 -0
    outer loop
      vertex 4 107 176.993
      vertex 1 107 1
      vertex 4 107 1
    endloop
  endfacet
  facet normal 0.707107 0 -0.707107
    outer loop
      vertex 4 101.4 189.993
      vertex 1 108 186.993
      vertex 4 108 189.993
    endloop
  endfacet
  facet normal 0.707107 0 -0.707107
    outer loop
      vertex 1 108 186.993
      vertex 4 101.4 189.993
      vertex 1 101.4 186.993
    endloop
  endfacet
  facet normal -0 0 1
    outer loop
      vertex 1 108 176.993
      vertex 4 107 176.993
      vertex 4 108 176.993
    endloop
  endfacet
  facet normal 0 0 1
    outer loop
      vertex 4 107 176.993
      vertex 1 108 176.993
      vertex 1 107 176.993
    endloop
  endfacet
  facet normal 0 1 -0
    outer loop
      vertex 244 139.4 1
      vertex 241 139.4 176.993
      vertex 244 139.4 176.993
    endloop
  endfacet
  facet normal 0 1 0
    outer loop
      vertex 241 139.4 176.993
      vertex 244 139.4 1
      vertex 241 139.4 1
    endloop
  endfacet
  facet normal 0 1 0
    outer loop
      vertex 244 139.4 191.7
      vertex 241 139.4 189.993
      vertex 241 139.4 191.7
    endloop
  endfacet
  facet normal -0 1 0
    outer loop
      vertex 241 139.4 189.993
      vertex 244 139.4 191.7
      vertex 244 139.4 186.993
    endloop
  endfacet
  facet normal 0 -1 0
    outer loop
      vertex 241 131.8 1
      vertex 244 131.8 191.7
      vertex 241 131.8 191.7
    endloop
  endfacet
  facet normal 0 -1 -0
    outer loop
      vertex 244 131.8 191.7
      vertex 241 131.8 1
      vertex 244 131.8 1
    endloop
  endfacet
  facet normal -1 0 0
    outer loop
      vertex 241 138.4 1
      vertex 241 139.4 176.993
      vertex 241 139.4 1
    endloop
  endfacet
  facet normal -1 -0 0
    outer loop
      vertex 241 139.4 176.993
      vertex 241 138.4 1
      vertex 241 138.4 176.993
    endloop
  endfacet
  facet normal -1 0 0
    outer loop
      vertex 241 132.8 1
      vertex 241 131.8 1
      vertex 241 132.8 189.993
    endloop
  endfacet
  facet normal -1 0 0
    outer loop
      vertex 241 132.8 189.993
      vertex 241 139.4 191.7
      vertex 241 139.4 189.993
    endloop
  endfacet
  facet normal -1 0 0
    outer loop
      vertex 241 132.8 189.993
      vertex 241 131.8 191.7
      vertex 241 139.4 191.7
    endloop
  endfacet
  facet normal -1 0 0
    outer loop
      vertex 241 131.8 191.7
      vertex 241 132.8 189.993
      vertex 241 131.8 1
    endloop
  endfacet
  facet normal -0 0 1
    outer loop
      vertex 241 139.4 191.7
      vertex 244 131.8 191.7
      vertex 244 139.4 191.7
    endloop
  endfacet
  facet normal 0 0 1
    outer loop
      vertex 244 131.8 191.7
      vertex 241 139.4 191.7
      vertex 241 131.8 191.7
    endloop
  endfacet
  facet normal 0 1 0
    outer loop
      vertex 241 132.8 1
      vertex 244 132.8 186.993
      vertex 244 132.8 1
    endloop
  endfacet
  facet normal 0 1 0
    outer loop
      vertex 244 132.8 186.993
      vertex 241 132.8 1
      vertex 241 132.8 189.993
    endloop
  endfacet
  facet normal 0 -1 0
    outer loop
      vertex 241 138.4 1
      vertex 244 138.4 176.993
      vertex 241 138.4 176.993
    endloop
  endfacet
  facet normal 0 -1 -0
    outer loop
      vertex 244 138.4 176.993
      vertex 241 138.4 1
      vertex 244 138.4 1
    endloop
  endfacet
  facet normal -0.707107 0 -0.707107
    outer loop
      vertex 244 132.8 186.993
      vertex 241 139.4 189.993
      vertex 244 139.4 186.993
    endloop
  endfacet
  facet normal -0.707107 -0 -0.707107
    outer loop
      vertex 241 139.4 189.993
      vertex 244 132.8 186.993
      vertex 241 132.8 189.993
    endloop
  endfacet
  facet normal -0 0 1
    outer loop
      vertex 241 139.4 176.993
      vertex 244 138.4 176.993
      vertex 244 139.4 176.993
    endloop
  endfacet
  facet normal 0 0 1
    outer loop
      vertex 244 138.4 176.993
      vertex 241 139.4 176.993
      vertex 241 138.4 176.993
    endloop
  endfacet
  facet normal 0 1 -0
    outer loop
      vertex 4 139.4 1
      vertex 1 139.4 176.993
      vertex 4 139.4 176.993
    endloop
  endfacet
  facet normal 0 1 0
    outer loop
      vertex 1 139.4 176.993
      vertex 4 139.4 1
      vertex 1 139.4 1
    endloop
  endfacet
  facet normal 0 1 -0
    outer loop
      vertex 4 139.4 189.993
      vertex 1 139.4 191.7
      vertex 4 139.4 191.7
    endloop
  endfacet
  facet normal 0 1 0
    outer loop
      vertex 1 139.4 191.7
      vertex 4 139.4 189.993
      vertex 1 139.4 186.993
    endloop
  endfacet
  facet normal 0 -1 0
    outer loop
      vertex 1 131.8 1
      vertex 4 131.8 191.7
      vertex 1 131.8 191.7
    endloop
  endfacet
  facet normal 0 -1 -0
    outer loop
      vertex 4 131.8 191.7
      vertex 1 131.8 1
      vertex 4 131.8 1
    endloop
  endfacet
  facet normal 1 -0 0
    outer loop
      vertex 4 138.4 176.993
      vertex 4 139.4 1
      vertex 4 139.4 176.993
    endloop
  endfacet
  facet normal 1 0 0
    outer loop
      vertex 4 139.4 1
      vertex 4 138.4 176.993
      vertex 4 138.4 1
    endloop
  endfacet
  facet normal 1 0 0
    outer loop
      vertex 4 139.4 191.7
      vertex 4 132.8 189.993
      vertex 4 139.4 189.993
    endloop
  endfacet
  facet normal 1 -0 0
    outer loop
      vertex 4 131.8 191.7
      vertex 4 132.8 189.993
      vertex 4 139.4 191.7
    endloop
  endfacet
  facet normal 1 0 0
    outer loop
      vertex 4 131.8 1
      vertex 4 132.8 189.993
      vertex 4 131.8 191.7
    endloop
  endfacet
  facet normal 1 0 0
    outer loop
      vertex 4 132.8 189.993
      vertex 4 131.8 1
      vertex 4 132.8 1
    endloop
  endfacet
  facet normal -0 0 1
    outer loop
      vertex 1 139.4 191.7
      vertex 4 131.8 191.7
      vertex 4 139.4 191.7
    endloop
  endfacet
  facet normal 0 0 1
    outer loop
      vertex 4 131.8 191.7
      vertex 1 139.4 191.7
      vertex 1 131.8 191.7
    endloop
  endfacet
  facet normal 0 1 -0
    outer loop
      vertex 4 132.8 1
      vertex 1 132.8 186.993
      vertex 4 132.8 189.993
    endloop
  endfacet
  facet normal 0 1 0
    outer loop
      vertex 1 132.8 186.993
      vertex 4 132.8 1
      vertex 1 132.8 1
    endloop
  endfacet
  facet normal 0 -1 0
    outer loop
      vertex 1 138.4 1
      vertex 4 138.4 176.993
      vertex 1 138.4 176.993
    endloop
  endfacet
  facet normal 0 -1 -0
    outer loop
      vertex 4 138.4 176.993
      vertex 1 138.4 1
      vertex 4 138.4 1
    endloop
  endfacet
  facet normal 0.707107 0 -0.707107
    outer loop
      vertex 4 132.8 189.993
      vertex 1 139.4 186.993
      vertex 4 139.4 189.993
    endloop
  endfacet
  facet normal 0.707107 0 -0.707107
    outer loop
      vertex 1 139.4 186.993
      vertex 4 132.8 189.993
      vertex 1 132.8 186.993
    endloop
  endfacet
  facet normal -0 0 1
    outer loop
      vertex 1 139.4 176.993
      vertex 4 138.4 176.993
      vertex 4 139.4 176.993
    endloop
  endfacet
  facet normal 0 0 1
    outer loop
      vertex 4 138.4 176.993
      vertex 1 139.4 176.993
      vertex 1 138.4 176.993
    endloop
  endfacet
  facet normal 0 -1 0
    outer loop
      vertex 1 28.4 1
      vertex 244 28.4 155.2
      vertex 1 28.4 155.2
    endloop
  endfacet
  facet normal 0 -1 -0
    outer loop
      vertex 244 28.4 155.2
      vertex 1 28.4 1
      vertex 244 28.4 1
    endloop
  endfacet
  facet normal -0 0 1
    outer loop
      vertex 1 31.4 155.2
      vertex 244 28.4 155.2
      vertex 244 31.4 155.2
    endloop
  endfacet
  facet normal 0 0 1
    outer loop
      vertex 244 28.4 155.2
      vertex 1 31.4 155.2
      vertex 1 28.4 155.2
    endloop
  endfacet
  facet normal 0 -1 0
    outer loop
      vertex 1 59.8 1
      vertex 244 59.8 155.2
      vertex 1 59.8 155.2
    endloop
  endfacet
  facet normal 0 -1 -0
    outer loop
      vertex 244 59.8 155.2
      vertex 1 59.8 1
      vertex 244 59.8 1
    endloop
  endfacet
  facet normal -0 0 1
    outer loop
      vertex 1 62.8 155.2
      vertex 244 59.8 155.2
      vertex 244 62.8 155.2
    endloop
  endfacet
  facet normal 0 0 1
    outer loop
      vertex 244 59.8 155.2
      vertex 1 62.8 155.2
      vertex 1 59.8 155.2
    endloop
  endfacet
  facet normal 0 -1 0
    outer loop
      vertex 1 91.2 1
      vertex 244 91.2 155.2
      vertex 1 91.2 155.2
    endloop
  endfacet
  facet normal 0 -1 -0
    outer loop
      vertex 244 91.2 155.2
      vertex 1 91.2 1
      vertex 244 91.2 1
    endloop
  endfacet
  facet normal -0 0 1
    outer loop
      vertex 1 94.2 155.2
      vertex 244 91.2 155.2
      vertex 244 94.2 155.2
    endloop
  endfacet
  facet normal 0 0 1
    outer loop
      vertex 244 91.2 155.2
      vertex 1 94.2 155.2
      vertex 1 91.2 155.2
    endloop
  endfacet
  facet normal 0 -1 0
    outer loop
      vertex 1 122.6 1
      vertex 244 122.6 155.2
      vertex 1 122.6 155.2
    endloop
  endfacet
  facet normal 0 -1 -0
    outer loop
      vertex 244 122.6 155.2
      vertex 1 122.6 1
      vertex 244 122.6 1
    endloop
  endfacet
  facet normal -0 0 1
    outer loop
      vertex 1 125.6 155.2
      vertex 244 122.6 155.2
      vertex 244 125.6 155.2
    endloop
  endfacet
  facet normal 0 0 1
    outer loop
      vertex 244 122.6 155.2
      vertex 1 125.6 155.2
      vertex 1 122.6 155.2
    endloop
  endfacet
  facet normal 0 -1 0
    outer loop
      vertex 1 154 1
      vertex 244 154 155.2
      vertex 1 154 155.2
    endloop
  endfacet
  facet normal 0 -1 -0
    outer loop
      vertex 244 154 155.2
      vertex 1 154 1
      vertex 244 154 1
    endloop
  endfacet
  facet normal -0 0 1
    outer loop
      vertex 1 157 155.2
      vertex 244 154 155.2
      vertex 244 157 155.2
    endloop
  endfacet
  facet normal 0 0 1
    outer loop
      vertex 244 154 155.2
      vertex 1 157 155.2
      vertex 1 154 155.2
    endloop
  endfacet
endsolid OpenSCAD_Model
