solid OpenSCAD_Model
  facet normal -1 0 0
    outer loop
      vertex 244 3.2 1
      vertex 244 1 1
      vertex 244 3.2 202.7
    endloop
  endfacet
  facet normal -1 0 0
    outer loop
      vertex 244 9.8 1
      vertex 244 4.2 1
      vertex 244 9.8 187.993
    endloop
  endfacet
  facet normal -1 0 0
    outer loop
      vertex 244 9.8 187.993
      vertex 244 10.8 197.993
      vertex 244 10.8 187.993
    endloop
  endfacet
  facet normal -1 0 0
    outer loop
      vertex 244 9.8 187.993
      vertex 244 4.2 197.993
      vertex 244 10.8 197.993
    endloop
  endfacet
  facet normal -1 0 0
    outer loop
      vertex 244 4.2 197.993
      vertex 244 9.8 187.993
      vertex 244 4.2 1
    endloop
  endfacet
  facet normal -1 0 0
    outer loop
      vertex 244 10.8 187.993
      vertex 244 31.8 1
      vertex 244 10.8 1
    endloop
  endfacet
  facet normal -1 0 0
    outer loop
      vertex 244 31.8 1
      vertex 244 10.8 187.993
      vertex 244 31.8 205
    endloop
  endfacet
  facet normal -1 0 0
    outer loop
      vertex 244 10.8 197.993
      vertex 244 31.8 205
      vertex 244 10.8 187.993
    endloop
  endfacet
  facet normal -1 0 0
    outer loop
      vertex 244 10.8 202.7
      vertex 244 31.8 205
      vertex 244 10.8 197.993
    endloop
  endfacet
  facet normal -1 0 0
    outer loop
      vertex 244 1 205
      vertex 244 10.8 202.7
      vertex 244 3.2 202.7
    endloop
  endfacet
  facet normal -1 0 0
    outer loop
      vertex 244 10.8 202.7
      vertex 244 1 205
      vertex 244 31.8 205
    endloop
  endfacet
  facet normal -1 0 0
    outer loop
      vertex 244 1 205
      vertex 244 3.2 202.7
      vertex 244 1 1
    endloop
  endfacet
  facet normal 0 -1 0
    outer loop
      vertex 1 31.8 1
      vertex 244 31.8 205
      vertex 1 31.8 205
    endloop
  endfacet
  facet normal 0 -1 -0
    outer loop
      vertex 244 31.8 205
      vertex 1 31.8 1
      vertex 244 31.8 1
    endloop
  endfacet
  facet normal 0 1 -0
    outer loop
      vertex 244 1 1
      vertex 1 1 205
      vertex 244 1 205
    endloop
  endfacet
  facet normal 0 1 0
    outer loop
      vertex 1 1 205
      vertex 244 1 1
      vertex 1 1 1
    endloop
  endfacet
  facet normal 1 0 0
    outer loop
      vertex 1 10.8 197.993
      vertex 1 9.8 187.993
      vertex 1 10.8 187.993
    endloop
  endfacet
  facet normal 1 -0 0
    outer loop
      vertex 1 4.2 197.993
      vertex 1 9.8 187.993
      vertex 1 10.8 197.993
    endloop
  endfacet
  facet normal 1 0 0
    outer loop
      vertex 1 4.2 1
      vertex 1 9.8 187.993
      vertex 1 4.2 197.993
    endloop
  endfacet
  facet normal 1 0 0
    outer loop
      vertex 1 9.8 187.993
      vertex 1 4.2 1
      vertex 1 9.8 1
    endloop
  endfacet
  facet normal 1 0 0
    outer loop
      vertex 1 10.8 197.993
      vertex 1 31.8 205
      vertex 1 10.8 202.7
    endloop
  endfacet
  facet normal 1 -0 0
    outer loop
      vertex 1 1 205
      vertex 1 10.8 202.7
      vertex 1 31.8 205
    endloop
  endfacet
  facet normal 1 0 0
    outer loop
      vertex 1 10.8 202.7
      vertex 1 1 205
      vertex 1 3.2 202.7
    endloop
  endfacet
  facet normal 1 0 0
    outer loop
      vertex 1 1 1
      vertex 1 3.2 202.7
      vertex 1 1 205
    endloop
  endfacet
  facet normal 1 0 0
    outer loop
      vertex 1 3.2 202.7
      vertex 1 1 1
      vertex 1 3.2 1
    endloop
  endfacet
  facet normal 1 0 0
    outer loop
      vertex 1 10.8 187.993
      vertex 1 31.8 205
      vertex 1 10.8 197.993
    endloop
  endfacet
  facet normal 1 0 0
    outer loop
      vertex 1 31.8 205
      vertex 1 10.8 187.993
      vertex 1 31.8 1
    endloop
  endfacet
  facet normal 1 0 0
    outer loop
      vertex 1 31.8 1
      vertex 1 10.8 187.993
      vertex 1 10.8 1
    endloop
  endfacet
  facet normal -0 0 1
    outer loop
      vertex 1 9.8 1
      vertex 4 4.2 1
      vertex 4 9.8 1
    endloop
  endfacet
  facet normal 0 0 1
    outer loop
      vertex 4 4.2 1
      vertex 1 9.8 1
      vertex 1 4.2 1
    endloop
  endfacet
  facet normal 0 0 1
    outer loop
      vertex 244 31.8 1
      vertex 241 10.8 1
      vertex 244 10.8 1
    endloop
  endfacet
  facet normal 0 0 1
    outer loop
      vertex 4 9.8 1
      vertex 241 9.8 1
      vertex 241 10.8 1
    endloop
  endfacet
  facet normal 0 0 1
    outer loop
      vertex 241 9.8 1
      vertex 4 9.8 1
      vertex 241 4.2 1
    endloop
  endfacet
  facet normal 0 0 1
    outer loop
      vertex 4 9.8 1
      vertex 241 10.8 1
      vertex 4 10.8 1
    endloop
  endfacet
  facet normal 0 0 1
    outer loop
      vertex 244 31.8 1
      vertex 4 10.8 1
      vertex 241 10.8 1
    endloop
  endfacet
  facet normal -0 0 1
    outer loop
      vertex 1 31.8 1
      vertex 4 10.8 1
      vertex 244 31.8 1
    endloop
  endfacet
  facet normal 0 0 1
    outer loop
      vertex 4 10.8 1
      vertex 1 31.8 1
      vertex 1 10.8 1
    endloop
  endfacet
  facet normal -0 0 1
    outer loop
      vertex 241 9.8 1
      vertex 244 4.2 1
      vertex 244 9.8 1
    endloop
  endfacet
  facet normal 0 0 1
    outer loop
      vertex 244 4.2 1
      vertex 241 9.8 1
      vertex 241 4.2 1
    endloop
  endfacet
  facet normal -0 0 1
    outer loop
      vertex 241 3.2 1
      vertex 244 1 1
      vertex 244 3.2 1
    endloop
  endfacet
  facet normal 0 0 1
    outer loop
      vertex 4 4.2 1
      vertex 241 4.2 1
      vertex 4 9.8 1
    endloop
  endfacet
  facet normal 0 0 1
    outer loop
      vertex 241 4.2 1
      vertex 4 4.2 1
      vertex 241 3.2 1
    endloop
  endfacet
  facet normal 0 0 1
    outer loop
      vertex 4 3.2 1
      vertex 241 3.2 1
      vertex 4 4.2 1
    endloop
  endfacet
  facet normal 0 0 1
    outer loop
      vertex 241 3.2 1
      vertex 4 3.2 1
      vertex 244 1 1
    endloop
  endfacet
  facet normal 0 0 1
    outer loop
      vertex 1 1 1
      vertex 4 3.2 1
      vertex 1 3.2 1
    endloop
  endfacet
  facet normal 0 0 1
    outer loop
      vertex 4 3.2 1
      vertex 1 1 1
      vertex 244 1 1
    endloop
  endfacet
  facet normal -1 0 0
    outer loop
      vertex 244 35 1
      vertex 244 32.8 1
      vertex 244 35 202.7
    endloop
  endfacet
  facet normal -1 0 0
    outer loop
      vertex 244 41.6 1
      vertex 244 36 1
      vertex 244 41.6 187.993
    endloop
  endfacet
  facet normal -1 0 0
    outer loop
      vertex 244 41.6 187.993
      vertex 244 42.6 197.993
      vertex 244 42.6 187.993
    endloop
  endfacet
  facet normal -1 0 0
    outer loop
      vertex 244 41.6 187.993
      vertex 244 36 197.993
      vertex 244 42.6 197.993
    endloop
  endfacet
  facet normal -1 0 0
    outer loop
      vertex 244 36 197.993
      vertex 244 41.6 187.993
      vertex 244 36 1
    endloop
  endfacet
  facet normal -1 0 0
    outer loop
      vertex 244 42.6 187.993
      vertex 244 63.6 1
      vertex 244 42.6 1
    endloop
  endfacet
  facet normal -1 0 0
    outer loop
      vertex 244 63.6 1
      vertex 244 42.6 187.993
      vertex 244 63.6 205
    endloop
  endfacet
  facet normal -1 0 0
    outer loop
      vertex 244 42.6 197.993
      vertex 244 63.6 205
      vertex 244 42.6 187.993
    endloop
  endfacet
  facet normal -1 0 0
    outer loop
      vertex 244 42.6 202.7
      vertex 244 63.6 205
      vertex 244 42.6 197.993
    endloop
  endfacet
  facet normal -1 0 0
    outer loop
      vertex 244 32.8 205
      vertex 244 42.6 202.7
      vertex 244 35 202.7
    endloop
  endfacet
  facet normal -1 0 0
    outer loop
      vertex 244 42.6 202.7
      vertex 244 32.8 205
      vertex 244 63.6 205
    endloop
  endfacet
  facet normal -1 0 0
    outer loop
      vertex 244 32.8 205
      vertex 244 35 202.7
      vertex 244 32.8 1
    endloop
  endfacet
  facet normal 0 -1 0
    outer loop
      vertex 1 63.6 1
      vertex 244 63.6 205
      vertex 1 63.6 205
    endloop
  endfacet
  facet normal 0 -1 -0
    outer loop
      vertex 244 63.6 205
      vertex 1 63.6 1
      vertex 244 63.6 1
    endloop
  endfacet
  facet normal 0 1 -0
    outer loop
      vertex 244 32.8 1
      vertex 1 32.8 205
      vertex 244 32.8 205
    endloop
  endfacet
  facet normal 0 1 0
    outer loop
      vertex 1 32.8 205
      vertex 244 32.8 1
      vertex 1 32.8 1
    endloop
  endfacet
  facet normal 1 0 0
    outer loop
      vertex 1 42.6 197.993
      vertex 1 41.6 187.993
      vertex 1 42.6 187.993
    endloop
  endfacet
  facet normal 1 -0 0
    outer loop
      vertex 1 36 197.993
      vertex 1 41.6 187.993
      vertex 1 42.6 197.993
    endloop
  endfacet
  facet normal 1 0 0
    outer loop
      vertex 1 36 1
      vertex 1 41.6 187.993
      vertex 1 36 197.993
    endloop
  endfacet
  facet normal 1 0 0
    outer loop
      vertex 1 41.6 187.993
      vertex 1 36 1
      vertex 1 41.6 1
    endloop
  endfacet
  facet normal 1 0 0
    outer loop
      vertex 1 42.6 197.993
      vertex 1 63.6 205
      vertex 1 42.6 202.7
    endloop
  endfacet
  facet normal 1 -0 0
    outer loop
      vertex 1 32.8 205
      vertex 1 42.6 202.7
      vertex 1 63.6 205
    endloop
  endfacet
  facet normal 1 0 0
    outer loop
      vertex 1 42.6 202.7
      vertex 1 32.8 205
      vertex 1 35 202.7
    endloop
  endfacet
  facet normal 1 0 0
    outer loop
      vertex 1 32.8 1
      vertex 1 35 202.7
      vertex 1 32.8 205
    endloop
  endfacet
  facet normal 1 0 0
    outer loop
      vertex 1 35 202.7
      vertex 1 32.8 1
      vertex 1 35 1
    endloop
  endfacet
  facet normal 1 0 0
    outer loop
      vertex 1 42.6 187.993
      vertex 1 63.6 205
      vertex 1 42.6 197.993
    endloop
  endfacet
  facet normal 1 0 0
    outer loop
      vertex 1 63.6 205
      vertex 1 42.6 187.993
      vertex 1 63.6 1
    endloop
  endfacet
  facet normal 1 0 0
    outer loop
      vertex 1 63.6 1
      vertex 1 42.6 187.993
      vertex 1 42.6 1
    endloop
  endfacet
  facet normal -0 0 1
    outer loop
      vertex 1 41.6 1
      vertex 4 36 1
      vertex 4 41.6 1
    endloop
  endfacet
  facet normal 0 0 1
    outer loop
      vertex 4 36 1
      vertex 1 41.6 1
      vertex 1 36 1
    endloop
  endfacet
  facet normal 0 0 1
    outer loop
      vertex 244 63.6 1
      vertex 241 42.6 1
      vertex 244 42.6 1
    endloop
  endfacet
  facet normal 0 0 1
    outer loop
      vertex 4 41.6 1
      vertex 241 41.6 1
      vertex 241 42.6 1
    endloop
  endfacet
  facet normal 0 0 1
    outer loop
      vertex 241 41.6 1
      vertex 4 41.6 1
      vertex 241 36 1
    endloop
  endfacet
  facet normal 0 0 1
    outer loop
      vertex 4 41.6 1
      vertex 241 42.6 1
      vertex 4 42.6 1
    endloop
  endfacet
  facet normal 0 0 1
    outer loop
      vertex 244 63.6 1
      vertex 4 42.6 1
      vertex 241 42.6 1
    endloop
  endfacet
  facet normal -0 0 1
    outer loop
      vertex 1 63.6 1
      vertex 4 42.6 1
      vertex 244 63.6 1
    endloop
  endfacet
  facet normal 0 0 1
    outer loop
      vertex 4 42.6 1
      vertex 1 63.6 1
      vertex 1 42.6 1
    endloop
  endfacet
  facet normal -0 0 1
    outer loop
      vertex 241 41.6 1
      vertex 244 36 1
      vertex 244 41.6 1
    endloop
  endfacet
  facet normal 0 0 1
    outer loop
      vertex 244 36 1
      vertex 241 41.6 1
      vertex 241 36 1
    endloop
  endfacet
  facet normal -0 0 1
    outer loop
      vertex 241 35 1
      vertex 244 32.8 1
      vertex 244 35 1
    endloop
  endfacet
  facet normal 0 0 1
    outer loop
      vertex 4 36 1
      vertex 241 36 1
      vertex 4 41.6 1
    endloop
  endfacet
  facet normal 0 0 1
    outer loop
      vertex 241 36 1
      vertex 4 36 1
      vertex 241 35 1
    endloop
  endfacet
  facet normal 0 0 1
    outer loop
      vertex 4 35 1
      vertex 241 35 1
      vertex 4 36 1
    endloop
  endfacet
  facet normal 0 0 1
    outer loop
      vertex 241 35 1
      vertex 4 35 1
      vertex 244 32.8 1
    endloop
  endfacet
  facet normal 0 0 1
    outer loop
      vertex 1 32.8 1
      vertex 4 35 1
      vertex 1 35 1
    endloop
  endfacet
  facet normal 0 0 1
    outer loop
      vertex 4 35 1
      vertex 1 32.8 1
      vertex 244 32.8 1
    endloop
  endfacet
  facet normal -1 0 0
    outer loop
      vertex 244 66.8 1
      vertex 244 64.6 1
      vertex 244 66.8 202.7
    endloop
  endfacet
  facet normal -1 0 0
    outer loop
      vertex 244 73.4 1
      vertex 244 67.8 1
      vertex 244 73.4 187.993
    endloop
  endfacet
  facet normal -1 0 0
    outer loop
      vertex 244 73.4 187.993
      vertex 244 74.4 197.993
      vertex 244 74.4 187.993
    endloop
  endfacet
  facet normal -1 0 0
    outer loop
      vertex 244 73.4 187.993
      vertex 244 67.8 197.993
      vertex 244 74.4 197.993
    endloop
  endfacet
  facet normal -1 0 0
    outer loop
      vertex 244 67.8 197.993
      vertex 244 73.4 187.993
      vertex 244 67.8 1
    endloop
  endfacet
  facet normal -1 0 0
    outer loop
      vertex 244 74.4 187.993
      vertex 244 95.4 1
      vertex 244 74.4 1
    endloop
  endfacet
  facet normal -1 0 0
    outer loop
      vertex 244 95.4 1
      vertex 244 74.4 187.993
      vertex 244 95.4 205
    endloop
  endfacet
  facet normal -1 0 0
    outer loop
      vertex 244 74.4 197.993
      vertex 244 95.4 205
      vertex 244 74.4 187.993
    endloop
  endfacet
  facet normal -1 0 0
    outer loop
      vertex 244 74.4 202.7
      vertex 244 95.4 205
      vertex 244 74.4 197.993
    endloop
  endfacet
  facet normal -1 0 0
    outer loop
      vertex 244 64.6 205
      vertex 244 74.4 202.7
      vertex 244 66.8 202.7
    endloop
  endfacet
  facet normal -1 0 0
    outer loop
      vertex 244 74.4 202.7
      vertex 244 64.6 205
      vertex 244 95.4 205
    endloop
  endfacet
  facet normal -1 0 0
    outer loop
      vertex 244 64.6 205
      vertex 244 66.8 202.7
      vertex 244 64.6 1
    endloop
  endfacet
  facet normal 0 -1 0
    outer loop
      vertex 1 95.4 1
      vertex 244 95.4 205
      vertex 1 95.4 205
    endloop
  endfacet
  facet normal 0 -1 -0
    outer loop
      vertex 244 95.4 205
      vertex 1 95.4 1
      vertex 244 95.4 1
    endloop
  endfacet
  facet normal 0 1 -0
    outer loop
      vertex 244 64.6 1
      vertex 1 64.6 205
      vertex 244 64.6 205
    endloop
  endfacet
  facet normal 0 1 0
    outer loop
      vertex 1 64.6 205
      vertex 244 64.6 1
      vertex 1 64.6 1
    endloop
  endfacet
  facet normal 1 0 0
    outer loop
      vertex 1 74.4 197.993
      vertex 1 73.4 187.993
      vertex 1 74.4 187.993
    endloop
  endfacet
  facet normal 1 -0 0
    outer loop
      vertex 1 67.8 197.993
      vertex 1 73.4 187.993
      vertex 1 74.4 197.993
    endloop
  endfacet
  facet normal 1 0 0
    outer loop
      vertex 1 67.8 1
      vertex 1 73.4 187.993
      vertex 1 67.8 197.993
    endloop
  endfacet
  facet normal 1 0 0
    outer loop
      vertex 1 73.4 187.993
      vertex 1 67.8 1
      vertex 1 73.4 1
    endloop
  endfacet
  facet normal 1 0 0
    outer loop
      vertex 1 74.4 197.993
      vertex 1 95.4 205
      vertex 1 74.4 202.7
    endloop
  endfacet
  facet normal 1 -0 0
    outer loop
      vertex 1 64.6 205
      vertex 1 74.4 202.7
      vertex 1 95.4 205
    endloop
  endfacet
  facet normal 1 0 0
    outer loop
      vertex 1 74.4 202.7
      vertex 1 64.6 205
      vertex 1 66.8 202.7
    endloop
  endfacet
  facet normal 1 0 0
    outer loop
      vertex 1 64.6 1
      vertex 1 66.8 202.7
      vertex 1 64.6 205
    endloop
  endfacet
  facet normal 1 0 0
    outer loop
      vertex 1 66.8 202.7
      vertex 1 64.6 1
      vertex 1 66.8 1
    endloop
  endfacet
  facet normal 1 0 0
    outer loop
      vertex 1 74.4 187.993
      vertex 1 95.4 205
      vertex 1 74.4 197.993
    endloop
  endfacet
  facet normal 1 0 0
    outer loop
      vertex 1 95.4 205
      vertex 1 74.4 187.993
      vertex 1 95.4 1
    endloop
  endfacet
  facet normal 1 0 0
    outer loop
      vertex 1 95.4 1
      vertex 1 74.4 187.993
      vertex 1 74.4 1
    endloop
  endfacet
  facet normal -0 0 1
    outer loop
      vertex 1 73.4 1
      vertex 4 67.8 1
      vertex 4 73.4 1
    endloop
  endfacet
  facet normal 0 0 1
    outer loop
      vertex 4 67.8 1
      vertex 1 73.4 1
      vertex 1 67.8 1
    endloop
  endfacet
  facet normal 0 0 1
    outer loop
      vertex 244 95.4 1
      vertex 241 74.4 1
      vertex 244 74.4 1
    endloop
  endfacet
  facet normal 0 0 1
    outer loop
      vertex 4 73.4 1
      vertex 241 73.4 1
      vertex 241 74.4 1
    endloop
  endfacet
  facet normal 0 0 1
    outer loop
      vertex 241 73.4 1
      vertex 4 73.4 1
      vertex 241 67.8 1
    endloop
  endfacet
  facet normal 0 0 1
    outer loop
      vertex 4 73.4 1
      vertex 241 74.4 1
      vertex 4 74.4 1
    endloop
  endfacet
  facet normal 0 0 1
    outer loop
      vertex 244 95.4 1
      vertex 4 74.4 1
      vertex 241 74.4 1
    endloop
  endfacet
  facet normal -0 0 1
    outer loop
      vertex 1 95.4 1
      vertex 4 74.4 1
      vertex 244 95.4 1
    endloop
  endfacet
  facet normal 0 0 1
    outer loop
      vertex 4 74.4 1
      vertex 1 95.4 1
      vertex 1 74.4 1
    endloop
  endfacet
  facet normal -0 0 1
    outer loop
      vertex 241 73.4 1
      vertex 244 67.8 1
      vertex 244 73.4 1
    endloop
  endfacet
  facet normal 0 0 1
    outer loop
      vertex 244 67.8 1
      vertex 241 73.4 1
      vertex 241 67.8 1
    endloop
  endfacet
  facet normal -0 0 1
    outer loop
      vertex 241 66.8 1
      vertex 244 64.6 1
      vertex 244 66.8 1
    endloop
  endfacet
  facet normal 0 0 1
    outer loop
      vertex 4 67.8 1
      vertex 241 67.8 1
      vertex 4 73.4 1
    endloop
  endfacet
  facet normal 0 0 1
    outer loop
      vertex 241 67.8 1
      vertex 4 67.8 1
      vertex 241 66.8 1
    endloop
  endfacet
  facet normal 0 0 1
    outer loop
      vertex 4 66.8 1
      vertex 241 66.8 1
      vertex 4 67.8 1
    endloop
  endfacet
  facet normal 0 0 1
    outer loop
      vertex 241 66.8 1
      vertex 4 66.8 1
      vertex 244 64.6 1
    endloop
  endfacet
  facet normal 0 0 1
    outer loop
      vertex 1 64.6 1
      vertex 4 66.8 1
      vertex 1 66.8 1
    endloop
  endfacet
  facet normal 0 0 1
    outer loop
      vertex 4 66.8 1
      vertex 1 64.6 1
      vertex 244 64.6 1
    endloop
  endfacet
  facet normal -1 0 0
    outer loop
      vertex 244 98.6 1
      vertex 244 96.4 1
      vertex 244 98.6 202.7
    endloop
  endfacet
  facet normal -1 0 0
    outer loop
      vertex 244 105.2 1
      vertex 244 99.6 1
      vertex 244 105.2 187.993
    endloop
  endfacet
  facet normal -1 0 0
    outer loop
      vertex 244 105.2 187.993
      vertex 244 106.2 197.993
      vertex 244 106.2 187.993
    endloop
  endfacet
  facet normal -1 0 0
    outer loop
      vertex 244 105.2 187.993
      vertex 244 99.6 197.993
      vertex 244 106.2 197.993
    endloop
  endfacet
  facet normal -1 0 0
    outer loop
      vertex 244 99.6 197.993
      vertex 244 105.2 187.993
      vertex 244 99.6 1
    endloop
  endfacet
  facet normal -1 0 0
    outer loop
      vertex 244 106.2 187.993
      vertex 244 127.2 1
      vertex 244 106.2 1
    endloop
  endfacet
  facet normal -1 0 0
    outer loop
      vertex 244 127.2 1
      vertex 244 106.2 187.993
      vertex 244 127.2 205
    endloop
  endfacet
  facet normal -1 0 0
    outer loop
      vertex 244 106.2 197.993
      vertex 244 127.2 205
      vertex 244 106.2 187.993
    endloop
  endfacet
  facet normal -1 0 0
    outer loop
      vertex 244 106.2 202.7
      vertex 244 127.2 205
      vertex 244 106.2 197.993
    endloop
  endfacet
  facet normal -1 0 0
    outer loop
      vertex 244 96.4 205
      vertex 244 106.2 202.7
      vertex 244 98.6 202.7
    endloop
  endfacet
  facet normal -1 0 0
    outer loop
      vertex 244 106.2 202.7
      vertex 244 96.4 205
      vertex 244 127.2 205
    endloop
  endfacet
  facet normal -1 0 0
    outer loop
      vertex 244 96.4 205
      vertex 244 98.6 202.7
      vertex 244 96.4 1
    endloop
  endfacet
  facet normal 0 -1 0
    outer loop
      vertex 1 127.2 1
      vertex 244 127.2 205
      vertex 1 127.2 205
    endloop
  endfacet
  facet normal 0 -1 -0
    outer loop
      vertex 244 127.2 205
      vertex 1 127.2 1
      vertex 244 127.2 1
    endloop
  endfacet
  facet normal 0 1 -0
    outer loop
      vertex 244 96.4 1
      vertex 1 96.4 205
      vertex 244 96.4 205
    endloop
  endfacet
  facet normal 0 1 0
    outer loop
      vertex 1 96.4 205
      vertex 244 96.4 1
      vertex 1 96.4 1
    endloop
  endfacet
  facet normal 1 0 0
    outer loop
      vertex 1 106.2 197.993
      vertex 1 105.2 187.993
      vertex 1 106.2 187.993
    endloop
  endfacet
  facet normal 1 -0 0
    outer loop
      vertex 1 99.6 197.993
      vertex 1 105.2 187.993
      vertex 1 106.2 197.993
    endloop
  endfacet
  facet normal 1 0 0
    outer loop
      vertex 1 99.6 1
      vertex 1 105.2 187.993
      vertex 1 99.6 197.993
    endloop
  endfacet
  facet normal 1 0 0
    outer loop
      vertex 1 105.2 187.993
      vertex 1 99.6 1
      vertex 1 105.2 1
    endloop
  endfacet
  facet normal 1 0 0
    outer loop
      vertex 1 106.2 197.993
      vertex 1 127.2 205
      vertex 1 106.2 202.7
    endloop
  endfacet
  facet normal 1 -0 0
    outer loop
      vertex 1 96.4 205
      vertex 1 106.2 202.7
      vertex 1 127.2 205
    endloop
  endfacet
  facet normal 1 0 0
    outer loop
      vertex 1 106.2 202.7
      vertex 1 96.4 205
      vertex 1 98.6 202.7
    endloop
  endfacet
  facet normal 1 0 0
    outer loop
      vertex 1 96.4 1
      vertex 1 98.6 202.7
      vertex 1 96.4 205
    endloop
  endfacet
  facet normal 1 0 0
    outer loop
      vertex 1 98.6 202.7
      vertex 1 96.4 1
      vertex 1 98.6 1
    endloop
  endfacet
  facet normal 1 0 0
    outer loop
      vertex 1 106.2 187.993
      vertex 1 127.2 205
      vertex 1 106.2 197.993
    endloop
  endfacet
  facet normal 1 0 0
    outer loop
      vertex 1 127.2 205
      vertex 1 106.2 187.993
      vertex 1 127.2 1
    endloop
  endfacet
  facet normal 1 0 0
    outer loop
      vertex 1 127.2 1
      vertex 1 106.2 187.993
      vertex 1 106.2 1
    endloop
  endfacet
  facet normal -0 0 1
    outer loop
      vertex 1 105.2 1
      vertex 4 99.6 1
      vertex 4 105.2 1
    endloop
  endfacet
  facet normal 0 0 1
    outer loop
      vertex 4 99.6 1
      vertex 1 105.2 1
      vertex 1 99.6 1
    endloop
  endfacet
  facet normal 0 0 1
    outer loop
      vertex 244 127.2 1
      vertex 241 106.2 1
      vertex 244 106.2 1
    endloop
  endfacet
  facet normal 0 0 1
    outer loop
      vertex 4 105.2 1
      vertex 241 105.2 1
      vertex 241 106.2 1
    endloop
  endfacet
  facet normal 0 0 1
    outer loop
      vertex 241 105.2 1
      vertex 4 105.2 1
      vertex 241 99.6 1
    endloop
  endfacet
  facet normal 0 0 1
    outer loop
      vertex 4 105.2 1
      vertex 241 106.2 1
      vertex 4 106.2 1
    endloop
  endfacet
  facet normal 0 0 1
    outer loop
      vertex 244 127.2 1
      vertex 4 106.2 1
      vertex 241 106.2 1
    endloop
  endfacet
  facet normal -0 0 1
    outer loop
      vertex 1 127.2 1
      vertex 4 106.2 1
      vertex 244 127.2 1
    endloop
  endfacet
  facet normal 0 0 1
    outer loop
      vertex 4 106.2 1
      vertex 1 127.2 1
      vertex 1 106.2 1
    endloop
  endfacet
  facet normal -0 0 1
    outer loop
      vertex 241 105.2 1
      vertex 244 99.6 1
      vertex 244 105.2 1
    endloop
  endfacet
  facet normal 0 0 1
    outer loop
      vertex 244 99.6 1
      vertex 241 105.2 1
      vertex 241 99.6 1
    endloop
  endfacet
  facet normal -0 0 1
    outer loop
      vertex 241 98.6 1
      vertex 244 96.4 1
      vertex 244 98.6 1
    endloop
  endfacet
  facet normal 0 0 1
    outer loop
      vertex 4 99.6 1
      vertex 241 99.6 1
      vertex 4 105.2 1
    endloop
  endfacet
  facet normal 0 0 1
    outer loop
      vertex 241 99.6 1
      vertex 4 99.6 1
      vertex 241 98.6 1
    endloop
  endfacet
  facet normal 0 0 1
    outer loop
      vertex 4 98.6 1
      vertex 241 98.6 1
      vertex 4 99.6 1
    endloop
  endfacet
  facet normal 0 0 1
    outer loop
      vertex 241 98.6 1
      vertex 4 98.6 1
      vertex 244 96.4 1
    endloop
  endfacet
  facet normal 0 0 1
    outer loop
      vertex 1 96.4 1
      vertex 4 98.6 1
      vertex 1 98.6 1
    endloop
  endfacet
  facet normal 0 0 1
    outer loop
      vertex 4 98.6 1
      vertex 1 96.4 1
      vertex 244 96.4 1
    endloop
  endfacet
  facet normal -1 0 0
    outer loop
      vertex 244 130.4 1
      vertex 244 128.2 1
      vertex 244 130.4 202.7
    endloop
  endfacet
  facet normal -1 0 0
    outer loop
      vertex 244 137 1
      vertex 244 131.4 1
      vertex 244 137 187.993
    endloop
  endfacet
  facet normal -1 0 0
    outer loop
      vertex 244 137 187.993
      vertex 244 138 197.993
      vertex 244 138 187.993
    endloop
  endfacet
  facet normal -1 0 0
    outer loop
      vertex 244 137 187.993
      vertex 244 131.4 197.993
      vertex 244 138 197.993
    endloop
  endfacet
  facet normal -1 0 0
    outer loop
      vertex 244 131.4 197.993
      vertex 244 137 187.993
      vertex 244 131.4 1
    endloop
  endfacet
  facet normal -1 0 0
    outer loop
      vertex 244 138 187.993
      vertex 244 159 1
      vertex 244 138 1
    endloop
  endfacet
  facet normal -1 0 0
    outer loop
      vertex 244 159 1
      vertex 244 138 187.993
      vertex 244 159 205
    endloop
  endfacet
  facet normal -1 0 0
    outer loop
      vertex 244 138 197.993
      vertex 244 159 205
      vertex 244 138 187.993
    endloop
  endfacet
  facet normal -1 0 0
    outer loop
      vertex 244 138 202.7
      vertex 244 159 205
      vertex 244 138 197.993
    endloop
  endfacet
  facet normal -1 0 0
    outer loop
      vertex 244 128.2 205
      vertex 244 138 202.7
      vertex 244 130.4 202.7
    endloop
  endfacet
  facet normal -1 0 0
    outer loop
      vertex 244 138 202.7
      vertex 244 128.2 205
      vertex 244 159 205
    endloop
  endfacet
  facet normal -1 0 0
    outer loop
      vertex 244 128.2 205
      vertex 244 130.4 202.7
      vertex 244 128.2 1
    endloop
  endfacet
  facet normal 0 -1 0
    outer loop
      vertex 1 159 1
      vertex 244 159 205
      vertex 1 159 205
    endloop
  endfacet
  facet normal 0 -1 -0
    outer loop
      vertex 244 159 205
      vertex 1 159 1
      vertex 244 159 1
    endloop
  endfacet
  facet normal 0 1 -0
    outer loop
      vertex 244 128.2 1
      vertex 1 128.2 205
      vertex 244 128.2 205
    endloop
  endfacet
  facet normal 0 1 0
    outer loop
      vertex 1 128.2 205
      vertex 244 128.2 1
      vertex 1 128.2 1
    endloop
  endfacet
  facet normal 1 0 0
    outer loop
      vertex 1 138 197.993
      vertex 1 137 187.993
      vertex 1 138 187.993
    endloop
  endfacet
  facet normal 1 -0 0
    outer loop
      vertex 1 131.4 197.993
      vertex 1 137 187.993
      vertex 1 138 197.993
    endloop
  endfacet
  facet normal 1 0 0
    outer loop
      vertex 1 131.4 1
      vertex 1 137 187.993
      vertex 1 131.4 197.993
    endloop
  endfacet
  facet normal 1 0 0
    outer loop
      vertex 1 137 187.993
      vertex 1 131.4 1
      vertex 1 137 1
    endloop
  endfacet
  facet normal 1 0 0
    outer loop
      vertex 1 138 197.993
      vertex 1 159 205
      vertex 1 138 202.7
    endloop
  endfacet
  facet normal 1 -0 0
    outer loop
      vertex 1 128.2 205
      vertex 1 138 202.7
      vertex 1 159 205
    endloop
  endfacet
  facet normal 1 0 0
    outer loop
      vertex 1 138 202.7
      vertex 1 128.2 205
      vertex 1 130.4 202.7
    endloop
  endfacet
  facet normal 1 0 0
    outer loop
      vertex 1 128.2 1
      vertex 1 130.4 202.7
      vertex 1 128.2 205
    endloop
  endfacet
  facet normal 1 0 0
    outer loop
      vertex 1 130.4 202.7
      vertex 1 128.2 1
      vertex 1 130.4 1
    endloop
  endfacet
  facet normal 1 0 0
    outer loop
      vertex 1 138 187.993
      vertex 1 159 205
      vertex 1 138 197.993
    endloop
  endfacet
  facet normal 1 0 0
    outer loop
      vertex 1 159 205
      vertex 1 138 187.993
      vertex 1 159 1
    endloop
  endfacet
  facet normal 1 0 0
    outer loop
      vertex 1 159 1
      vertex 1 138 187.993
      vertex 1 138 1
    endloop
  endfacet
  facet normal -0 0 1
    outer loop
      vertex 1 137 1
      vertex 4 131.4 1
      vertex 4 137 1
    endloop
  endfacet
  facet normal 0 0 1
    outer loop
      vertex 4 131.4 1
      vertex 1 137 1
      vertex 1 131.4 1
    endloop
  endfacet
  facet normal 0 0 1
    outer loop
      vertex 244 159 1
      vertex 241 138 1
      vertex 244 138 1
    endloop
  endfacet
  facet normal 0 0 1
    outer loop
      vertex 4 137 1
      vertex 241 137 1
      vertex 241 138 1
    endloop
  endfacet
  facet normal 0 0 1
    outer loop
      vertex 241 137 1
      vertex 4 137 1
      vertex 241 131.4 1
    endloop
  endfacet
  facet normal 0 0 1
    outer loop
      vertex 4 137 1
      vertex 241 138 1
      vertex 4 138 1
    endloop
  endfacet
  facet normal 0 0 1
    outer loop
      vertex 244 159 1
      vertex 4 138 1
      vertex 241 138 1
    endloop
  endfacet
  facet normal -0 0 1
    outer loop
      vertex 1 159 1
      vertex 4 138 1
      vertex 244 159 1
    endloop
  endfacet
  facet normal 0 0 1
    outer loop
      vertex 4 138 1
      vertex 1 159 1
      vertex 1 138 1
    endloop
  endfacet
  facet normal -0 0 1
    outer loop
      vertex 241 137 1
      vertex 244 131.4 1
      vertex 244 137 1
    endloop
  endfacet
  facet normal 0 0 1
    outer loop
      vertex 244 131.4 1
      vertex 241 137 1
      vertex 241 131.4 1
    endloop
  endfacet
  facet normal -0 0 1
    outer loop
      vertex 241 130.4 1
      vertex 244 128.2 1
      vertex 244 130.4 1
    endloop
  endfacet
  facet normal 0 0 1
    outer loop
      vertex 4 131.4 1
      vertex 241 131.4 1
      vertex 4 137 1
    endloop
  endfacet
  facet normal 0 0 1
    outer loop
      vertex 241 131.4 1
      vertex 4 131.4 1
      vertex 241 130.4 1
    endloop
  endfacet
  facet normal 0 0 1
    outer loop
      vertex 4 130.4 1
      vertex 241 130.4 1
      vertex 4 131.4 1
    endloop
  endfacet
  facet normal 0 0 1
    outer loop
      vertex 241 130.4 1
      vertex 4 130.4 1
      vertex 244 128.2 1
    endloop
  endfacet
  facet normal 0 0 1
    outer loop
      vertex 1 128.2 1
      vertex 4 130.4 1
      vertex 1 130.4 1
    endloop
  endfacet
  facet normal 0 0 1
    outer loop
      vertex 4 130.4 1
      vertex 1 128.2 1
      vertex 244 128.2 1
    endloop
  endfacet
  facet normal 1 -0 0
    outer loop
      vertex 245 0 205
      vertex 245 160 0
      vertex 245 160 205
    endloop
  endfacet
  facet normal 1 0 0
    outer loop
      vertex 245 160 0
      vertex 245 0 205
      vertex 245 0 0
    endloop
  endfacet
  facet normal 0 1 -0
    outer loop
      vertex 245 160 0
      vertex 0 160 205
      vertex 245 160 205
    endloop
  endfacet
  facet normal 0 1 0
    outer loop
      vertex 0 160 205
      vertex 245 160 0
      vertex 0 160 0
    endloop
  endfacet
  facet normal 0 -1 0
    outer loop
      vertex 0 0 0
      vertex 245 0 205
      vertex 0 0 205
    endloop
  endfacet
  facet normal 0 -1 -0
    outer loop
      vertex 245 0 205
      vertex 0 0 0
      vertex 245 0 0
    endloop
  endfacet
  facet normal -1 0 0
    outer loop
      vertex 0 0 0
      vertex 0 160 205
      vertex 0 160 0
    endloop
  endfacet
  facet normal -1 -0 0
    outer loop
      vertex 0 160 205
      vertex 0 0 0
      vertex 0 0 205
    endloop
  endfacet
  facet normal 0 0 -1
    outer loop
      vertex 0 0 0
      vertex 245 160 0
      vertex 245 0 0
    endloop
  endfacet
  facet normal -0 0 -1
    outer loop
      vertex 245 160 0
      vertex 0 0 0
      vertex 0 160 0
    endloop
  endfacet
  facet normal -0 0 1
    outer loop
      vertex 1 32.8 205
      vertex 244 31.8 205
      vertex 244 32.8 205
    endloop
  endfacet
  facet normal 0 0 1
    outer loop
      vertex 244 31.8 205
      vertex 1 32.8 205
      vertex 1 31.8 205
    endloop
  endfacet
  facet normal -0 0 1
    outer loop
      vertex 1 64.6 205
      vertex 244 63.6 205
      vertex 244 64.6 205
    endloop
  endfacet
  facet normal 0 0 1
    outer loop
      vertex 244 63.6 205
      vertex 1 64.6 205
      vertex 1 63.6 205
    endloop
  endfacet
  facet normal -0 0 1
    outer loop
      vertex 1 96.4 205
      vertex 244 95.4 205
      vertex 244 96.4 205
    endloop
  endfacet
  facet normal 0 0 1
    outer loop
      vertex 244 95.4 205
      vertex 1 96.4 205
      vertex 1 95.4 205
    endloop
  endfacet
  facet normal -0 0 1
    outer loop
      vertex 1 128.2 205
      vertex 244 127.2 205
      vertex 244 128.2 205
    endloop
  endfacet
  facet normal 0 0 1
    outer loop
      vertex 244 127.2 205
      vertex 1 128.2 205
      vertex 1 127.2 205
    endloop
  endfacet
  facet normal 0 0 1
    outer loop
      vertex 244 128.2 205
      vertex 245 160 205
      vertex 244 159 205
    endloop
  endfacet
  facet normal 0 0 1
    outer loop
      vertex 245 160 205
      vertex 1 159 205
      vertex 244 159 205
    endloop
  endfacet
  facet normal 0 0 1
    outer loop
      vertex 0 160 205
      vertex 1 128.2 205
      vertex 1 159 205
    endloop
  endfacet
  facet normal 0 0 1
    outer loop
      vertex 1 128.2 205
      vertex 0 160 205
      vertex 1 127.2 205
    endloop
  endfacet
  facet normal 0 0 1
    outer loop
      vertex 1 127.2 205
      vertex 0 160 205
      vertex 1 96.4 205
    endloop
  endfacet
  facet normal 0 0 1
    outer loop
      vertex 1 96.4 205
      vertex 0 160 205
      vertex 1 95.4 205
    endloop
  endfacet
  facet normal 0 0 1
    outer loop
      vertex 1 95.4 205
      vertex 0 160 205
      vertex 1 64.6 205
    endloop
  endfacet
  facet normal 0 0 1
    outer loop
      vertex 1 64.6 205
      vertex 0 160 205
      vertex 1 63.6 205
    endloop
  endfacet
  facet normal 0 0 1
    outer loop
      vertex 0 0 205
      vertex 1 63.6 205
      vertex 0 160 205
    endloop
  endfacet
  facet normal 0 0 1
    outer loop
      vertex 1 63.6 205
      vertex 0 0 205
      vertex 1 32.8 205
    endloop
  endfacet
  facet normal 0 0 1
    outer loop
      vertex 1 32.8 205
      vertex 0 0 205
      vertex 1 31.8 205
    endloop
  endfacet
  facet normal -0 0 1
    outer loop
      vertex 0 160 205
      vertex 1 159 205
      vertex 245 160 205
    endloop
  endfacet
  facet normal 0 0 1
    outer loop
      vertex 244 127.2 205
      vertex 245 160 205
      vertex 244 128.2 205
    endloop
  endfacet
  facet normal 0 0 1
    outer loop
      vertex 244 96.4 205
      vertex 245 160 205
      vertex 244 127.2 205
    endloop
  endfacet
  facet normal 0 0 1
    outer loop
      vertex 245 160 205
      vertex 244 96.4 205
      vertex 245 0 205
    endloop
  endfacet
  facet normal -0 0 1
    outer loop
      vertex 244 95.4 205
      vertex 245 0 205
      vertex 244 96.4 205
    endloop
  endfacet
  facet normal -0 0 1
    outer loop
      vertex 244 64.6 205
      vertex 245 0 205
      vertex 244 95.4 205
    endloop
  endfacet
  facet normal -0 0 1
    outer loop
      vertex 244 63.6 205
      vertex 245 0 205
      vertex 244 64.6 205
    endloop
  endfacet
  facet normal -0 0 1
    outer loop
      vertex 244 32.8 205
      vertex 245 0 205
      vertex 244 63.6 205
    endloop
  endfacet
  facet normal -0 0 1
    outer loop
      vertex 244 31.8 205
      vertex 245 0 205
      vertex 244 32.8 205
    endloop
  endfacet
  facet normal -0 0 1
    outer loop
      vertex 244 1 205
      vertex 245 0 205
      vertex 244 31.8 205
    endloop
  endfacet
  facet normal -0 0 1
    outer loop
      vertex 1 1 205
      vertex 245 0 205
      vertex 244 1 205
    endloop
  endfacet
  facet normal 0 0 1
    outer loop
      vertex 1 1 205
      vertex 0 0 205
      vertex 245 0 205
    endloop
  endfacet
  facet normal 0 0 1
    outer loop
      vertex 1 31.8 205
      vertex 0 0 205
      vertex 1 1 205
    endloop
  endfacet
  facet normal 0 1 -0
    outer loop
      vertex 244 10.8 1
      vertex 241 10.8 187.993
      vertex 244 10.8 187.993
    endloop
  endfacet
  facet normal 0 1 0
    outer loop
      vertex 241 10.8 187.993
      vertex 244 10.8 1
      vertex 241 10.8 1
    endloop
  endfacet
  facet normal 0 1 0
    outer loop
      vertex 244 10.8 202.7
      vertex 241 10.8 200.993
      vertex 241 10.8 202.7
    endloop
  endfacet
  facet normal -0 1 0
    outer loop
      vertex 241 10.8 200.993
      vertex 244 10.8 202.7
      vertex 244 10.8 197.993
    endloop
  endfacet
  facet normal 0 -1 0
    outer loop
      vertex 241 3.2 1
      vertex 244 3.2 202.7
      vertex 241 3.2 202.7
    endloop
  endfacet
  facet normal 0 -1 -0
    outer loop
      vertex 244 3.2 202.7
      vertex 241 3.2 1
      vertex 244 3.2 1
    endloop
  endfacet
  facet normal -1 0 0
    outer loop
      vertex 241 9.8 1
      vertex 241 10.8 187.993
      vertex 241 10.8 1
    endloop
  endfacet
  facet normal -1 -0 0
    outer loop
      vertex 241 10.8 187.993
      vertex 241 9.8 1
      vertex 241 9.8 187.993
    endloop
  endfacet
  facet normal -1 0 0
    outer loop
      vertex 241 4.2 1
      vertex 241 3.2 1
      vertex 241 4.2 200.993
    endloop
  endfacet
  facet normal -1 0 0
    outer loop
      vertex 241 4.2 200.993
      vertex 241 10.8 202.7
      vertex 241 10.8 200.993
    endloop
  endfacet
  facet normal -1 0 0
    outer loop
      vertex 241 4.2 200.993
      vertex 241 3.2 202.7
      vertex 241 10.8 202.7
    endloop
  endfacet
  facet normal -1 0 0
    outer loop
      vertex 241 3.2 202.7
      vertex 241 4.2 200.993
      vertex 241 3.2 1
    endloop
  endfacet
  facet normal -0 0 1
    outer loop
      vertex 241 10.8 202.7
      vertex 244 3.2 202.7
      vertex 244 10.8 202.7
    endloop
  endfacet
  facet normal 0 0 1
    outer loop
      vertex 244 3.2 202.7
      vertex 241 10.8 202.7
      vertex 241 3.2 202.7
    endloop
  endfacet
  facet normal 0 1 0
    outer loop
      vertex 241 4.2 1
      vertex 244 4.2 197.993
      vertex 244 4.2 1
    endloop
  endfacet
  facet normal 0 1 0
    outer loop
      vertex 244 4.2 197.993
      vertex 241 4.2 1
      vertex 241 4.2 200.993
    endloop
  endfacet
  facet normal 0 -1 0
    outer loop
      vertex 241 9.8 1
      vertex 244 9.8 187.993
      vertex 241 9.8 187.993
    endloop
  endfacet
  facet normal 0 -1 -0
    outer loop
      vertex 244 9.8 187.993
      vertex 241 9.8 1
      vertex 244 9.8 1
    endloop
  endfacet
  facet normal -0.707107 0 -0.707107
    outer loop
      vertex 244 4.2 197.993
      vertex 241 10.8 200.993
      vertex 244 10.8 197.993
    endloop
  endfacet
  facet normal -0.707107 -0 -0.707107
    outer loop
      vertex 241 10.8 200.993
      vertex 244 4.2 197.993
      vertex 241 4.2 200.993
    endloop
  endfacet
  facet normal -0 0 1
    outer loop
      vertex 241 10.8 187.993
      vertex 244 9.8 187.993
      vertex 244 10.8 187.993
    endloop
  endfacet
  facet normal 0 0 1
    outer loop
      vertex 244 9.8 187.993
      vertex 241 10.8 187.993
      vertex 241 9.8 187.993
    endloop
  endfacet
  facet normal 0 1 -0
    outer loop
      vertex 4 10.8 1
      vertex 1 10.8 187.993
      vertex 4 10.8 187.993
    endloop
  endfacet
  facet normal 0 1 0
    outer loop
      vertex 1 10.8 187.993
      vertex 4 10.8 1
      vertex 1 10.8 1
    endloop
  endfacet
  facet normal 0 1 -0
    outer loop
      vertex 4 10.8 200.993
      vertex 1 10.8 202.7
      vertex 4 10.8 202.7
    endloop
  endfacet
  facet normal 0 1 0
    outer loop
      vertex 1 10.8 202.7
      vertex 4 10.8 200.993
      vertex 1 10.8 197.993
    endloop
  endfacet
  facet normal 0 -1 0
    outer loop
      vertex 1 3.2 1
      vertex 4 3.2 202.7
      vertex 1 3.2 202.7
    endloop
  endfacet
  facet normal 0 -1 -0
    outer loop
      vertex 4 3.2 202.7
      vertex 1 3.2 1
      vertex 4 3.2 1
    endloop
  endfacet
  facet normal 1 -0 0
    outer loop
      vertex 4 9.8 187.993
      vertex 4 10.8 1
      vertex 4 10.8 187.993
    endloop
  endfacet
  facet normal 1 0 0
    outer loop
      vertex 4 10.8 1
      vertex 4 9.8 187.993
      vertex 4 9.8 1
    endloop
  endfacet
  facet normal 1 0 0
    outer loop
      vertex 4 10.8 202.7
      vertex 4 4.2 200.993
      vertex 4 10.8 200.993
    endloop
  endfacet
  facet normal 1 -0 0
    outer loop
      vertex 4 3.2 202.7
      vertex 4 4.2 200.993
      vertex 4 10.8 202.7
    endloop
  endfacet
  facet normal 1 0 0
    outer loop
      vertex 4 3.2 1
      vertex 4 4.2 200.993
      vertex 4 3.2 202.7
    endloop
  endfacet
  facet normal 1 0 0
    outer loop
      vertex 4 4.2 200.993
      vertex 4 3.2 1
      vertex 4 4.2 1
    endloop
  endfacet
  facet normal -0 0 1
    outer loop
      vertex 1 10.8 202.7
      vertex 4 3.2 202.7
      vertex 4 10.8 202.7
    endloop
  endfacet
  facet normal 0 0 1
    outer loop
      vertex 4 3.2 202.7
      vertex 1 10.8 202.7
      vertex 1 3.2 202.7
    endloop
  endfacet
  facet normal 0 1 -0
    outer loop
      vertex 4 4.2 1
      vertex 1 4.2 197.993
      vertex 4 4.2 200.993
    endloop
  endfacet
  facet normal 0 1 0
    outer loop
      vertex 1 4.2 197.993
      vertex 4 4.2 1
      vertex 1 4.2 1
    endloop
  endfacet
  facet normal 0 -1 0
    outer loop
      vertex 1 9.8 1
      vertex 4 9.8 187.993
      vertex 1 9.8 187.993
    endloop
  endfacet
  facet normal 0 -1 -0
    outer loop
      vertex 4 9.8 187.993
      vertex 1 9.8 1
      vertex 4 9.8 1
    endloop
  endfacet
  facet normal 0.707107 0 -0.707107
    outer loop
      vertex 4 4.2 200.993
      vertex 1 10.8 197.993
      vertex 4 10.8 200.993
    endloop
  endfacet
  facet normal 0.707107 0 -0.707107
    outer loop
      vertex 1 10.8 197.993
      vertex 4 4.2 200.993
      vertex 1 4.2 197.993
    endloop
  endfacet
  facet normal -0 0 1
    outer loop
      vertex 1 10.8 187.993
      vertex 4 9.8 187.993
      vertex 4 10.8 187.993
    endloop
  endfacet
  facet normal 0 0 1
    outer loop
      vertex 4 9.8 187.993
      vertex 1 10.8 187.993
      vertex 1 9.8 187.993
    endloop
  endfacet
  facet normal 0 1 -0
    outer loop
      vertex 244 42.6 1
      vertex 241 42.6 187.993
      vertex 244 42.6 187.993
    endloop
  endfacet
  facet normal 0 1 0
    outer loop
      vertex 241 42.6 187.993
      vertex 244 42.6 1
      vertex 241 42.6 1
    endloop
  endfacet
  facet normal 0 1 0
    outer loop
      vertex 244 42.6 202.7
      vertex 241 42.6 200.993
      vertex 241 42.6 202.7
    endloop
  endfacet
  facet normal -0 1 0
    outer loop
      vertex 241 42.6 200.993
      vertex 244 42.6 202.7
      vertex 244 42.6 197.993
    endloop
  endfacet
  facet normal 0 -1 0
    outer loop
      vertex 241 35 1
      vertex 244 35 202.7
      vertex 241 35 202.7
    endloop
  endfacet
  facet normal 0 -1 -0
    outer loop
      vertex 244 35 202.7
      vertex 241 35 1
      vertex 244 35 1
    endloop
  endfacet
  facet normal -1 0 0
    outer loop
      vertex 241 41.6 1
      vertex 241 42.6 187.993
      vertex 241 42.6 1
    endloop
  endfacet
  facet normal -1 -0 0
    outer loop
      vertex 241 42.6 187.993
      vertex 241 41.6 1
      vertex 241 41.6 187.993
    endloop
  endfacet
  facet normal -1 0 0
    outer loop
      vertex 241 36 1
      vertex 241 35 1
      vertex 241 36 200.993
    endloop
  endfacet
  facet normal -1 0 0
    outer loop
      vertex 241 36 200.993
      vertex 241 42.6 202.7
      vertex 241 42.6 200.993
    endloop
  endfacet
  facet normal -1 0 0
    outer loop
      vertex 241 36 200.993
      vertex 241 35 202.7
      vertex 241 42.6 202.7
    endloop
  endfacet
  facet normal -1 0 0
    outer loop
      vertex 241 35 202.7
      vertex 241 36 200.993
      vertex 241 35 1
    endloop
  endfacet
  facet normal -0 0 1
    outer loop
      vertex 241 42.6 202.7
      vertex 244 35 202.7
      vertex 244 42.6 202.7
    endloop
  endfacet
  facet normal 0 0 1
    outer loop
      vertex 244 35 202.7
      vertex 241 42.6 202.7
      vertex 241 35 202.7
    endloop
  endfacet
  facet normal 0 1 0
    outer loop
      vertex 241 36 1
      vertex 244 36 197.993
      vertex 244 36 1
    endloop
  endfacet
  facet normal 0 1 0
    outer loop
      vertex 244 36 197.993
      vertex 241 36 1
      vertex 241 36 200.993
    endloop
  endfacet
  facet normal 0 -1 0
    outer loop
      vertex 241 41.6 1
      vertex 244 41.6 187.993
      vertex 241 41.6 187.993
    endloop
  endfacet
  facet normal 0 -1 -0
    outer loop
      vertex 244 41.6 187.993
      vertex 241 41.6 1
      vertex 244 41.6 1
    endloop
  endfacet
  facet normal -0.707107 0 -0.707107
    outer loop
      vertex 244 36 197.993
      vertex 241 42.6 200.993
      vertex 244 42.6 197.993
    endloop
  endfacet
  facet normal -0.707107 -0 -0.707107
    outer loop
      vertex 241 42.6 200.993
      vertex 244 36 197.993
      vertex 241 36 200.993
    endloop
  endfacet
  facet normal -0 0 1
    outer loop
      vertex 241 42.6 187.993
      vertex 244 41.6 187.993
      vertex 244 42.6 187.993
    endloop
  endfacet
  facet normal 0 0 1
    outer loop
      vertex 244 41.6 187.993
      vertex 241 42.6 187.993
      vertex 241 41.6 187.993
    endloop
  endfacet
  facet normal 0 1 -0
    outer loop
      vertex 4 42.6 1
      vertex 1 42.6 187.993
      vertex 4 42.6 187.993
    endloop
  endfacet
  facet normal 0 1 0
    outer loop
      vertex 1 42.6 187.993
      vertex 4 42.6 1
      vertex 1 42.6 1
    endloop
  endfacet
  facet normal 0 1 -0
    outer loop
      vertex 4 42.6 200.993
      vertex 1 42.6 202.7
      vertex 4 42.6 202.7
    endloop
  endfacet
  facet normal 0 1 0
    outer loop
      vertex 1 42.6 202.7
      vertex 4 42.6 200.993
      vertex 1 42.6 197.993
    endloop
  endfacet
  facet normal 0 -1 0
    outer loop
      vertex 1 35 1
      vertex 4 35 202.7
      vertex 1 35 202.7
    endloop
  endfacet
  facet normal 0 -1 -0
    outer loop
      vertex 4 35 202.7
      vertex 1 35 1
      vertex 4 35 1
    endloop
  endfacet
  facet normal 1 -0 0
    outer loop
      vertex 4 41.6 187.993
      vertex 4 42.6 1
      vertex 4 42.6 187.993
    endloop
  endfacet
  facet normal 1 0 0
    outer loop
      vertex 4 42.6 1
      vertex 4 41.6 187.993
      vertex 4 41.6 1
    endloop
  endfacet
  facet normal 1 0 0
    outer loop
      vertex 4 42.6 202.7
      vertex 4 36 200.993
      vertex 4 42.6 200.993
    endloop
  endfacet
  facet normal 1 -0 0
    outer loop
      vertex 4 35 202.7
      vertex 4 36 200.993
      vertex 4 42.6 202.7
    endloop
  endfacet
  facet normal 1 0 0
    outer loop
      vertex 4 35 1
      vertex 4 36 200.993
      vertex 4 35 202.7
    endloop
  endfacet
  facet normal 1 0 0
    outer loop
      vertex 4 36 200.993
      vertex 4 35 1
      vertex 4 36 1
    endloop
  endfacet
  facet normal -0 0 1
    outer loop
      vertex 1 42.6 202.7
      vertex 4 35 202.7
      vertex 4 42.6 202.7
    endloop
  endfacet
  facet normal 0 0 1
    outer loop
      vertex 4 35 202.7
      vertex 1 42.6 202.7
      vertex 1 35 202.7
    endloop
  endfacet
  facet normal 0 1 -0
    outer loop
      vertex 4 36 1
      vertex 1 36 197.993
      vertex 4 36 200.993
    endloop
  endfacet
  facet normal 0 1 0
    outer loop
      vertex 1 36 197.993
      vertex 4 36 1
      vertex 1 36 1
    endloop
  endfacet
  facet normal 0 -1 0
    outer loop
      vertex 1 41.6 1
      vertex 4 41.6 187.993
      vertex 1 41.6 187.993
    endloop
  endfacet
  facet normal 0 -1 -0
    outer loop
      vertex 4 41.6 187.993
      vertex 1 41.6 1
      vertex 4 41.6 1
    endloop
  endfacet
  facet normal 0.707107 0 -0.707107
    outer loop
      vertex 4 36 200.993
      vertex 1 42.6 197.993
      vertex 4 42.6 200.993
    endloop
  endfacet
  facet normal 0.707107 0 -0.707107
    outer loop
      vertex 1 42.6 197.993
      vertex 4 36 200.993
      vertex 1 36 197.993
    endloop
  endfacet
  facet normal -0 0 1
    outer loop
      vertex 1 42.6 187.993
      vertex 4 41.6 187.993
      vertex 4 42.6 187.993
    endloop
  endfacet
  facet normal 0 0 1
    outer loop
      vertex 4 41.6 187.993
      vertex 1 42.6 187.993
      vertex 1 41.6 187.993
    endloop
  endfacet
  facet normal 0 1 -0
    outer loop
      vertex 244 74.4 1
      vertex 241 74.4 187.993
      vertex 244 74.4 187.993
    endloop
  endfacet
  facet normal 0 1 0
    outer loop
      vertex 241 74.4 187.993
      vertex 244 74.4 1
      vertex 241 74.4 1
    endloop
  endfacet
  facet normal 0 1 0
    outer loop
      vertex 244 74.4 202.7
      vertex 241 74.4 200.993
      vertex 241 74.4 202.7
    endloop
  endfacet
  facet normal -0 1 0
    outer loop
      vertex 241 74.4 200.993
      vertex 244 74.4 202.7
      vertex 244 74.4 197.993
    endloop
  endfacet
  facet normal 0 -1 0
    outer loop
      vertex 241 66.8 1
      vertex 244 66.8 202.7
      vertex 241 66.8 202.7
    endloop
  endfacet
  facet normal 0 -1 -0
    outer loop
      vertex 244 66.8 202.7
      vertex 241 66.8 1
      vertex 244 66.8 1
    endloop
  endfacet
  facet normal -1 0 0
    outer loop
      vertex 241 73.4 1
      vertex 241 74.4 187.993
      vertex 241 74.4 1
    endloop
  endfacet
  facet normal -1 -0 0
    outer loop
      vertex 241 74.4 187.993
      vertex 241 73.4 1
      vertex 241 73.4 187.993
    endloop
  endfacet
  facet normal -1 0 0
    outer loop
      vertex 241 67.8 1
      vertex 241 66.8 1
      vertex 241 67.8 200.993
    endloop
  endfacet
  facet normal -1 0 0
    outer loop
      vertex 241 67.8 200.993
      vertex 241 74.4 202.7
      vertex 241 74.4 200.993
    endloop
  endfacet
  facet normal -1 0 0
    outer loop
      vertex 241 67.8 200.993
      vertex 241 66.8 202.7
      vertex 241 74.4 202.7
    endloop
  endfacet
  facet normal -1 0 0
    outer loop
      vertex 241 66.8 202.7
      vertex 241 67.8 200.993
      vertex 241 66.8 1
    endloop
  endfacet
  facet normal -0 0 1
    outer loop
      vertex 241 74.4 202.7
      vertex 244 66.8 202.7
      vertex 244 74.4 202.7
    endloop
  endfacet
  facet normal 0 0 1
    outer loop
      vertex 244 66.8 202.7
      vertex 241 74.4 202.7
      vertex 241 66.8 202.7
    endloop
  endfacet
  facet normal 0 1 0
    outer loop
      vertex 241 67.8 1
      vertex 244 67.8 197.993
      vertex 244 67.8 1
    endloop
  endfacet
  facet normal 0 1 0
    outer loop
      vertex 244 67.8 197.993
      vertex 241 67.8 1
      vertex 241 67.8 200.993
    endloop
  endfacet
  facet normal 0 -1 0
    outer loop
      vertex 241 73.4 1
      vertex 244 73.4 187.993
      vertex 241 73.4 187.993
    endloop
  endfacet
  facet normal 0 -1 -0
    outer loop
      vertex 244 73.4 187.993
      vertex 241 73.4 1
      vertex 244 73.4 1
    endloop
  endfacet
  facet normal -0.707107 0 -0.707107
    outer loop
      vertex 244 67.8 197.993
      vertex 241 74.4 200.993
      vertex 244 74.4 197.993
    endloop
  endfacet
  facet normal -0.707107 -0 -0.707107
    outer loop
      vertex 241 74.4 200.993
      vertex 244 67.8 197.993
      vertex 241 67.8 200.993
    endloop
  endfacet
  facet normal -0 0 1
    outer loop
      vertex 241 74.4 187.993
      vertex 244 73.4 187.993
      vertex 244 74.4 187.993
    endloop
  endfacet
  facet normal 0 0 1
    outer loop
      vertex 244 73.4 187.993
      vertex 241 74.4 187.993
      vertex 241 73.4 187.993
    endloop
  endfacet
  facet normal 0 1 -0
    outer loop
      vertex 4 74.4 1
      vertex 1 74.4 187.993
      vertex 4 74.4 187.993
    endloop
  endfacet
  facet normal 0 1 0
    outer loop
      vertex 1 74.4 187.993
      vertex 4 74.4 1
      vertex 1 74.4 1
    endloop
  endfacet
  facet normal 0 1 -0
    outer loop
      vertex 4 74.4 200.993
      vertex 1 74.4 202.7
      vertex 4 74.4 202.7
    endloop
  endfacet
  facet normal 0 1 0
    outer loop
      vertex 1 74.4 202.7
      vertex 4 74.4 200.993
      vertex 1 74.4 197.993
    endloop
  endfacet
  facet normal 0 -1 0
    outer loop
      vertex 1 66.8 1
      vertex 4 66.8 202.7
      vertex 1 66.8 202.7
    endloop
  endfacet
  facet normal 0 -1 -0
    outer loop
      vertex 4 66.8 202.7
      vertex 1 66.8 1
      vertex 4 66.8 1
    endloop
  endfacet
  facet normal 1 -0 0
    outer loop
      vertex 4 73.4 187.993
      vertex 4 74.4 1
      vertex 4 74.4 187.993
    endloop
  endfacet
  facet normal 1 0 0
    outer loop
      vertex 4 74.4 1
      vertex 4 73.4 187.993
      vertex 4 73.4 1
    endloop
  endfacet
  facet normal 1 0 0
    outer loop
      vertex 4 74.4 202.7
      vertex 4 67.8 200.993
      vertex 4 74.4 200.993
    endloop
  endfacet
  facet normal 1 -0 0
    outer loop
      vertex 4 66.8 202.7
      vertex 4 67.8 200.993
      vertex 4 74.4 202.7
    endloop
  endfacet
  facet normal 1 0 0
    outer loop
      vertex 4 66.8 1
      vertex 4 67.8 200.993
      vertex 4 66.8 202.7
    endloop
  endfacet
  facet normal 1 0 0
    outer loop
      vertex 4 67.8 200.993
      vertex 4 66.8 1
      vertex 4 67.8 1
    endloop
  endfacet
  facet normal -0 0 1
    outer loop
      vertex 1 74.4 202.7
      vertex 4 66.8 202.7
      vertex 4 74.4 202.7
    endloop
  endfacet
  facet normal 0 0 1
    outer loop
      vertex 4 66.8 202.7
      vertex 1 74.4 202.7
      vertex 1 66.8 202.7
    endloop
  endfacet
  facet normal 0 1 -0
    outer loop
      vertex 4 67.8 1
      vertex 1 67.8 197.993
      vertex 4 67.8 200.993
    endloop
  endfacet
  facet normal 0 1 0
    outer loop
      vertex 1 67.8 197.993
      vertex 4 67.8 1
      vertex 1 67.8 1
    endloop
  endfacet
  facet normal 0 -1 0
    outer loop
      vertex 1 73.4 1
      vertex 4 73.4 187.993
      vertex 1 73.4 187.993
    endloop
  endfacet
  facet normal 0 -1 -0
    outer loop
      vertex 4 73.4 187.993
      vertex 1 73.4 1
      vertex 4 73.4 1
    endloop
  endfacet
  facet normal 0.707107 0 -0.707107
    outer loop
      vertex 4 67.8 200.993
      vertex 1 74.4 197.993
      vertex 4 74.4 200.993
    endloop
  endfacet
  facet normal 0.707107 0 -0.707107
    outer loop
      vertex 1 74.4 197.993
      vertex 4 67.8 200.993
      vertex 1 67.8 197.993
    endloop
  endfacet
  facet normal -0 0 1
    outer loop
      vertex 1 74.4 187.993
      vertex 4 73.4 187.993
      vertex 4 74.4 187.993
    endloop
  endfacet
  facet normal 0 0 1
    outer loop
      vertex 4 73.4 187.993
      vertex 1 74.4 187.993
      vertex 1 73.4 187.993
    endloop
  endfacet
  facet normal 0 1 -0
    outer loop
      vertex 244 106.2 1
      vertex 241 106.2 187.993
      vertex 244 106.2 187.993
    endloop
  endfacet
  facet normal 0 1 0
    outer loop
      vertex 241 106.2 187.993
      vertex 244 106.2 1
      vertex 241 106.2 1
    endloop
  endfacet
  facet normal 0 1 0
    outer loop
      vertex 244 106.2 202.7
      vertex 241 106.2 200.993
      vertex 241 106.2 202.7
    endloop
  endfacet
  facet normal -0 1 0
    outer loop
      vertex 241 106.2 200.993
      vertex 244 106.2 202.7
      vertex 244 106.2 197.993
    endloop
  endfacet
  facet normal 0 -1 0
    outer loop
      vertex 241 98.6 1
      vertex 244 98.6 202.7
      vertex 241 98.6 202.7
    endloop
  endfacet
  facet normal 0 -1 -0
    outer loop
      vertex 244 98.6 202.7
      vertex 241 98.6 1
      vertex 244 98.6 1
    endloop
  endfacet
  facet normal -1 0 0
    outer loop
      vertex 241 105.2 1
      vertex 241 106.2 187.993
      vertex 241 106.2 1
    endloop
  endfacet
  facet normal -1 -0 0
    outer loop
      vertex 241 106.2 187.993
      vertex 241 105.2 1
      vertex 241 105.2 187.993
    endloop
  endfacet
  facet normal -1 0 0
    outer loop
      vertex 241 99.6 1
      vertex 241 98.6 1
      vertex 241 99.6 200.993
    endloop
  endfacet
  facet normal -1 0 0
    outer loop
      vertex 241 99.6 200.993
      vertex 241 106.2 202.7
      vertex 241 106.2 200.993
    endloop
  endfacet
  facet normal -1 0 0
    outer loop
      vertex 241 99.6 200.993
      vertex 241 98.6 202.7
      vertex 241 106.2 202.7
    endloop
  endfacet
  facet normal -1 0 0
    outer loop
      vertex 241 98.6 202.7
      vertex 241 99.6 200.993
      vertex 241 98.6 1
    endloop
  endfacet
  facet normal -0 0 1
    outer loop
      vertex 241 106.2 202.7
      vertex 244 98.6 202.7
      vertex 244 106.2 202.7
    endloop
  endfacet
  facet normal 0 0 1
    outer loop
      vertex 244 98.6 202.7
      vertex 241 106.2 202.7
      vertex 241 98.6 202.7
    endloop
  endfacet
  facet normal 0 1 0
    outer loop
      vertex 241 99.6 1
      vertex 244 99.6 197.993
      vertex 244 99.6 1
    endloop
  endfacet
  facet normal 0 1 0
    outer loop
      vertex 244 99.6 197.993
      vertex 241 99.6 1
      vertex 241 99.6 200.993
    endloop
  endfacet
  facet normal 0 -1 0
    outer loop
      vertex 241 105.2 1
      vertex 244 105.2 187.993
      vertex 241 105.2 187.993
    endloop
  endfacet
  facet normal 0 -1 -0
    outer loop
      vertex 244 105.2 187.993
      vertex 241 105.2 1
      vertex 244 105.2 1
    endloop
  endfacet
  facet normal -0.707107 0 -0.707107
    outer loop
      vertex 244 99.6 197.993
      vertex 241 106.2 200.993
      vertex 244 106.2 197.993
    endloop
  endfacet
  facet normal -0.707107 -0 -0.707107
    outer loop
      vertex 241 106.2 200.993
      vertex 244 99.6 197.993
      vertex 241 99.6 200.993
    endloop
  endfacet
  facet normal -0 0 1
    outer loop
      vertex 241 106.2 187.993
      vertex 244 105.2 187.993
      vertex 244 106.2 187.993
    endloop
  endfacet
  facet normal 0 0 1
    outer loop
      vertex 244 105.2 187.993
      vertex 241 106.2 187.993
      vertex 241 105.2 187.993
    endloop
  endfacet
  facet normal 0 1 -0
    outer loop
      vertex 4 106.2 1
      vertex 1 106.2 187.993
      vertex 4 106.2 187.993
    endloop
  endfacet
  facet normal 0 1 0
    outer loop
      vertex 1 106.2 187.993
      vertex 4 106.2 1
      vertex 1 106.2 1
    endloop
  endfacet
  facet normal 0 1 -0
    outer loop
      vertex 4 106.2 200.993
      vertex 1 106.2 202.7
      vertex 4 106.2 202.7
    endloop
  endfacet
  facet normal 0 1 0
    outer loop
      vertex 1 106.2 202.7
      vertex 4 106.2 200.993
      vertex 1 106.2 197.993
    endloop
  endfacet
  facet normal 0 -1 0
    outer loop
      vertex 1 98.6 1
      vertex 4 98.6 202.7
      vertex 1 98.6 202.7
    endloop
  endfacet
  facet normal 0 -1 -0
    outer loop
      vertex 4 98.6 202.7
      vertex 1 98.6 1
      vertex 4 98.6 1
    endloop
  endfacet
  facet normal 1 -0 0
    outer loop
      vertex 4 105.2 187.993
      vertex 4 106.2 1
      vertex 4 106.2 187.993
    endloop
  endfacet
  facet normal 1 0 0
    outer loop
      vertex 4 106.2 1
      vertex 4 105.2 187.993
      vertex 4 105.2 1
    endloop
  endfacet
  facet normal 1 0 0
    outer loop
      vertex 4 106.2 202.7
      vertex 4 99.6 200.993
      vertex 4 106.2 200.993
    endloop
  endfacet
  facet normal 1 -0 0
    outer loop
      vertex 4 98.6 202.7
      vertex 4 99.6 200.993
      vertex 4 106.2 202.7
    endloop
  endfacet
  facet normal 1 0 0
    outer loop
      vertex 4 98.6 1
      vertex 4 99.6 200.993
      vertex 4 98.6 202.7
    endloop
  endfacet
  facet normal 1 0 0
    outer loop
      vertex 4 99.6 200.993
      vertex 4 98.6 1
      vertex 4 99.6 1
    endloop
  endfacet
  facet normal -0 0 1
    outer loop
      vertex 1 106.2 202.7
      vertex 4 98.6 202.7
      vertex 4 106.2 202.7
    endloop
  endfacet
  facet normal 0 0 1
    outer loop
      vertex 4 98.6 202.7
      vertex 1 106.2 202.7
      vertex 1 98.6 202.7
    endloop
  endfacet
  facet normal 0 1 -0
    outer loop
      vertex 4 99.6 1
      vertex 1 99.6 197.993
      vertex 4 99.6 200.993
    endloop
  endfacet
  facet normal 0 1 0
    outer loop
      vertex 1 99.6 197.993
      vertex 4 99.6 1
      vertex 1 99.6 1
    endloop
  endfacet
  facet normal 0 -1 0
    outer loop
      vertex 1 105.2 1
      vertex 4 105.2 187.993
      vertex 1 105.2 187.993
    endloop
  endfacet
  facet normal 0 -1 -0
    outer loop
      vertex 4 105.2 187.993
      vertex 1 105.2 1
      vertex 4 105.2 1
    endloop
  endfacet
  facet normal 0.707107 0 -0.707107
    outer loop
      vertex 4 99.6 200.993
      vertex 1 106.2 197.993
      vertex 4 106.2 200.993
    endloop
  endfacet
  facet normal 0.707107 0 -0.707107
    outer loop
      vertex 1 106.2 197.993
      vertex 4 99.6 200.993
      vertex 1 99.6 197.993
    endloop
  endfacet
  facet normal -0 0 1
    outer loop
      vertex 1 106.2 187.993
      vertex 4 105.2 187.993
      vertex 4 106.2 187.993
    endloop
  endfacet
  facet normal 0 0 1
    outer loop
      vertex 4 105.2 187.993
      vertex 1 106.2 187.993
      vertex 1 105.2 187.993
    endloop
  endfacet
  facet normal 0 1 -0
    outer loop
      vertex 244 138 1
      vertex 241 138 187.993
      vertex 244 138 187.993
    endloop
  endfacet
  facet normal 0 1 0
    outer loop
      vertex 241 138 187.993
      vertex 244 138 1
      vertex 241 138 1
    endloop
  endfacet
  facet normal 0 1 0
    outer loop
      vertex 244 138 202.7
      vertex 241 138 200.993
      vertex 241 138 202.7
    endloop
  endfacet
  facet normal -0 1 0
    outer loop
      vertex 241 138 200.993
      vertex 244 138 202.7
      vertex 244 138 197.993
    endloop
  endfacet
  facet normal 0 -1 0
    outer loop
      vertex 241 130.4 1
      vertex 244 130.4 202.7
      vertex 241 130.4 202.7
    endloop
  endfacet
  facet normal 0 -1 -0
    outer loop
      vertex 244 130.4 202.7
      vertex 241 130.4 1
      vertex 244 130.4 1
    endloop
  endfacet
  facet normal -1 0 0
    outer loop
      vertex 241 137 1
      vertex 241 138 187.993
      vertex 241 138 1
    endloop
  endfacet
  facet normal -1 -0 0
    outer loop
      vertex 241 138 187.993
      vertex 241 137 1
      vertex 241 137 187.993
    endloop
  endfacet
  facet normal -1 0 0
    outer loop
      vertex 241 131.4 1
      vertex 241 130.4 1
      vertex 241 131.4 200.993
    endloop
  endfacet
  facet normal -1 0 0
    outer loop
      vertex 241 131.4 200.993
      vertex 241 138 202.7
      vertex 241 138 200.993
    endloop
  endfacet
  facet normal -1 0 0
    outer loop
      vertex 241 131.4 200.993
      vertex 241 130.4 202.7
      vertex 241 138 202.7
    endloop
  endfacet
  facet normal -1 0 0
    outer loop
      vertex 241 130.4 202.7
      vertex 241 131.4 200.993
      vertex 241 130.4 1
    endloop
  endfacet
  facet normal -0 0 1
    outer loop
      vertex 241 138 202.7
      vertex 244 130.4 202.7
      vertex 244 138 202.7
    endloop
  endfacet
  facet normal 0 0 1
    outer loop
      vertex 244 130.4 202.7
      vertex 241 138 202.7
      vertex 241 130.4 202.7
    endloop
  endfacet
  facet normal 0 1 0
    outer loop
      vertex 241 131.4 1
      vertex 244 131.4 197.993
      vertex 244 131.4 1
    endloop
  endfacet
  facet normal 0 1 0
    outer loop
      vertex 244 131.4 197.993
      vertex 241 131.4 1
      vertex 241 131.4 200.993
    endloop
  endfacet
  facet normal 0 -1 0
    outer loop
      vertex 241 137 1
      vertex 244 137 187.993
      vertex 241 137 187.993
    endloop
  endfacet
  facet normal 0 -1 -0
    outer loop
      vertex 244 137 187.993
      vertex 241 137 1
      vertex 244 137 1
    endloop
  endfacet
  facet normal -0.707107 0 -0.707107
    outer loop
      vertex 244 131.4 197.993
      vertex 241 138 200.993
      vertex 244 138 197.993
    endloop
  endfacet
  facet normal -0.707107 -0 -0.707107
    outer loop
      vertex 241 138 200.993
      vertex 244 131.4 197.993
      vertex 241 131.4 200.993
    endloop
  endfacet
  facet normal -0 0 1
    outer loop
      vertex 241 138 187.993
      vertex 244 137 187.993
      vertex 244 138 187.993
    endloop
  endfacet
  facet normal 0 0 1
    outer loop
      vertex 244 137 187.993
      vertex 241 138 187.993
      vertex 241 137 187.993
    endloop
  endfacet
  facet normal 0 1 -0
    outer loop
      vertex 4 138 1
      vertex 1 138 187.993
      vertex 4 138 187.993
    endloop
  endfacet
  facet normal 0 1 0
    outer loop
      vertex 1 138 187.993
      vertex 4 138 1
      vertex 1 138 1
    endloop
  endfacet
  facet normal 0 1 -0
    outer loop
      vertex 4 138 200.993
      vertex 1 138 202.7
      vertex 4 138 202.7
    endloop
  endfacet
  facet normal 0 1 0
    outer loop
      vertex 1 138 202.7
      vertex 4 138 200.993
      vertex 1 138 197.993
    endloop
  endfacet
  facet normal 0 -1 0
    outer loop
      vertex 1 130.4 1
      vertex 4 130.4 202.7
      vertex 1 130.4 202.7
    endloop
  endfacet
  facet normal 0 -1 -0
    outer loop
      vertex 4 130.4 202.7
      vertex 1 130.4 1
      vertex 4 130.4 1
    endloop
  endfacet
  facet normal 1 -0 0
    outer loop
      vertex 4 137 187.993
      vertex 4 138 1
      vertex 4 138 187.993
    endloop
  endfacet
  facet normal 1 0 0
    outer loop
      vertex 4 138 1
      vertex 4 137 187.993
      vertex 4 137 1
    endloop
  endfacet
  facet normal 1 0 0
    outer loop
      vertex 4 138 202.7
      vertex 4 131.4 200.993
      vertex 4 138 200.993
    endloop
  endfacet
  facet normal 1 -0 0
    outer loop
      vertex 4 130.4 202.7
      vertex 4 131.4 200.993
      vertex 4 138 202.7
    endloop
  endfacet
  facet normal 1 0 0
    outer loop
      vertex 4 130.4 1
      vertex 4 131.4 200.993
      vertex 4 130.4 202.7
    endloop
  endfacet
  facet normal 1 0 0
    outer loop
      vertex 4 131.4 200.993
      vertex 4 130.4 1
      vertex 4 131.4 1
    endloop
  endfacet
  facet normal -0 0 1
    outer loop
      vertex 1 138 202.7
      vertex 4 130.4 202.7
      vertex 4 138 202.7
    endloop
  endfacet
  facet normal 0 0 1
    outer loop
      vertex 4 130.4 202.7
      vertex 1 138 202.7
      vertex 1 130.4 202.7
    endloop
  endfacet
  facet normal 0 1 -0
    outer loop
      vertex 4 131.4 1
      vertex 1 131.4 197.993
      vertex 4 131.4 200.993
    endloop
  endfacet
  facet normal 0 1 0
    outer loop
      vertex 1 131.4 197.993
      vertex 4 131.4 1
      vertex 1 131.4 1
    endloop
  endfacet
  facet normal 0 -1 0
    outer loop
      vertex 1 137 1
      vertex 4 137 187.993
      vertex 1 137 187.993
    endloop
  endfacet
  facet normal 0 -1 -0
    outer loop
      vertex 4 137 187.993
      vertex 1 137 1
      vertex 4 137 1
    endloop
  endfacet
  facet normal 0.707107 0 -0.707107
    outer loop
      vertex 4 131.4 200.993
      vertex 1 138 197.993
      vertex 4 138 200.993
    endloop
  endfacet
  facet normal 0.707107 0 -0.707107
    outer loop
      vertex 1 138 197.993
      vertex 4 131.4 200.993
      vertex 1 131.4 197.993
    endloop
  endfacet
  facet normal -0 0 1
    outer loop
      vertex 1 138 187.993
      vertex 4 137 187.993
      vertex 4 138 187.993
    endloop
  endfacet
  facet normal 0 0 1
    outer loop
      vertex 4 137 187.993
      vertex 1 138 187.993
      vertex 1 137 187.993
    endloop
  endfacet
endsolid OpenSCAD_Model
