<svg xmlns:dc="http://purl.org/dc/elements/1.1/" xmlns:cc="http://creativecommons.org/ns#" xmlns:rdf="http://www.w3.org/1999/02/22-rdf-syntax-ns#" xmlns:svg="http://www.w3.org/2000/svg" xmlns="http://www.w3.org/2000/svg" xmlns:sodipodi="http://sodipodi.sourceforge.net/DTD/sodipodi-0.dtd" xmlns:inkscape="http://www.inkscape.org/namespaces/inkscape" viewBox="0 0 32 40.00000125" version="1.1" x="0px" y="0px"><g transform="translate(0,-1020.3622)"><path style="color:#000000;font-style:normal;font-variant:normal;font-weight:normal;font-stretch:normal;font-size:medium;line-height:normal;font-family:sans-serif;text-indent:0;text-align:start;text-decoration:none;text-decoration-line:none;text-decoration-style:solid;text-decoration-color:#000000;letter-spacing:normal;word-spacing:normal;text-transform:none;direction:ltr;writing-mode:lr-tb;baseline-shift:baseline;text-anchor:start;white-space:normal;clip-rule:nonzero;display:inline;overflow:visible;visibility:visible;opacity:1;isolation:auto;mix-blend-mode:normal;color-interpolation:sRGB;color-interpolation-filters:linearRGB;solid-color:#000000;solid-opacity:1;fill:#000000;fill-opacity:1;fill-rule:nonzero;stroke:none;stroke-width:0.99999994;stroke-linecap:round;stroke-linejoin:round;stroke-miterlimit:4;stroke-dasharray:none;stroke-dashoffset:0;stroke-opacity:1;color-rendering:auto;image-rendering:auto;shape-rendering:auto;text-rendering:auto;enable-background:accumulate" d="m 21.751672,1035.9574 c -0.225832,-10e-4 -0.424325,0.1494 -0.48433,0.3671 -0.0224,0.081 -0.114261,0.1884 -0.392548,0.3125 -0.278286,0.124 -0.693192,0.2311 -1.144435,0.33 -0.902485,0.1979 -1.993634,0.3625 -2.632591,0.9667 -0.85088,0.8215 -0.788795,2.2811 0.158187,3.1812 0.501308,0.4769 1.169073,0.6273 1.781102,0.5859 0.612029,-0.041 1.191961,-0.2583 1.646343,-0.5839 0.811893,-0.5765 1.161434,-1.8465 1.345599,-2.7731 0.192404,-0.9962 0.220681,-1.8689 0.220681,-1.8689 0.01,-0.2822 -0.215652,-0.5166 -0.498008,-0.5175 z m -0.61128,1.6521 c -0.0299,0.248 -0.0373,0.2523 -0.09369,0.5449 -0.175265,0.9074 -0.510118,1.8353 -0.945241,2.1501 -0.287177,0.2058 -0.72398,0.3708 -1.132716,0.3984 -0.408737,0.028 -0.766427,-0.068 -1.023356,-0.3125 -0.569482,-0.5413 -0.539445,-1.3662 -0.154277,-1.7381 0.312604,-0.3196 1.221629,-0.5044 2.154112,-0.7089 0.406936,-0.089 0.827191,-0.1903 1.19521,-0.3339 z"/><path style="color:#000000;font-style:normal;font-variant:normal;font-weight:normal;font-stretch:normal;font-size:medium;line-height:normal;font-family:sans-serif;text-indent:0;text-align:start;text-decoration:none;text-decoration-line:none;text-decoration-style:solid;text-decoration-color:#000000;letter-spacing:normal;word-spacing:normal;text-transform:none;direction:ltr;writing-mode:lr-tb;baseline-shift:baseline;text-anchor:start;white-space:normal;clip-rule:nonzero;display:inline;overflow:visible;visibility:visible;opacity:1;isolation:auto;mix-blend-mode:normal;color-interpolation:sRGB;color-interpolation-filters:linearRGB;solid-color:#000000;solid-opacity:1;fill:#000000;fill-opacity:1;fill-rule:evenodd;stroke:none;stroke-width:1px;stroke-linecap:butt;stroke-linejoin:round;stroke-miterlimit:4;stroke-dasharray:none;stroke-dashoffset:0;stroke-opacity:1;color-rendering:auto;image-rendering:auto;shape-rendering:auto;text-rendering:auto;enable-background:accumulate" d="m 14.990512,1022.2067 a 0.50000853,0.50005 0 0 0 -0.337862,0.1465 l -3.24973,3.25 0.706981,0.707 2.864993,-2.8652 2.400191,2.8359 0.763606,-0.6465 -2.749772,-3.25 a 0.50000853,0.50005 0 0 0 -0.398407,-0.1777 z"/><path style="color:#000000;font-style:normal;font-variant:normal;font-weight:normal;font-stretch:normal;font-size:medium;line-height:normal;font-family:sans-serif;text-indent:0;text-align:start;text-decoration:none;text-decoration-line:none;text-decoration-style:solid;text-decoration-color:#000000;letter-spacing:normal;word-spacing:normal;text-transform:none;direction:ltr;writing-mode:lr-tb;baseline-shift:baseline;text-anchor:start;white-space:normal;clip-rule:nonzero;display:inline;overflow:visible;visibility:visible;opacity:1;isolation:auto;mix-blend-mode:normal;color-interpolation:sRGB;color-interpolation-filters:linearRGB;solid-color:#000000;solid-opacity:1;fill:#000000;fill-opacity:1;fill-rule:evenodd;stroke:none;stroke-width:1px;stroke-linecap:butt;stroke-linejoin:round;stroke-miterlimit:4;stroke-dasharray:none;stroke-dashoffset:0;stroke-opacity:1;color-rendering:auto;image-rendering:auto;shape-rendering:auto;text-rendering:auto;enable-background:accumulate" d="m 9.9987456,1023.7067 c -0.2730569,0 -0.4921587,0.2269 -0.4921487,0.5 l 0,6.4765 c -0.1509475,3.1694 2.3069891,5.8725 5.4761061,6.0235 0.008,2e-4 0.0156,2e-4 0.0234,0 3.307516,0 5.999503,-2.6922 5.999503,-6 l 0,-6.5 c -3.5e-4,-0.4067 -0.460212,-0.6429 -0.790955,-0.4063 l -5.778811,4.1289 -4.075832,-4.0761 c -0.09569,-0.096 -0.226011,-0.1486 -0.3613004,-0.1465 z m 10.0069804,1.4726 0,5.5274 c 0,2.7645 -2.228535,4.9935 -4.991775,4.998 -2.229776,-0.1139 -4.021977,-1.7035 -4.429313,-3.8008 z m -9.499212,0.2344 3.103263,3.1035 -3.103263,2.2168 c 6e-5,-10e-4 -6e-5,0 0,0 1.8e-4,-0.01 1.8e-4,-0.016 0,-0.023 z"/><path style="color:#000000;font-style:normal;font-variant:normal;font-weight:normal;font-stretch:normal;font-size:medium;line-height:normal;font-family:sans-serif;text-indent:0;text-align:start;text-decoration:none;text-decoration-line:none;text-decoration-style:solid;text-decoration-color:#000000;letter-spacing:normal;word-spacing:normal;text-transform:none;direction:ltr;writing-mode:lr-tb;baseline-shift:baseline;text-anchor:start;white-space:normal;clip-rule:nonzero;display:inline;overflow:visible;visibility:visible;opacity:1;isolation:auto;mix-blend-mode:normal;color-interpolation:sRGB;color-interpolation-filters:linearRGB;solid-color:#000000;solid-opacity:1;fill:#000000;fill-opacity:1;fill-rule:evenodd;stroke:none;stroke-width:1px;stroke-linecap:round;stroke-linejoin:round;stroke-miterlimit:4;stroke-dasharray:none;stroke-dashoffset:0;stroke-opacity:1;color-rendering:auto;image-rendering:auto;shape-rendering:auto;text-rendering:auto;enable-background:accumulate" d="m 14.976844,1035.7008 a 0.50000853,0.50005 0 0 0 -0.382779,0.7988 c 0,0 0.467582,0.6502 0.958901,1.4922 0.491329,0.842 0.988418,1.9005 1.064372,2.5196 0.11121,0.9065 -0.271368,1.8799 -0.701112,2.9355 -0.429755,1.0557 -0.906935,2.1969 -0.705022,3.4453 0.139169,0.8606 0.706992,1.7467 1.224509,2.4844 0.517507,0.7377 1.005776,1.3008 1.005776,1.3008 a 0.50000853,0.50005 0 1 0 0.753838,-0.6563 c 0,0 -0.456692,-0.5279 -0.941322,-1.2187 -0.48463,-0.6909 -0.974389,-1.5724 -1.054603,-2.0684 -0.144978,-0.8964 0.214752,-1.8594 0.642527,-2.9101 0.427764,-1.0508 0.922843,-2.1854 0.769466,-3.4356 -0.11657,-0.9501 -0.677684,-2.0135 -1.195211,-2.9004 -0.517537,-0.8869 -1.009686,-1.5722 -1.009686,-1.5722 a 0.50000853,0.50005 0 0 0 -0.429654,-0.2149 z"/><path d="m 11.249003,1040.4571 c 0.225831,-10e-4 0.424325,0.1495 0.48433,0.3672 0.0224,0.081 0.11426,0.1884 0.392547,0.3124 0.278287,0.1241 0.693193,0.2311 1.144435,0.3301 0.902485,0.1978 1.993635,0.3624 2.632592,0.9666 0.850879,0.8216 0.788794,2.2812 -0.158187,3.1813 -0.501309,0.4768 -1.169073,0.6272 -1.781102,0.5859 -0.61203,-0.041 -1.191962,-0.2584 -1.646344,-0.5839 -0.811893,-0.5765 -1.161434,-1.8465 -1.345598,-2.7731 -0.192404,-0.9963 -0.220682,-1.869 -0.220682,-1.869 -0.01,-0.2821 0.215652,-0.5165 0.498009,-0.5175 z m 0.611279,1.6522 c 0.0299,0.248 0.0373,0.2523 0.09369,0.5448 0.175266,0.9075 0.510118,1.8354 0.945242,2.1502 0.287176,0.2057 0.72398,0.3707 1.132716,0.3984 0.408736,0.028 0.766426,-0.068 1.023355,-0.3125 0.569483,-0.5413 0.539445,-1.3662 0.154277,-1.7381 -0.312604,-0.3196 -1.221628,-0.5044 -2.154111,-0.7089 -0.406936,-0.089 -0.827191,-0.1903 -1.195211,-0.3339 z" style="color:#000000;font-style:normal;font-variant:normal;font-weight:normal;font-stretch:normal;font-size:medium;line-height:normal;font-family:sans-serif;text-indent:0;text-align:start;text-decoration:none;text-decoration-line:none;text-decoration-style:solid;text-decoration-color:#000000;letter-spacing:normal;word-spacing:normal;text-transform:none;direction:ltr;writing-mode:lr-tb;baseline-shift:baseline;text-anchor:start;white-space:normal;clip-rule:nonzero;display:inline;overflow:visible;visibility:visible;opacity:1;isolation:auto;mix-blend-mode:normal;color-interpolation:sRGB;color-interpolation-filters:linearRGB;solid-color:#000000;solid-opacity:1;fill:#000000;fill-opacity:1;fill-rule:nonzero;stroke:none;stroke-width:0.99999994;stroke-linecap:round;stroke-linejoin:round;stroke-miterlimit:4;stroke-dasharray:none;stroke-dashoffset:0;stroke-opacity:1;color-rendering:auto;image-rendering:auto;shape-rendering:auto;text-rendering:auto;enable-background:accumulate"/></g><text x="0" y="47.000001" fill="#000000" font-size="5px" font-weight="bold" font-family="'Helvetica Neue', Helvetica, Arial-Unicode, Arial, Sans-serif">Created by anbileru adaleru</text><text x="0" y="52.000001" fill="#000000" font-size="5px" font-weight="bold" font-family="'Helvetica Neue', Helvetica, Arial-Unicode, Arial, Sans-serif">from the Noun Project</text></svg>