<svg xmlns="http://www.w3.org/2000/svg" xmlns:xlink="http://www.w3.org/1999/xlink" version="1.1" x="0px" y="0px" viewBox="0 0 64 80" enable-background="new 0 0 64 64" xml:space="preserve"><g><g><g><path d="M32,50.846c-0.418,0-0.828-0.175-1.118-0.5c-6.653-7.438-12.979-8.999-17.113-8.999c-2.892,0-4.726,0.77-4.744,0.777     c-0.463,0.199-0.999,0.152-1.419-0.125c-0.421-0.278-0.678-0.747-0.678-1.25V14.401c0-0.515,0.264-0.994,0.699-1.269     C7.765,13.045,11.063,11,16.018,11c4.204,0,10.583,1.529,17.101,8.814c0.246,0.275,0.382,0.631,0.382,1v28.531     c0,0.622-0.384,1.179-0.965,1.401C32.361,50.813,32.18,50.846,32,50.846z M13.769,38.347c4.184,0,10.281,1.347,16.731,7.327     V21.395C25.97,16.488,21.1,14,16.018,14c-2.872,0-5.041,0.812-6.09,1.303v23.442C10.918,38.533,12.223,38.347,13.769,38.347z"/><path d="M32,50.846c-0.18,0-0.361-0.032-0.535-0.099c-0.581-0.222-0.965-0.779-0.965-1.401V20.815c0-0.369,0.136-0.725,0.382-1     C37.399,12.53,43.778,11,47.982,11c4.955,0,8.253,2.045,8.391,2.132c0.436,0.275,0.699,0.754,0.699,1.269v26.348     c0,0.507-0.256,0.979-0.68,1.256c-0.426,0.276-0.96,0.32-1.424,0.117c-0.012-0.005-1.846-0.774-4.737-0.774     c-4.135,0-10.46,1.561-17.113,8.999C32.828,50.67,32.418,50.846,32,50.846z M33.5,21.395v24.279     c6.45-5.979,12.548-7.327,16.731-7.327c1.546,0,2.851,0.186,3.841,0.399V15.309C53.015,14.818,50.825,14,47.982,14     C42.9,14,38.03,16.488,33.5,21.395z"/></g><path d="M61,53c-0.401,0-0.795-0.161-1.084-0.463c-0.451-0.466-11.285-11.347-27.03,0.173c-0.527,0.386-1.244,0.386-1.771,0    c-15.743-11.519-26.579-0.64-27.033-0.17c-0.426,0.439-1.074,0.576-1.643,0.349C1.872,52.66,1.5,52.112,1.5,51.5V21.338    c0-0.227,0.052-0.45,0.15-0.654c0.129-0.268,1.332-2.631,3.653-3.268c0.899-0.248,2.315-0.316,3.95,0.763    c0.691,0.457,0.882,1.387,0.426,2.079c-0.458,0.691-1.391,0.88-2.078,0.425c-0.838-0.554-1.334-0.42-1.496-0.376    c-0.702,0.188-1.307,0.951-1.605,1.424v26.663c4.538-3.071,14.685-7.577,27.5,1.267c12.813-8.844,22.96-4.338,27.5-1.267V21.73    c-0.296-0.47-0.901-1.235-1.605-1.424c-0.162-0.044-0.658-0.178-1.496,0.376c-0.688,0.455-1.62,0.266-2.078-0.425    c-0.456-0.691-0.266-1.622,0.426-2.079c1.634-1.079,3.052-1.01,3.95-0.763c2.321,0.637,3.524,3,3.653,3.268    c0.099,0.204,0.15,0.427,0.15,0.654V51.5c0,0.613-0.373,1.164-0.941,1.392C61.378,52.965,61.188,53,61,53z"/></g></g><text x="0" y="79" fill="#000000" font-size="5px" font-weight="bold" font-family="'Helvetica Neue', Helvetica, Arial-Unicode, Arial, Sans-serif">Created by Dennis</text><text x="0" y="84" fill="#000000" font-size="5px" font-weight="bold" font-family="'Helvetica Neue', Helvetica, Arial-Unicode, Arial, Sans-serif">from the Noun Project</text></svg>