solid OpenSCAD_Model
  facet normal -1 0 0
    outer loop
      vertex -7.5 -1.5 -15
      vertex -7.5 3.75 15
      vertex -7.5 3.75 -15
    endloop
  endfacet
  facet normal -1 -0 0
    outer loop
      vertex -7.5 3.75 15
      vertex -7.5 -1.5 -15
      vertex -7.5 -1.5 15
    endloop
  endfacet
  facet normal 0 1 -0
    outer loop
      vertex 6.6 4.65 -15
      vertex -6.6 4.65 15
      vertex 6.6 4.65 15
    endloop
  endfacet
  facet normal 0 1 0
    outer loop
      vertex -6.6 4.65 15
      vertex 6.6 4.65 -15
      vertex -6.6 4.65 -15
    endloop
  endfacet
  facet normal 0 0 -1
    outer loop
      vertex 7.5 -1.5 -15
      vertex 6.6 -0.295584 -15
      vertex 7.5 0.0999992 -15
    endloop
  endfacet
  facet normal 0 0 -1
    outer loop
      vertex 7.5 -1.5 -15
      vertex 6.59558 -0.299999 -15
      vertex 6.6 -0.295584 -15
    endloop
  endfacet
  facet normal 0 0 -1
    outer loop
      vertex 7.5 -1.5 -15
      vertex -6.59558 -0.299999 -15
      vertex 6.59558 -0.299999 -15
    endloop
  endfacet
  facet normal 0 0 -1
    outer loop
      vertex -7.5 3.75 -15
      vertex -6.6 3.59558 -15
      vertex -6.6 -0.295584 -15
    endloop
  endfacet
  facet normal 0 0 -1
    outer loop
      vertex -7.5 -1.5 -15
      vertex -6.59558 -0.299999 -15
      vertex 7.5 -1.5 -15
    endloop
  endfacet
  facet normal 0 0 -1
    outer loop
      vertex -7.5 -1.5 -15
      vertex -6.6 -0.295584 -15
      vertex -6.59558 -0.299999 -15
    endloop
  endfacet
  facet normal 0 0 -1
    outer loop
      vertex -7.5 3.75 -15
      vertex -6.6 -0.295584 -15
      vertex -7.5 -1.5 -15
    endloop
  endfacet
  facet normal 0 0 -1
    outer loop
      vertex -6.6 3.59558 -15
      vertex -7.5 3.75 -15
      vertex -6.6 4.65 -15
    endloop
  endfacet
  facet normal -0 0 -1
    outer loop
      vertex 7.5 0.0999992 -15
      vertex 6.6 -0.295584 -15
      vertex 6.6 0.0999992 -15
    endloop
  endfacet
  facet normal 0 0 -1
    outer loop
      vertex 6.6 3.59558 -15
      vertex 7.5 0.5 -15
      vertex 6.6 0.5 -15
    endloop
  endfacet
  facet normal 0 0 -1
    outer loop
      vertex 7.5 0.5 -15
      vertex 6.6 3.59558 -15
      vertex 7.5 3.75 -15
    endloop
  endfacet
  facet normal 0 0 -1
    outer loop
      vertex 6.6 3.59558 -15
      vertex 6.6 4.65 -15
      vertex 7.5 3.75 -15
    endloop
  endfacet
  facet normal 0 0 -1
    outer loop
      vertex 6.44558 3.75 -15
      vertex 6.6 4.65 -15
      vertex 6.6 3.59558 -15
    endloop
  endfacet
  facet normal 0 0 -1
    outer loop
      vertex -6.44558 3.75 -15
      vertex 6.6 4.65 -15
      vertex 6.44558 3.75 -15
    endloop
  endfacet
  facet normal 0 0 -1
    outer loop
      vertex -6.44558 3.75 -15
      vertex -6.6 4.65 -15
      vertex 6.6 4.65 -15
    endloop
  endfacet
  facet normal 0 0 -1
    outer loop
      vertex -6.6 4.65 -15
      vertex -6.44558 3.75 -15
      vertex -6.6 3.59558 -15
    endloop
  endfacet
  facet normal 1 -0 0
    outer loop
      vertex 7.5 -1.5 15
      vertex 7.5 0.0999992 -15
      vertex 7.5 0.0999992 15
    endloop
  endfacet
  facet normal 1 0 0
    outer loop
      vertex 7.5 0.0999992 -15
      vertex 7.5 -1.5 15
      vertex 7.5 -1.5 -15
    endloop
  endfacet
  facet normal 1 -0 0
    outer loop
      vertex 7.5 0.5 15
      vertex 7.5 3.75 -15
      vertex 7.5 3.75 15
    endloop
  endfacet
  facet normal 1 0 0
    outer loop
      vertex 7.5 3.75 -15
      vertex 7.5 0.5 15
      vertex 7.5 0.5 -15
    endloop
  endfacet
  facet normal 0 0 1
    outer loop
      vertex 6.6 4.65 15
      vertex 6.44558 3.75 15
      vertex 6.6 3.59558 15
    endloop
  endfacet
  facet normal 0 0 1
    outer loop
      vertex 6.6 4.65 15
      vertex -6.44558 3.75 15
      vertex 6.44558 3.75 15
    endloop
  endfacet
  facet normal -0 0 1
    outer loop
      vertex -6.6 4.65 15
      vertex -6.44558 3.75 15
      vertex 6.6 4.65 15
    endloop
  endfacet
  facet normal 0 0 1
    outer loop
      vertex -6.6 4.65 15
      vertex -6.6 3.59558 15
      vertex -6.44558 3.75 15
    endloop
  endfacet
  facet normal -0 0 1
    outer loop
      vertex -7.5 3.75 15
      vertex -6.6 3.59558 15
      vertex -6.6 4.65 15
    endloop
  endfacet
  facet normal 0 0 1
    outer loop
      vertex -6.6 3.59558 15
      vertex -7.5 3.75 15
      vertex -6.6 -0.295584 15
    endloop
  endfacet
  facet normal 0 0 1
    outer loop
      vertex 6.6 3.59558 15
      vertex 7.5 3.75 15
      vertex 6.6 4.65 15
    endloop
  endfacet
  facet normal 0 0 1
    outer loop
      vertex 7.5 3.75 15
      vertex 6.6 3.59558 15
      vertex 7.5 0.5 15
    endloop
  endfacet
  facet normal 0 0 1
    outer loop
      vertex 7.5 0.5 15
      vertex 6.6 3.59558 15
      vertex 6.6 0.5 15
    endloop
  endfacet
  facet normal 0 0 1
    outer loop
      vertex 6.6 -0.295584 15
      vertex 7.5 0.0999992 15
      vertex 6.6 0.0999992 15
    endloop
  endfacet
  facet normal 0 0 1
    outer loop
      vertex 7.5 0.0999992 15
      vertex 6.6 -0.295584 15
      vertex 7.5 -1.5 15
    endloop
  endfacet
  facet normal -0 0 1
    outer loop
      vertex 6.59558 -0.299999 15
      vertex 7.5 -1.5 15
      vertex 6.6 -0.295584 15
    endloop
  endfacet
  facet normal -0 0 1
    outer loop
      vertex -6.59558 -0.299999 15
      vertex 7.5 -1.5 15
      vertex 6.59558 -0.299999 15
    endloop
  endfacet
  facet normal 0 0 1
    outer loop
      vertex -6.59558 -0.299999 15
      vertex -7.5 -1.5 15
      vertex 7.5 -1.5 15
    endloop
  endfacet
  facet normal 0 0 1
    outer loop
      vertex -6.6 -0.295584 15
      vertex -7.5 -1.5 15
      vertex -6.59558 -0.299999 15
    endloop
  endfacet
  facet normal 0 0 1
    outer loop
      vertex -7.5 -1.5 15
      vertex -6.6 -0.295584 15
      vertex -7.5 3.75 15
    endloop
  endfacet
  facet normal -0.707107 0.707107 0
    outer loop
      vertex -7.5 3.75 -15
      vertex -6.6 4.65 15
      vertex -6.6 4.65 -15
    endloop
  endfacet
  facet normal -0.707107 0.707107 0
    outer loop
      vertex -6.6 4.65 15
      vertex -7.5 3.75 -15
      vertex -7.5 3.75 15
    endloop
  endfacet
  facet normal 0.707107 0.707107 0
    outer loop
      vertex 7.5 3.75 15
      vertex 6.6 4.65 -15
      vertex 6.6 4.65 15
    endloop
  endfacet
  facet normal 0.707107 0.707107 0
    outer loop
      vertex 6.6 4.65 -15
      vertex 7.5 3.75 15
      vertex 7.5 3.75 -15
    endloop
  endfacet
  facet normal 1 -0 0
    outer loop
      vertex -6.6 -0.295584 15
      vertex -6.6 3.59558 -15
      vertex -6.6 3.59558 15
    endloop
  endfacet
  facet normal 1 0 0
    outer loop
      vertex -6.6 3.59558 -15
      vertex -6.6 -0.295584 15
      vertex -6.6 -0.295584 -15
    endloop
  endfacet
  facet normal 0 -1 0
    outer loop
      vertex -6.44558 3.75 -15
      vertex 6.44558 3.75 15
      vertex -6.44558 3.75 15
    endloop
  endfacet
  facet normal 0 -1 -0
    outer loop
      vertex 6.44558 3.75 15
      vertex -6.44558 3.75 -15
      vertex 6.44558 3.75 -15
    endloop
  endfacet
  facet normal -1 0 0
    outer loop
      vertex 6.6 -0.295584 -15
      vertex 6.6 0.0999992 15
      vertex 6.6 0.0999992 -15
    endloop
  endfacet
  facet normal -1 -0 0
    outer loop
      vertex 6.6 0.0999992 15
      vertex 6.6 -0.295584 -15
      vertex 6.6 -0.295584 15
    endloop
  endfacet
  facet normal -1 0 0
    outer loop
      vertex 6.6 0.5 -15
      vertex 6.6 3.59558 15
      vertex 6.6 3.59558 -15
    endloop
  endfacet
  facet normal -1 -0 0
    outer loop
      vertex 6.6 3.59558 15
      vertex 6.6 0.5 -15
      vertex 6.6 0.5 15
    endloop
  endfacet
  facet normal 0.706706 0.707507 -0
    outer loop
      vertex -6.59558 -0.299999 -15
      vertex -6.6 -0.295584 15
      vertex -6.59558 -0.299999 15
    endloop
  endfacet
  facet normal 0.706706 0.707507 0
    outer loop
      vertex -6.6 -0.295584 15
      vertex -6.59558 -0.299999 -15
      vertex -6.6 -0.295584 -15
    endloop
  endfacet
  facet normal -0.706706 0.707507 0
    outer loop
      vertex 6.6 -0.295584 -15
      vertex 6.59558 -0.299999 15
      vertex 6.6 -0.295584 15
    endloop
  endfacet
  facet normal -0.706706 0.707507 0
    outer loop
      vertex 6.59558 -0.299999 15
      vertex 6.6 -0.295584 -15
      vertex 6.59558 -0.299999 -15
    endloop
  endfacet
  facet normal 0.707107 -0.707107 0
    outer loop
      vertex -6.6 3.59558 15
      vertex -6.44558 3.75 -15
      vertex -6.44558 3.75 15
    endloop
  endfacet
  facet normal 0.707107 -0.707107 0
    outer loop
      vertex -6.44558 3.75 -15
      vertex -6.6 3.59558 15
      vertex -6.6 3.59558 -15
    endloop
  endfacet
  facet normal -0.707107 -0.707107 0
    outer loop
      vertex 6.6 3.59558 -15
      vertex 6.44558 3.75 15
      vertex 6.44558 3.75 -15
    endloop
  endfacet
  facet normal -0.707107 -0.707107 0
    outer loop
      vertex 6.44558 3.75 15
      vertex 6.6 3.59558 -15
      vertex 6.6 3.59558 15
    endloop
  endfacet
  facet normal 0 1 -0
    outer loop
      vertex 7.5 0.0999992 -15
      vertex 6.6 0.0999992 15
      vertex 7.5 0.0999992 15
    endloop
  endfacet
  facet normal 0 1 0
    outer loop
      vertex 6.6 0.0999992 15
      vertex 7.5 0.0999992 -15
      vertex 6.6 0.0999992 -15
    endloop
  endfacet
  facet normal 0 -1 0
    outer loop
      vertex 6.6 0.5 -15
      vertex 7.5 0.5 15
      vertex 6.6 0.5 15
    endloop
  endfacet
  facet normal 0 -1 -0
    outer loop
      vertex 7.5 0.5 15
      vertex 6.6 0.5 -15
      vertex 7.5 0.5 -15
    endloop
  endfacet
  facet normal 0 -1 0
    outer loop
      vertex -7.5 -1.5 -15
      vertex 7.5 -1.5 15
      vertex -7.5 -1.5 15
    endloop
  endfacet
  facet normal 0 -1 -0
    outer loop
      vertex 7.5 -1.5 15
      vertex -7.5 -1.5 -15
      vertex 7.5 -1.5 -15
    endloop
  endfacet
  facet normal 0 1 -0
    outer loop
      vertex 6.59558 -0.299999 -15
      vertex -6.59558 -0.299999 15
      vertex 6.59558 -0.299999 15
    endloop
  endfacet
  facet normal 0 1 0
    outer loop
      vertex -6.59558 -0.299999 15
      vertex 6.59558 -0.299999 -15
      vertex -6.59558 -0.299999 -15
    endloop
  endfacet
endsolid OpenSCAD_Model
