solid OpenSCAD_Model
  facet normal 0 0.707107 -0.707107
    outer loop
      vertex -0.75 13 -7.5
      vertex -2.25 15 -5.5
      vertex -0.75 15 -5.5
    endloop
  endfacet
  facet normal 0 0.707107 -0.707107
    outer loop
      vertex -2.25 15 -5.5
      vertex -0.75 13 -7.5
      vertex -2.25 13 -7.5
    endloop
  endfacet
  facet normal 0 0.707107 0.707107
    outer loop
      vertex -0.75 15 5.5
      vertex -2.25 13 7.5
      vertex -0.75 13 7.5
    endloop
  endfacet
  facet normal 0 0.707107 0.707107
    outer loop
      vertex -2.25 13 7.5
      vertex -0.75 15 5.5
      vertex -2.25 15 5.5
    endloop
  endfacet
  facet normal 0 -0.707107 0.707107
    outer loop
      vertex -2.25 -15 5.5
      vertex -0.75 -13 7.5
      vertex -2.25 -13 7.5
    endloop
  endfacet
  facet normal 0 -0.707107 0.707107
    outer loop
      vertex -0.75 -13 7.5
      vertex -2.25 -15 5.5
      vertex -0.75 -15 5.5
    endloop
  endfacet
  facet normal 0 -0.707107 -0.707107
    outer loop
      vertex -2.25 -13 -7.5
      vertex -0.75 -15 -5.5
      vertex -2.25 -15 -5.5
    endloop
  endfacet
  facet normal 0 -0.707107 -0.707107
    outer loop
      vertex -0.75 -15 -5.5
      vertex -2.25 -13 -7.5
      vertex -0.75 -13 -7.5
    endloop
  endfacet
  facet normal 0 0 -1
    outer loop
      vertex 12.3827 -0.495263 -7.5
      vertex 11.1856 -0.411556 -7.5
      vertex 11.1921 0.828093 -7.5
    endloop
  endfacet
  facet normal 0 0 -1
    outer loop
      vertex 12.0769 -1.94323 -7.5
      vertex 10.9234 -1.61248 -7.5
      vertex 11.1856 -0.411556 -7.5
    endloop
  endfacet
  facet normal 0 0 -1
    outer loop
      vertex 10.4211 -2.72292 -7.5
      vertex 11.4806 -3.2863 -7.5
      vertex 10.624 -4.46738 -7.5
    endloop
  endfacet
  facet normal 0 0 -1
    outer loop
      vertex 11.4806 -3.2863 -7.5
      vertex 10.4211 -2.72292 -7.5
      vertex 10.9234 -1.61248 -7.5
    endloop
  endfacet
  facet normal 0 0 -1
    outer loop
      vertex 10.624 -4.46738 -7.5
      vertex 9.70475 -3.69603 -7.5
      vertex 10.4211 -2.72292 -7.5
    endloop
  endfacet
  facet normal 0 0 -1
    outer loop
      vertex 9.54805 -5.43728 -7.5
      vertex 9.70475 -3.69603 -7.5
      vertex 10.624 -4.46738 -7.5
    endloop
  endfacet
  facet normal 0 0 -1
    outer loop
      vertex 9.54805 -5.43728 -7.5
      vertex 8.80926 -4.49166 -7.5
      vertex 9.70475 -3.69603 -7.5
    endloop
  endfacet
  facet normal 0 0 -1
    outer loop
      vertex 8.30284 -6.15673 -7.5
      vertex 8.80926 -4.49166 -7.5
      vertex 9.54805 -5.43728 -7.5
    endloop
  endfacet
  facet normal 0 0 -1
    outer loop
      vertex 8.30284 -6.15673 -7.5
      vertex 7.77678 -5.07818 -7.5
      vertex 8.80926 -4.49166 -7.5
    endloop
  endfacet
  facet normal 0 0 -1
    outer loop
      vertex 6.94507 -6.598 -7.5
      vertex 7.77678 -5.07818 -7.5
      vertex 8.30284 -6.15673 -7.5
    endloop
  endfacet
  facet normal 0 0 -1
    outer loop
      vertex 6.94507 -6.598 -7.5
      vertex 6.65476 -5.43365 -7.5
      vertex 7.77678 -5.07818 -7.5
    endloop
  endfacet
  facet normal 0 0 -1
    outer loop
      vertex 5.53557 -6.74587 -7.5
      vertex 6.65476 -5.43365 -7.5
      vertex 6.94507 -6.598 -7.5
    endloop
  endfacet
  facet normal 0 0 -1
    outer loop
      vertex 5.53557 -6.74587 -7.5
      vertex 5.49369 -5.54661 -7.5
      vertex 6.65476 -5.43365 -7.5
    endloop
  endfacet
  facet normal 0 0 -1
    outer loop
      vertex 4.13657 -6.59821 -7.5
      vertex 5.49369 -5.54661 -7.5
      vertex 5.53557 -6.74587 -7.5
    endloop
  endfacet
  facet normal -0 0 -1
    outer loop
      vertex 5.49369 -5.54661 -7.5
      vertex 4.13657 -6.59821 -7.5
      vertex 4.34493 -5.41644 -7.5
    endloop
  endfacet
  facet normal 0 0 -1
    outer loop
      vertex 2.80888 -6.16577 -7.5
      vertex 4.34493 -5.41644 -7.5
      vertex 4.13657 -6.59821 -7.5
    endloop
  endfacet
  facet normal -0 0 -1
    outer loop
      vertex 4.34493 -5.41644 -7.5
      vertex 2.80888 -6.16577 -7.5
      vertex 3.25839 -5.05314 -7.5
    endloop
  endfacet
  facet normal 0 0 -1
    outer loop
      vertex 1.60933 -5.47164 -7.5
      vertex 3.25839 -5.05314 -7.5
      vertex 2.80888 -6.16577 -7.5
    endloop
  endfacet
  facet normal -0 0 -1
    outer loop
      vertex 3.25839 -5.05314 -7.5
      vertex 1.60933 -5.47164 -7.5
      vertex 2.28036 -4.47679 -7.5
    endloop
  endfacet
  facet normal 0 0 -1
    outer loop
      vertex 0.588327 -4.55001 -7.5
      vertex 2.28036 -4.47679 -7.5
      vertex 1.60933 -5.47164 -7.5
    endloop
  endfacet
  facet normal -0 0 -1
    outer loop
      vertex 2.28036 -4.47679 -7.5
      vertex 0.588327 -4.55001 -7.5
      vertex 1.45153 -3.71642 -7.5
    endloop
  endfacet
  facet normal 0 0 -1
    outer loop
      vertex -0.21231 -3.44447 -7.5
      vertex 1.45153 -3.71642 -7.5
      vertex 0.588327 -4.55001 -7.5
    endloop
  endfacet
  facet normal 0 0 -1
    outer loop
      vertex 1.45153 -3.71642 -7.5
      vertex -0.21231 -3.44447 -7.5
      vertex 0.805352 -2.80857 -7.5
    endloop
  endfacet
  facet normal 0 0 -1
    outer loop
      vertex -0.75 -2.23089 -7.5
      vertex 0.805352 -2.80857 -7.5
      vertex -0.21231 -3.44447 -7.5
    endloop
  endfacet
  facet normal 0 0 -1
    outer loop
      vertex 0.805352 -2.80857 -7.5
      vertex -0.75 -2.23089 -7.5
      vertex 0.366614 -1.79561 -7.5
    endloop
  endfacet
  facet normal 0 0 -1
    outer loop
      vertex 11.1856 -0.411556 -7.5
      vertex 12.3827 -0.495263 -7.5
      vertex 12.0769 -1.94323 -7.5
    endloop
  endfacet
  facet normal 0 0 -1
    outer loop
      vertex 12.3827 -0.495263 -7.5
      vertex 11.1921 0.828093 -7.5
      vertex 12.3804 0.995095 -7.5
    endloop
  endfacet
  facet normal 0 0 -1
    outer loop
      vertex 10.9234 -1.61248 -7.5
      vertex 12.0769 -1.94323 -7.5
      vertex 11.4806 -3.2863 -7.5
    endloop
  endfacet
  facet normal 0 0 -1
    outer loop
      vertex 10.9382 2.05212 -7.5
      vertex 12.3804 0.995095 -7.5
      vertex 11.1921 0.828093 -7.5
    endloop
  endfacet
  facet normal 0 0 -1
    outer loop
      vertex 12.3804 0.995095 -7.5
      vertex 10.9382 2.05212 -7.5
      vertex 12.0658 2.46254 -7.5
    endloop
  endfacet
  facet normal 0 0 -1
    outer loop
      vertex 9.70669 0.619324 -7.5
      vertex 10.895 0.786326 -7.5
      vertex 10.8863 -0.390625 -7.5
    endloop
  endfacet
  facet normal 0 0 -1
    outer loop
      vertex 9.68927 -0.306918 -7.5
      vertex 10.8863 -0.390625 -7.5
      vertex 10.635 -1.52979 -7.5
    endloop
  endfacet
  facet normal 0 0 -1
    outer loop
      vertex 9.52862 1.53909 -7.5
      vertex 10.895 0.786326 -7.5
      vertex 9.70669 0.619324 -7.5
    endloop
  endfacet
  facet normal 0 0 -1
    outer loop
      vertex 10.895 0.786326 -7.5
      vertex 9.52862 1.53909 -7.5
      vertex 10.6562 1.94951 -7.5
    endloop
  endfacet
  facet normal 0 0 -1
    outer loop
      vertex 10.8863 -0.390625 -7.5
      vertex 9.68927 -0.306918 -7.5
      vertex 9.70669 0.619324 -7.5
    endloop
  endfacet
  facet normal 0 0 -1
    outer loop
      vertex 10.635 -1.52979 -7.5
      vertex 9.48147 -1.19902 -7.5
      vertex 9.68927 -0.306918 -7.5
    endloop
  endfacet
  facet normal 0 0 -1
    outer loop
      vertex 9.15861 2.41112 -7.5
      vertex 10.6562 1.94951 -7.5
      vertex 9.52862 1.53909 -7.5
    endloop
  endfacet
  facet normal 0 0 -1
    outer loop
      vertex 10.6562 1.94951 -7.5
      vertex 9.15861 2.41112 -7.5
      vertex 10.1763 3.04702 -7.5
    endloop
  endfacet
  facet normal 0 0 -1
    outer loop
      vertex 8.60896 3.19542 -7.5
      vertex 10.1763 3.04702 -7.5
      vertex 9.15861 2.41112 -7.5
    endloop
  endfacet
  facet normal 0 0 -1
    outer loop
      vertex 10.1763 3.04702 -7.5
      vertex 8.60896 3.19542 -7.5
      vertex 9.47216 4.02901 -7.5
    endloop
  endfacet
  facet normal 0 0 -1
    outer loop
      vertex 7.90024 3.85502 -7.5
      vertex 9.47216 4.02901 -7.5
      vertex 8.60896 3.19542 -7.5
    endloop
  endfacet
  facet normal -0 0 -1
    outer loop
      vertex 9.47216 4.02901 -7.5
      vertex 7.90024 3.85502 -7.5
      vertex 8.57127 4.84986 -7.5
    endloop
  endfacet
  facet normal 0 0 -1
    outer loop
      vertex 7.06065 4.35775 -7.5
      vertex 8.57127 4.84986 -7.5
      vertex 7.90024 3.85502 -7.5
    endloop
  endfacet
  facet normal -0 0 -1
    outer loop
      vertex 8.57127 4.84986 -7.5
      vertex 7.06065 4.35775 -7.5
      vertex 7.51017 5.47038 -7.5
    endloop
  endfacet
  facet normal 0 0 -1
    outer loop
      vertex 6.12483 4.67783 -7.5
      vertex 7.51017 5.47038 -7.5
      vertex 7.06065 4.35775 -7.5
    endloop
  endfacet
  facet normal -0 0 -1
    outer loop
      vertex 7.51017 5.47038 -7.5
      vertex 6.12483 4.67783 -7.5
      vertex 6.3332 5.8596 -7.5
    endloop
  endfacet
  facet normal 0 0 -1
    outer loop
      vertex 5.13248 4.79707 -7.5
      vertex 6.3332 5.8596 -7.5
      vertex 6.12483 4.67783 -7.5
    endloop
  endfacet
  facet normal 0 0 -1
    outer loop
      vertex 5.13248 4.79707 -7.5
      vertex 5.0906 5.99633 -7.5
      vertex 6.3332 5.8596 -7.5
    endloop
  endfacet
  facet normal 0 0 -1
    outer loop
      vertex 4.12668 4.70593 -7.5
      vertex 5.0906 5.99633 -7.5
      vertex 5.13248 4.79707 -7.5
    endloop
  endfacet
  facet normal 0 0 -1
    outer loop
      vertex 4.12668 4.70593 -7.5
      vertex 3.83637 5.87027 -7.5
      vertex 5.0906 5.99633 -7.5
    endloop
  endfacet
  facet normal 0 0 -1
    outer loop
      vertex 3.15199 4.40409 -7.5
      vertex 3.83637 5.87027 -7.5
      vertex 4.12668 4.70593 -7.5
    endloop
  endfacet
  facet normal 0 0 -1
    outer loop
      vertex 3.15199 4.40409 -7.5
      vertex 2.62594 5.48264 -7.5
      vertex 3.83637 5.87027 -7.5
    endloop
  endfacet
  facet normal 0 0 -1
    outer loop
      vertex 2.25248 3.90064 -7.5
      vertex 2.62594 5.48264 -7.5
      vertex 3.15199 4.40409 -7.5
    endloop
  endfacet
  facet normal 0 0 -1
    outer loop
      vertex 2.25248 3.90064 -7.5
      vertex 1.51369 4.84625 -7.5
      vertex 2.62594 5.48264 -7.5
    endloop
  endfacet
  facet normal 0 0 -1
    outer loop
      vertex 1.46978 3.21394 -7.5
      vertex 1.51369 4.84625 -7.5
      vertex 2.25248 3.90064 -7.5
    endloop
  endfacet
  facet normal 0 0 -1
    outer loop
      vertex 0.550534 3.98528 -7.5
      vertex 1.46978 3.21394 -7.5
      vertex 0.841124 2.37082 -7.5
    endloop
  endfacet
  facet normal 0 0 -1
    outer loop
      vertex 1.46978 3.21394 -7.5
      vertex 0.550534 3.98528 -7.5
      vertex 1.51369 4.84625 -7.5
    endloop
  endfacet
  facet normal 0 0 -1
    outer loop
      vertex -0.218409 2.9342 -7.5
      vertex 0.841124 2.37082 -7.5
      vertex 0.397578 1.40575 -7.5
    endloop
  endfacet
  facet normal 0 0 -1
    outer loop
      vertex -0.75 1.74974 -7.5
      vertex 0.397578 1.40575 -7.5
      vertex 0.162551 0.359234 -7.5
    endloop
  endfacet
  facet normal -0 0 -1
    outer loop
      vertex 0.366614 -1.79561 -7.5
      vertex -0.75 -2.23089 -7.5
      vertex 0.150612 -0.723708 -7.5
    endloop
  endfacet
  facet normal 0 0 -1
    outer loop
      vertex 0.841124 2.37082 -7.5
      vertex -0.218409 2.9342 -7.5
      vertex 0.550534 3.98528 -7.5
    endloop
  endfacet
  facet normal 0 0 -1
    outer loop
      vertex -0.75 1.74974 -7.5
      vertex 0.150612 -0.723708 -7.5
      vertex -0.75 -2.23089 -7.5
    endloop
  endfacet
  facet normal 0 0 -1
    outer loop
      vertex 0.150612 -0.723708 -7.5
      vertex -0.75 1.74974 -7.5
      vertex 0.162551 0.359234 -7.5
    endloop
  endfacet
  facet normal 0 0 -1
    outer loop
      vertex 0.397578 1.40575 -7.5
      vertex -0.75 1.74974 -7.5
      vertex -0.218409 2.9342 -7.5
    endloop
  endfacet
  facet normal 0 0 -1
    outer loop
      vertex -2.25 -13 -7.5
      vertex -0.75 -2.23089 -7.5
      vertex -0.75 -13 -7.5
    endloop
  endfacet
  facet normal -0 0 -1
    outer loop
      vertex -0.75 -2.23089 -7.5
      vertex -2.25 -13 -7.5
      vertex -0.75 1.74974 -7.5
    endloop
  endfacet
  facet normal 0 0 -1
    outer loop
      vertex -2.25 13 -7.5
      vertex -0.75 1.74974 -7.5
      vertex -2.25 -13 -7.5
    endloop
  endfacet
  facet normal 0 0 -1
    outer loop
      vertex -0.75 1.74974 -7.5
      vertex -2.25 13 -7.5
      vertex -0.75 13 -7.5
    endloop
  endfacet
  facet normal 1 0 0
    outer loop
      vertex -0.75 13 7.5
      vertex -0.75 15 -5.5
      vertex -0.75 15 5.5
    endloop
  endfacet
  facet normal 1 0 0
    outer loop
      vertex -0.75 13 7.5
      vertex -0.75 13 -7.5
      vertex -0.75 15 -5.5
    endloop
  endfacet
  facet normal 1 -0 0
    outer loop
      vertex -0.75 1.74974 7.5
      vertex -0.75 13 -7.5
      vertex -0.75 13 7.5
    endloop
  endfacet
  facet normal 1 0 0
    outer loop
      vertex -0.75 13 -7.5
      vertex -0.75 1.74974 7.5
      vertex -0.75 1.74974 -7.5
    endloop
  endfacet
  facet normal 1 -0 0
    outer loop
      vertex -0.75 -13 7.5
      vertex -0.75 -2.23089 -7.5
      vertex -0.75 -2.23089 7.5
    endloop
  endfacet
  facet normal 1 -0 0
    outer loop
      vertex -0.75 -15 5.5
      vertex -0.75 -2.23089 -7.5
      vertex -0.75 -13 7.5
    endloop
  endfacet
  facet normal 1 0 0
    outer loop
      vertex -0.75 -2.23089 -7.5
      vertex -0.75 -15 5.5
      vertex -0.75 -13 -7.5
    endloop
  endfacet
  facet normal 1 0 0
    outer loop
      vertex -0.75 -13 -7.5
      vertex -0.75 -15 5.5
      vertex -0.75 -15 -5.5
    endloop
  endfacet
  facet normal -1 0 0
    outer loop
      vertex -2.25 13 -7.5
      vertex -2.25 15 5.5
      vertex -2.25 15 -5.5
    endloop
  endfacet
  facet normal -1 0 0
    outer loop
      vertex -2.25 13 -7.5
      vertex -2.25 13 7.5
      vertex -2.25 15 5.5
    endloop
  endfacet
  facet normal -1 0 0
    outer loop
      vertex -2.25 -13 -7.5
      vertex -2.25 13 7.5
      vertex -2.25 13 -7.5
    endloop
  endfacet
  facet normal -1 0 0
    outer loop
      vertex -2.25 -13 -7.5
      vertex -2.25 -13 7.5
      vertex -2.25 13 7.5
    endloop
  endfacet
  facet normal -1 0 0
    outer loop
      vertex -2.25 -15 -5.5
      vertex -2.25 -13 7.5
      vertex -2.25 -13 -7.5
    endloop
  endfacet
  facet normal -1 0 0
    outer loop
      vertex -2.25 -13 7.5
      vertex -2.25 -15 -5.5
      vertex -2.25 -15 5.5
    endloop
  endfacet
  facet normal -0 0 1
    outer loop
      vertex -2.25 13 7.5
      vertex -0.75 1.74974 7.5
      vertex -0.75 13 7.5
    endloop
  endfacet
  facet normal 0 0 1
    outer loop
      vertex -0.75 1.74974 7.5
      vertex -2.25 13 7.5
      vertex -0.75 -2.23089 7.5
    endloop
  endfacet
  facet normal 0 0 1
    outer loop
      vertex -2.25 -13 7.5
      vertex -0.75 -2.23089 7.5
      vertex -2.25 13 7.5
    endloop
  endfacet
  facet normal 0 0 1
    outer loop
      vertex -0.75 -2.23089 7.5
      vertex -2.25 -13 7.5
      vertex -0.75 -13 7.5
    endloop
  endfacet
  facet normal 0 0 1
    outer loop
      vertex 10.895 0.786326 7.5
      vertex 9.52862 1.53909 7.5
      vertex 9.70669 0.619324 7.5
    endloop
  endfacet
  facet normal -0 0 1
    outer loop
      vertex 8.60896 3.19542 7.5
      vertex 10.1763 3.04702 7.5
      vertex 9.47216 4.02901 7.5
    endloop
  endfacet
  facet normal 0 0 1
    outer loop
      vertex 10.6562 1.94951 7.5
      vertex 9.15861 2.41112 7.5
      vertex 9.52862 1.53909 7.5
    endloop
  endfacet
  facet normal 0 0 1
    outer loop
      vertex 10.1763 3.04702 7.5
      vertex 8.60896 3.19542 7.5
      vertex 9.15861 2.41112 7.5
    endloop
  endfacet
  facet normal 0 0 1
    outer loop
      vertex 7.90024 3.85502 7.5
      vertex 9.47216 4.02901 7.5
      vertex 8.57127 4.84986 7.5
    endloop
  endfacet
  facet normal 0 0 1
    outer loop
      vertex 9.47216 4.02901 7.5
      vertex 7.90024 3.85502 7.5
      vertex 8.60896 3.19542 7.5
    endloop
  endfacet
  facet normal 0 0 1
    outer loop
      vertex 7.06065 4.35775 7.5
      vertex 8.57127 4.84986 7.5
      vertex 7.51017 5.47038 7.5
    endloop
  endfacet
  facet normal 0 0 1
    outer loop
      vertex 8.57127 4.84986 7.5
      vertex 7.06065 4.35775 7.5
      vertex 7.90024 3.85502 7.5
    endloop
  endfacet
  facet normal 0 0 1
    outer loop
      vertex 6.12483 4.67783 7.5
      vertex 7.51017 5.47038 7.5
      vertex 6.3332 5.8596 7.5
    endloop
  endfacet
  facet normal 0 0 1
    outer loop
      vertex 7.51017 5.47038 7.5
      vertex 6.12483 4.67783 7.5
      vertex 7.06065 4.35775 7.5
    endloop
  endfacet
  facet normal 0 0 1
    outer loop
      vertex 6.3332 5.8596 7.5
      vertex 5.13248 4.79707 7.5
      vertex 6.12483 4.67783 7.5
    endloop
  endfacet
  facet normal 0 0 1
    outer loop
      vertex 5.0906 5.99633 7.5
      vertex 5.13248 4.79707 7.5
      vertex 6.3332 5.8596 7.5
    endloop
  endfacet
  facet normal 0 0 1
    outer loop
      vertex 5.0906 5.99633 7.5
      vertex 4.12668 4.70593 7.5
      vertex 5.13248 4.79707 7.5
    endloop
  endfacet
  facet normal -0 0 1
    outer loop
      vertex 3.83637 5.87027 7.5
      vertex 4.12668 4.70593 7.5
      vertex 5.0906 5.99633 7.5
    endloop
  endfacet
  facet normal 0 0 1
    outer loop
      vertex 3.83637 5.87027 7.5
      vertex 3.15199 4.40409 7.5
      vertex 4.12668 4.70593 7.5
    endloop
  endfacet
  facet normal -0 0 1
    outer loop
      vertex 2.62594 5.48264 7.5
      vertex 3.15199 4.40409 7.5
      vertex 3.83637 5.87027 7.5
    endloop
  endfacet
  facet normal 0 0 1
    outer loop
      vertex 2.62594 5.48264 7.5
      vertex 2.25248 3.90064 7.5
      vertex 3.15199 4.40409 7.5
    endloop
  endfacet
  facet normal -0 0 1
    outer loop
      vertex 1.51369 4.84625 7.5
      vertex 2.25248 3.90064 7.5
      vertex 2.62594 5.48264 7.5
    endloop
  endfacet
  facet normal 0 0 1
    outer loop
      vertex 1.51369 4.84625 7.5
      vertex 1.46978 3.21394 7.5
      vertex 2.25248 3.90064 7.5
    endloop
  endfacet
  facet normal -0 0 1
    outer loop
      vertex 0.550534 3.98528 7.5
      vertex 1.46978 3.21394 7.5
      vertex 1.51369 4.84625 7.5
    endloop
  endfacet
  facet normal 0 0 1
    outer loop
      vertex 1.46978 3.21394 7.5
      vertex 0.550534 3.98528 7.5
      vertex 0.841124 2.37082 7.5
    endloop
  endfacet
  facet normal -0 0 1
    outer loop
      vertex -0.218409 2.9342 7.5
      vertex 0.841124 2.37082 7.5
      vertex 0.550534 3.98528 7.5
    endloop
  endfacet
  facet normal 0 0 1
    outer loop
      vertex 0.841124 2.37082 7.5
      vertex -0.218409 2.9342 7.5
      vertex 0.397578 1.40575 7.5
    endloop
  endfacet
  facet normal 0 0 1
    outer loop
      vertex -0.75 1.74974 7.5
      vertex 0.150612 -0.723708 7.5
      vertex 0.162551 0.359234 7.5
    endloop
  endfacet
  facet normal -0 0 1
    outer loop
      vertex -0.75 1.74974 7.5
      vertex 0.397578 1.40575 7.5
      vertex -0.218409 2.9342 7.5
    endloop
  endfacet
  facet normal 0 0 1
    outer loop
      vertex 0.397578 1.40575 7.5
      vertex -0.75 1.74974 7.5
      vertex 0.162551 0.359234 7.5
    endloop
  endfacet
  facet normal 0 0 1
    outer loop
      vertex 0.150612 -0.723708 7.5
      vertex -0.75 1.74974 7.5
      vertex -0.75 -2.23089 7.5
    endloop
  endfacet
  facet normal 0 0 1
    outer loop
      vertex 0.150612 -0.723708 7.5
      vertex -0.75 -2.23089 7.5
      vertex -0.21231 -3.44447 7.5
    endloop
  endfacet
  facet normal -0 0 1
    outer loop
      vertex 9.52862 1.53909 7.5
      vertex 10.895 0.786326 7.5
      vertex 10.6562 1.94951 7.5
    endloop
  endfacet
  facet normal 0 0 1
    outer loop
      vertex 10.895 0.786326 7.5
      vertex 9.70669 0.619324 7.5
      vertex 10.8863 -0.390625 7.5
    endloop
  endfacet
  facet normal -0 0 1
    outer loop
      vertex 9.15861 2.41112 7.5
      vertex 10.6562 1.94951 7.5
      vertex 10.1763 3.04702 7.5
    endloop
  endfacet
  facet normal -0 0 1
    outer loop
      vertex 9.68927 -0.306918 7.5
      vertex 10.8863 -0.390625 7.5
      vertex 9.70669 0.619324 7.5
    endloop
  endfacet
  facet normal 0 0 1
    outer loop
      vertex 10.8863 -0.390625 7.5
      vertex 9.68927 -0.306918 7.5
      vertex 10.635 -1.52979 7.5
    endloop
  endfacet
  facet normal -0 0 1
    outer loop
      vertex 9.48147 -1.19902 7.5
      vertex 10.635 -1.52979 7.5
      vertex 9.68927 -0.306918 7.5
    endloop
  endfacet
  facet normal -0 0 1
    outer loop
      vertex 11.1921 0.828093 7.5
      vertex 12.3827 -0.495263 7.5
      vertex 12.3804 0.995095 7.5
    endloop
  endfacet
  facet normal -0 0 1
    outer loop
      vertex 10.9382 2.05212 7.5
      vertex 12.3804 0.995095 7.5
      vertex 12.0658 2.46254 7.5
    endloop
  endfacet
  facet normal 0 0 1
    outer loop
      vertex 12.3827 -0.495263 7.5
      vertex 11.1921 0.828093 7.5
      vertex 11.1856 -0.411556 7.5
    endloop
  endfacet
  facet normal 0 0 1
    outer loop
      vertex 12.3827 -0.495263 7.5
      vertex 11.1856 -0.411556 7.5
      vertex 12.0769 -1.94323 7.5
    endloop
  endfacet
  facet normal 0 0 1
    outer loop
      vertex 12.3804 0.995095 7.5
      vertex 10.9382 2.05212 7.5
      vertex 11.1921 0.828093 7.5
    endloop
  endfacet
  facet normal -0 0 1
    outer loop
      vertex 10.9234 -1.61248 7.5
      vertex 12.0769 -1.94323 7.5
      vertex 11.1856 -0.411556 7.5
    endloop
  endfacet
  facet normal 0 0 1
    outer loop
      vertex 12.0769 -1.94323 7.5
      vertex 10.9234 -1.61248 7.5
      vertex 11.4806 -3.2863 7.5
    endloop
  endfacet
  facet normal -0 0 1
    outer loop
      vertex 10.4211 -2.72292 7.5
      vertex 11.4806 -3.2863 7.5
      vertex 10.9234 -1.61248 7.5
    endloop
  endfacet
  facet normal 0 0 1
    outer loop
      vertex 11.4806 -3.2863 7.5
      vertex 10.4211 -2.72292 7.5
      vertex 10.624 -4.46738 7.5
    endloop
  endfacet
  facet normal -0 0 1
    outer loop
      vertex 9.70475 -3.69603 7.5
      vertex 10.624 -4.46738 7.5
      vertex 10.4211 -2.72292 7.5
    endloop
  endfacet
  facet normal 0 0 1
    outer loop
      vertex 9.70475 -3.69603 7.5
      vertex 9.54805 -5.43728 7.5
      vertex 10.624 -4.46738 7.5
    endloop
  endfacet
  facet normal -0 0 1
    outer loop
      vertex 8.80926 -4.49166 7.5
      vertex 9.54805 -5.43728 7.5
      vertex 9.70475 -3.69603 7.5
    endloop
  endfacet
  facet normal 0 0 1
    outer loop
      vertex 8.80926 -4.49166 7.5
      vertex 8.30284 -6.15673 7.5
      vertex 9.54805 -5.43728 7.5
    endloop
  endfacet
  facet normal -0 0 1
    outer loop
      vertex 7.77678 -5.07818 7.5
      vertex 8.30284 -6.15673 7.5
      vertex 8.80926 -4.49166 7.5
    endloop
  endfacet
  facet normal 0 0 1
    outer loop
      vertex 7.77678 -5.07818 7.5
      vertex 6.94507 -6.598 7.5
      vertex 8.30284 -6.15673 7.5
    endloop
  endfacet
  facet normal -0 0 1
    outer loop
      vertex 6.65476 -5.43365 7.5
      vertex 6.94507 -6.598 7.5
      vertex 7.77678 -5.07818 7.5
    endloop
  endfacet
  facet normal 0 0 1
    outer loop
      vertex 6.65476 -5.43365 7.5
      vertex 5.53557 -6.74587 7.5
      vertex 6.94507 -6.598 7.5
    endloop
  endfacet
  facet normal -0 0 1
    outer loop
      vertex 5.49369 -5.54661 7.5
      vertex 5.53557 -6.74587 7.5
      vertex 6.65476 -5.43365 7.5
    endloop
  endfacet
  facet normal 0 0 1
    outer loop
      vertex 4.13657 -6.59821 7.5
      vertex 5.49369 -5.54661 7.5
      vertex 4.34493 -5.41644 7.5
    endloop
  endfacet
  facet normal 0 0 1
    outer loop
      vertex 5.49369 -5.54661 7.5
      vertex 4.13657 -6.59821 7.5
      vertex 5.53557 -6.74587 7.5
    endloop
  endfacet
  facet normal 0 0 1
    outer loop
      vertex 2.80888 -6.16577 7.5
      vertex 4.34493 -5.41644 7.5
      vertex 3.25839 -5.05314 7.5
    endloop
  endfacet
  facet normal 0 0 1
    outer loop
      vertex 4.34493 -5.41644 7.5
      vertex 2.80888 -6.16577 7.5
      vertex 4.13657 -6.59821 7.5
    endloop
  endfacet
  facet normal 0 0 1
    outer loop
      vertex 1.60933 -5.47164 7.5
      vertex 3.25839 -5.05314 7.5
      vertex 2.28036 -4.47679 7.5
    endloop
  endfacet
  facet normal 0 0 1
    outer loop
      vertex 3.25839 -5.05314 7.5
      vertex 1.60933 -5.47164 7.5
      vertex 2.80888 -6.16577 7.5
    endloop
  endfacet
  facet normal 0 0 1
    outer loop
      vertex 0.588327 -4.55001 7.5
      vertex 2.28036 -4.47679 7.5
      vertex 1.45153 -3.71642 7.5
    endloop
  endfacet
  facet normal -0 0 1
    outer loop
      vertex -0.21231 -3.44447 7.5
      vertex 1.45153 -3.71642 7.5
      vertex 0.805352 -2.80857 7.5
    endloop
  endfacet
  facet normal 0 0 1
    outer loop
      vertex 2.28036 -4.47679 7.5
      vertex 0.588327 -4.55001 7.5
      vertex 1.60933 -5.47164 7.5
    endloop
  endfacet
  facet normal 0 0 1
    outer loop
      vertex -0.21231 -3.44447 7.5
      vertex 0.805352 -2.80857 7.5
      vertex 0.366614 -1.79561 7.5
    endloop
  endfacet
  facet normal 0 0 1
    outer loop
      vertex -0.21231 -3.44447 7.5
      vertex 0.366614 -1.79561 7.5
      vertex 0.150612 -0.723708 7.5
    endloop
  endfacet
  facet normal 0 0 1
    outer loop
      vertex 1.45153 -3.71642 7.5
      vertex -0.21231 -3.44447 7.5
      vertex 0.588327 -4.55001 7.5
    endloop
  endfacet
  facet normal 0 1 -0
    outer loop
      vertex -0.75 15 -5.5
      vertex -2.25 15 5.5
      vertex -0.75 15 5.5
    endloop
  endfacet
  facet normal 0 1 0
    outer loop
      vertex -2.25 15 5.5
      vertex -0.75 15 -5.5
      vertex -2.25 15 -5.5
    endloop
  endfacet
  facet normal 0 -1 0
    outer loop
      vertex -2.25 -15 -5.5
      vertex -0.75 -15 5.5
      vertex -2.25 -15 5.5
    endloop
  endfacet
  facet normal 0 -1 -0
    outer loop
      vertex -0.75 -15 5.5
      vertex -2.25 -15 -5.5
      vertex -0.75 -15 -5.5
    endloop
  endfacet
  facet normal -0.275638 -0.961262 0
    outer loop
      vertex 9.48147 -1.19902 -7.5
      vertex 10.635 -1.52979 7.5
      vertex 9.48147 -1.19902 7.5
    endloop
  endfacet
  facet normal -0.275638 -0.961262 -0
    outer loop
      vertex 10.635 -1.52979 7.5
      vertex 9.48147 -1.19902 -7.5
      vertex 10.635 -1.52979 -7.5
    endloop
  endfacet
  facet normal 0.669554 -0.742764 0
    outer loop
      vertex 9.54805 -5.43728 -7.5
      vertex 10.624 -4.46738 7.5
      vertex 9.54805 -5.43728 7.5
    endloop
  endfacet
  facet normal 0.669554 -0.742764 0
    outer loop
      vertex 10.624 -4.46738 7.5
      vertex 9.54805 -5.43728 -7.5
      vertex 10.624 -4.46738 -7.5
    endloop
  endfacet
  facet normal 0.809507 -0.58711 0
    outer loop
      vertex 10.624 -4.46738 7.5
      vertex 11.4806 -3.2863 -7.5
      vertex 11.4806 -3.2863 7.5
    endloop
  endfacet
  facet normal 0.809507 -0.58711 0
    outer loop
      vertex 11.4806 -3.2863 -7.5
      vertex 10.624 -4.46738 7.5
      vertex 10.624 -4.46738 -7.5
    endloop
  endfacet
  facet normal 0.913968 -0.405786 0
    outer loop
      vertex 11.4806 -3.2863 7.5
      vertex 12.0769 -1.94323 -7.5
      vertex 12.0769 -1.94323 7.5
    endloop
  endfacet
  facet normal 0.913968 -0.405786 0
    outer loop
      vertex 12.0769 -1.94323 -7.5
      vertex 11.4806 -3.2863 7.5
      vertex 11.4806 -3.2863 -7.5
    endloop
  endfacet
  facet normal 0.978418 -0.206635 0
    outer loop
      vertex 12.0769 -1.94323 7.5
      vertex 12.3827 -0.495263 -7.5
      vertex 12.3827 -0.495263 7.5
    endloop
  endfacet
  facet normal 0.978418 -0.206635 0
    outer loop
      vertex 12.3827 -0.495263 -7.5
      vertex 12.0769 -1.94323 7.5
      vertex 12.0769 -1.94323 -7.5
    endloop
  endfacet
  facet normal 0.999999 0.00154325 0
    outer loop
      vertex 12.3827 -0.495263 7.5
      vertex 12.3804 0.995095 -7.5
      vertex 12.3804 0.995095 7.5
    endloop
  endfacet
  facet normal 0.999999 0.00154325 0
    outer loop
      vertex 12.3804 0.995095 -7.5
      vertex 12.3827 -0.495263 7.5
      vertex 12.3827 -0.495263 -7.5
    endloop
  endfacet
  facet normal 0.977782 0.209623 0
    outer loop
      vertex 12.3804 0.995095 7.5
      vertex 12.0658 2.46254 -7.5
      vertex 12.0658 2.46254 7.5
    endloop
  endfacet
  facet normal 0.977782 0.209623 0
    outer loop
      vertex 12.0658 2.46254 -7.5
      vertex 12.3804 0.995095 7.5
      vertex 12.3804 0.995095 -7.5
    endloop
  endfacet
  facet normal -0.342025 0.939691 0
    outer loop
      vertex 12.0658 2.46254 -7.5
      vertex 10.9382 2.05212 7.5
      vertex 12.0658 2.46254 7.5
    endloop
  endfacet
  facet normal -0.342025 0.939691 0
    outer loop
      vertex 10.9382 2.05212 7.5
      vertex 12.0658 2.46254 -7.5
      vertex 10.9382 2.05212 -7.5
    endloop
  endfacet
  facet normal -0.979157 -0.203107 0
    outer loop
      vertex 11.1921 0.828093 -7.5
      vertex 10.9382 2.05212 7.5
      vertex 10.9382 2.05212 -7.5
    endloop
  endfacet
  facet normal -0.979157 -0.203107 0
    outer loop
      vertex 10.9382 2.05212 7.5
      vertex 11.1921 0.828093 -7.5
      vertex 11.1921 0.828093 7.5
    endloop
  endfacet
  facet normal -0.999986 0.00524335 0
    outer loop
      vertex 11.1856 -0.411556 -7.5
      vertex 11.1921 0.828093 7.5
      vertex 11.1921 0.828093 -7.5
    endloop
  endfacet
  facet normal -0.999986 0.00524335 0
    outer loop
      vertex 11.1921 0.828093 7.5
      vertex 11.1856 -0.411556 -7.5
      vertex 11.1856 -0.411556 7.5
    endloop
  endfacet
  facet normal -0.976985 0.213307 0
    outer loop
      vertex 10.9234 -1.61248 -7.5
      vertex 11.1856 -0.411556 7.5
      vertex 11.1856 -0.411556 -7.5
    endloop
  endfacet
  facet normal -0.976985 0.213307 0
    outer loop
      vertex 11.1856 -0.411556 7.5
      vertex 10.9234 -1.61248 -7.5
      vertex 10.9234 -1.61248 7.5
    endloop
  endfacet
  facet normal -0.911121 0.412139 0
    outer loop
      vertex 10.4211 -2.72292 -7.5
      vertex 10.9234 -1.61248 7.5
      vertex 10.9234 -1.61248 -7.5
    endloop
  endfacet
  facet normal -0.911121 0.412139 0
    outer loop
      vertex 10.9234 -1.61248 7.5
      vertex 10.4211 -2.72292 -7.5
      vertex 10.4211 -2.72292 7.5
    endloop
  endfacet
  facet normal -0.805324 0.592835 0
    outer loop
      vertex 9.70475 -3.69603 -7.5
      vertex 10.4211 -2.72292 7.5
      vertex 10.4211 -2.72292 -7.5
    endloop
  endfacet
  facet normal -0.805324 0.592835 0
    outer loop
      vertex 10.4211 -2.72292 7.5
      vertex 9.70475 -3.69603 -7.5
      vertex 9.70475 -3.69603 7.5
    endloop
  endfacet
  facet normal -0.664195 0.747559 0
    outer loop
      vertex 9.70475 -3.69603 -7.5
      vertex 8.80926 -4.49166 7.5
      vertex 9.70475 -3.69603 7.5
    endloop
  endfacet
  facet normal -0.664195 0.747559 0
    outer loop
      vertex 8.80926 -4.49166 7.5
      vertex 9.70475 -3.69603 -7.5
      vertex 8.80926 -4.49166 -7.5
    endloop
  endfacet
  facet normal -0.493935 0.869499 0
    outer loop
      vertex 8.80926 -4.49166 -7.5
      vertex 7.77678 -5.07818 7.5
      vertex 8.80926 -4.49166 7.5
    endloop
  endfacet
  facet normal -0.493935 0.869499 0
    outer loop
      vertex 7.77678 -5.07818 7.5
      vertex 8.80926 -4.49166 -7.5
      vertex 7.77678 -5.07818 -7.5
    endloop
  endfacet
  facet normal -0.302018 0.953302 0
    outer loop
      vertex 7.77678 -5.07818 -7.5
      vertex 6.65476 -5.43365 7.5
      vertex 7.77678 -5.07818 7.5
    endloop
  endfacet
  facet normal -0.302018 0.953302 0
    outer loop
      vertex 6.65476 -5.43365 7.5
      vertex 7.77678 -5.07818 -7.5
      vertex 6.65476 -5.43365 -7.5
    endloop
  endfacet
  facet normal -0.0968324 0.995301 0
    outer loop
      vertex 6.65476 -5.43365 -7.5
      vertex 5.49369 -5.54661 7.5
      vertex 6.65476 -5.43365 7.5
    endloop
  endfacet
  facet normal -0.0968324 0.995301 0
    outer loop
      vertex 5.49369 -5.54661 7.5
      vertex 6.65476 -5.43365 -7.5
      vertex 5.49369 -5.54661 -7.5
    endloop
  endfacet
  facet normal 0.112593 0.993641 -0
    outer loop
      vertex 5.49369 -5.54661 -7.5
      vertex 4.34493 -5.41644 7.5
      vertex 5.49369 -5.54661 7.5
    endloop
  endfacet
  facet normal 0.112593 0.993641 0
    outer loop
      vertex 4.34493 -5.41644 7.5
      vertex 5.49369 -5.54661 -7.5
      vertex 4.34493 -5.41644 -7.5
    endloop
  endfacet
  facet normal 0.317107 0.94839 -0
    outer loop
      vertex 4.34493 -5.41644 -7.5
      vertex 3.25839 -5.05314 7.5
      vertex 4.34493 -5.41644 7.5
    endloop
  endfacet
  facet normal 0.317107 0.94839 0
    outer loop
      vertex 3.25839 -5.05314 7.5
      vertex 4.34493 -5.41644 -7.5
      vertex 3.25839 -5.05314 -7.5
    endloop
  endfacet
  facet normal 0.507699 0.861534 -0
    outer loop
      vertex 3.25839 -5.05314 -7.5
      vertex 2.28036 -4.47679 7.5
      vertex 3.25839 -5.05314 7.5
    endloop
  endfacet
  facet normal 0.507699 0.861534 0
    outer loop
      vertex 2.28036 -4.47679 7.5
      vertex 3.25839 -5.05314 -7.5
      vertex 2.28036 -4.47679 -7.5
    endloop
  endfacet
  facet normal 0.676019 0.736884 -0
    outer loop
      vertex 2.28036 -4.47679 -7.5
      vertex 1.45153 -3.71642 7.5
      vertex 2.28036 -4.47679 7.5
    endloop
  endfacet
  facet normal 0.676019 0.736884 0
    outer loop
      vertex 1.45153 -3.71642 7.5
      vertex 2.28036 -4.47679 -7.5
      vertex 1.45153 -3.71642 -7.5
    endloop
  endfacet
  facet normal 0.814703 0.579879 0
    outer loop
      vertex 1.45153 -3.71642 7.5
      vertex 0.805352 -2.80857 -7.5
      vertex 0.805352 -2.80857 7.5
    endloop
  endfacet
  facet normal 0.814703 0.579879 0
    outer loop
      vertex 0.805352 -2.80857 -7.5
      vertex 1.45153 -3.71642 7.5
      vertex 1.45153 -3.71642 -7.5
    endloop
  endfacet
  facet normal 0.917625 0.397446 0
    outer loop
      vertex 0.805352 -2.80857 7.5
      vertex 0.366614 -1.79561 -7.5
      vertex 0.366614 -1.79561 7.5
    endloop
  endfacet
  facet normal 0.917625 0.397446 0
    outer loop
      vertex 0.366614 -1.79561 -7.5
      vertex 0.805352 -2.80857 7.5
      vertex 0.805352 -2.80857 -7.5
    endloop
  endfacet
  facet normal 0.980294 0.197542 0
    outer loop
      vertex 0.366614 -1.79561 7.5
      vertex 0.150612 -0.723708 -7.5
      vertex 0.150612 -0.723708 7.5
    endloop
  endfacet
  facet normal 0.980294 0.197542 0
    outer loop
      vertex 0.150612 -0.723708 -7.5
      vertex 0.366614 -1.79561 7.5
      vertex 0.366614 -1.79561 -7.5
    endloop
  endfacet
  facet normal 0.999939 -0.0110239 0
    outer loop
      vertex 0.150612 -0.723708 7.5
      vertex 0.162551 0.359234 -7.5
      vertex 0.162551 0.359234 7.5
    endloop
  endfacet
  facet normal 0.999939 -0.0110239 0
    outer loop
      vertex 0.162551 0.359234 -7.5
      vertex 0.150612 -0.723708 7.5
      vertex 0.150612 -0.723708 -7.5
    endloop
  endfacet
  facet normal 0.975697 -0.219123 0
    outer loop
      vertex 0.162551 0.359234 7.5
      vertex 0.397578 1.40575 -7.5
      vertex 0.397578 1.40575 7.5
    endloop
  endfacet
  facet normal 0.975697 -0.219123 0
    outer loop
      vertex 0.397578 1.40575 -7.5
      vertex 0.162551 0.359234 7.5
      vertex 0.162551 0.359234 -7.5
    endloop
  endfacet
  facet normal 0.908628 -0.417605 0
    outer loop
      vertex 0.397578 1.40575 7.5
      vertex 0.841124 2.37082 -7.5
      vertex 0.841124 2.37082 7.5
    endloop
  endfacet
  facet normal 0.908628 -0.417605 0
    outer loop
      vertex 0.841124 2.37082 -7.5
      vertex 0.397578 1.40575 7.5
      vertex 0.397578 1.40575 -7.5
    endloop
  endfacet
  facet normal 0.801678 -0.597756 0
    outer loop
      vertex 0.841124 2.37082 7.5
      vertex 1.46978 3.21394 -7.5
      vertex 1.46978 3.21394 7.5
    endloop
  endfacet
  facet normal 0.801678 -0.597756 0
    outer loop
      vertex 1.46978 3.21394 -7.5
      vertex 0.841124 2.37082 7.5
      vertex 0.841124 2.37082 -7.5
    endloop
  endfacet
  facet normal 0.659504 -0.751701 0
    outer loop
      vertex 1.46978 3.21394 -7.5
      vertex 2.25248 3.90064 7.5
      vertex 1.46978 3.21394 7.5
    endloop
  endfacet
  facet normal 0.659504 -0.751701 0
    outer loop
      vertex 2.25248 3.90064 7.5
      vertex 1.46978 3.21394 -7.5
      vertex 2.25248 3.90064 -7.5
    endloop
  endfacet
  facet normal 0.4884 -0.87262 0
    outer loop
      vertex 2.25248 3.90064 -7.5
      vertex 3.15199 4.40409 7.5
      vertex 2.25248 3.90064 7.5
    endloop
  endfacet
  facet normal 0.4884 -0.87262 0
    outer loop
      vertex 3.15199 4.40409 7.5
      vertex 2.25248 3.90064 -7.5
      vertex 3.15199 4.40409 -7.5
    endloop
  endfacet
  facet normal 0.295818 -0.955244 0
    outer loop
      vertex 3.15199 4.40409 -7.5
      vertex 4.12668 4.70593 7.5
      vertex 3.15199 4.40409 7.5
    endloop
  endfacet
  facet normal 0.295818 -0.955244 0
    outer loop
      vertex 4.12668 4.70593 7.5
      vertex 3.15199 4.40409 -7.5
      vertex 4.12668 4.70593 -7.5
    endloop
  endfacet
  facet normal 0.0902447 -0.99592 0
    outer loop
      vertex 4.12668 4.70593 -7.5
      vertex 5.13248 4.79707 7.5
      vertex 4.12668 4.70593 7.5
    endloop
  endfacet
  facet normal 0.0902447 -0.99592 0
    outer loop
      vertex 5.13248 4.79707 7.5
      vertex 4.12668 4.70593 -7.5
      vertex 5.13248 4.79707 -7.5
    endloop
  endfacet
  facet normal -0.119301 -0.992858 0
    outer loop
      vertex 5.13248 4.79707 -7.5
      vertex 6.12483 4.67783 7.5
      vertex 5.13248 4.79707 7.5
    endloop
  endfacet
  facet normal -0.119301 -0.992858 -0
    outer loop
      vertex 6.12483 4.67783 7.5
      vertex 5.13248 4.79707 -7.5
      vertex 6.12483 4.67783 -7.5
    endloop
  endfacet
  facet normal -0.323625 -0.946185 0
    outer loop
      vertex 6.12483 4.67783 -7.5
      vertex 7.06065 4.35775 7.5
      vertex 6.12483 4.67783 7.5
    endloop
  endfacet
  facet normal -0.323625 -0.946185 -0
    outer loop
      vertex 7.06065 4.35775 7.5
      vertex 6.12483 4.67783 -7.5
      vertex 7.06065 4.35775 -7.5
    endloop
  endfacet
  facet normal -0.513726 -0.857954 0
    outer loop
      vertex 7.06065 4.35775 -7.5
      vertex 7.90024 3.85502 7.5
      vertex 7.06065 4.35775 7.5
    endloop
  endfacet
  facet normal -0.513726 -0.857954 -0
    outer loop
      vertex 7.90024 3.85502 7.5
      vertex 7.06065 4.35775 -7.5
      vertex 7.90024 3.85502 -7.5
    endloop
  endfacet
  facet normal -0.681284 -0.732019 0
    outer loop
      vertex 7.90024 3.85502 -7.5
      vertex 8.60896 3.19542 7.5
      vertex 7.90024 3.85502 7.5
    endloop
  endfacet
  facet normal -0.681284 -0.732019 -0
    outer loop
      vertex 8.60896 3.19542 7.5
      vertex 7.90024 3.85502 -7.5
      vertex 8.60896 3.19542 -7.5
    endloop
  endfacet
  facet normal -0.818918 -0.573911 0
    outer loop
      vertex 9.15861 2.41112 -7.5
      vertex 8.60896 3.19542 7.5
      vertex 8.60896 3.19542 -7.5
    endloop
  endfacet
  facet normal -0.818918 -0.573911 0
    outer loop
      vertex 8.60896 3.19542 7.5
      vertex 9.15861 2.41112 -7.5
      vertex 9.15861 2.41112 7.5
    endloop
  endfacet
  facet normal -0.92056 -0.390602 0
    outer loop
      vertex 9.52862 1.53909 -7.5
      vertex 9.15861 2.41112 7.5
      vertex 9.15861 2.41112 -7.5
    endloop
  endfacet
  facet normal -0.92056 -0.390602 0
    outer loop
      vertex 9.15861 2.41112 7.5
      vertex 9.52862 1.53909 -7.5
      vertex 9.52862 1.53909 7.5
    endloop
  endfacet
  facet normal -0.98177 -0.190074 0
    outer loop
      vertex 9.70669 0.619324 -7.5
      vertex 9.52862 1.53909 7.5
      vertex 9.52862 1.53909 -7.5
    endloop
  endfacet
  facet normal -0.98177 -0.190074 0
    outer loop
      vertex 9.52862 1.53909 7.5
      vertex 9.70669 0.619324 -7.5
      vertex 9.70669 0.619324 7.5
    endloop
  endfacet
  facet normal -0.999823 0.0188039 0
    outer loop
      vertex 9.68927 -0.306918 -7.5
      vertex 9.70669 0.619324 7.5
      vertex 9.70669 0.619324 -7.5
    endloop
  endfacet
  facet normal -0.999823 0.0188039 0
    outer loop
      vertex 9.70669 0.619324 7.5
      vertex 9.68927 -0.306918 -7.5
      vertex 9.68927 -0.306918 7.5
    endloop
  endfacet
  facet normal -0.973927 0.22686 0
    outer loop
      vertex 9.48147 -1.19902 -7.5
      vertex 9.68927 -0.306918 7.5
      vertex 9.68927 -0.306918 -7.5
    endloop
  endfacet
  facet normal -0.973927 0.22686 0
    outer loop
      vertex 9.68927 -0.306918 7.5
      vertex 9.48147 -1.19902 -7.5
      vertex 9.48147 -1.19902 7.5
    endloop
  endfacet
  facet normal 0.976521 -0.215421 0
    outer loop
      vertex 10.635 -1.52979 7.5
      vertex 10.8863 -0.390625 -7.5
      vertex 10.8863 -0.390625 7.5
    endloop
  endfacet
  facet normal 0.976521 -0.215421 0
    outer loop
      vertex 10.8863 -0.390625 -7.5
      vertex 10.635 -1.52979 7.5
      vertex 10.635 -1.52979 -7.5
    endloop
  endfacet
  facet normal 0.999973 -0.00739178 0
    outer loop
      vertex 10.8863 -0.390625 7.5
      vertex 10.895 0.786326 -7.5
      vertex 10.895 0.786326 7.5
    endloop
  endfacet
  facet normal 0.999973 -0.00739178 0
    outer loop
      vertex 10.895 0.786326 -7.5
      vertex 10.8863 -0.390625 7.5
      vertex 10.8863 -0.390625 -7.5
    endloop
  endfacet
  facet normal 0.97957 0.201104 0
    outer loop
      vertex 10.895 0.786326 7.5
      vertex 10.6562 1.94951 -7.5
      vertex 10.6562 1.94951 7.5
    endloop
  endfacet
  facet normal 0.97957 0.201104 0
    outer loop
      vertex 10.6562 1.94951 -7.5
      vertex 10.895 0.786326 7.5
      vertex 10.895 0.786326 -7.5
    endloop
  endfacet
  facet normal 0.916237 0.400636 0
    outer loop
      vertex 10.6562 1.94951 7.5
      vertex 10.1763 3.04702 -7.5
      vertex 10.1763 3.04702 7.5
    endloop
  endfacet
  facet normal 0.916237 0.400636 0
    outer loop
      vertex 10.1763 3.04702 -7.5
      vertex 10.6562 1.94951 7.5
      vertex 10.6562 1.94951 -7.5
    endloop
  endfacet
  facet normal 0.812668 0.582727 0
    outer loop
      vertex 10.1763 3.04702 7.5
      vertex 9.47216 4.02901 -7.5
      vertex 9.47216 4.02901 7.5
    endloop
  endfacet
  facet normal 0.812668 0.582727 0
    outer loop
      vertex 9.47216 4.02901 -7.5
      vertex 10.1763 3.04702 7.5
      vertex 10.1763 3.04702 -7.5
    endloop
  endfacet
  facet normal 0.673508 0.73918 -0
    outer loop
      vertex 9.47216 4.02901 -7.5
      vertex 8.57127 4.84986 7.5
      vertex 9.47216 4.02901 7.5
    endloop
  endfacet
  facet normal 0.673508 0.73918 0
    outer loop
      vertex 8.57127 4.84986 7.5
      vertex 9.47216 4.02901 -7.5
      vertex 8.57127 4.84986 -7.5
    endloop
  endfacet
  facet normal 0.504809 0.863231 -0
    outer loop
      vertex 8.57127 4.84986 -7.5
      vertex 7.51017 5.47038 7.5
      vertex 8.57127 4.84986 7.5
    endloop
  endfacet
  facet normal 0.504809 0.863231 0
    outer loop
      vertex 7.51017 5.47038 7.5
      vertex 8.57127 4.84986 -7.5
      vertex 7.51017 5.47038 -7.5
    endloop
  endfacet
  facet normal 0.313974 0.949432 -0
    outer loop
      vertex 7.51017 5.47038 -7.5
      vertex 6.3332 5.8596 7.5
      vertex 7.51017 5.47038 7.5
    endloop
  endfacet
  facet normal 0.313974 0.949432 0
    outer loop
      vertex 6.3332 5.8596 7.5
      vertex 7.51017 5.47038 -7.5
      vertex 6.3332 5.8596 -7.5
    endloop
  endfacet
  facet normal 0.109375 0.994001 -0
    outer loop
      vertex 6.3332 5.8596 -7.5
      vertex 5.0906 5.99633 7.5
      vertex 6.3332 5.8596 7.5
    endloop
  endfacet
  facet normal 0.109375 0.994001 0
    outer loop
      vertex 5.0906 5.99633 7.5
      vertex 6.3332 5.8596 -7.5
      vertex 5.0906 5.99633 -7.5
    endloop
  endfacet
  facet normal -0.100004 0.994987 0
    outer loop
      vertex 5.0906 5.99633 -7.5
      vertex 3.83637 5.87027 7.5
      vertex 5.0906 5.99633 7.5
    endloop
  endfacet
  facet normal -0.100004 0.994987 0
    outer loop
      vertex 3.83637 5.87027 7.5
      vertex 5.0906 5.99633 -7.5
      vertex 3.83637 5.87027 -7.5
    endloop
  endfacet
  facet normal -0.304984 0.952357 0
    outer loop
      vertex 3.83637 5.87027 -7.5
      vertex 2.62594 5.48264 7.5
      vertex 3.83637 5.87027 7.5
    endloop
  endfacet
  facet normal -0.304984 0.952357 0
    outer loop
      vertex 2.62594 5.48264 7.5
      vertex 3.83637 5.87027 -7.5
      vertex 2.62594 5.48264 -7.5
    endloop
  endfacet
  facet normal -0.49662 0.867968 0
    outer loop
      vertex 2.62594 5.48264 -7.5
      vertex 1.51369 4.84625 7.5
      vertex 2.62594 5.48264 7.5
    endloop
  endfacet
  facet normal -0.49662 0.867968 0
    outer loop
      vertex 1.51369 4.84625 7.5
      vertex 2.62594 5.48264 -7.5
      vertex 1.51369 4.84625 -7.5
    endloop
  endfacet
  facet normal -0.66645 0.745549 0
    outer loop
      vertex 1.51369 4.84625 -7.5
      vertex 0.550534 3.98528 7.5
      vertex 1.51369 4.84625 7.5
    endloop
  endfacet
  facet normal -0.66645 0.745549 0
    outer loop
      vertex 0.550534 3.98528 7.5
      vertex 1.51369 4.84625 -7.5
      vertex 0.550534 3.98528 -7.5
    endloop
  endfacet
  facet normal -0.807082 0.59044 0
    outer loop
      vertex -0.218409 2.9342 -7.5
      vertex 0.550534 3.98528 7.5
      vertex 0.550534 3.98528 -7.5
    endloop
  endfacet
  facet normal -0.807082 0.59044 0
    outer loop
      vertex 0.550534 3.98528 7.5
      vertex -0.218409 2.9342 -7.5
      vertex -0.218409 2.9342 7.5
    endloop
  endfacet
  facet normal -0.912329 0.409457 0
    outer loop
      vertex -0.75 1.74974 -7.5
      vertex -0.218409 2.9342 7.5
      vertex -0.218409 2.9342 -7.5
    endloop
  endfacet
  facet normal -0.912329 0.409457 0
    outer loop
      vertex -0.218409 2.9342 7.5
      vertex -0.75 1.74974 -7.5
      vertex -0.75 1.74974 7.5
    endloop
  endfacet
  facet normal -0.91428 -0.405082 0
    outer loop
      vertex -0.21231 -3.44447 -7.5
      vertex -0.75 -2.23089 7.5
      vertex -0.75 -2.23089 -7.5
    endloop
  endfacet
  facet normal -0.91428 -0.405082 0
    outer loop
      vertex -0.75 -2.23089 7.5
      vertex -0.21231 -3.44447 -7.5
      vertex -0.21231 -3.44447 7.5
    endloop
  endfacet
  facet normal -0.809917 -0.586545 0
    outer loop
      vertex 0.588327 -4.55001 -7.5
      vertex -0.21231 -3.44447 7.5
      vertex -0.21231 -3.44447 -7.5
    endloop
  endfacet
  facet normal -0.809917 -0.586545 0
    outer loop
      vertex -0.21231 -3.44447 7.5
      vertex 0.588327 -4.55001 -7.5
      vertex 0.588327 -4.55001 7.5
    endloop
  endfacet
  facet normal -0.67006 -0.742307 0
    outer loop
      vertex 0.588327 -4.55001 -7.5
      vertex 1.60933 -5.47164 7.5
      vertex 0.588327 -4.55001 7.5
    endloop
  endfacet
  facet normal -0.67006 -0.742307 -0
    outer loop
      vertex 1.60933 -5.47164 7.5
      vertex 0.588327 -4.55001 -7.5
      vertex 1.60933 -5.47164 -7.5
    endloop
  endfacet
  facet normal -0.500849 -0.865535 0
    outer loop
      vertex 1.60933 -5.47164 -7.5
      vertex 2.80888 -6.16577 7.5
      vertex 1.60933 -5.47164 7.5
    endloop
  endfacet
  facet normal -0.500849 -0.865535 -0
    outer loop
      vertex 2.80888 -6.16577 7.5
      vertex 1.60933 -5.47164 -7.5
      vertex 2.80888 -6.16577 -7.5
    endloop
  endfacet
  facet normal -0.309695 -0.950836 0
    outer loop
      vertex 2.80888 -6.16577 -7.5
      vertex 4.13657 -6.59821 7.5
      vertex 2.80888 -6.16577 7.5
    endloop
  endfacet
  facet normal -0.309695 -0.950836 -0
    outer loop
      vertex 4.13657 -6.59821 7.5
      vertex 2.80888 -6.16577 -7.5
      vertex 4.13657 -6.59821 -7.5
    endloop
  endfacet
  facet normal -0.104964 -0.994476 0
    outer loop
      vertex 4.13657 -6.59821 -7.5
      vertex 5.53557 -6.74587 7.5
      vertex 4.13657 -6.59821 7.5
    endloop
  endfacet
  facet normal -0.104964 -0.994476 -0
    outer loop
      vertex 5.53557 -6.74587 7.5
      vertex 4.13657 -6.59821 -7.5
      vertex 5.53557 -6.74587 -7.5
    endloop
  endfacet
  facet normal 0.104337 -0.994542 0
    outer loop
      vertex 5.53557 -6.74587 -7.5
      vertex 6.94507 -6.598 7.5
      vertex 5.53557 -6.74587 7.5
    endloop
  endfacet
  facet normal 0.104337 -0.994542 0
    outer loop
      vertex 6.94507 -6.598 7.5
      vertex 5.53557 -6.74587 -7.5
      vertex 6.94507 -6.598 -7.5
    endloop
  endfacet
  facet normal 0.309083 -0.951035 0
    outer loop
      vertex 6.94507 -6.598 -7.5
      vertex 8.30284 -6.15673 7.5
      vertex 6.94507 -6.598 7.5
    endloop
  endfacet
  facet normal 0.309083 -0.951035 0
    outer loop
      vertex 8.30284 -6.15673 7.5
      vertex 6.94507 -6.598 -7.5
      vertex 8.30284 -6.15673 -7.5
    endloop
  endfacet
  facet normal 0.500275 -0.865866 0
    outer loop
      vertex 8.30284 -6.15673 -7.5
      vertex 9.54805 -5.43728 7.5
      vertex 8.30284 -6.15673 7.5
    endloop
  endfacet
  facet normal 0.500275 -0.865866 0
    outer loop
      vertex 9.54805 -5.43728 7.5
      vertex 8.30284 -6.15673 -7.5
      vertex 9.54805 -5.43728 -7.5
    endloop
  endfacet
endsolid OpenSCAD_Model
