solid OpenSCAD_Model
  facet normal 0 -1 0
    outer loop
      vertex -13 -1.5 -7.5
      vertex -13 -1.5 7.5
      vertex -15 -1.5 5.5
    endloop
  endfacet
  facet normal 0 -1 0
    outer loop
      vertex -13 -1.5 7.5
      vertex -13 -1.5 -7.5
      vertex 13 -1.5 7.5
    endloop
  endfacet
  facet normal 0 -1 0
    outer loop
      vertex -13 -1.5 -7.5
      vertex -15 -1.5 5.5
      vertex -15 -1.5 -5.5
    endloop
  endfacet
  facet normal 0 -1 0
    outer loop
      vertex 13 -1.5 -7.5
      vertex 13 -1.5 7.5
      vertex -13 -1.5 -7.5
    endloop
  endfacet
  facet normal 0 -1 0
    outer loop
      vertex 13 -1.5 7.5
      vertex 13 -1.5 -7.5
      vertex 15 -1.5 5.5
    endloop
  endfacet
  facet normal 0 -1 -0
    outer loop
      vertex 15 -1.5 5.5
      vertex 13 -1.5 -7.5
      vertex 15 -1.5 -5.5
    endloop
  endfacet
  facet normal -1 0 0
    outer loop
      vertex -15 -0.675001 -7.5
      vertex -15 -1.125 -7.5
      vertex -15 -0.675001 -5.5
    endloop
  endfacet
  facet normal -1 0 0
    outer loop
      vertex -15 -0.675001 -5.5
      vertex -15 -0.300001 5.5
      vertex -15 -0.300001 -5.5
    endloop
  endfacet
  facet normal -1 0 0
    outer loop
      vertex -15 -1.125 -5.5
      vertex -15 -0.675001 -5.5
      vertex -15 -1.125 -7.5
    endloop
  endfacet
  facet normal -1 0 0
    outer loop
      vertex -15 -0.675001 -5.5
      vertex -15 -1.125 -5.5
      vertex -15 -0.300001 5.5
    endloop
  endfacet
  facet normal -1 0 0
    outer loop
      vertex -15 -1.5 5.5
      vertex -15 -1.125 -5.5
      vertex -15 -1.5 -5.5
    endloop
  endfacet
  facet normal -1 0 0
    outer loop
      vertex -15 -1.125 -5.5
      vertex -15 -1.5 5.5
      vertex -15 -0.300001 5.5
    endloop
  endfacet
  facet normal 0 1 0
    outer loop
      vertex -2.839 -0.300001 7.5
      vertex -15 -0.300001 5.5
      vertex -13 -0.300001 7.5
    endloop
  endfacet
  facet normal 0 1 0
    outer loop
      vertex -2.839 -0.300001 7.5
      vertex -15 -0.300001 -5.5
      vertex -15 -0.300001 5.5
    endloop
  endfacet
  facet normal 0 1 -0
    outer loop
      vertex -2.839 -0.300001 -7.5
      vertex -15 -0.300001 -5.5
      vertex -2.839 -0.300001 7.5
    endloop
  endfacet
  facet normal 0 1 0
    outer loop
      vertex -15 -0.300001 -5.5
      vertex -2.839 -0.300001 -7.5
      vertex -13 -0.300001 -7.5
    endloop
  endfacet
  facet normal 0 1 0
    outer loop
      vertex 15 -0.300001 5.5
      vertex 3.33802 -0.300001 7.5
      vertex 13 -0.300001 7.5
    endloop
  endfacet
  facet normal 0 1 -0
    outer loop
      vertex 15 -0.300001 -5.5
      vertex 3.33802 -0.300001 7.5
      vertex 15 -0.300001 5.5
    endloop
  endfacet
  facet normal 0 1 0
    outer loop
      vertex 3.33802 -0.300001 -7.5
      vertex 15 -0.300001 -5.5
      vertex 13 -0.300001 -7.5
    endloop
  endfacet
  facet normal 0 1 0
    outer loop
      vertex 15 -0.300001 -5.5
      vertex 3.33802 -0.300001 -7.5
      vertex 3.33802 -0.300001 7.5
    endloop
  endfacet
  facet normal 0 0 -1
    outer loop
      vertex -15 -1.125 -7.5
      vertex -13 -0.675001 -7.5
      vertex -13 -1.125 -7.5
    endloop
  endfacet
  facet normal -0 0 -1
    outer loop
      vertex -13 -0.675001 -7.5
      vertex -15 -1.125 -7.5
      vertex -15 -0.675001 -7.5
    endloop
  endfacet
  facet normal 0 0 -1
    outer loop
      vertex 3.33802 -0.300001 -7.5
      vertex 13 -1.125 -7.5
      vertex 13 -1.5 -7.5
    endloop
  endfacet
  facet normal 0 0 -1
    outer loop
      vertex 13 -1.125 -7.5
      vertex 3.33802 -0.300001 -7.5
      vertex 13 -0.675001 -7.5
    endloop
  endfacet
  facet normal 0 0 -1
    outer loop
      vertex 13 -0.675001 -7.5
      vertex 3.33802 -0.300001 -7.5
      vertex 13 -0.300001 -7.5
    endloop
  endfacet
  facet normal 0 0 -1
    outer loop
      vertex 3.33802 -0.300001 -7.5
      vertex 1.79561 -0.0133863 -7.5
      vertex 2.80857 0.425352 -7.5
    endloop
  endfacet
  facet normal 0 0 -1
    outer loop
      vertex 3.33802 -0.300001 -7.5
      vertex 0.723708 -0.229388 -7.5
      vertex 1.79561 -0.0133863 -7.5
    endloop
  endfacet
  facet normal 0 0 -1
    outer loop
      vertex 13 -1.5 -7.5
      vertex 0.723708 -0.229388 -7.5
      vertex 3.33802 -0.300001 -7.5
    endloop
  endfacet
  facet normal 0 0 -1
    outer loop
      vertex -2.839 -0.300001 -7.5
      vertex 0.723708 -0.229388 -7.5
      vertex 13 -1.5 -7.5
    endloop
  endfacet
  facet normal -0 0 -1
    outer loop
      vertex -1.40575 0.0175779 -7.5
      vertex -2.839 -0.300001 -7.5
      vertex -2.37082 0.461124 -7.5
    endloop
  endfacet
  facet normal -0 0 -1
    outer loop
      vertex -0.359234 -0.217449 -7.5
      vertex -2.839 -0.300001 -7.5
      vertex -1.40575 0.0175779 -7.5
    endloop
  endfacet
  facet normal -0 0 -1
    outer loop
      vertex 0.723708 -0.229388 -7.5
      vertex -2.839 -0.300001 -7.5
      vertex -0.359234 -0.217449 -7.5
    endloop
  endfacet
  facet normal 0 0 -1
    outer loop
      vertex -13 -1.5 -7.5
      vertex -2.839 -0.300001 -7.5
      vertex 13 -1.5 -7.5
    endloop
  endfacet
  facet normal 0 0 -1
    outer loop
      vertex -13 -1.125 -7.5
      vertex -2.839 -0.300001 -7.5
      vertex -13 -1.5 -7.5
    endloop
  endfacet
  facet normal 0 0 -1
    outer loop
      vertex -13 -0.675001 -7.5
      vertex -2.839 -0.300001 -7.5
      vertex -13 -1.125 -7.5
    endloop
  endfacet
  facet normal -0 0 -1
    outer loop
      vertex -2.839 -0.300001 -7.5
      vertex -13 -0.675001 -7.5
      vertex -13 -0.300001 -7.5
    endloop
  endfacet
  facet normal 0 0 -1
    outer loop
      vertex 13 -1.125 -7.5
      vertex 15 -0.675001 -7.5
      vertex 15 -1.125 -7.5
    endloop
  endfacet
  facet normal -0 0 -1
    outer loop
      vertex 15 -0.675001 -7.5
      vertex 13 -1.125 -7.5
      vertex 13 -0.675001 -7.5
    endloop
  endfacet
  facet normal 0 0 -1
    outer loop
      vertex 5.54661 5.11369 -7.5
      vertex 6.44606 5.14511 -7.5
      vertex 6.30276 3.80865 -7.5
    endloop
  endfacet
  facet normal 0 0 -1
    outer loop
      vertex 5.41644 3.96493 -7.5
      vertex 6.30276 3.80865 -7.5
      vertex 5.88761 2.54125 -7.5
    endloop
  endfacet
  facet normal 0 0 -1
    outer loop
      vertex 5.43365 6.27476 -7.5
      vertex 6.44606 5.14511 -7.5
      vertex 5.54661 5.11369 -7.5
    endloop
  endfacet
  facet normal 0 0 -1
    outer loop
      vertex 6.44606 5.14511 -7.5
      vertex 5.43365 6.27476 -7.5
      vertex 6.30691 6.4925 -7.5
    endloop
  endfacet
  facet normal 0 0 -1
    outer loop
      vertex 6.30276 3.80865 -7.5
      vertex 5.41644 3.96493 -7.5
      vertex 5.54661 5.11369 -7.5
    endloop
  endfacet
  facet normal 0 0 -1
    outer loop
      vertex 5.05314 2.87839 -7.5
      vertex 5.88761 2.54125 -7.5
      vertex 5.22292 1.39709 -7.5
    endloop
  endfacet
  facet normal 0 0 -1
    outer loop
      vertex 5.88761 2.54125 -7.5
      vertex 5.05314 2.87839 -7.5
      vertex 5.41644 3.96493 -7.5
    endloop
  endfacet
  facet normal 0 0 -1
    outer loop
      vertex 5.22292 1.39709 -7.5
      vertex 4.47679 1.90036 -7.5
      vertex 5.05314 2.87839 -7.5
    endloop
  endfacet
  facet normal 0 0 -1
    outer loop
      vertex 4.34161 0.424128 -7.5
      vertex 4.47679 1.90036 -7.5
      vertex 5.22292 1.39709 -7.5
    endloop
  endfacet
  facet normal 0 0 -1
    outer loop
      vertex 4.34161 0.424128 -7.5
      vertex 3.71642 1.07153 -7.5
      vertex 4.47679 1.90036 -7.5
    endloop
  endfacet
  facet normal 0 0 -1
    outer loop
      vertex 3.33802 -0.300001 -7.5
      vertex 3.71642 1.07153 -7.5
      vertex 4.34161 0.424128 -7.5
    endloop
  endfacet
  facet normal 0 0 -1
    outer loop
      vertex 3.71642 1.07153 -7.5
      vertex 3.33802 -0.300001 -7.5
      vertex 2.80857 0.425352 -7.5
    endloop
  endfacet
  facet normal 0 0 -1
    outer loop
      vertex 5.07818 7.39678 -7.5
      vertex 6.30691 6.4925 -7.5
      vertex 5.43365 6.27476 -7.5
    endloop
  endfacet
  facet normal 0 0 -1
    outer loop
      vertex 6.30691 6.4925 -7.5
      vertex 5.07818 7.39678 -7.5
      vertex 5.8871 7.79132 -7.5
    endloop
  endfacet
  facet normal 0 0 -1
    outer loop
      vertex 4.49166 8.42926 -7.5
      vertex 5.8871 7.79132 -7.5
      vertex 5.07818 7.39678 -7.5
    endloop
  endfacet
  facet normal 0 0 -1
    outer loop
      vertex 5.8871 7.79132 -7.5
      vertex 4.49166 8.42926 -7.5
      vertex 5.20086 8.98336 -7.5
    endloop
  endfacet
  facet normal 0 0 -1
    outer loop
      vertex 3.69603 9.32475 -7.5
      vertex 5.20086 8.98336 -7.5
      vertex 4.49166 8.42926 -7.5
    endloop
  endfacet
  facet normal 0 0 -1
    outer loop
      vertex 5.20086 8.98336 -7.5
      vertex 3.69603 9.32475 -7.5
      vertex 4.27453 10.0142 -7.5
    endloop
  endfacet
  facet normal 0 0 -1
    outer loop
      vertex 2.72292 10.0411 -7.5
      vertex 4.27453 10.0142 -7.5
      vertex 3.69603 9.32475 -7.5
    endloop
  endfacet
  facet normal 0 0 -1
    outer loop
      vertex 4.27453 10.0142 -7.5
      vertex 2.72292 10.0411 -7.5
      vertex 3.14546 10.8357 -7.5
    endloop
  endfacet
  facet normal 0 0 -1
    outer loop
      vertex 1.61248 10.5434 -7.5
      vertex 3.14546 10.8357 -7.5
      vertex 2.72292 10.0411 -7.5
    endloop
  endfacet
  facet normal -0 0 -1
    outer loop
      vertex 3.14546 10.8357 -7.5
      vertex 1.61248 10.5434 -7.5
      vertex 1.86055 11.4085 -7.5
    endloop
  endfacet
  facet normal 0 0 -1
    outer loop
      vertex 0.411556 10.8056 -7.5
      vertex 1.86055 11.4085 -7.5
      vertex 1.61248 10.5434 -7.5
    endloop
  endfacet
  facet normal -0 0 -1
    outer loop
      vertex 1.86055 11.4085 -7.5
      vertex 0.411556 10.8056 -7.5
      vertex 0.474347 11.7034 -7.5
    endloop
  endfacet
  facet normal 0 0 -1
    outer loop
      vertex -0.828093 10.8121 -7.5
      vertex 0.474347 11.7034 -7.5
      vertex 0.411556 10.8056 -7.5
    endloop
  endfacet
  facet normal 0 0 -1
    outer loop
      vertex -0.828093 10.8121 -7.5
      vertex -0.953333 11.7033 -7.5
      vertex 0.474347 11.7034 -7.5
    endloop
  endfacet
  facet normal 0 0 -1
    outer loop
      vertex -2.05212 10.5582 -7.5
      vertex -0.953333 11.7033 -7.5
      vertex -0.828093 10.8121 -7.5
    endloop
  endfacet
  facet normal 0 0 -1
    outer loop
      vertex -0.953333 11.7033 -7.5
      vertex -2.05212 10.5582 -7.5
      vertex -2.35994 11.4039 -7.5
    endloop
  endfacet
  facet normal 0 0 -1
    outer loop
      vertex -3.79244 0.400343 -7.5
      vertex -2.37082 0.461124 -7.5
      vertex -2.839 -0.300001 -7.5
    endloop
  endfacet
  facet normal -0 0 -1
    outer loop
      vertex -2.37082 0.461124 -7.5
      vertex -3.79244 0.400343 -7.5
      vertex -3.21394 1.08978 -7.5
    endloop
  endfacet
  facet normal 0 0 -1
    outer loop
      vertex -4.60986 1.31839 -7.5
      vertex -3.21394 1.08978 -7.5
      vertex -3.79244 0.400343 -7.5
    endloop
  endfacet
  facet normal 0 0 -1
    outer loop
      vertex -3.21394 1.08978 -7.5
      vertex -4.60986 1.31839 -7.5
      vertex -3.90064 1.87248 -7.5
    endloop
  endfacet
  facet normal 0 0 -1
    outer loop
      vertex -5.213 2.37745 -7.5
      vertex -3.90064 1.87248 -7.5
      vertex -4.60986 1.31839 -7.5
    endloop
  endfacet
  facet normal 0 0 -1
    outer loop
      vertex -3.90064 1.87248 -7.5
      vertex -5.213 2.37745 -7.5
      vertex -4.40409 2.77199 -7.5
    endloop
  endfacet
  facet normal 0 0 -1
    outer loop
      vertex -5.57919 3.52894 -7.5
      vertex -4.40409 2.77199 -7.5
      vertex -5.213 2.37745 -7.5
    endloop
  endfacet
  facet normal 0 0 -1
    outer loop
      vertex -4.40409 2.77199 -7.5
      vertex -5.57919 3.52894 -7.5
      vertex -4.70593 3.74668 -7.5
    endloop
  endfacet
  facet normal 0 0 -1
    outer loop
      vertex -5.69652 4.72106 -7.5
      vertex -4.70593 3.74668 -7.5
      vertex -5.57919 3.52894 -7.5
    endloop
  endfacet
  facet normal 0 0 -1
    outer loop
      vertex -4.79707 4.75248 -7.5
      vertex -5.56416 5.90111 -7.5
      vertex -5.19222 7.0178 -7.5
    endloop
  endfacet
  facet normal 0 0 -1
    outer loop
      vertex -4.70593 3.74668 -7.5
      vertex -5.69652 4.72106 -7.5
      vertex -4.79707 4.75248 -7.5
    endloop
  endfacet
  facet normal -0 0 -1
    outer loop
      vertex -4.79707 4.75248 -7.5
      vertex -5.69652 4.72106 -7.5
      vertex -5.56416 5.90111 -7.5
    endloop
  endfacet
  facet normal 0 0 -1
    outer loop
      vertex 0.306918 9.30927 -7.5
      vertex 1.44709 9.96661 -7.5
      vertex 1.19902 9.10147 -7.5
    endloop
  endfacet
  facet normal -0 0 -1
    outer loop
      vertex 1.44709 9.96661 -7.5
      vertex 0.306918 9.30927 -7.5
      vertex 0.369709 10.2071 -7.5
    endloop
  endfacet
  facet normal 0 0 -1
    outer loop
      vertex -0.619324 9.32669 -7.5
      vertex 0.369709 10.2071 -7.5
      vertex 0.306918 9.30927 -7.5
    endloop
  endfacet
  facet normal 0 0 -1
    outer loop
      vertex -0.619324 9.32669 -7.5
      vertex -0.744579 10.2179 -7.5
      vertex 0.369709 10.2071 -7.5
    endloop
  endfacet
  facet normal 0 0 -1
    outer loop
      vertex -1.53909 9.14862 -7.5
      vertex -0.744579 10.2179 -7.5
      vertex -0.619324 9.32669 -7.5
    endloop
  endfacet
  facet normal 0 0 -1
    outer loop
      vertex -1.53909 9.14862 -7.5
      vertex -1.84691 9.99433 -7.5
      vertex -0.744579 10.2179 -7.5
    endloop
  endfacet
  facet normal 0 0 -1
    outer loop
      vertex -2.41112 8.77861 -7.5
      vertex -1.84691 9.99433 -7.5
      vertex -1.53909 9.14862 -7.5
    endloop
  endfacet
  facet normal 0 0 -1
    outer loop
      vertex -2.41112 8.77861 -7.5
      vertex -2.88806 9.54186 -7.5
      vertex -1.84691 9.99433 -7.5
    endloop
  endfacet
  facet normal 0 0 -1
    outer loop
      vertex -3.19542 8.22896 -7.5
      vertex -2.88806 9.54186 -7.5
      vertex -2.41112 8.77861 -7.5
    endloop
  endfacet
  facet normal 0 0 -1
    outer loop
      vertex -3.19542 8.22896 -7.5
      vertex -3.82061 8.87636 -7.5
      vertex -2.88806 9.54186 -7.5
    endloop
  endfacet
  facet normal 0 0 -1
    outer loop
      vertex -3.85502 7.52024 -7.5
      vertex -3.82061 8.87636 -7.5
      vertex -3.19542 8.22896 -7.5
    endloop
  endfacet
  facet normal 0 0 -1
    outer loop
      vertex -4.60115 8.02351 -7.5
      vertex -3.85502 7.52024 -7.5
      vertex -4.35775 6.68065 -7.5
    endloop
  endfacet
  facet normal 0 0 -1
    outer loop
      vertex -3.85502 7.52024 -7.5
      vertex -4.60115 8.02351 -7.5
      vertex -3.82061 8.87636 -7.5
    endloop
  endfacet
  facet normal 0 0 -1
    outer loop
      vertex -5.19222 7.0178 -7.5
      vertex -4.35775 6.68065 -7.5
      vertex -4.67783 5.74483 -7.5
    endloop
  endfacet
  facet normal 0 0 -1
    outer loop
      vertex -5.19222 7.0178 -7.5
      vertex -4.67783 5.74483 -7.5
      vertex -4.79707 4.75248 -7.5
    endloop
  endfacet
  facet normal 0 0 -1
    outer loop
      vertex -4.35775 6.68065 -7.5
      vertex -5.19222 7.0178 -7.5
      vertex -4.60115 8.02351 -7.5
    endloop
  endfacet
  facet normal 1 0 0
    outer loop
      vertex 15 -0.300001 5.5
      vertex 15 -0.675001 -5.5
      vertex 15 -0.300001 -5.5
    endloop
  endfacet
  facet normal 1 0 0
    outer loop
      vertex 15 -0.675001 -5.5
      vertex 15 -1.125 -5.5
      vertex 15 -0.675001 -7.5
    endloop
  endfacet
  facet normal 1 0 0
    outer loop
      vertex 15 -0.300001 5.5
      vertex 15 -1.125 -5.5
      vertex 15 -0.675001 -5.5
    endloop
  endfacet
  facet normal 1 -0 0
    outer loop
      vertex 15 -1.5 5.5
      vertex 15 -1.125 -5.5
      vertex 15 -0.300001 5.5
    endloop
  endfacet
  facet normal 1 0 0
    outer loop
      vertex 15 -1.125 -5.5
      vertex 15 -1.5 5.5
      vertex 15 -1.5 -5.5
    endloop
  endfacet
  facet normal 1 0 0
    outer loop
      vertex 15 -0.675001 -7.5
      vertex 15 -1.125 -5.5
      vertex 15 -1.125 -7.5
    endloop
  endfacet
  facet normal 0 0 1
    outer loop
      vertex 0.306918 9.30927 7.5
      vertex 1.44709 9.96661 7.5
      vertex 0.369709 10.2071 7.5
    endloop
  endfacet
  facet normal 0 0 1
    outer loop
      vertex 1.44709 9.96661 7.5
      vertex 0.306918 9.30927 7.5
      vertex 1.19902 9.10147 7.5
    endloop
  endfacet
  facet normal 0 0 1
    outer loop
      vertex 0.369709 10.2071 7.5
      vertex -0.619324 9.32669 7.5
      vertex 0.306918 9.30927 7.5
    endloop
  endfacet
  facet normal 0 0 1
    outer loop
      vertex -0.744579 10.2179 7.5
      vertex -0.619324 9.32669 7.5
      vertex 0.369709 10.2071 7.5
    endloop
  endfacet
  facet normal 0 0 1
    outer loop
      vertex -0.744579 10.2179 7.5
      vertex -1.53909 9.14862 7.5
      vertex -0.619324 9.32669 7.5
    endloop
  endfacet
  facet normal -0 0 1
    outer loop
      vertex -1.84691 9.99433 7.5
      vertex -1.53909 9.14862 7.5
      vertex -0.744579 10.2179 7.5
    endloop
  endfacet
  facet normal 0 0 1
    outer loop
      vertex -1.84691 9.99433 7.5
      vertex -2.41112 8.77861 7.5
      vertex -1.53909 9.14862 7.5
    endloop
  endfacet
  facet normal -0 0 1
    outer loop
      vertex -2.88806 9.54186 7.5
      vertex -2.41112 8.77861 7.5
      vertex -1.84691 9.99433 7.5
    endloop
  endfacet
  facet normal 0 0 1
    outer loop
      vertex -2.88806 9.54186 7.5
      vertex -3.19542 8.22896 7.5
      vertex -2.41112 8.77861 7.5
    endloop
  endfacet
  facet normal -0 0 1
    outer loop
      vertex -3.82061 8.87636 7.5
      vertex -3.19542 8.22896 7.5
      vertex -2.88806 9.54186 7.5
    endloop
  endfacet
  facet normal 0 0 1
    outer loop
      vertex -3.82061 8.87636 7.5
      vertex -3.85502 7.52024 7.5
      vertex -3.19542 8.22896 7.5
    endloop
  endfacet
  facet normal -0 0 1
    outer loop
      vertex -4.60115 8.02351 7.5
      vertex -3.85502 7.52024 7.5
      vertex -3.82061 8.87636 7.5
    endloop
  endfacet
  facet normal 0 0 1
    outer loop
      vertex -3.85502 7.52024 7.5
      vertex -4.60115 8.02351 7.5
      vertex -4.35775 6.68065 7.5
    endloop
  endfacet
  facet normal -0 0 1
    outer loop
      vertex -5.19222 7.0178 7.5
      vertex -4.35775 6.68065 7.5
      vertex -4.60115 8.02351 7.5
    endloop
  endfacet
  facet normal 0 0 1
    outer loop
      vertex -4.35775 6.68065 7.5
      vertex -5.19222 7.0178 7.5
      vertex -4.67783 5.74483 7.5
    endloop
  endfacet
  facet normal -0 0 1
    outer loop
      vertex -5.56416 5.90111 7.5
      vertex -4.67783 5.74483 7.5
      vertex -5.19222 7.0178 7.5
    endloop
  endfacet
  facet normal 0 0 1
    outer loop
      vertex 6.44606 5.14511 7.5
      vertex 5.43365 6.27476 7.5
      vertex 5.54661 5.11369 7.5
    endloop
  endfacet
  facet normal -0 0 1
    outer loop
      vertex 4.49166 8.42926 7.5
      vertex 5.8871 7.79132 7.5
      vertex 5.20086 8.98336 7.5
    endloop
  endfacet
  facet normal 0 0 1
    outer loop
      vertex 6.30691 6.4925 7.5
      vertex 5.07818 7.39678 7.5
      vertex 5.43365 6.27476 7.5
    endloop
  endfacet
  facet normal 0 0 1
    outer loop
      vertex 5.8871 7.79132 7.5
      vertex 4.49166 8.42926 7.5
      vertex 5.07818 7.39678 7.5
    endloop
  endfacet
  facet normal -0 0 1
    outer loop
      vertex 3.69603 9.32475 7.5
      vertex 5.20086 8.98336 7.5
      vertex 4.27453 10.0142 7.5
    endloop
  endfacet
  facet normal 0 0 1
    outer loop
      vertex 5.20086 8.98336 7.5
      vertex 3.69603 9.32475 7.5
      vertex 4.49166 8.42926 7.5
    endloop
  endfacet
  facet normal -0 0 1
    outer loop
      vertex 2.72292 10.0411 7.5
      vertex 4.27453 10.0142 7.5
      vertex 3.14546 10.8357 7.5
    endloop
  endfacet
  facet normal 0 0 1
    outer loop
      vertex 4.27453 10.0142 7.5
      vertex 2.72292 10.0411 7.5
      vertex 3.69603 9.32475 7.5
    endloop
  endfacet
  facet normal 0 0 1
    outer loop
      vertex 1.61248 10.5434 7.5
      vertex 3.14546 10.8357 7.5
      vertex 1.86055 11.4085 7.5
    endloop
  endfacet
  facet normal 0 0 1
    outer loop
      vertex 3.14546 10.8357 7.5
      vertex 1.61248 10.5434 7.5
      vertex 2.72292 10.0411 7.5
    endloop
  endfacet
  facet normal 0 0 1
    outer loop
      vertex 0.411556 10.8056 7.5
      vertex 1.86055 11.4085 7.5
      vertex 0.474347 11.7034 7.5
    endloop
  endfacet
  facet normal 0 0 1
    outer loop
      vertex 1.86055 11.4085 7.5
      vertex 0.411556 10.8056 7.5
      vertex 1.61248 10.5434 7.5
    endloop
  endfacet
  facet normal 0 0 1
    outer loop
      vertex 0.474347 11.7034 7.5
      vertex -0.828093 10.8121 7.5
      vertex 0.411556 10.8056 7.5
    endloop
  endfacet
  facet normal -0 0 1
    outer loop
      vertex -0.953333 11.7033 7.5
      vertex -0.828093 10.8121 7.5
      vertex 0.474347 11.7034 7.5
    endloop
  endfacet
  facet normal 0 0 1
    outer loop
      vertex -0.953333 11.7033 7.5
      vertex -2.05212 10.5582 7.5
      vertex -0.828093 10.8121 7.5
    endloop
  endfacet
  facet normal 0 -0 1
    outer loop
      vertex -2.05212 10.5582 7.5
      vertex -0.953333 11.7033 7.5
      vertex -2.35994 11.4039 7.5
    endloop
  endfacet
  facet normal -0 0 1
    outer loop
      vertex 5.43365 6.27476 7.5
      vertex 6.44606 5.14511 7.5
      vertex 6.30691 6.4925 7.5
    endloop
  endfacet
  facet normal 0 0 1
    outer loop
      vertex 6.44606 5.14511 7.5
      vertex 5.54661 5.11369 7.5
      vertex 6.30276 3.80865 7.5
    endloop
  endfacet
  facet normal -0 0 1
    outer loop
      vertex 5.07818 7.39678 7.5
      vertex 6.30691 6.4925 7.5
      vertex 5.8871 7.79132 7.5
    endloop
  endfacet
  facet normal -0 0 1
    outer loop
      vertex 5.41644 3.96493 7.5
      vertex 6.30276 3.80865 7.5
      vertex 5.54661 5.11369 7.5
    endloop
  endfacet
  facet normal 0 0 1
    outer loop
      vertex 6.30276 3.80865 7.5
      vertex 5.41644 3.96493 7.5
      vertex 5.88761 2.54125 7.5
    endloop
  endfacet
  facet normal -0 0 1
    outer loop
      vertex 5.05314 2.87839 7.5
      vertex 5.88761 2.54125 7.5
      vertex 5.41644 3.96493 7.5
    endloop
  endfacet
  facet normal 0 0 1
    outer loop
      vertex 5.88761 2.54125 7.5
      vertex 5.05314 2.87839 7.5
      vertex 5.22292 1.39709 7.5
    endloop
  endfacet
  facet normal -0 0 1
    outer loop
      vertex 4.47679 1.90036 7.5
      vertex 5.22292 1.39709 7.5
      vertex 5.05314 2.87839 7.5
    endloop
  endfacet
  facet normal 0 0 1
    outer loop
      vertex 4.47679 1.90036 7.5
      vertex 4.34161 0.424128 7.5
      vertex 5.22292 1.39709 7.5
    endloop
  endfacet
  facet normal -0 0 1
    outer loop
      vertex 3.71642 1.07153 7.5
      vertex 4.34161 0.424128 7.5
      vertex 4.47679 1.90036 7.5
    endloop
  endfacet
  facet normal 0 0 1
    outer loop
      vertex 3.71642 1.07153 7.5
      vertex 3.33802 -0.300001 7.5
      vertex 4.34161 0.424128 7.5
    endloop
  endfacet
  facet normal 0 -0 1
    outer loop
      vertex 3.33802 -0.300001 7.5
      vertex 3.71642 1.07153 7.5
      vertex 2.80857 0.425352 7.5
    endloop
  endfacet
  facet normal -0 0 1
    outer loop
      vertex 3.33802 -0.300001 7.5
      vertex 13 -1.5 7.5
      vertex 13 -0.300001 7.5
    endloop
  endfacet
  facet normal -0 0 1
    outer loop
      vertex 1.79561 -0.0133863 7.5
      vertex 3.33802 -0.300001 7.5
      vertex 2.80857 0.425352 7.5
    endloop
  endfacet
  facet normal -0 0 1
    outer loop
      vertex 0.723708 -0.229388 7.5
      vertex 3.33802 -0.300001 7.5
      vertex 1.79561 -0.0133863 7.5
    endloop
  endfacet
  facet normal 0 0 1
    outer loop
      vertex 0.723708 -0.229388 7.5
      vertex 13 -1.5 7.5
      vertex 3.33802 -0.300001 7.5
    endloop
  endfacet
  facet normal 0 0 1
    outer loop
      vertex -2.839 -0.300001 7.5
      vertex 0.723708 -0.229388 7.5
      vertex -0.359234 -0.217449 7.5
    endloop
  endfacet
  facet normal 0 0 1
    outer loop
      vertex -2.839 -0.300001 7.5
      vertex -1.40575 0.0175779 7.5
      vertex -2.37082 0.461124 7.5
    endloop
  endfacet
  facet normal 0 0 1
    outer loop
      vertex -2.839 -0.300001 7.5
      vertex -0.359234 -0.217449 7.5
      vertex -1.40575 0.0175779 7.5
    endloop
  endfacet
  facet normal 0 0 1
    outer loop
      vertex 0.723708 -0.229388 7.5
      vertex -2.839 -0.300001 7.5
      vertex 13 -1.5 7.5
    endloop
  endfacet
  facet normal 0 0 1
    outer loop
      vertex -13 -1.5 7.5
      vertex -2.839 -0.300001 7.5
      vertex -13 -0.300001 7.5
    endloop
  endfacet
  facet normal 0 0 1
    outer loop
      vertex -2.839 -0.300001 7.5
      vertex -13 -1.5 7.5
      vertex 13 -1.5 7.5
    endloop
  endfacet
  facet normal 0 0 1
    outer loop
      vertex -3.79244 0.400343 7.5
      vertex -2.37082 0.461124 7.5
      vertex -3.21394 1.08978 7.5
    endloop
  endfacet
  facet normal 0 0 1
    outer loop
      vertex -2.37082 0.461124 7.5
      vertex -3.79244 0.400343 7.5
      vertex -2.839 -0.300001 7.5
    endloop
  endfacet
  facet normal -0 0 1
    outer loop
      vertex -4.60986 1.31839 7.5
      vertex -3.21394 1.08978 7.5
      vertex -3.90064 1.87248 7.5
    endloop
  endfacet
  facet normal -0 0 1
    outer loop
      vertex -5.213 2.37745 7.5
      vertex -3.90064 1.87248 7.5
      vertex -4.40409 2.77199 7.5
    endloop
  endfacet
  facet normal 0 0 1
    outer loop
      vertex -3.21394 1.08978 7.5
      vertex -4.60986 1.31839 7.5
      vertex -3.79244 0.400343 7.5
    endloop
  endfacet
  facet normal -0 0 1
    outer loop
      vertex -5.57919 3.52894 7.5
      vertex -4.40409 2.77199 7.5
      vertex -4.70593 3.74668 7.5
    endloop
  endfacet
  facet normal -0 0 1
    outer loop
      vertex -5.69652 4.72106 7.5
      vertex -4.70593 3.74668 7.5
      vertex -4.79707 4.75248 7.5
    endloop
  endfacet
  facet normal 0 0 1
    outer loop
      vertex -4.67783 5.74483 7.5
      vertex -5.56416 5.90111 7.5
      vertex -4.79707 4.75248 7.5
    endloop
  endfacet
  facet normal 0 0 1
    outer loop
      vertex -3.90064 1.87248 7.5
      vertex -5.213 2.37745 7.5
      vertex -4.60986 1.31839 7.5
    endloop
  endfacet
  facet normal 0 0 1
    outer loop
      vertex -5.69652 4.72106 7.5
      vertex -4.79707 4.75248 7.5
      vertex -5.56416 5.90111 7.5
    endloop
  endfacet
  facet normal 0 0 1
    outer loop
      vertex -4.40409 2.77199 7.5
      vertex -5.57919 3.52894 7.5
      vertex -5.213 2.37745 7.5
    endloop
  endfacet
  facet normal 0 0 1
    outer loop
      vertex -4.70593 3.74668 7.5
      vertex -5.69652 4.72106 7.5
      vertex -5.57919 3.52894 7.5
    endloop
  endfacet
  facet normal -0.707107 0 0.707107
    outer loop
      vertex -15 -1.5 5.5
      vertex -13 -0.300001 7.5
      vertex -15 -0.300001 5.5
    endloop
  endfacet
  facet normal -0.707107 0 0.707107
    outer loop
      vertex -13 -0.300001 7.5
      vertex -15 -1.5 5.5
      vertex -13 -1.5 7.5
    endloop
  endfacet
  facet normal 0.707107 -0 0.707107
    outer loop
      vertex 13 -1.5 7.5
      vertex 15 -0.300001 5.5
      vertex 13 -0.300001 7.5
    endloop
  endfacet
  facet normal 0.707107 0 0.707107
    outer loop
      vertex 15 -0.300001 5.5
      vertex 13 -1.5 7.5
      vertex 15 -1.5 5.5
    endloop
  endfacet
  facet normal -0.707107 0 -0.707107
    outer loop
      vertex -13 -0.675001 -7.5
      vertex -15 -0.300001 -5.5
      vertex -13 -0.300001 -7.5
    endloop
  endfacet
  facet normal -0.707107 -0 -0.707107
    outer loop
      vertex -15 -0.300001 -5.5
      vertex -13 -0.675001 -7.5
      vertex -15 -0.675001 -5.5
    endloop
  endfacet
  facet normal -0.707107 0 -0.707107
    outer loop
      vertex -13 -1.5 -7.5
      vertex -15 -1.125 -5.5
      vertex -13 -1.125 -7.5
    endloop
  endfacet
  facet normal -0.707107 -0 -0.707107
    outer loop
      vertex -15 -1.125 -5.5
      vertex -13 -1.5 -7.5
      vertex -15 -1.5 -5.5
    endloop
  endfacet
  facet normal 0.707107 0 -0.707107
    outer loop
      vertex 15 -1.5 -5.5
      vertex 13 -1.125 -7.5
      vertex 15 -1.125 -5.5
    endloop
  endfacet
  facet normal 0.707107 0 -0.707107
    outer loop
      vertex 13 -1.125 -7.5
      vertex 15 -1.5 -5.5
      vertex 13 -1.5 -7.5
    endloop
  endfacet
  facet normal 0.707107 0 -0.707107
    outer loop
      vertex 15 -0.675001 -5.5
      vertex 13 -0.300001 -7.5
      vertex 15 -0.300001 -5.5
    endloop
  endfacet
  facet normal 0.707107 0 -0.707107
    outer loop
      vertex 13 -0.300001 -7.5
      vertex 15 -0.675001 -5.5
      vertex 13 -0.675001 -7.5
    endloop
  endfacet
  facet normal 0 -1 0
    outer loop
      vertex -13 -1.125 -7.5
      vertex -15 -1.125 -5.5
      vertex -15 -1.125 -7.5
    endloop
  endfacet
  facet normal 0 -1 -0
    outer loop
      vertex 15 -1.125 -5.5
      vertex 13 -1.125 -7.5
      vertex 15 -1.125 -7.5
    endloop
  endfacet
  facet normal 0 1 -0
    outer loop
      vertex 15 -0.675001 -7.5
      vertex 13 -0.675001 -7.5
      vertex 15 -0.675001 -5.5
    endloop
  endfacet
  facet normal 0 1 0
    outer loop
      vertex -15 -0.675001 -7.5
      vertex -15 -0.675001 -5.5
      vertex -13 -0.675001 -7.5
    endloop
  endfacet
  facet normal 0.961263 -0.275632 0
    outer loop
      vertex 1.19902 9.10147 7.5
      vertex 1.44709 9.96661 -7.5
      vertex 1.44709 9.96661 7.5
    endloop
  endfacet
  facet normal 0.961263 -0.275632 0
    outer loop
      vertex 1.44709 9.96661 -7.5
      vertex 1.19902 9.10147 7.5
      vertex 1.19902 9.10147 -7.5
    endloop
  endfacet
  facet normal 0.615644 0.788024 -0
    outer loop
      vertex -0.0255674 4.96093 0.99
      vertex -0.0255802 4.96094 7.5
      vertex -0.0255674 4.96093 7.5
    endloop
  endfacet
  facet normal 0.615644 0.788024 0
    outer loop
      vertex -0.0255802 4.96094 7.5
      vertex -0.0255674 4.96093 0.99
      vertex -0.0255802 4.96094 0.99
    endloop
  endfacet
  facet normal 0.848127 0.529793 0
    outer loop
      vertex 0 4.92 7.5
      vertex -0.0255674 4.96093 0.99
      vertex -0.0255674 4.96093 7.5
    endloop
  endfacet
  facet normal 0.848127 0.529793 0
    outer loop
      vertex -0.0255674 4.96093 0.99
      vertex 0 4.92 7.5
      vertex 0 4.92 0.99
    endloop
  endfacet
  facet normal -0 -0 -1
    outer loop
      vertex -0.0255674 4.96093 0.99
      vertex 0 4.92 0.99
      vertex -0.0255802 4.96094 0.99
    endloop
  endfacet
  facet normal 0 0 1
    outer loop
      vertex 0 4.92 7.5
      vertex -0.0255674 4.96093 7.5
      vertex -0.0255802 4.96094 7.5
    endloop
  endfacet
  facet normal 0.743806 0.668396 0
    outer loop
      vertex 5.20086 8.98336 7.5
      vertex 4.27453 10.0142 -7.5
      vertex 4.27453 10.0142 7.5
    endloop
  endfacet
  facet normal 0.743806 0.668396 0
    outer loop
      vertex 4.27453 10.0142 -7.5
      vertex 5.20086 8.98336 7.5
      vertex 5.20086 8.98336 -7.5
    endloop
  endfacet
  facet normal 0.588339 0.808614 -0
    outer loop
      vertex 4.27453 10.0142 -7.5
      vertex 3.14546 10.8357 7.5
      vertex 4.27453 10.0142 7.5
    endloop
  endfacet
  facet normal 0.588339 0.808614 0
    outer loop
      vertex 3.14546 10.8357 7.5
      vertex 4.27453 10.0142 -7.5
      vertex 3.14546 10.8357 -7.5
    endloop
  endfacet
  facet normal 0.407164 0.913355 -0
    outer loop
      vertex 3.14546 10.8357 -7.5
      vertex 1.86055 11.4085 7.5
      vertex 3.14546 10.8357 7.5
    endloop
  endfacet
  facet normal 0.407164 0.913355 0
    outer loop
      vertex 1.86055 11.4085 7.5
      vertex 3.14546 10.8357 -7.5
      vertex 1.86055 11.4085 -7.5
    endloop
  endfacet
  facet normal 0.208083 0.978111 -0
    outer loop
      vertex 1.86055 11.4085 -7.5
      vertex 0.474347 11.7034 7.5
      vertex 1.86055 11.4085 7.5
    endloop
  endfacet
  facet normal 0.208083 0.978111 0
    outer loop
      vertex 0.474347 11.7034 7.5
      vertex 1.86055 11.4085 -7.5
      vertex 0.474347 11.7034 -7.5
    endloop
  endfacet
  facet normal -7.00437e-05 1 0
    outer loop
      vertex 0.474347 11.7034 -7.5
      vertex -0.953333 11.7033 7.5
      vertex 0.474347 11.7034 7.5
    endloop
  endfacet
  facet normal -7.00437e-05 1 0
    outer loop
      vertex -0.953333 11.7033 7.5
      vertex 0.474347 11.7034 -7.5
      vertex -0.953333 11.7033 -7.5
    endloop
  endfacet
  facet normal -0.208189 0.978089 0
    outer loop
      vertex -0.953333 11.7033 -7.5
      vertex -2.35994 11.4039 7.5
      vertex -0.953333 11.7033 7.5
    endloop
  endfacet
  facet normal -0.208189 0.978089 0
    outer loop
      vertex -2.35994 11.4039 7.5
      vertex -0.953333 11.7033 -7.5
      vertex -2.35994 11.4039 -7.5
    endloop
  endfacet
  facet normal -0.939689 -0.34203 0
    outer loop
      vertex -2.05212 10.5582 -7.5
      vertex -2.35994 11.4039 7.5
      vertex -2.35994 11.4039 -7.5
    endloop
  endfacet
  facet normal -0.939689 -0.34203 0
    outer loop
      vertex -2.35994 11.4039 7.5
      vertex -2.05212 10.5582 -7.5
      vertex -2.05212 10.5582 7.5
    endloop
  endfacet
  facet normal 0.203107 -0.979157 0
    outer loop
      vertex -2.05212 10.5582 -7.5
      vertex -0.828093 10.8121 7.5
      vertex -2.05212 10.5582 7.5
    endloop
  endfacet
  facet normal 0.203107 -0.979157 0
    outer loop
      vertex -0.828093 10.8121 7.5
      vertex -2.05212 10.5582 -7.5
      vertex -0.828093 10.8121 -7.5
    endloop
  endfacet
  facet normal -0.00524335 -0.999986 0
    outer loop
      vertex -0.828093 10.8121 -7.5
      vertex 0.411556 10.8056 7.5
      vertex -0.828093 10.8121 7.5
    endloop
  endfacet
  facet normal -0.00524335 -0.999986 -0
    outer loop
      vertex 0.411556 10.8056 7.5
      vertex -0.828093 10.8121 -7.5
      vertex 0.411556 10.8056 -7.5
    endloop
  endfacet
  facet normal -0.213307 -0.976985 0
    outer loop
      vertex 0.411556 10.8056 -7.5
      vertex 1.61248 10.5434 7.5
      vertex 0.411556 10.8056 7.5
    endloop
  endfacet
  facet normal -0.213307 -0.976985 -0
    outer loop
      vertex 1.61248 10.5434 7.5
      vertex 0.411556 10.8056 -7.5
      vertex 1.61248 10.5434 -7.5
    endloop
  endfacet
  facet normal -0.412139 -0.911121 0
    outer loop
      vertex 1.61248 10.5434 -7.5
      vertex 2.72292 10.0411 7.5
      vertex 1.61248 10.5434 7.5
    endloop
  endfacet
  facet normal -0.412139 -0.911121 -0
    outer loop
      vertex 2.72292 10.0411 7.5
      vertex 1.61248 10.5434 -7.5
      vertex 2.72292 10.0411 -7.5
    endloop
  endfacet
  facet normal -0.592835 -0.805324 0
    outer loop
      vertex 2.72292 10.0411 -7.5
      vertex 3.69603 9.32475 7.5
      vertex 2.72292 10.0411 7.5
    endloop
  endfacet
  facet normal -0.592835 -0.805324 -0
    outer loop
      vertex 3.69603 9.32475 7.5
      vertex 2.72292 10.0411 -7.5
      vertex 3.69603 9.32475 -7.5
    endloop
  endfacet
  facet normal -0.747559 -0.664195 0
    outer loop
      vertex 4.49166 8.42926 -7.5
      vertex 3.69603 9.32475 7.5
      vertex 3.69603 9.32475 -7.5
    endloop
  endfacet
  facet normal -0.747559 -0.664195 0
    outer loop
      vertex 3.69603 9.32475 7.5
      vertex 4.49166 8.42926 -7.5
      vertex 4.49166 8.42926 7.5
    endloop
  endfacet
  facet normal -0.869499 -0.493935 0
    outer loop
      vertex 5.07818 7.39678 -7.5
      vertex 4.49166 8.42926 7.5
      vertex 4.49166 8.42926 -7.5
    endloop
  endfacet
  facet normal -0.869499 -0.493935 0
    outer loop
      vertex 4.49166 8.42926 7.5
      vertex 5.07818 7.39678 -7.5
      vertex 5.07818 7.39678 7.5
    endloop
  endfacet
  facet normal -0.953302 -0.302018 0
    outer loop
      vertex 5.43365 6.27476 -7.5
      vertex 5.07818 7.39678 7.5
      vertex 5.07818 7.39678 -7.5
    endloop
  endfacet
  facet normal -0.953302 -0.302018 0
    outer loop
      vertex 5.07818 7.39678 7.5
      vertex 5.43365 6.27476 -7.5
      vertex 5.43365 6.27476 7.5
    endloop
  endfacet
  facet normal -0.995301 -0.0968324 0
    outer loop
      vertex 5.54661 5.11369 -7.5
      vertex 5.43365 6.27476 7.5
      vertex 5.43365 6.27476 -7.5
    endloop
  endfacet
  facet normal -0.995301 -0.0968324 0
    outer loop
      vertex 5.43365 6.27476 7.5
      vertex 5.54661 5.11369 -7.5
      vertex 5.54661 5.11369 7.5
    endloop
  endfacet
  facet normal -0.993641 0.112593 0
    outer loop
      vertex 5.41644 3.96493 -7.5
      vertex 5.54661 5.11369 7.5
      vertex 5.54661 5.11369 -7.5
    endloop
  endfacet
  facet normal -0.993641 0.112593 0
    outer loop
      vertex 5.54661 5.11369 7.5
      vertex 5.41644 3.96493 -7.5
      vertex 5.41644 3.96493 7.5
    endloop
  endfacet
  facet normal -0.94839 0.317107 0
    outer loop
      vertex 5.05314 2.87839 -7.5
      vertex 5.41644 3.96493 7.5
      vertex 5.41644 3.96493 -7.5
    endloop
  endfacet
  facet normal -0.94839 0.317107 0
    outer loop
      vertex 5.41644 3.96493 7.5
      vertex 5.05314 2.87839 -7.5
      vertex 5.05314 2.87839 7.5
    endloop
  endfacet
  facet normal -0.861534 0.507699 0
    outer loop
      vertex 4.47679 1.90036 -7.5
      vertex 5.05314 2.87839 7.5
      vertex 5.05314 2.87839 -7.5
    endloop
  endfacet
  facet normal -0.861534 0.507699 0
    outer loop
      vertex 5.05314 2.87839 7.5
      vertex 4.47679 1.90036 -7.5
      vertex 4.47679 1.90036 7.5
    endloop
  endfacet
  facet normal -0.736884 0.676019 0
    outer loop
      vertex 3.71642 1.07153 -7.5
      vertex 4.47679 1.90036 7.5
      vertex 4.47679 1.90036 -7.5
    endloop
  endfacet
  facet normal -0.736884 0.676019 0
    outer loop
      vertex 4.47679 1.90036 7.5
      vertex 3.71642 1.07153 -7.5
      vertex 3.71642 1.07153 7.5
    endloop
  endfacet
  facet normal -0.579879 0.814703 0
    outer loop
      vertex 3.71642 1.07153 -7.5
      vertex 2.80857 0.425352 7.5
      vertex 3.71642 1.07153 7.5
    endloop
  endfacet
  facet normal -0.579879 0.814703 0
    outer loop
      vertex 2.80857 0.425352 7.5
      vertex 3.71642 1.07153 -7.5
      vertex 2.80857 0.425352 -7.5
    endloop
  endfacet
  facet normal -0.397446 0.917625 0
    outer loop
      vertex 2.80857 0.425352 -7.5
      vertex 1.79561 -0.0133863 7.5
      vertex 2.80857 0.425352 7.5
    endloop
  endfacet
  facet normal -0.397446 0.917625 0
    outer loop
      vertex 1.79561 -0.0133863 7.5
      vertex 2.80857 0.425352 -7.5
      vertex 1.79561 -0.0133863 -7.5
    endloop
  endfacet
  facet normal -0.197542 0.980294 0
    outer loop
      vertex 1.79561 -0.0133863 -7.5
      vertex 0.723708 -0.229388 7.5
      vertex 1.79561 -0.0133863 7.5
    endloop
  endfacet
  facet normal -0.197542 0.980294 0
    outer loop
      vertex 0.723708 -0.229388 7.5
      vertex 1.79561 -0.0133863 -7.5
      vertex 0.723708 -0.229388 -7.5
    endloop
  endfacet
  facet normal 0.0110239 0.999939 -0
    outer loop
      vertex 0.723708 -0.229388 -7.5
      vertex -0.359234 -0.217449 7.5
      vertex 0.723708 -0.229388 7.5
    endloop
  endfacet
  facet normal 0.0110239 0.999939 0
    outer loop
      vertex -0.359234 -0.217449 7.5
      vertex 0.723708 -0.229388 -7.5
      vertex -0.359234 -0.217449 -7.5
    endloop
  endfacet
  facet normal 0.219122 0.975697 -0
    outer loop
      vertex -0.359234 -0.217449 -7.5
      vertex -1.40575 0.0175779 7.5
      vertex -0.359234 -0.217449 7.5
    endloop
  endfacet
  facet normal 0.219122 0.975697 0
    outer loop
      vertex -1.40575 0.0175779 7.5
      vertex -0.359234 -0.217449 -7.5
      vertex -1.40575 0.0175779 -7.5
    endloop
  endfacet
  facet normal 0.417606 0.908628 -0
    outer loop
      vertex -1.40575 0.0175779 -7.5
      vertex -2.37082 0.461124 7.5
      vertex -1.40575 0.0175779 7.5
    endloop
  endfacet
  facet normal 0.417606 0.908628 0
    outer loop
      vertex -2.37082 0.461124 7.5
      vertex -1.40575 0.0175779 -7.5
      vertex -2.37082 0.461124 -7.5
    endloop
  endfacet
  facet normal 0.597756 0.801678 -0
    outer loop
      vertex -2.37082 0.461124 -7.5
      vertex -3.21394 1.08978 7.5
      vertex -2.37082 0.461124 7.5
    endloop
  endfacet
  facet normal 0.597756 0.801678 0
    outer loop
      vertex -3.21394 1.08978 7.5
      vertex -2.37082 0.461124 -7.5
      vertex -3.21394 1.08978 -7.5
    endloop
  endfacet
  facet normal 0.751701 0.659504 0
    outer loop
      vertex -3.21394 1.08978 7.5
      vertex -3.90064 1.87248 -7.5
      vertex -3.90064 1.87248 7.5
    endloop
  endfacet
  facet normal 0.751701 0.659504 0
    outer loop
      vertex -3.90064 1.87248 -7.5
      vertex -3.21394 1.08978 7.5
      vertex -3.21394 1.08978 -7.5
    endloop
  endfacet
  facet normal 0.87262 0.4884 0
    outer loop
      vertex -3.90064 1.87248 7.5
      vertex -4.40409 2.77199 -7.5
      vertex -4.40409 2.77199 7.5
    endloop
  endfacet
  facet normal 0.87262 0.4884 0
    outer loop
      vertex -4.40409 2.77199 -7.5
      vertex -3.90064 1.87248 7.5
      vertex -3.90064 1.87248 -7.5
    endloop
  endfacet
  facet normal 0.955244 0.295818 0
    outer loop
      vertex -4.40409 2.77199 7.5
      vertex -4.70593 3.74668 -7.5
      vertex -4.70593 3.74668 7.5
    endloop
  endfacet
  facet normal 0.955244 0.295818 0
    outer loop
      vertex -4.70593 3.74668 -7.5
      vertex -4.40409 2.77199 7.5
      vertex -4.40409 2.77199 -7.5
    endloop
  endfacet
  facet normal 0.99592 0.0902447 0
    outer loop
      vertex -4.70593 3.74668 7.5
      vertex -4.79707 4.75248 -7.5
      vertex -4.79707 4.75248 7.5
    endloop
  endfacet
  facet normal 0.99592 0.0902447 0
    outer loop
      vertex -4.79707 4.75248 -7.5
      vertex -4.70593 3.74668 7.5
      vertex -4.70593 3.74668 -7.5
    endloop
  endfacet
  facet normal 0.992858 -0.119301 0
    outer loop
      vertex -4.79707 4.75248 7.5
      vertex -4.67783 5.74483 -7.5
      vertex -4.67783 5.74483 7.5
    endloop
  endfacet
  facet normal 0.992858 -0.119301 0
    outer loop
      vertex -4.67783 5.74483 -7.5
      vertex -4.79707 4.75248 7.5
      vertex -4.79707 4.75248 -7.5
    endloop
  endfacet
  facet normal 0.946185 -0.323625 0
    outer loop
      vertex -4.67783 5.74483 7.5
      vertex -4.35775 6.68065 -7.5
      vertex -4.35775 6.68065 7.5
    endloop
  endfacet
  facet normal 0.946185 -0.323625 0
    outer loop
      vertex -4.35775 6.68065 -7.5
      vertex -4.67783 5.74483 7.5
      vertex -4.67783 5.74483 -7.5
    endloop
  endfacet
  facet normal 0.857954 -0.513726 0
    outer loop
      vertex -4.35775 6.68065 7.5
      vertex -3.85502 7.52024 -7.5
      vertex -3.85502 7.52024 7.5
    endloop
  endfacet
  facet normal 0.857954 -0.513726 0
    outer loop
      vertex -3.85502 7.52024 -7.5
      vertex -4.35775 6.68065 7.5
      vertex -4.35775 6.68065 -7.5
    endloop
  endfacet
  facet normal 0.732019 -0.681284 0
    outer loop
      vertex -3.85502 7.52024 7.5
      vertex -3.19542 8.22896 -7.5
      vertex -3.19542 8.22896 7.5
    endloop
  endfacet
  facet normal 0.732019 -0.681284 0
    outer loop
      vertex -3.19542 8.22896 -7.5
      vertex -3.85502 7.52024 7.5
      vertex -3.85502 7.52024 -7.5
    endloop
  endfacet
  facet normal 0.573911 -0.818918 0
    outer loop
      vertex -3.19542 8.22896 -7.5
      vertex -2.41112 8.77861 7.5
      vertex -3.19542 8.22896 7.5
    endloop
  endfacet
  facet normal 0.573911 -0.818918 0
    outer loop
      vertex -2.41112 8.77861 7.5
      vertex -3.19542 8.22896 -7.5
      vertex -2.41112 8.77861 -7.5
    endloop
  endfacet
  facet normal 0.390602 -0.92056 0
    outer loop
      vertex -2.41112 8.77861 -7.5
      vertex -1.53909 9.14862 7.5
      vertex -2.41112 8.77861 7.5
    endloop
  endfacet
  facet normal 0.390602 -0.92056 0
    outer loop
      vertex -1.53909 9.14862 7.5
      vertex -2.41112 8.77861 -7.5
      vertex -1.53909 9.14862 -7.5
    endloop
  endfacet
  facet normal 0.190074 -0.98177 0
    outer loop
      vertex -1.53909 9.14862 -7.5
      vertex -0.619324 9.32669 7.5
      vertex -1.53909 9.14862 7.5
    endloop
  endfacet
  facet normal 0.190074 -0.98177 0
    outer loop
      vertex -0.619324 9.32669 7.5
      vertex -1.53909 9.14862 -7.5
      vertex -0.619324 9.32669 -7.5
    endloop
  endfacet
  facet normal -0.0188039 -0.999823 0
    outer loop
      vertex -0.619324 9.32669 -7.5
      vertex 0.306918 9.30927 7.5
      vertex -0.619324 9.32669 7.5
    endloop
  endfacet
  facet normal -0.0188039 -0.999823 -0
    outer loop
      vertex 0.306918 9.30927 7.5
      vertex -0.619324 9.32669 -7.5
      vertex 0.306918 9.30927 -7.5
    endloop
  endfacet
  facet normal -0.22686 -0.973927 0
    outer loop
      vertex 0.306918 9.30927 -7.5
      vertex 1.19902 9.10147 7.5
      vertex 0.306918 9.30927 7.5
    endloop
  endfacet
  facet normal -0.22686 -0.973927 -0
    outer loop
      vertex 1.19902 9.10147 7.5
      vertex 0.306918 9.30927 -7.5
      vertex 1.19902 9.10147 -7.5
    endloop
  endfacet
  facet normal -0.848066 -0.52989 0
    outer loop
      vertex 0 4.92 0.99
      vertex -0.0255802 4.96094 7.5
      vertex -0.0255802 4.96094 0.99
    endloop
  endfacet
  facet normal -0.848066 -0.52989 0
    outer loop
      vertex -0.0255802 4.96094 7.5
      vertex 0 4.92 0.99
      vertex 0 4.92 7.5
    endloop
  endfacet
  facet normal 0.217856 0.975981 -0
    outer loop
      vertex 1.44709 9.96661 -7.5
      vertex 0.369709 10.2071 7.5
      vertex 1.44709 9.96661 7.5
    endloop
  endfacet
  facet normal 0.217856 0.975981 0
    outer loop
      vertex 0.369709 10.2071 7.5
      vertex 1.44709 9.96661 -7.5
      vertex 0.369709 10.2071 -7.5
    endloop
  endfacet
  facet normal 0.00969183 0.999953 -0
    outer loop
      vertex 0.369709 10.2071 -7.5
      vertex -0.744579 10.2179 7.5
      vertex 0.369709 10.2071 7.5
    endloop
  endfacet
  facet normal 0.00969183 0.999953 0
    outer loop
      vertex -0.744579 10.2179 7.5
      vertex 0.369709 10.2071 -7.5
      vertex -0.744579 10.2179 -7.5
    endloop
  endfacet
  facet normal -0.198769 0.980046 0
    outer loop
      vertex -0.744579 10.2179 -7.5
      vertex -1.84691 9.99433 7.5
      vertex -0.744579 10.2179 7.5
    endloop
  endfacet
  facet normal -0.198769 0.980046 0
    outer loop
      vertex -1.84691 9.99433 7.5
      vertex -0.744579 10.2179 -7.5
      vertex -1.84691 9.99433 -7.5
    endloop
  endfacet
  facet normal -0.398575 0.917136 0
    outer loop
      vertex -1.84691 9.99433 -7.5
      vertex -2.88806 9.54186 7.5
      vertex -1.84691 9.99433 7.5
    endloop
  endfacet
  facet normal -0.398575 0.917136 0
    outer loop
      vertex -2.88806 9.54186 7.5
      vertex -1.84691 9.99433 -7.5
      vertex -2.88806 9.54186 -7.5
    endloop
  endfacet
  facet normal -0.580887 0.813984 0
    outer loop
      vertex -2.88806 9.54186 -7.5
      vertex -3.82061 8.87636 7.5
      vertex -2.88806 9.54186 7.5
    endloop
  endfacet
  facet normal -0.580887 0.813984 0
    outer loop
      vertex -3.82061 8.87636 7.5
      vertex -2.88806 9.54186 -7.5
      vertex -3.82061 8.87636 -7.5
    endloop
  endfacet
  facet normal -0.737688 0.675142 0
    outer loop
      vertex -4.60115 8.02351 -7.5
      vertex -3.82061 8.87636 7.5
      vertex -3.82061 8.87636 -7.5
    endloop
  endfacet
  facet normal -0.737688 0.675142 0
    outer loop
      vertex -3.82061 8.87636 7.5
      vertex -4.60115 8.02351 -7.5
      vertex -4.60115 8.02351 7.5
    endloop
  endfacet
  facet normal -0.86213 0.506686 0
    outer loop
      vertex -5.19222 7.0178 -7.5
      vertex -4.60115 8.02351 7.5
      vertex -4.60115 8.02351 -7.5
    endloop
  endfacet
  facet normal -0.86213 0.506686 0
    outer loop
      vertex -4.60115 8.02351 7.5
      vertex -5.19222 7.0178 -7.5
      vertex -5.19222 7.0178 7.5
    endloop
  endfacet
  facet normal -0.948757 0.316006 0
    outer loop
      vertex -5.56416 5.90111 -7.5
      vertex -5.19222 7.0178 7.5
      vertex -5.19222 7.0178 -7.5
    endloop
  endfacet
  facet normal -0.948757 0.316006 0
    outer loop
      vertex -5.19222 7.0178 7.5
      vertex -5.56416 5.90111 -7.5
      vertex -5.56416 5.90111 7.5
    endloop
  endfacet
  facet normal -0.993768 0.111466 0
    outer loop
      vertex -5.69652 4.72106 -7.5
      vertex -5.56416 5.90111 7.5
      vertex -5.56416 5.90111 -7.5
    endloop
  endfacet
  facet normal -0.993768 0.111466 0
    outer loop
      vertex -5.56416 5.90111 7.5
      vertex -5.69652 4.72106 -7.5
      vertex -5.69652 4.72106 7.5
    endloop
  endfacet
  facet normal -0.995192 -0.097948 0
    outer loop
      vertex -5.57919 3.52894 -7.5
      vertex -5.69652 4.72106 7.5
      vertex -5.69652 4.72106 -7.5
    endloop
  endfacet
  facet normal -0.995192 -0.097948 0
    outer loop
      vertex -5.69652 4.72106 7.5
      vertex -5.57919 3.52894 -7.5
      vertex -5.57919 3.52894 7.5
    endloop
  endfacet
  facet normal -0.952972 -0.303058 0
    outer loop
      vertex -5.213 2.37745 -7.5
      vertex -5.57919 3.52894 7.5
      vertex -5.57919 3.52894 -7.5
    endloop
  endfacet
  facet normal -0.952972 -0.303058 0
    outer loop
      vertex -5.57919 3.52894 7.5
      vertex -5.213 2.37745 -7.5
      vertex -5.213 2.37745 7.5
    endloop
  endfacet
  facet normal -0.868962 -0.494878 0
    outer loop
      vertex -4.60986 1.31839 -7.5
      vertex -5.213 2.37745 7.5
      vertex -5.213 2.37745 -7.5
    endloop
  endfacet
  facet normal -0.868962 -0.494878 0
    outer loop
      vertex -5.213 2.37745 7.5
      vertex -4.60986 1.31839 -7.5
      vertex -4.60986 1.31839 7.5
    endloop
  endfacet
  facet normal -0.746852 -0.66499 0
    outer loop
      vertex -3.79244 0.400343 -7.5
      vertex -4.60986 1.31839 7.5
      vertex -4.60986 1.31839 -7.5
    endloop
  endfacet
  facet normal -0.746852 -0.66499 0
    outer loop
      vertex -4.60986 1.31839 7.5
      vertex -3.79244 0.400343 -7.5
      vertex -3.79244 0.400343 7.5
    endloop
  endfacet
  facet normal -0.591998 -0.805939 0
    outer loop
      vertex -3.79244 0.400343 -7.5
      vertex -2.839 -0.300001 7.5
      vertex -3.79244 0.400343 7.5
    endloop
  endfacet
  facet normal -0.591998 -0.805939 -0
    outer loop
      vertex -2.839 -0.300001 7.5
      vertex -3.79244 0.400343 -7.5
      vertex -2.839 -0.300001 -7.5
    endloop
  endfacet
  facet normal 0.585126 -0.810942 0
    outer loop
      vertex 3.33802 -0.300001 -7.5
      vertex 4.34161 0.424128 7.5
      vertex 3.33802 -0.300001 7.5
    endloop
  endfacet
  facet normal 0.585126 -0.810942 0
    outer loop
      vertex 4.34161 0.424128 7.5
      vertex 3.33802 -0.300001 -7.5
      vertex 4.34161 0.424128 -7.5
    endloop
  endfacet
  facet normal 0.741152 -0.671337 0
    outer loop
      vertex 4.34161 0.424128 7.5
      vertex 5.22292 1.39709 -7.5
      vertex 5.22292 1.39709 7.5
    endloop
  endfacet
  facet normal 0.741152 -0.671337 0
    outer loop
      vertex 5.22292 1.39709 -7.5
      vertex 4.34161 0.424128 7.5
      vertex 4.34161 0.424128 -7.5
    endloop
  endfacet
  facet normal 0.864678 -0.502327 0
    outer loop
      vertex 5.22292 1.39709 7.5
      vertex 5.88761 2.54125 -7.5
      vertex 5.88761 2.54125 7.5
    endloop
  endfacet
  facet normal 0.864678 -0.502327 0
    outer loop
      vertex 5.88761 2.54125 -7.5
      vertex 5.22292 1.39709 7.5
      vertex 5.22292 1.39709 -7.5
    endloop
  endfacet
  facet normal 0.950316 -0.311286 0
    outer loop
      vertex 5.88761 2.54125 7.5
      vertex 6.30276 3.80865 -7.5
      vertex 6.30276 3.80865 7.5
    endloop
  endfacet
  facet normal 0.950316 -0.311286 0
    outer loop
      vertex 6.30276 3.80865 -7.5
      vertex 5.88761 2.54125 7.5
      vertex 5.88761 2.54125 -7.5
    endloop
  endfacet
  facet normal 0.994301 -0.106612 0
    outer loop
      vertex 6.30276 3.80865 7.5
      vertex 6.44606 5.14511 -7.5
      vertex 6.44606 5.14511 7.5
    endloop
  endfacet
  facet normal 0.994301 -0.106612 0
    outer loop
      vertex 6.44606 5.14511 -7.5
      vertex 6.30276 3.80865 7.5
      vertex 6.30276 3.80865 -7.5
    endloop
  endfacet
  facet normal 0.99471 0.102727 0
    outer loop
      vertex 6.44606 5.14511 7.5
      vertex 6.30691 6.4925 -7.5
      vertex 6.30691 6.4925 7.5
    endloop
  endfacet
  facet normal 0.99471 0.102727 0
    outer loop
      vertex 6.30691 6.4925 -7.5
      vertex 6.44606 5.14511 7.5
      vertex 6.44606 5.14511 -7.5
    endloop
  endfacet
  facet normal 0.95153 0.307557 0
    outer loop
      vertex 6.30691 6.4925 7.5
      vertex 5.8871 7.79132 -7.5
      vertex 5.8871 7.79132 7.5
    endloop
  endfacet
  facet normal 0.95153 0.307557 0
    outer loop
      vertex 5.8871 7.79132 -7.5
      vertex 6.30691 6.4925 7.5
      vertex 6.30691 6.4925 -7.5
    endloop
  endfacet
  facet normal 0.86665 0.498917 0
    outer loop
      vertex 5.8871 7.79132 7.5
      vertex 5.20086 8.98336 -7.5
      vertex 5.20086 8.98336 7.5
    endloop
  endfacet
  facet normal 0.86665 0.498917 0
    outer loop
      vertex 5.20086 8.98336 -7.5
      vertex 5.8871 7.79132 7.5
      vertex 5.8871 7.79132 -7.5
    endloop
  endfacet
endsolid OpenSCAD_Model
