solid OpenSCAD_Model
  facet normal 1 -0 0
    outer loop
      vertex 7 0 1.5
      vertex 7 3.5 0
      vertex 7 3.5 1.5
    endloop
  endfacet
  facet normal 1 0 0
    outer loop
      vertex 7 3.5 0
      vertex 7 0 1.5
      vertex 7 0 0
    endloop
  endfacet
  facet normal -0 0 1
    outer loop
      vertex 6.61177 3.5 1.5
      vertex 7 0 1.5
      vertex 7 3.5 1.5
    endloop
  endfacet
  facet normal 0 0 1
    outer loop
      vertex 7 0 1.5
      vertex 6.61177 3.5 1.5
      vertex 6.61177 0 1.5
    endloop
  endfacet
  facet normal -0 0 1
    outer loop
      vertex 1.81177 3.5 1.5
      vertex 6.61177 0 1.5
      vertex 6.61177 3.5 1.5
    endloop
  endfacet
  facet normal 0 0 1
    outer loop
      vertex 6.61177 0 1.5
      vertex 1.81177 3.5 1.5
      vertex 1.81177 0 1.5
    endloop
  endfacet
  facet normal 0 0 -1
    outer loop
      vertex -5.72205e-07 0 0
      vertex 7 3.5 0
      vertex 7 0 0
    endloop
  endfacet
  facet normal -0 0 -1
    outer loop
      vertex 7 3.5 0
      vertex -5.72205e-07 0 0
      vertex -5.72205e-07 3.5 0
    endloop
  endfacet
  facet normal 0 1 -0
    outer loop
      vertex 7 3.5 0
      vertex 6.61177 3.5 1.5
      vertex 7 3.5 1.5
    endloop
  endfacet
  facet normal 0 1 0
    outer loop
      vertex 6.61177 3.5 1.5
      vertex 1.81177 3.5 1.2
      vertex 1.81177 3.5 1.5
    endloop
  endfacet
  facet normal 0 1 0
    outer loop
      vertex -5.72205e-07 3.5 0
      vertex 1.81177 3.5 1.2
      vertex 7 3.5 0
    endloop
  endfacet
  facet normal 0 1 0
    outer loop
      vertex 6.61177 3.5 1.5
      vertex 7 3.5 0
      vertex 1.81177 3.5 1.2
    endloop
  endfacet
  facet normal 0 1 0
    outer loop
      vertex 1.81177 3.5 1.2
      vertex -5.72205e-07 3.5 0
      vertex -0.388229 3.5 1.2
    endloop
  endfacet
  facet normal 0 1 -0
    outer loop
      vertex -0.388229 3.5 1.2
      vertex -7.31643 3.5 -2.5
      vertex -0.388229 3.5 1.5
    endloop
  endfacet
  facet normal 0 1 0
    outer loop
      vertex -5.72205e-07 3.5 0
      vertex -7.31643 3.5 -2.5
      vertex -0.388229 3.5 1.2
    endloop
  endfacet
  facet normal 0 1 -0
    outer loop
      vertex -6.9282 3.5 -4
      vertex -7.31643 3.5 -2.5
      vertex -5.72205e-07 3.5 0
    endloop
  endfacet
  facet normal 0 1 0
    outer loop
      vertex -7.31643 3.5 -2.5
      vertex -6.9282 3.5 -4
      vertex -7.6782 3.5 -2.70096
    endloop
  endfacet
  facet normal 0 1 0
    outer loop
      vertex -7.31986 3.5 -2.49407
      vertex -7.31643 3.5 -2.5
      vertex -7.6782 3.5 -2.70096
    endloop
  endfacet
  facet normal 0 -1 -0
    outer loop
      vertex -7.31986 0 -2.49407
      vertex -7.6782 0 -2.70096
      vertex -7.31643 0 -2.5
    endloop
  endfacet
  facet normal 0 -1 0
    outer loop
      vertex -0.388229 0 1.2
      vertex -5.72205e-07 0 0
      vertex 1.81177 0 1.2
    endloop
  endfacet
  facet normal 0 -1 0
    outer loop
      vertex -7.31643 0 -2.5
      vertex -0.388229 0 1.2
      vertex -0.388229 0 1.5
    endloop
  endfacet
  facet normal 0 -1 0
    outer loop
      vertex -7.31643 0 -2.5
      vertex -5.72205e-07 0 0
      vertex -0.388229 0 1.2
    endloop
  endfacet
  facet normal 0 -1 0
    outer loop
      vertex -6.9282 0 -4
      vertex -7.31643 0 -2.5
      vertex -7.6782 0 -2.70096
    endloop
  endfacet
  facet normal 0 -1 0
    outer loop
      vertex -7.31643 0 -2.5
      vertex -6.9282 0 -4
      vertex -5.72205e-07 0 0
    endloop
  endfacet
  facet normal 0 -1 0
    outer loop
      vertex 1.81177 0 1.2
      vertex 6.61177 0 1.5
      vertex 1.81177 0 1.5
    endloop
  endfacet
  facet normal 0 -1 0
    outer loop
      vertex 7 0 0
      vertex 6.61177 0 1.5
      vertex 1.81177 0 1.2
    endloop
  endfacet
  facet normal 0 -1 0
    outer loop
      vertex 7 0 0
      vertex 1.81177 0 1.2
      vertex -5.72205e-07 0 0
    endloop
  endfacet
  facet normal 0 -1 0
    outer loop
      vertex 6.61177 0 1.5
      vertex 7 0 0
      vertex 7 0 1.5
    endloop
  endfacet
  facet normal -0.500004 0 0.866023
    outer loop
      vertex -7.6782 3.5 -2.70096
      vertex -7.31986 0 -2.49407
      vertex -7.31986 3.5 -2.49407
    endloop
  endfacet
  facet normal -0.500004 0 0.866023
    outer loop
      vertex -7.31986 0 -2.49407
      vertex -7.6782 3.5 -2.70096
      vertex -7.6782 0 -2.70096
    endloop
  endfacet
  facet normal -0.866026 0 -0.499999
    outer loop
      vertex -6.9282 0 -4
      vertex -7.6782 3.5 -2.70096
      vertex -6.9282 3.5 -4
    endloop
  endfacet
  facet normal -0.866026 -0 -0.499999
    outer loop
      vertex -7.6782 3.5 -2.70096
      vertex -6.9282 0 -4
      vertex -7.6782 0 -2.70096
    endloop
  endfacet
  facet normal 0.5 0 -0.866025
    outer loop
      vertex -6.9282 0 -4
      vertex -5.72205e-07 3.5 0
      vertex -5.72205e-07 0 0
    endloop
  endfacet
  facet normal 0.5 0 -0.866025
    outer loop
      vertex -5.72205e-07 3.5 0
      vertex -6.9282 0 -4
      vertex -6.9282 3.5 -4
    endloop
  endfacet
  facet normal 0.865626 -0 0.500691
    outer loop
      vertex -7.31986 0 -2.49407
      vertex -7.31643 3.5 -2.5
      vertex -7.31986 3.5 -2.49407
    endloop
  endfacet
  facet normal 0.865626 0 0.500691
    outer loop
      vertex -7.31643 3.5 -2.5
      vertex -7.31986 0 -2.49407
      vertex -7.31643 0 -2.5
    endloop
  endfacet
  facet normal -0.5 0 0.866025
    outer loop
      vertex -7.31643 3.5 -2.5
      vertex -0.388229 0 1.5
      vertex -0.388229 3.5 1.5
    endloop
  endfacet
  facet normal -0.5 0 0.866025
    outer loop
      vertex -0.388229 0 1.5
      vertex -7.31643 3.5 -2.5
      vertex -7.31643 0 -2.5
    endloop
  endfacet
  facet normal -1 0 0
    outer loop
      vertex 1.81177 0 1.2
      vertex 1.81177 3.5 1.5
      vertex 1.81177 3.5 1.2
    endloop
  endfacet
  facet normal -1 -0 0
    outer loop
      vertex 1.81177 3.5 1.5
      vertex 1.81177 0 1.2
      vertex 1.81177 0 1.5
    endloop
  endfacet
  facet normal -0 0 1
    outer loop
      vertex -0.388229 3.5 1.2
      vertex 1.81177 0 1.2
      vertex 1.81177 3.5 1.2
    endloop
  endfacet
  facet normal 0 0 1
    outer loop
      vertex 1.81177 0 1.2
      vertex -0.388229 3.5 1.2
      vertex -0.388229 0 1.2
    endloop
  endfacet
  facet normal 1 -0 0
    outer loop
      vertex -0.388229 0 1.5
      vertex -0.388229 3.5 1.2
      vertex -0.388229 3.5 1.5
    endloop
  endfacet
  facet normal 1 0 0
    outer loop
      vertex -0.388229 3.5 1.2
      vertex -0.388229 0 1.5
      vertex -0.388229 0 1.2
    endloop
  endfacet
endsolid OpenSCAD_Model
