<?xml version="1.0" encoding="UTF-8"?>
<svg xmlns="http://www.w3.org/2000/svg" xmlns:xlink="http://www.w3.org/1999/xlink" width="46.4826pt" height="53.4622pt" viewBox="0 0 46.4826 53.4622" version="1.1">
<defs>
<clipPath id="clip1">
  <path d="M 0 0 L 46.484375 0 L 46.484375 53.460938 L 0 53.460938 Z M 0 0 "/>
</clipPath>
</defs>
<g id="surface1">
<g clip-path="url(#clip1)" clip-rule="nonzero">
<rect x="0" y="0" width="46.4826" height="53.4622" style="fill:rgb(0%,0%,0%);fill-opacity:0;stroke:none;"/>
</g>
<path style=" stroke:none;fill-rule:nonzero;fill:rgb(25.489807%,25.489807%,25.881958%);fill-opacity:1;" d="M 37.402344 29.726563 C 33.15625 19.050781 26.851563 15.835938 24.25 14.929688 C 24.257813 14.890625 24.265625 14.847656 24.273438 14.808594 C 24.386719 14.152344 24.453125 13.484375 24.453125 12.804688 C 24.449219 6.546875 19.351563 1.457031 13.082031 1.457031 C 7.058594 1.460938 2.210938 6.1875 1.488281 12.691406 L 1.476563 12.761719 C 0.171875 27.839844 10.039063 36.328125 14.972656 39.996094 C 17.769531 42.074219 19.089844 43.699219 17.570313 46.25 C 16.691406 47.726563 15.570313 49.832031 14.515625 50.054688 C 11.78125 50.636719 10.902344 52.519531 10.902344 52.519531 L 13.273438 52.519531 C 16.28125 52.519531 17.242188 52.324219 20.226563 47.179688 C 23.136719 42.167969 18.488281 39.292969 16.5 37.75 C 11.75 34.0625 2.707031 26.796875 3.894531 13.074219 L 3.90625 12.957031 C 4.410156 7.734375 8.269531 3.941406 13.09375 3.933594 C 17.988281 3.933594 21.96875 7.914063 21.976563 12.804688 C 21.976563 15.175781 21.054688 17.40625 19.382813 19.085938 C 17.707031 20.765625 15.476563 21.691406 13.09375 21.695313 C 12.234375 21.695313 11.488281 21.605469 10.8125 21.429688 C 8.464844 20.808594 7.269531 22.347656 7.257813 22.367188 L 7.160156 22.492188 L 7.296875 22.574219 C 8.882813 23.527344 11.101563 24.117188 13.105469 24.117188 C 16.179688 24.113281 19.03125 22.949219 21.136719 20.835938 C 22.175781 19.792969 22.984375 18.582031 23.546875 17.261719 C 25.671875 18.046875 31.144531 20.925781 35.003906 30.625 C 35.988281 33.101563 36.929688 35.441406 37.789063 37.574219 C 34.773438 37.496094 23.964844 37.328125 18.382813 28.71875 C 16.933594 26.480469 14.660156 26.988281 14.660156 26.988281 C 20.035156 40.382813 35.886719 39.984375 38.792969 40.0625 C 40.203125 43.554688 41.308594 46.285156 41.894531 47.828125 C 40.601563 47.8125 38.207031 47.34375 35.476563 45.003906 C 33.121094 42.988281 30.609375 41.644531 26.652344 41.644531 L 19.722656 52.519531 C 19.722656 52.519531 23 52.527344 24.289063 50.390625 L 28.089844 44.3125 C 29.941406 44.449219 31.890625 45.277344 33.898438 46.847656 C 37.609375 49.753906 39.886719 50.136719 41.980469 50.246094 C 44.121094 50.359375 45.269531 49.742188 45.269531 49.742188 C 45.269531 49.742188 41.585938 40.242188 37.402344 29.726563 M 9.011719 9.558594 C 7.808594 9.558594 6.832031 10.539063 6.832031 11.738281 C 6.832031 13.074219 8.042969 14.144531 9.410156 13.878906 C 9.925781 15.734375 11.03125 17.515625 12.386719 18.667969 L 13.039063 19.222656 L 13.691406 18.667969 C 15.039063 17.523438 16.136719 15.738281 16.644531 13.878906 C 16.785156 13.90625 16.925781 13.917969 17.066406 13.917969 C 18.265625 13.917969 19.246094 12.941406 19.246094 11.738281 C 19.246094 10.539063 18.265625 9.558594 17.066406 9.558594 C 15.863281 9.558594 14.882813 10.539063 14.882813 11.738281 L 14.886719 11.78125 C 14.851563 13.417969 14.113281 15.421875 13.039063 16.683594 C 11.964844 15.425781 11.226563 13.417969 11.191406 11.78125 L 11.191406 11.738281 C 11.191406 10.539063 10.214844 9.558594 9.011719 9.558594 "/>
</g>
</svg>
